<?xml version="1.0" encoding="utf-8"?>
<!-- Generator: Adobe Illustrator 24.0.0, SVG Export Plug-In . SVG Version: 6.00 Build 0)  -->
<svg version="1.1" id="real" xmlns="http://www.w3.org/2000/svg" xmlns:xlink="http://www.w3.org/1999/xlink" x="0px" y="0px"
	 viewBox="0 0 668.76 262.34" style="enable-background:new 0 0 668.76 262.34;" xml:space="preserve">
<style type="text/css">
	.st0{fill:#231F20;}
	.st1{fill:url(#SVGID_1_);}
	.st2{fill:url(#SVGID_2_);}
	.st3{fill:url(#SVGID_3_);}
	.st4{fill:url(#SVGID_4_);}
	.st5{fill:url(#SVGID_5_);}
	.st6{fill:url(#SVGID_6_);}
	.st7{fill:url(#SVGID_7_);}
	.st8{fill:#FFFFFF;}
	.st9{fill:url(#SVGID_8_);}
	.st10{clip-path:url(#SVGID_10_);fill:none;stroke:#BBBDBF;}
	.st11{clip-path:url(#SVGID_10_);fill:#BBBDBF;}
	.st12{clip-path:url(#SVGID_12_);fill:none;stroke:#BBBDBF;}
	.st13{clip-path:url(#SVGID_12_);fill:#BBBDBF;}
	.st14{clip-path:url(#SVGID_14_);fill:none;stroke:#BBBDBF;}
	.st15{clip-path:url(#SVGID_14_);fill:#BBBDBF;}
	.st16{font-family:'DIN-Regular';}
	.st17{font-size:16px;}
	.st18{font-size:15px;}
</style>
<g>
	<g>
		<g>
			<path class="st0" d="M528.62,123.24v1.31h-3.2v7.82h-1.31v-7.82h-3.2v-1.31H528.62z"/>
			<path class="st0" d="M531.38,125.98h-0.02v6.39h-1.32v-9.13h1.32l3.12,5.67l3.12-5.67h1.32v9.13h-1.32v-6.39h-0.02l-3.09,5.61
				L531.38,125.98z"/>
		</g>
	</g>
	<g>
		<path class="st0" d="M57.56,248.15c0.05,0.78,0.09,1.55,0.14,2.33c-1.43,0.09-2.86,0.17-4.29,0.26c0.19,3.09,0.38,6.17,0.56,9.26
			c-0.78,0.05-1.55,0.1-2.33,0.14c-0.19-3.09-0.38-6.17-0.57-9.26c-1.43,0.09-2.86,0.18-4.29,0.27c-0.05-0.78-0.1-1.55-0.15-2.33
			C50.28,248.59,53.92,248.37,57.56,248.15z"/>
		<path class="st0" d="M64.79,247.73c0.08,1.46,0.17,2.92,0.25,4.38c2.08-0.12,4.16-0.24,6.24-0.35c-0.08-1.46-0.16-2.92-0.24-4.38
			c0.78-0.04,1.56-0.09,2.34-0.13c0.21,3.86,0.43,7.73,0.64,11.59c-0.78,0.04-1.55,0.09-2.33,0.13c-0.09-1.63-0.18-3.25-0.27-4.88
			c-2.08,0.12-4.16,0.23-6.23,0.35c0.09,1.63,0.19,3.25,0.28,4.88c-0.78,0.04-1.55,0.09-2.33,0.13c-0.23-3.86-0.45-7.73-0.68-11.59
			C63.23,247.82,64.01,247.77,64.79,247.73z"/>
		<path class="st0" d="M90.15,246.36c0.04,0.78,0.08,1.55,0.12,2.33c-2.67,0.13-5.33,0.27-8,0.41c0.04,0.7,0.07,1.4,0.11,2.1
			c1.41-0.07,2.81-0.15,4.22-0.22c0.04,0.78,0.08,1.55,0.12,2.33c-1.41,0.07-2.81,0.15-4.22,0.22c0.04,0.83,0.09,1.67,0.13,2.51
			c2.75-0.14,5.5-0.29,8.25-0.42c0.04,0.78,0.08,1.55,0.12,2.33c-3.52,0.18-7.05,0.36-10.57,0.55c-0.21-3.86-0.41-7.73-0.62-11.59
			C83.26,246.71,86.7,246.53,90.15,246.36z"/>
		<path class="st0" d="M103.38,245.72c1,2.8,2,5.59,3,8.39c0.01,0,0.03,0,0.04,0c0.66-2.87,1.31-5.74,1.97-8.61
			c1-0.05,2.01-0.09,3.01-0.13c0.89,2.8,1.78,5.6,2.66,8.41c0.01,0,0.03,0,0.04,0c0.77-2.87,1.53-5.75,2.3-8.62
			c0.81-0.03,1.62-0.07,2.43-0.1c-1.05,3.92-2.09,7.83-3.12,11.75c-1.04,0.04-2.08,0.09-3.11,0.13c-0.86-2.8-1.73-5.61-2.6-8.41
			c-0.01,0-0.03,0-0.04,0c-0.62,2.87-1.23,5.74-1.84,8.61c-1.02,0.05-2.05,0.09-3.07,0.14c-1.37-3.81-2.73-7.62-4.11-11.43
			C101.76,245.8,102.57,245.76,103.38,245.72z"/>
		<path class="st0" d="M121.7,250.73c-0.13-3.25,2.31-6.26,6.9-6.44c4.61-0.18,7.26,2.62,7.38,5.89c0.12,3.25-2.35,6.25-6.9,6.43
			C124.54,256.78,121.84,253.97,121.7,250.73z M133.65,250.26c-0.08-2.02-2.05-3.76-4.95-3.65c-2.9,0.11-4.74,2.03-4.65,4.02
			c0.08,2.02,2.06,3.75,4.95,3.64C131.88,254.16,133.72,252.27,133.65,250.26z"/>
		<path class="st0" d="M141.4,244.17c0.78-0.03,1.56-0.05,2.34-0.08c2.22,2.54,4.43,5.08,6.64,7.62c0.01,0,0.03,0,0.04,0
			c-0.09-2.61-0.17-5.23-0.26-7.84c0.78-0.03,1.56-0.05,2.34-0.08c0.12,3.87,0.25,7.73,0.37,11.6c-0.78,0.02-1.55,0.05-2.33,0.08
			c-2.21-2.54-4.42-5.08-6.64-7.62c-0.01,0-0.03,0-0.04,0c0.09,2.61,0.18,5.23,0.27,7.84c-0.78,0.03-1.55,0.05-2.33,0.08
			C141.67,251.9,141.54,248.03,141.4,244.17z"/>
		<path class="st0" d="M165.14,243.41c2.68-0.08,5.93,1.14,6.04,5.46c0.1,3.83-2.24,6.04-5.71,6.14c-2.1,0.06-4.2,0.12-6.3,0.18
			c-0.12-3.87-0.23-7.73-0.35-11.6C160.93,243.53,163.04,243.47,165.14,243.41z M161.43,252.8c1.32-0.04,2.65-0.08,3.97-0.12
			c2.04-0.06,3.51-1.26,3.45-3.62c-0.07-2.73-1.82-3.38-3.64-3.33c-1.33,0.04-2.65,0.08-3.98,0.12
			C161.3,248.17,161.37,250.48,161.43,252.8z"/>
		<path class="st0" d="M183.81,242.94c2.16-0.05,4.22,0.71,4.28,3.33c0.05,2.22-1.44,3.06-2.53,3.48c1.02,1.56,2.03,3.12,3.05,4.68
			c-0.98,0.02-1.96,0.04-2.94,0.07c-1.01-1.55-2.03-3.11-3.05-4.66c-1.24,0.03-2.48,0.06-3.73,0.09c0.04,1.58,0.08,3.15,0.12,4.73
			c-0.78,0.02-1.55,0.04-2.33,0.06c-0.1-3.87-0.2-7.74-0.29-11.6C178.86,243.06,181.33,243,183.81,242.94z M178.78,245.4
			c0.02,0.74,0.04,1.48,0.05,2.22c1.69-0.04,3.38-0.08,5.08-0.12c0.7-0.02,1.86-0.13,1.84-1.16c-0.02-1.08-1.08-1.07-1.89-1.06
			C182.17,245.31,180.47,245.35,178.78,245.4z"/>
		<path class="st0" d="M192.46,248.57c-0.07-3.25,2.43-6.22,7.03-6.3c4.61-0.09,7.2,2.77,7.26,6.04c0.05,3.25-2.48,6.2-7.02,6.29
			C195.16,254.67,192.52,251.82,192.46,248.57z M204.4,248.34c-0.03-2.02-1.98-3.8-4.88-3.74c-2.9,0.05-4.78,1.93-4.73,3.92
			c0.04,2.02,1.98,3.79,4.88,3.74C202.56,252.2,204.44,250.36,204.4,248.34z"/>
		<path class="st0" d="M213.56,242.37c0.03,2.35,0.07,4.71,0.1,7.06c0.02,1.39,0.4,2.57,3.31,2.53c3.1-0.04,3.26-1.37,3.24-2.62
			c-0.03-2.35-0.06-4.71-0.09-7.06c0.78-0.01,1.56-0.02,2.34-0.03c0.03,2.35,0.06,4.71,0.08,7.06c0.03,2.44-1.11,4.92-5.57,4.98
			c-4.04,0.06-5.62-2.07-5.66-4.83c-0.04-2.35-0.07-4.71-0.11-7.06C212,242.4,212.78,242.39,213.56,242.37z"/>
		<path class="st0" d="M228.33,250.06c2.03,1.28,3.96,1.73,6.01,1.71c1.17-0.01,3.14-0.32,3.13-1.62c-0.01-0.94-1.04-1.18-1.76-1.2
			c-1.16-0.03-2.32-0.06-3.48-0.08c-2.85-0.04-4.26-1.68-4.28-3.48c-0.02-1.72,1.25-3.58,5.43-3.61c3.06-0.03,4.94,1.13,5.64,1.48
			c-0.35,0.69-0.69,1.38-1.04,2.07c-0.92-0.46-2.62-1.24-4.93-1.22c-1.23,0.01-2.76,0.29-2.75,1.32c0.01,0.9,1.29,1.11,2.08,1.1
			c1.01,0.03,2.02,0.06,3.03,0.09c2.67,0.05,4.39,1.18,4.41,3.62c0.01,2.08-1.61,3.82-5.44,3.85c-3.14,0.03-5.46-0.74-7.09-1.95
			C227.62,251.46,227.98,250.76,228.33,250.06z"/>
		<path class="st0" d="M259.84,242.02c2.27,0,4.21,0.98,4.21,3.67c0,2.6-1.8,3.74-4.2,3.74c-1.55,0-3.1,0-4.65,0.01
			c0,1.4,0.01,2.79,0.01,4.19c-0.78,0-1.55,0-2.33,0.01c-0.01-3.87-0.02-7.74-0.03-11.61C255.18,242.03,257.51,242.02,259.84,242.02
			z M255.2,247.11c1.55,0,3.1-0.01,4.65-0.01c0.9,0,1.86-0.11,1.86-1.41c0-1.23-1.04-1.34-1.87-1.34c-1.55,0-3.1,0-4.66,0.01
			C255.19,245.28,255.2,246.2,255.2,247.11z"/>
		<path class="st0" d="M267.54,247.83c0-3.25,2.57-6.16,7.16-6.15c4.62,0.02,7.14,2.92,7.12,6.19c-0.02,3.25-2.61,6.15-7.16,6.13
			C270.12,253.99,267.54,251.08,267.54,247.83z M279.49,247.86c0.01-2.02-1.89-3.84-4.79-3.85c-2.9-0.01-4.81,1.82-4.82,3.82
			c0,2.02,1.9,3.84,4.79,3.85C277.57,251.68,279.48,249.88,279.49,247.86z"/>
		<path class="st0" d="M286.91,242.1c0.85,2.84,1.7,5.69,2.54,8.53c0.01,0,0.03,0,0.04,0c0.81-2.83,1.62-5.66,2.43-8.5
			c1,0.01,2.01,0.02,3.01,0.03c0.74,2.85,1.48,5.69,2.21,8.54c0.01,0,0.03,0,0.04,0c0.92-2.83,1.84-5.66,2.76-8.49
			c0.81,0.01,1.62,0.02,2.43,0.03c-1.25,3.85-2.5,7.71-3.74,11.57c-1.04-0.01-2.08-0.02-3.12-0.03c-0.71-2.85-1.43-5.69-2.14-8.54
			c-0.01,0-0.03,0-0.04,0c-0.77,2.83-1.53,5.66-2.29,8.5c-1.02-0.01-2.05-0.02-3.07-0.02c-1.16-3.88-2.32-7.75-3.49-11.63
			C285.29,242.09,286.1,242.1,286.91,242.1z"/>
		<path class="st0" d="M316.13,242.43c-0.01,0.78-0.02,1.55-0.04,2.33c-2.67-0.04-5.34-0.08-8-0.11c-0.01,0.7-0.02,1.4-0.03,2.11
			c1.41,0.02,2.82,0.04,4.22,0.06c-0.01,0.78-0.02,1.55-0.03,2.33c-1.41-0.02-2.81-0.04-4.22-0.06c-0.01,0.84-0.02,1.67-0.03,2.51
			c2.75,0.04,5.5,0.08,8.26,0.12c-0.01,0.78-0.02,1.55-0.04,2.33c-3.53-0.05-7.05-0.1-10.58-0.15c0.05-3.87,0.1-7.74,0.14-11.61
			C309.23,242.33,312.68,242.37,316.13,242.43z"/>
		<path class="st0" d="M328.45,242.64c2.16,0.04,4.19,0.89,4.14,3.51c-0.05,2.22-1.56,2.99-2.67,3.38c0.95,1.6,1.9,3.21,2.85,4.81
			c-0.98-0.02-1.96-0.04-2.94-0.06c-0.95-1.6-1.9-3.19-2.85-4.78c-1.24-0.02-2.49-0.05-3.73-0.07c-0.03,1.58-0.06,3.15-0.08,4.73
			c-0.78-0.01-1.56-0.03-2.33-0.04c0.07-3.87,0.13-7.74,0.2-11.61C323.5,242.55,325.97,242.59,328.45,242.64z M323.32,244.88
			c-0.01,0.74-0.03,1.48-0.04,2.22c1.69,0.03,3.39,0.06,5.08,0.09c0.7,0.01,1.87-0.05,1.89-1.08c0.02-1.08-1.03-1.12-1.84-1.13
			C326.71,244.94,325.02,244.91,323.32,244.88z"/>
		<path class="st0" d="M344.83,248.79c0.08-3.25,2.71-6.1,7.3-5.98c4.61,0.12,7.08,3.08,6.98,6.35c-0.09,3.25-2.75,6.09-7.3,5.97
			C347.27,255.02,344.76,252.04,344.83,248.79z M356.78,249.1c0.06-2.02-1.8-3.88-4.71-3.96c-2.9-0.07-4.85,1.72-4.9,3.71
			c-0.05,2.02,1.81,3.88,4.7,3.95C354.77,252.88,356.72,251.12,356.78,249.1z"/>
		<path class="st0" d="M366.9,255.2c-0.78-0.02-1.55-0.05-2.33-0.07c0.11-3.87,0.23-7.74,0.34-11.6c3.45,0.1,6.9,0.21,10.35,0.32
			c-0.03,0.78-0.05,1.55-0.08,2.33c-2.67-0.09-5.33-0.17-8-0.25c-0.02,0.7-0.04,1.4-0.06,2.1c1.41,0.04,2.81,0.09,4.22,0.13
			c-0.02,0.78-0.05,1.55-0.07,2.33c-1.41-0.04-2.81-0.09-4.22-0.13C367,251.97,366.95,253.58,366.9,255.2z"/>
		<path class="st0" d="M388.22,244.29c0.78,0.03,1.56,0.06,2.34,0.09c2.03,2.69,4.06,5.38,6.08,8.08c0.01,0,0.03,0,0.04,0
			c0.1-2.61,0.2-5.22,0.3-7.84c0.78,0.03,1.56,0.06,2.34,0.09c-0.15,3.87-0.31,7.73-0.46,11.6c-0.78-0.03-1.55-0.06-2.33-0.09
			c-2.02-2.69-4.05-5.39-6.08-8.08c-0.01,0-0.03,0-0.04,0c-0.1,2.61-0.19,5.22-0.29,7.84c-0.78-0.03-1.55-0.06-2.33-0.09
			C387.94,252.03,388.08,248.16,388.22,244.29z"/>
		<path class="st0" d="M408.81,245.1c1.03,0.04,2.07,0.09,3.1,0.13c1.74,3.95,3.47,7.9,5.19,11.85c-0.88-0.04-1.76-0.08-2.64-0.12
			c-0.35-0.83-0.71-1.66-1.06-2.49c-2.26-0.1-4.53-0.2-6.79-0.29c-0.42,0.8-0.85,1.59-1.27,2.39c-0.88-0.04-1.76-0.07-2.64-0.11
			C404.72,252.68,406.76,248.89,408.81,245.1z M407.84,251.9c1.5,0.06,2.99,0.13,4.49,0.19c-0.68-1.55-1.36-3.11-2.05-4.66
			C409.47,248.92,408.66,250.41,407.84,251.9z"/>
		<path class="st0" d="M430.4,246.08c-0.04,0.78-0.08,1.55-0.11,2.33c-1.43-0.07-2.86-0.14-4.29-0.21
			c-0.15,3.09-0.29,6.18-0.44,9.27c-0.78-0.04-1.55-0.07-2.33-0.11c0.14-3.09,0.29-6.18,0.43-9.27c-1.43-0.07-2.86-0.13-4.29-0.2
			c0.04-0.78,0.07-1.55,0.11-2.33C423.12,245.73,426.76,245.91,430.4,246.08z"/>
		<path class="st0" d="M437.47,246.43c-0.12,2.35-0.24,4.7-0.36,7.05c-0.07,1.39,0.23,2.59,3.14,2.74c3.09,0.16,3.34-1.15,3.41-2.4
			c0.12-2.35,0.25-4.7,0.37-7.05c0.78,0.04,1.56,0.08,2.33,0.12c-0.13,2.35-0.25,4.7-0.38,7.05c-0.13,2.44-1.43,4.84-5.88,4.61
			c-4.03-0.21-5.47-2.43-5.33-5.19c0.12-2.35,0.24-4.7,0.35-7.05C435.92,246.36,436.69,246.39,437.47,246.43z"/>
		<path class="st0" d="M459.92,247.64c2.16,0.12,4.16,1.05,4,3.67c-0.13,2.21-1.68,2.93-2.8,3.27c0.89,1.64,1.78,3.28,2.66,4.91
			c-0.98-0.06-1.96-0.11-2.94-0.17c-0.89-1.63-1.77-3.26-2.66-4.89c-1.24-0.07-2.48-0.14-3.72-0.21c-0.09,1.57-0.18,3.15-0.26,4.72
			c-0.78-0.04-1.55-0.09-2.33-0.13c0.21-3.86,0.43-7.73,0.64-11.59C454.97,247.36,457.45,247.5,459.92,247.64z M454.71,249.69
			c-0.04,0.74-0.08,1.48-0.12,2.21c1.69,0.09,3.38,0.19,5.07,0.29c0.7,0.04,1.87,0.02,1.93-1.01c0.06-1.07-0.99-1.16-1.8-1.2
			C458.09,249.88,456.4,249.78,454.71,249.69z"/>
		<path class="st0" d="M479.21,248.8c-0.05,0.78-0.1,1.55-0.15,2.33c-2.66-0.17-5.33-0.33-7.99-0.49c-0.04,0.7-0.08,1.4-0.13,2.1
			c1.41,0.09,2.81,0.17,4.22,0.26c-0.05,0.78-0.1,1.55-0.14,2.33c-1.4-0.09-2.81-0.17-4.21-0.26c-0.05,0.83-0.1,1.67-0.15,2.5
			c2.75,0.17,5.5,0.34,8.24,0.51c-0.05,0.78-0.1,1.55-0.15,2.33c-3.52-0.22-7.05-0.44-10.57-0.65c0.23-3.86,0.46-7.72,0.69-11.59
			C472.32,248.38,475.76,248.59,479.21,248.8z"/>
	</g>
	<path class="st0" d="M112.19,198.15c1.3,9.69,4.05,18.97,7.17,25.87c-10.54,0.43-21.07,0.91-31.6,1.43
		c1.41-7.3-1.94-24.23-4.15-39.41c-7.22,13.98-14.44,28.11-21.66,42.44c-1.52,0.09-3.06,0.19-4.59,0.27
		c-7.15-13.61-14.31-27.37-21.47-41.31c-2.76,15.99-5.26,30.01-4.85,41.33c-9.51,0.62-19.02,1.3-28.52,2.01
		c3.22-7.14,5.96-17.25,7.79-28.42c4.68-26.71,9.37-53.17,14.06-79.39h8.56c9.81,21.01,19.63,41.63,29.44,61.94
		c10.5-21,20.99-41.62,31.49-61.94h7.76C105.15,148.15,108.67,173.2,112.19,198.15"/>
	<path class="st0" d="M243.49,191.13c1.1,19.17-14.36,31.18-35.72,31.67c-10.47,0.25-16.19-2.31-25.31-1.69
		c-0.55-9.76-1.1-19.54-1.65-29.31c5.88,6.26,17.85,10.14,25.91,9.98c5.23-0.11,7.58-2.77,7.57-6.38
		c-0.04-15.18-29.87-17.73-31.33-40.8c-1.19-18.92,11.28-30.86,34.04-31.02c7.49-0.06,13.58,2.59,20.77,0.95
		c0.5,9.22,1.01,18.44,1.52,27.66c-4.84-5.48-11.47-8.77-20.77-8.53c-4.95,0.12-7.58,2.66-7.38,6.26
		C211.73,160.29,241.93,163.8,243.49,191.13"/>
	<path class="st0" d="M338.66,124.12c0,8.41,0.01,16.82,0.01,25.23c-4.15-0.31-15.64-1.83-25.19-1.86
		c-1.06-0.01-2.13-0.01-3.19-0.01c-0.13,5.23-0.13,12.16-0.13,18.11c0.01,10.23,0.01,20.47,0.01,30.71c0,9.62,0.45,19.54,1.77,25.36
		c-10.27-0.17-20.54-0.29-30.8-0.35c1.31-6.71,1.76-15.65,1.76-25.24c-0.01-10.21-0.01-20.41-0.01-30.62
		c-0.01-5.92-0.14-12.84-0.43-18.05c-1.05,0-2.11,0-3.18-0.01c-9.41-0.02-20.76,1.42-24.92,1.71v-24.98
		c4.16,0.28,28.84,2.77,42.66,2.62C310.25,126.57,334.5,124.41,338.66,124.12"/>
	<path class="st0" d="M404.11,198.35c-0.02-15.86-0.02-31.71-0.04-47.58c0-10.04-0.43-17.75-1.64-26.05
		c9.9,0.36,19.79,0.72,29.69,1.09c9.41,0.01,25.03-0.38,30.47-1.63c0.01,8.44,0.01,16.89,0.01,25.33
		c-6.09-1.21-14.67-1.89-24.08-2.01c-2.44-0.04-4.88-0.07-7.33-0.09c0,6.75,0.01,13.5,0.01,20.26c1.62,0.03,3.23,0.07,4.84,0.11
		c9.55,0.22,16.94-0.21,22.55-1.13c0.01,8.42,0.01,16.84,0.01,25.27c-5.2-1.63-13-2.17-22.55-2.5c-1.61-0.06-3.23-0.11-4.85-0.16
		c0.01,3.34,0.01,6.7,0.01,10.05c0.01,10.02,0.21,19.65,1.64,26.46c-10.12-0.53-20.24-1.01-30.36-1.44
		C403.69,218.5,404.12,208.25,404.11,198.35"/>
	<path class="st0" d="M509.15,202.95c0.01,12.94,0.39,21.02,2.68,27.84c-10.76-0.81-21.54-1.57-32.32-2.28
		c2.69-7.77,2.68-12.92,2.67-26.97c-0.01-16.52-0.01-33.05-0.01-49.59c-0.01-10.31-1.51-22.4-2.7-27.14
		c10.79,0.01,21.58,0.02,32.36,0.04c-1.15,4.27-2.68,17.08-2.68,27.63V202.95z"/>
	<path class="st0" d="M382.7,197.71c0.01,12.1,0.39,19.63,2.7,25.93c-10.78-0.41-21.58-0.77-32.36-1.07
		c2.68-7.41,2.67-12.26,2.66-25.52c-0.01-15.58-0.02-31.16-0.02-46.76c-0.01-9.72-1.51-21.11-2.71-25.59
		c10.79,0,21.57,0.01,32.36,0.01c-1.14,3.99-2.67,15.97-2.67,25.82C382.67,166.26,382.68,181.99,382.7,197.71"/>
	<path class="st0" d="M162.11,196.97c-0.01,11.98,0.36,19.43,2.66,25.5c-10.79,0.29-21.57,0.64-32.37,1.03
		c2.7-7.66,2.7-12.53,2.7-25.88c0.01-15.71,0.03-31.42,0.04-47.12c0.01-9.8-1.48-21.27-2.67-25.79c10.78-0.01,21.57-0.01,32.36-0.02
		c-1.15,3.94-2.7,15.81-2.7,25.58C162.13,165.83,162.12,181.4,162.11,196.97"/>
	<g>
		<linearGradient id="SVGID_1_" gradientUnits="userSpaceOnUse" x1="-9.9213" y1="195.5064" x2="113.9681" y2="162.3103">
			<stop  offset="0" style="stop-color:#9E926D"/>
			<stop  offset="0.386" style="stop-color:#DDCDAA"/>
			<stop  offset="1" style="stop-color:#9E926D"/>
		</linearGradient>
		<path class="st1" d="M25.73,124.54c-4.67,26.09-9.32,52.36-13.83,78.09c-1.68,10.21-4.1,19.46-6.9,26.41
			c8.11-0.61,16.3-1.18,24.41-1.73c-0.16-10.79,2.07-23.71,4.64-38.55l1.08-6.29l2.19,4.27c6.8,13.23,13.86,26.82,20.99,40.39
			l2.62-0.15c6.87-13.64,14.02-27.64,21.25-41.65l2.29-4.45l0.72,4.93c0.47,3.22,0.98,6.51,1.5,9.78
			c1.76,11.19,3.43,21.82,2.9,28.21c9.07-0.45,18.27-0.87,27.4-1.25c-2.97-7.17-5.27-15.85-6.39-24.2
			c-3.46-24.49-6.92-49.1-10.38-73.81h-5.37c-10.9,21.09-21.05,41.07-31.05,61.06l-1.46,2.92l-1.42-2.95
			c-9.94-20.59-19.7-41.12-29.02-61.04H25.73z M0,232.53l1.07-2.37c3.11-6.91,5.84-16.86,7.68-28.04
			c4.58-26.17,9.32-52.88,14.06-79.41l0.23-1.28h10.93l0.43,0.91c8.99,19.24,18.41,39.07,28,58.97
			c9.65-19.29,19.51-38.64,30.04-59.02l0.44-0.86h10.13l0.19,1.35c3.52,25.17,7.04,50.22,10.57,75.16c1.2,8.9,3.77,18.18,7.05,25.45
			l0.93,2.08l-2.33,0.1c-10.52,0.42-21.14,0.91-31.58,1.43l-2.02,0.1l0.37-1.94c1.05-5.49-0.83-17.49-2.65-29.1
			c-0.26-1.64-0.52-3.29-0.77-4.92c-6.6,12.79-13.1,25.56-19.37,38.02l-0.41,0.81l-6.56,0.39l-0.48-0.91
			c-6.53-12.42-13-24.87-19.28-37.06c-2.42,14.05-4.38,26.26-4.02,36.31l0.06,1.5l-1.55,0.09c-9.46,0.64-19.05,1.32-28.51,2.03
			L0,232.53z"/>
		<linearGradient id="SVGID_2_" gradientUnits="userSpaceOnUse" x1="170.636" y1="184.2422" x2="250.0907" y2="162.9524">
			<stop  offset="0" style="stop-color:#9E926D"/>
			<stop  offset="0.386" style="stop-color:#DDCDAA"/>
			<stop  offset="1" style="stop-color:#9E926D"/>
		</linearGradient>
		<path class="st2" d="M185.35,219.45c3.54,0,6.59,0.42,9.81,0.87c3.74,0.51,7.63,1.04,12.58,0.93c11.49-0.27,21.19-3.95,27.3-10.38
			c4.93-5.18,7.3-11.97,6.86-19.66c-0.92-16.13-12.21-23.5-21.29-29.43c-5.8-3.78-10.79-7.05-11.06-11.77
			c-0.12-2.05,0.52-3.86,1.83-5.24c1.58-1.67,4.04-2.59,7.11-2.67c0.33-0.01,0.65-0.01,0.97-0.01c7.1,0,13.15,2.06,18.03,6.13
			l-1.2-21.84c-1.11,0.16-2.25,0.24-3.45,0.24c-2.62,0-5.18-0.37-7.66-0.74c-2.53-0.37-5.16-0.75-7.91-0.75h-0.25
			c-11.35,0.08-20.31,3.2-25.9,9.02c-4.81,5.01-7.08,12.05-6.56,20.35c0.75,11.88,9.35,17.89,17.67,23.7
			c7.02,4.9,13.64,9.53,13.66,17.2c0.02,4.85-3.4,7.81-9.13,7.92l-0.51,0.01c-7.06,0-17.04-2.88-23.62-7.83l1.35,23.98
			C184.43,219.47,184.89,219.45,185.35,219.45 M206.37,224.37c-4.54,0-8.16-0.49-11.65-0.97c-3.11-0.43-6.05-0.83-9.36-0.83
			c-0.93,0-1.84,0.03-2.78,0.1l-1.62,0.11l-1.99-35.25l3.02,3.22c5.5,5.85,16.86,9.48,24.25,9.48l0.45-0.01
			c2.74-0.05,6.01-0.94,6.01-4.81c-0.03-6.09-5.73-10.07-12.33-14.69c-8.51-5.94-18.14-12.68-18.99-26.03
			c-0.58-9.18,1.99-17.01,7.41-22.66c6.21-6.46,15.96-9.92,28.22-10.01l0.27-0.01c2.99,0,5.73,0.41,8.38,0.79
			c2.47,0.36,4.81,0.7,7.19,0.7c1.63,0,3.12-0.16,4.58-0.49l1.86-0.42l1.87,34.06l-3.06-3.46c-4.93-5.58-11.28-8.17-19.52-7.98
			c-2.18,0.06-3.86,0.63-4.84,1.67c-0.73,0.76-1.06,1.76-0.99,2.96c0.17,3.18,4.36,5.91,9.65,9.36c9.16,5.98,21.69,14.17,22.7,31.85
			c0.49,8.54-2.17,16.12-7.7,21.93c-6.7,7.05-17.21,11.09-29.58,11.38C207.32,224.36,206.84,224.37,206.37,224.37"/>
		<linearGradient id="SVGID_3_" gradientUnits="userSpaceOnUse" x1="260.3312" y1="179.01" x2="349.037" y2="155.2414">
			<stop  offset="0" style="stop-color:#9E926D"/>
			<stop  offset="0.386" style="stop-color:#DDCDAA"/>
			<stop  offset="1" style="stop-color:#9E926D"/>
		</linearGradient>
		<path class="st3" d="M283.04,219.76c8.95,0.07,18.01,0.17,26.96,0.31c-1.17-6.64-1.43-16.42-1.43-23.77l-0.02-30.72
			c0-5.72-0.01-12.84,0.14-18.15l0.04-1.52l4.76,0.01c7.17,0.03,15.39,0.88,20.83,1.44c1.02,0.11,1.94,0.21,2.76,0.28l-0.02-21.84
			c-0.69,0.05-1.51,0.12-2.45,0.19c-8.68,0.7-26.73,2.16-37.57,2.28c-11.18,0.12-29.57-1.48-38.23-2.24
			c-1.11-0.1-2.06-0.18-2.84-0.25v21.6c0.84-0.07,1.8-0.17,2.87-0.27c5.31-0.51,13.33-1.3,20.29-1.3l4.85,0.01l0.08,1.47
			c0.27,4.91,0.42,11.69,0.42,18.14l0.01,30.62C284.49,206.03,284.02,213.82,283.04,219.76 M313.94,223.24l-2.02-0.03
			c-10.21-0.16-20.58-0.29-30.79-0.36l-1.92-0.01l0.36-1.84c1.16-5.94,1.73-14.11,1.73-24.94l-0.01-30.62
			c0-5.77-0.13-11.81-0.34-16.51h-1.82c-6.81,0-14.73,0.77-19.97,1.28c-1.96,0.19-3.57,0.35-4.68,0.42l-1.71,0.12l0.01-28.32
			l1.7,0.12c0.82,0.05,2.44,0.2,4.62,0.38c8.61,0.76,26.88,2.37,37.91,2.23c10.73-0.12,28.7-1.57,37.34-2.27
			c1.96-0.15,3.43-0.27,4.21-0.33l1.71-0.12l0.02,28.58l-1.72-0.13c-1.08-0.08-2.66-0.24-4.57-0.44c-5.38-0.55-13.51-1.4-20.51-1.42
			l-1.62-0.01c-0.1,5.07-0.09,11.39-0.09,16.56l0.01,30.72c0,7.94,0.3,18.73,1.73,25.02L313.94,223.24z"/>
		<linearGradient id="SVGID_4_" gradientUnits="userSpaceOnUse" x1="389.0866" y1="182.9346" x2="474.3444" y2="160.0899">
			<stop  offset="0" style="stop-color:#9E926D"/>
			<stop  offset="0.386" style="stop-color:#DDCDAA"/>
			<stop  offset="1" style="stop-color:#9E926D"/>
		</linearGradient>
		<path class="st4" d="M404.39,222.86c8.82,0.38,17.73,0.81,26.54,1.25c-1.19-7.08-1.3-16.45-1.3-24.81l-0.01-11.66l6.5,0.22
			c8.72,0.3,15.73,0.77,20.89,2l-0.01-21.41c-4.53,0.61-9.95,0.93-16.17,0.93c-1.54,0-3.16-0.01-4.83-0.06l-6.4-0.15l-0.01-23.35
			l8.95,0.11c8.71,0.11,16.59,0.71,22.46,1.69l-0.01-21.58c-6.83,1.04-20.66,1.32-28.41,1.32h-0.47
			c-9.31-0.35-18.58-0.69-27.84-1.03c0.98,7.39,1.39,14.63,1.4,24.43l0.03,47.57C405.71,204.62,405.54,215.68,404.39,222.86
			 M434.85,227.43l-2.06-0.11c-10.07-0.52-20.29-1.01-30.35-1.44l-1.86-0.08l0.36-1.77c1.02-4.99,1.58-14.11,1.57-25.67l-0.04-47.57
			c0-10.45-0.47-17.93-1.62-25.83l-0.27-1.84l1.91,0.08c9.89,0.36,19.79,0.71,29.69,1.09h0.39c10.96,0,24.91-0.5,29.65-1.6
			l1.97-0.45l0.01,29.19l-1.92-0.38c-5.82-1.15-14.27-1.86-23.78-1.98l-5.71-0.07l0.01,17.16l3.29,0.07
			c1.65,0.05,3.24,0.06,4.75,0.06c6.92,0,12.8-0.39,17.5-1.16l1.86-0.31l0.02,29.24l-2.09-0.65c-4.95-1.55-12.42-2.09-22.12-2.42
			l-3.19-0.11v8.44c0.01,9,0.14,19.19,1.61,26.15L434.85,227.43z"/>
		<linearGradient id="SVGID_5_" gradientUnits="userSpaceOnUse" x1="465.5622" y1="185.9731" x2="526.3395" y2="169.6879">
			<stop  offset="0" style="stop-color:#9E926D"/>
			<stop  offset="0.386" style="stop-color:#DDCDAA"/>
			<stop  offset="1" style="stop-color:#9E926D"/>
		</linearGradient>
		<path class="st5" d="M481.66,227.09c9.29,0.62,18.69,1.28,27.99,1.98c-1.75-6.44-2.09-14.15-2.09-26.12l0-50.48
			c0-9.68,1.22-20.65,2.3-26.08l-28.4-0.03c1.08,5.48,2.31,16.02,2.31,25.59l0.02,49.74C483.79,214.6,483.8,220.11,481.66,227.09
			 M514.1,232.51l-2.38-0.18c-10.73-0.81-21.59-1.57-32.32-2.28l-2.07-0.13l0.66-1.91c2.6-7.49,2.6-12.62,2.58-26.32l-0.01-49.74
			c-0.01-10.47-1.57-22.48-2.64-26.79l-0.49-1.92l36.46,0.05l-0.52,1.95c-1.08,4-2.63,16.59-2.63,27.23v50.48
			c0,13.04,0.4,20.85,2.6,27.35L514.1,232.51z"/>
		<linearGradient id="SVGID_6_" gradientUnits="userSpaceOnUse" x1="339.5655" y1="182.1796" x2="398.9804" y2="166.2594">
			<stop  offset="0" style="stop-color:#9E926D"/>
			<stop  offset="0.386" style="stop-color:#DDCDAA"/>
			<stop  offset="1" style="stop-color:#9E926D"/>
		</linearGradient>
		<path class="st6" d="M355.22,221.08c9.24,0.27,18.63,0.58,27.96,0.92c-1.73-5.96-2.07-13.15-2.09-24.28l-0.03-47.18
			c-0.01-8.99,1.19-19.14,2.25-24.27l-28.35-0.02c1.08,5.21,2.3,15.08,2.31,24.04l0.02,46.88
			C357.31,209.27,357.31,214.48,355.22,221.08 M387.7,225.28l-2.37-0.09c-10.8-0.41-21.69-0.77-32.36-1.07l-2.19-0.06l0.74-2
			c2.58-7.15,2.58-11.97,2.58-24.87l-0.03-46.89c-0.01-9.86-1.57-21.16-2.65-25.21l-0.52-1.94l36.53,0.02l-0.57,1.96
			c-1.05,3.72-2.61,15.47-2.61,25.41l0.04,47.18c0.01,12.16,0.41,19.42,2.61,25.4L387.7,225.28z"/>
		<linearGradient id="SVGID_7_" gradientUnits="userSpaceOnUse" x1="118.4935" y1="181.6662" x2="178.3373" y2="165.6311">
			<stop  offset="0" style="stop-color:#9E926D"/>
			<stop  offset="0.386" style="stop-color:#DDCDAA"/>
			<stop  offset="1" style="stop-color:#9E926D"/>
		</linearGradient>
		<path class="st7" d="M134.47,126.26c1.07,5.27,2.28,15.23,2.27,24.24l-0.03,47.28c-0.01,12.12-0.01,17.35-2.09,24.09
			c9.32-0.33,18.7-0.63,27.96-0.9c-1.74-5.8-2.08-12.91-2.07-24l0.03-46.71c0.01-8.9,1.22-18.93,2.28-24.02L134.47,126.26z
			 M130.14,225.15l0.75-2.14c2.61-7.38,2.61-12.24,2.62-25.22l0.04-47.28c0.01-10.03-1.52-21.2-2.62-25.41l-0.51-1.93l36.53-0.01
			l-0.58,1.98c-1.07,3.67-2.63,15.29-2.64,25.14l-0.03,46.71c-0.01,12.04,0.38,19.21,2.57,24.96l0.77,2.03l-2.23,0.06
			c-10.7,0.29-21.58,0.64-32.35,1.03L130.14,225.15z"/>
	</g>
	<g>
		<path class="st8" d="M236.9,98.27c0.2-0.86,0.49-1.84,0.83-2.86l-0.04-0.05l0.52-1.29c0.51-1.34,1.12-2.72,1.8-4.07
			c0.28-0.57,0.53-1.04,0.77-1.43l2.27,1.21l-2.21-1.3c0.22-0.4,0.45-0.78,0.68-1.16c-0.66,0.03-1.32,0.05-1.97,0.05
			c-12.33-0.02-22.18-5.13-24.92-6.7l-0.14-0.08l-6.77-4.09l6.78-4.07c1.1-0.65,4.97-2.8,10.63-4.53c1.29-0.39,2.61-0.74,3.94-1.04
			l0.02-0.01l0.32-0.07c-4.84-4.42-9.08-9.82-12.63-16.08c-2.71-4.78-4.08-8.43-4.44-9.43l-2.51-7.36l7.65,1.06l0,0
			c0.96,0.12,4.9,0.81,10.18,2.6c7.78,2.68,14.59,6.41,20.26,11.09c0.53,0.44,1.06,0.9,1.58,1.37c-0.4-2.94-0.6-5.84-0.6-8.68
			c0.02-17.62,7.46-31.62,8.95-34.25L261.99,0l4.14,7.1l0.03,0.06c1.47,2.6,8.92,16.62,8.95,34.21c-0.01,2.87-0.22,5.77-0.62,8.69
			c0.53-0.47,1.06-0.93,1.59-1.38c5.66-4.68,12.47-8.41,20.26-11.09c5.22-1.78,9.27-2.49,10.17-2.61l7.66-1.06l-2.51,7.31l-0.01,0
			c-0.42,1.33-1.92,5.05-4.42,9.48c-3.58,6.28-7.82,11.68-12.63,16.07l0.1,0.02l0.01,0.02c7.64,1.69,13.13,4.66,14.7,5.57l6.84,4.11
			l-6.88,4.16l-0.04,0.02c-2.88,1.64-12.7,6.67-24.89,6.69c-0.65,0-1.31-0.02-1.97-0.05c0.21,0.35,0.42,0.71,0.63,1.07
			c0.46,0.77,0.81,1.44,1.07,2l0,0.01c1.73,3.48,2.56,6.39,2.91,7.83l0.03,0.09l0,0.04l1.78,7.97l-7.95-2.43l-0.04-0.02
			c-2.26-0.76-9.64-3.62-15.58-10.05c-1.2-1.32-2.31-2.75-3.33-4.26c-1.01,1.51-2.12,2.93-3.33,4.25c-6,6.49-13.45,9.34-15.59,10.06
			l-0.04,0.02l-7.92,2.44L236.9,98.27z"/>
		<linearGradient id="SVGID_8_" gradientUnits="userSpaceOnUse" x1="218.1292" y1="86.157" x2="308.4839" y2="33.9907">
			<stop  offset="0" style="stop-color:#9E926D"/>
			<stop  offset="0.386" style="stop-color:#DDCDAA"/>
			<stop  offset="1" style="stop-color:#9E926D"/>
		</linearGradient>
		<path class="st9" d="M308.16,78.62l3.11-1.88l-3.11-1.87c-0.13-0.07-6.5-3.94-15.6-5.64c-1.9,1.52-4.04,2.65-6.24,3.64
			c2.64,0.13,5.14,0.55,7.44,1.09c-0.73-0.04-1.48-0.06-2.24-0.02c-5.07,0.19-9.47,2.1-11.75,3.3c0.62,0.27,1.4,0.57,2.29,0.87
			c2.52,0.83,5.96,1.64,9.67,1.48c1.11-0.04,2.18-0.17,3.21-0.36c-3.13,0.82-6.72,1.43-10.5,1.43c-5.56,0.01-10.71-1.31-14.59-2.7
			c0.52-0.16,1.07-0.34,1.62-0.52c5.61-1.91,12.85-5.18,19.45-10.64c6.58-5.46,11.13-11.98,14.07-17.14
			c2.9-5.15,4.22-8.95,4.23-9.05l1.15-3.36l-3.53,0.49c-0.09,0.01-4.08,0.58-9.69,2.49c-5.61,1.93-12.86,5.18-19.45,10.64
			c-0.77,0.64-1.51,1.29-2.22,1.96c-0.46,1.32-1.87,5.08-1.87,5.08s2.04-1.67,3.41-2.6c1.36-0.93,4.92-3.11,4.92-3.11
			s-4.14,3.67-6.01,6.67c-1.88,3-4.28,7.05-4.85,9.52c0,0,4.3-0.69,11.2-4.99c6.72-4.19,12.61-10.11,12.61-10.11
			s-3.22,7.93-9.97,13.21c-7.32,5.74-13.42,7.38-16.69,7.85c-2.86,0.41-4.14,0.42-4.14,0.42s1.09-2.17,3.04-7.35
			c1.05-2.76,2.22-6.18,3.17-9.27c1.26-4.85,2.2-10.5,2.23-16.57c-0.03-18.32-8.56-32.85-8.66-33.03l-1.88-3.23l-1.88,3.23
			c-0.09,0.18-8.61,14.71-8.64,33.03c0,5.27,0.72,10.22,1.73,14.61c1,3.52,2.47,7.87,3.74,11.23c1.96,5.17,3.04,7.35,3.04,7.35
			s-1.27,0-4.14-0.42c-3.27-0.47-9.37-2.11-16.69-7.85c-6.75-5.29-9.97-13.21-9.97-13.21s5.89,5.92,12.61,10.11
			c6.9,4.31,11.2,4.99,11.2,4.99c-0.57-2.47-2.97-6.52-4.85-9.52c-1.88-3-6.01-6.67-6.01-6.67s3.56,2.18,4.92,3.11
			c1.36,0.93,3.41,2.6,3.41,2.6s-1.33-3.54-1.83-4.96c-0.76-0.71-1.53-1.41-2.35-2.08c-6.61-5.46-13.84-8.71-19.45-10.64
			c-5.61-1.91-9.58-2.49-9.7-2.49l-3.53-0.49l1.15,3.36c0.04,0.1,1.34,3.91,4.26,9.05c2.92,5.16,7.48,11.67,14.06,17.14
			c6.58,5.46,13.83,8.72,19.45,10.64c0.56,0.18,1.1,0.37,1.62,0.52c-3.87,1.39-9.01,2.71-14.58,2.7c-3.78,0-7.37-0.6-10.49-1.42
			c1.02,0.18,2.08,0.31,3.18,0.35c3.72,0.16,7.16-0.65,9.67-1.48c0.91-0.3,1.67-0.6,2.29-0.87c-2.28-1.21-6.68-3.11-11.72-3.3
			c-0.78-0.03-1.55-0.02-2.31,0.02c2.31-0.55,4.83-0.96,7.48-1.09c-2.2-1-4.33-2.12-6.23-3.64c-9.09,1.7-15.48,5.57-15.61,5.64
			l-3.12,1.87l3.12,1.88c0.17,0.08,10.53,6.39,23.73,6.41c8.14-0.01,15.21-2.42,19.47-4.29c-1.12,2.58-2.86,5.8-5.46,8.6
			c-2.69,2.93-5.88,5-8.4,6.31c1.1-2.61,2.88-5.97,5.58-8.9c0.26-0.28,0.53-0.55,0.8-0.81c-1.77,0.49-4.07,0.92-6.73,1.27
			c-4.12,5.94-5.37,11.77-5.42,11.94l-0.81,3.66l3.58-1.1c0.18-0.08,8.26-2.53,14.61-9.39c2.29-2.51,4-5.19,5.22-7.6
			c1.23,2.41,2.93,5.09,5.22,7.6c6.34,6.87,14.42,9.31,14.61,9.39l3.61,1.1l-0.82-3.66c-0.05-0.17-1.29-5.99-5.42-11.94
			c-2.66-0.35-4.95-0.77-6.73-1.27c0.28,0.27,0.53,0.54,0.79,0.81c2.71,2.93,4.49,6.29,5.59,8.9c-2.53-1.31-5.72-3.38-8.4-6.31
			c-2.61-2.81-4.36-6.03-5.47-8.6c4.25,1.87,11.32,4.28,19.47,4.29C297.64,85.01,307.99,78.7,308.16,78.62z M261.98,64.92
			c-2.05-4.54-5.32-13.36-5.3-23.32c0-6.2,1.26-11.94,2.7-16.5c-0.57,2.66-0.98,5.65-0.98,8.8c-0.01,7.34,2.2,13.82,3.59,17.17
			c0.38-0.89,0.81-2.01,1.23-3.31c1.19-3.56,2.36-8.48,2.36-13.86c0-3.12-0.4-6.08-0.96-8.71c1.44,4.54,2.68,10.25,2.67,16.41
			c0,7.3-1.74,13.99-3.49,18.82C263.17,62.19,262.54,63.72,261.98,64.92z"/>
	</g>
	<g>
		<defs>
			<rect id="SVGID_9_" x="314.25" y="63.34" width="276.57" height="9.82"/>
		</defs>
		<clipPath id="SVGID_10_">
			<use xlink:href="#SVGID_9_"  style="overflow:visible;"/>
		</clipPath>
		<line class="st10" x1="589.44" y1="68.25" x2="323.18" y2="68.25"/>
		<path class="st11" d="M315.63,68.25l9.7,3.53c0,0-2.14-3.53,0-7.06L315.63,68.25"/>
	</g>
	<g>
		<defs>
			<rect id="SVGID_11_" x="528.86" y="167.13" width="61.96" height="9.82"/>
		</defs>
		<clipPath id="SVGID_12_">
			<use xlink:href="#SVGID_11_"  style="overflow:visible;"/>
		</clipPath>
		<line class="st12" x1="589.44" y1="172.04" x2="537.8" y2="172.04"/>
		<polygon class="st13" points="530.24,172.04 539.94,175.57 537.8,172.04 539.94,168.52 		"/>
	</g>
	<g>
		<defs>
			<rect id="SVGID_13_" x="488.49" y="250.17" width="102.33" height="9.82"/>
		</defs>
		<clipPath id="SVGID_14_">
			<use xlink:href="#SVGID_13_"  style="overflow:visible;"/>
		</clipPath>
		<line class="st14" x1="589.44" y1="255.08" x2="497.42" y2="255.08"/>
		<path class="st15" d="M489.87,255.08l9.7,3.53c0,0-2.14-3.53,0-7.06L489.87,255.08"/>
	</g>
	<text transform="matrix(1 0 0 1 598.5231 71.9777)" class="st0 st16 st17">Signifier</text>
	<text transform="matrix(1 0 0 1 598.6771 177.7411)" class="st0 st16 st18">Wordmark</text>
	<text transform="matrix(1 0 0 1 598.6866 258.9548)" class="st0 st16 st18">Strapline</text>
</g>
</svg>
