<?xml version="1.0" encoding="utf-8"?>
<!-- Generator: Adobe Illustrator 24.0.0, SVG Export Plug-In . SVG Version: 6.00 Build 0)  -->
<svg version="1.1" id="Layer_1" xmlns="http://www.w3.org/2000/svg" xmlns:xlink="http://www.w3.org/1999/xlink" x="0px" y="0px"
	 viewBox="0 0 384.93 186" style="enable-background:new 0 0 384.93 186;" xml:space="preserve">
<style type="text/css">
	.st0{fill:#1D1D1B;}
	.st1{fill:url(#SVGID_1_);}
	.st2{fill:url(#SVGID_2_);}
	.st3{fill:url(#SVGID_3_);}
	.st4{fill:url(#SVGID_4_);}
	.st5{fill:url(#SVGID_5_);}
	.st6{fill:url(#SVGID_6_);}
	.st7{fill:url(#SVGID_7_);}
	.st8{fill:#FFFFFF;}
	.st9{fill:url(#SVGID_8_);}
</style>
<g>
	<g>
		<path class="st0" d="M377.58,88.03v0.94h-2.29v5.58h-0.94v-5.58h-2.29v-0.94H377.58z"/>
		<path class="st0" d="M379.55,89.99h-0.02v4.57h-0.94v-6.52h0.94l2.23,4.05l2.23-4.05h0.94v6.52h-0.94v-4.57h-0.02L381.76,94
			L379.55,89.99z"/>
	</g>
</g>
<g>
	<path class="st0" d="M41.11,177.25c0.03,0.55,0.07,1.11,0.1,1.66c-1.02,0.06-2.04,0.12-3.06,0.18c0.13,2.2,0.27,4.41,0.4,6.61
		c-0.55,0.03-1.11,0.07-1.66,0.1c-0.14-2.2-0.27-4.41-0.41-6.61c-1.02,0.06-2.04,0.13-3.06,0.19c-0.03-0.55-0.07-1.11-0.1-1.66
		C35.91,177.57,38.51,177.41,41.11,177.25z"/>
	<path class="st0" d="M46.28,176.95c0.06,1.04,0.12,2.09,0.18,3.13c1.49-0.09,2.97-0.17,4.46-0.25c-0.06-1.04-0.12-2.09-0.17-3.13
		c0.56-0.03,1.11-0.06,1.67-0.09c0.15,2.76,0.3,5.52,0.46,8.28c-0.55,0.03-1.11,0.06-1.66,0.09c-0.06-1.16-0.13-2.32-0.19-3.48
		c-1.48,0.08-2.97,0.17-4.45,0.25c0.07,1.16,0.13,2.32,0.2,3.48c-0.55,0.03-1.11,0.06-1.66,0.1c-0.16-2.76-0.32-5.52-0.48-8.28
		C45.17,177.01,45.72,176.98,46.28,176.95z"/>
	<path class="st0" d="M64.39,175.97c0.03,0.55,0.06,1.11,0.08,1.66c-1.9,0.1-3.81,0.19-5.71,0.29c0.03,0.5,0.05,1,0.08,1.5
		c1-0.05,2.01-0.1,3.01-0.16c0.03,0.55,0.06,1.11,0.09,1.66c-1,0.05-2.01,0.1-3.01,0.16c0.03,0.6,0.06,1.19,0.09,1.79
		c1.96-0.1,3.93-0.2,5.89-0.3c0.03,0.55,0.06,1.11,0.08,1.66c-2.52,0.13-5.03,0.26-7.55,0.39c-0.15-2.76-0.29-5.52-0.44-8.28
		C59.47,176.22,61.93,176.09,64.39,175.97z"/>
	<path class="st0" d="M73.84,175.51c0.71,2,1.43,3.99,2.14,5.99c0.01,0,0.02,0,0.03,0c0.47-2.05,0.94-4.1,1.41-6.15
		c0.72-0.03,1.43-0.06,2.15-0.1c0.64,2,1.27,4,1.9,6.01c0.01,0,0.02,0,0.03,0c0.55-2.05,1.1-4.11,1.65-6.16
		c0.58-0.02,1.16-0.05,1.74-0.07c-0.75,2.8-1.49,5.6-2.23,8.39c-0.74,0.03-1.48,0.06-2.22,0.1c-0.62-2-1.24-4-1.85-6.01
		c-0.01,0-0.02,0-0.03,0c-0.44,2.05-0.88,4.1-1.31,6.15c-0.73,0.03-1.46,0.07-2.19,0.1c-0.98-2.72-1.95-5.44-2.93-8.16
		C72.68,175.57,73.26,175.54,73.84,175.51z"/>
	<path class="st0" d="M86.93,179.09c-0.1-2.32,1.65-4.47,4.93-4.6c3.29-0.13,5.18,1.87,5.27,4.21c0.08,2.32-1.68,4.47-4.93,4.59
		C88.95,183.41,87.03,181.41,86.93,179.09z M95.46,178.76c-0.05-1.44-1.47-2.68-3.54-2.6c-2.07,0.08-3.38,1.45-3.32,2.87
		c0.06,1.44,1.47,2.68,3.54,2.6C94.2,181.54,95.52,180.19,95.46,178.76z"/>
	<path class="st0" d="M101,174.4c0.56-0.02,1.11-0.04,1.67-0.06c1.59,1.81,3.17,3.63,4.75,5.45c0.01,0,0.02,0,0.03,0
		c-0.06-1.87-0.12-3.73-0.18-5.6c0.56-0.02,1.11-0.04,1.67-0.05c0.09,2.76,0.18,5.52,0.27,8.29c-0.55,0.02-1.11,0.04-1.67,0.05
		c-1.58-1.82-3.16-3.63-4.74-5.45c-0.01,0-0.02,0-0.03,0c0.06,1.87,0.13,3.73,0.19,5.6c-0.55,0.02-1.11,0.04-1.67,0.06
		C101.2,179.93,101.1,177.17,101,174.4z"/>
	<path class="st0" d="M117.96,173.86c1.91-0.05,4.24,0.81,4.32,3.9c0.07,2.74-1.6,4.32-4.08,4.39c-1.5,0.04-3,0.09-4.5,0.13
		c-0.08-2.76-0.17-5.52-0.25-8.29C114.95,173.95,116.45,173.91,117.96,173.86z M115.31,180.57c0.95-0.03,1.89-0.06,2.84-0.08
		c1.46-0.04,2.51-0.9,2.46-2.58c-0.05-1.95-1.3-2.41-2.6-2.38c-0.95,0.03-1.9,0.05-2.84,0.08
		C115.21,177.26,115.26,178.92,115.31,180.57z"/>
	<path class="st0" d="M131.29,173.53c1.54-0.04,3.02,0.51,3.06,2.38c0.04,1.58-1.03,2.18-1.81,2.49c0.73,1.12,1.45,2.23,2.18,3.35
		c-0.7,0.02-1.4,0.03-2.1,0.05c-0.72-1.11-1.45-2.22-2.18-3.33c-0.89,0.02-1.77,0.04-2.66,0.06c0.03,1.13,0.06,2.25,0.08,3.38
		c-0.55,0.01-1.11,0.03-1.67,0.04c-0.07-2.76-0.14-5.53-0.21-8.29C127.75,173.62,129.52,173.57,131.29,173.53z M127.7,175.28
		c0.01,0.53,0.03,1.06,0.04,1.58c1.21-0.03,2.42-0.06,3.63-0.09c0.5-0.01,1.33-0.1,1.31-0.83c-0.02-0.77-0.77-0.77-1.35-0.75
		C130.12,175.22,128.91,175.25,127.7,175.28z"/>
	<path class="st0" d="M137.47,177.55c-0.05-2.32,1.74-4.44,5.02-4.5c3.3-0.06,5.14,1.98,5.18,4.31c0.04,2.32-1.77,4.43-5.02,4.49
		C139.4,181.91,137.52,179.87,137.47,177.55z M146,177.39c-0.02-1.44-1.41-2.71-3.48-2.67c-2.07,0.04-3.41,1.38-3.38,2.8
		c0.03,1.44,1.42,2.71,3.48,2.67C144.69,180.15,146.03,178.83,146,177.39z"/>
	<path class="st0" d="M152.55,173.12c0.02,1.68,0.05,3.36,0.07,5.04c0.01,0.99,0.28,1.84,2.37,1.81c2.21-0.03,2.33-0.98,2.32-1.87
		c-0.02-1.68-0.04-3.36-0.06-5.04c0.56-0.01,1.11-0.01,1.67-0.02c0.02,1.68,0.04,3.36,0.06,5.04c0.02,1.75-0.79,3.51-3.98,3.56
		c-2.88,0.04-4.01-1.48-4.04-3.45c-0.03-1.68-0.05-3.36-0.08-5.04C151.43,173.14,151.99,173.13,152.55,173.12z"/>
	<path class="st0" d="M163.09,178.61c1.45,0.91,2.83,1.24,4.29,1.22c0.83-0.01,2.24-0.23,2.23-1.15c-0.01-0.67-0.74-0.84-1.26-0.85
		c-0.83-0.02-1.66-0.04-2.49-0.06c-2.04-0.03-3.04-1.2-3.06-2.48c-0.01-1.23,0.89-2.56,3.88-2.58c2.18-0.02,3.53,0.8,4.03,1.06
		c-0.25,0.49-0.5,0.98-0.74,1.48c-0.66-0.33-1.87-0.88-3.52-0.87c-0.88,0.01-1.97,0.21-1.97,0.95c0.01,0.64,0.92,0.79,1.48,0.79
		c0.72,0.02,1.44,0.04,2.17,0.06c1.91,0.03,3.14,0.84,3.15,2.59c0.01,1.49-1.15,2.73-3.89,2.75c-2.24,0.02-3.9-0.53-5.06-1.39
		C162.59,179.61,162.84,179.11,163.09,178.61z"/>
	<path class="st0" d="M185.6,172.87c1.62,0,3.01,0.7,3,2.62c0,1.86-1.28,2.67-3,2.67c-1.11,0-2.21,0-3.32,0.01c0,1,0,2,0.01,2.99
		c-0.56,0-1.11,0-1.67,0c-0.01-2.76-0.02-5.53-0.02-8.29C182.27,172.88,183.94,172.87,185.6,172.87z M182.28,176.51
		c1.11,0,2.21,0,3.32-0.01c0.64,0,1.33-0.08,1.33-1.01c0-0.88-0.74-0.96-1.33-0.96c-1.11,0-2.22,0-3.33,0.01
		C182.28,175.2,182.28,175.85,182.28,176.51z"/>
	<path class="st0" d="M191.1,177.02c0-2.32,1.84-4.4,5.12-4.39c3.3,0.01,5.1,2.09,5.09,4.42c-0.01,2.32-1.87,4.39-5.12,4.38
		C192.94,181.42,191.1,179.34,191.1,177.02z M199.64,177.04c0.01-1.44-1.35-2.74-3.42-2.75c-2.07-0.01-3.44,1.3-3.44,2.73
		c0,1.44,1.36,2.74,3.42,2.75C198.26,179.77,199.63,178.48,199.64,177.04z"/>
	<path class="st0" d="M204.94,172.93c0.61,2.03,1.21,4.06,1.82,6.1c0.01,0,0.02,0,0.03,0c0.58-2.02,1.15-4.05,1.73-6.07
		c0.72,0.01,1.44,0.01,2.15,0.02c0.53,2.03,1.05,4.07,1.58,6.1c0.01,0,0.02,0,0.03,0c0.66-2.02,1.31-4.04,1.97-6.06
		c0.58,0.01,1.16,0.01,1.74,0.02c-0.89,2.75-1.79,5.51-2.67,8.26c-0.74-0.01-1.48-0.01-2.23-0.02c-0.51-2.03-1.02-4.06-1.53-6.1
		c-0.01,0-0.02,0-0.03,0c-0.55,2.02-1.09,4.05-1.64,6.07c-0.73-0.01-1.46-0.01-2.2-0.02c-0.83-2.77-1.66-5.54-2.49-8.31
		C203.78,172.92,204.36,172.93,204.94,172.93z"/>
	<path class="st0" d="M225.81,173.16c-0.01,0.55-0.02,1.11-0.03,1.66c-1.91-0.03-3.81-0.06-5.72-0.08c-0.01,0.5-0.01,1-0.02,1.5
		c1.01,0.01,2.01,0.03,3.02,0.04c-0.01,0.55-0.02,1.11-0.02,1.66c-1-0.01-2.01-0.03-3.01-0.04c-0.01,0.6-0.02,1.19-0.02,1.79
		c1.97,0.03,3.93,0.05,5.9,0.08c-0.01,0.55-0.02,1.11-0.03,1.66c-2.52-0.04-5.04-0.07-7.56-0.11c0.03-2.76,0.07-5.53,0.1-8.29
		C220.88,173.09,223.34,173.12,225.81,173.16z"/>
	<path class="st0" d="M234.61,173.31c1.54,0.03,2.99,0.63,2.95,2.51c-0.03,1.58-1.12,2.14-1.91,2.41c0.68,1.14,1.36,2.29,2.03,3.43
		c-0.7-0.01-1.4-0.03-2.1-0.04c-0.68-1.14-1.35-2.28-2.03-3.42c-0.89-0.02-1.78-0.03-2.66-0.05c-0.02,1.13-0.04,2.25-0.06,3.38
		c-0.56-0.01-1.11-0.02-1.67-0.03c0.05-2.76,0.09-5.53,0.14-8.29C231.07,173.25,232.84,173.28,234.61,173.31z M230.94,174.91
		c-0.01,0.53-0.02,1.06-0.03,1.58c1.21,0.02,2.42,0.04,3.63,0.07c0.5,0.01,1.33-0.04,1.35-0.77c0.02-0.77-0.74-0.8-1.32-0.81
		C233.36,174.96,232.15,174.93,230.94,174.91z"/>
	<path class="st0" d="M246.31,177.71c0.05-2.32,1.93-4.36,5.21-4.27c3.3,0.09,5.05,2.2,4.99,4.54c-0.06,2.32-1.97,4.35-5.21,4.26
		C248.05,182.15,246.25,180.03,246.31,177.71z M254.84,177.93c0.04-1.44-1.29-2.77-3.36-2.83c-2.07-0.05-3.47,1.23-3.5,2.65
		c-0.04,1.44,1.29,2.77,3.36,2.82C253.41,180.63,254.8,179.37,254.84,177.93z"/>
	<path class="st0" d="M262.07,182.28c-0.55-0.02-1.11-0.03-1.67-0.05c0.08-2.76,0.16-5.53,0.24-8.29c2.46,0.07,4.93,0.15,7.39,0.23
		c-0.02,0.55-0.04,1.11-0.05,1.66c-1.9-0.06-3.81-0.12-5.71-0.18c-0.01,0.5-0.03,1-0.05,1.5c1.01,0.03,2.01,0.06,3.02,0.09
		c-0.02,0.55-0.03,1.11-0.05,1.66c-1-0.03-2.01-0.06-3.01-0.09C262.14,179.98,262.11,181.13,262.07,182.28z"/>
	<path class="st0" d="M277.3,174.49c0.56,0.02,1.11,0.04,1.67,0.06c1.45,1.92,2.9,3.85,4.34,5.77c0.01,0,0.02,0,0.03,0
		c0.07-1.87,0.15-3.73,0.22-5.6c0.56,0.02,1.11,0.04,1.67,0.07c-0.11,2.76-0.22,5.52-0.33,8.28c-0.56-0.02-1.11-0.04-1.66-0.07
		c-1.44-1.92-2.89-3.85-4.34-5.77c-0.01,0-0.02,0-0.03,0c-0.07,1.87-0.14,3.73-0.21,5.6c-0.56-0.02-1.11-0.04-1.67-0.06
		C277.1,180.02,277.2,177.26,277.3,174.49z"/>
	<path class="st0" d="M292,175.07c0.74,0.03,1.48,0.06,2.21,0.09c1.24,2.82,2.48,5.64,3.71,8.46c-0.63-0.03-1.26-0.06-1.89-0.08
		c-0.25-0.59-0.5-1.19-0.76-1.78c-1.62-0.07-3.24-0.14-4.85-0.21c-0.3,0.57-0.6,1.14-0.91,1.71c-0.63-0.03-1.26-0.05-1.89-0.08
		C289.09,180.48,290.54,177.78,292,175.07z M291.32,179.93c1.07,0.04,2.14,0.09,3.2,0.14c-0.49-1.11-0.97-2.22-1.46-3.33
		C292.48,177.8,291.9,178.86,291.32,179.93z"/>
	<path class="st0" d="M307.43,175.77c-0.03,0.55-0.05,1.11-0.08,1.66c-1.02-0.05-2.04-0.1-3.07-0.15c-0.1,2.21-0.21,4.41-0.31,6.62
		c-0.55-0.03-1.11-0.05-1.66-0.08c0.1-2.21,0.21-4.41,0.31-6.62c-1.02-0.05-2.04-0.09-3.06-0.14c0.03-0.55,0.05-1.11,0.08-1.66
		C302.23,175.52,304.83,175.65,307.43,175.77z"/>
	<path class="st0" d="M312.48,176.02c-0.08,1.68-0.17,3.36-0.25,5.04c-0.05,0.99,0.16,1.85,2.24,1.96c2.21,0.11,2.39-0.82,2.44-1.72
		c0.09-1.68,0.18-3.36,0.26-5.03c0.56,0.03,1.11,0.06,1.67,0.09c-0.09,1.68-0.18,3.36-0.27,5.03c-0.09,1.74-1.02,3.46-4.2,3.29
		c-2.88-0.15-3.91-1.74-3.81-3.7c0.08-1.68,0.17-3.36,0.25-5.04C311.37,175.97,311.92,176,312.48,176.02z"/>
	<path class="st0" d="M328.51,176.89c1.54,0.09,2.97,0.75,2.86,2.62c-0.09,1.58-1.2,2.09-2,2.34c0.63,1.17,1.27,2.34,1.9,3.51
		c-0.7-0.04-1.4-0.08-2.1-0.12c-0.63-1.16-1.27-2.33-1.9-3.49c-0.89-0.05-1.77-0.1-2.66-0.15c-0.06,1.12-0.13,2.25-0.19,3.37
		c-0.55-0.03-1.11-0.06-1.66-0.09c0.15-2.76,0.3-5.52,0.46-8.28C324.98,176.69,326.75,176.79,328.51,176.89z M324.79,178.35
		c-0.03,0.53-0.06,1.05-0.09,1.58c1.21,0.07,2.42,0.14,3.62,0.2c0.5,0.03,1.33,0.01,1.38-0.72c0.04-0.77-0.71-0.83-1.29-0.86
		C327.21,178.48,326,178.41,324.79,178.35z"/>
	<path class="st0" d="M342.29,177.72c-0.03,0.55-0.07,1.11-0.1,1.66c-1.9-0.12-3.81-0.24-5.71-0.35c-0.03,0.5-0.06,1-0.09,1.5
		c1,0.06,2.01,0.12,3.01,0.18c-0.03,0.55-0.07,1.11-0.1,1.66c-1-0.06-2.01-0.12-3.01-0.18c-0.04,0.6-0.07,1.19-0.11,1.79
		c1.96,0.12,3.93,0.24,5.89,0.36c-0.03,0.55-0.07,1.11-0.1,1.66c-2.52-0.16-5.03-0.31-7.55-0.46c0.16-2.76,0.33-5.52,0.5-8.28
		C337.37,177.41,339.83,177.56,342.29,177.72z"/>
</g>
<path class="st0" d="M80.14,141.53c0.93,6.92,2.9,13.55,5.12,18.48c-7.53,0.31-15.05,0.65-22.57,1.02c1-5.22-1.39-17.31-2.96-28.15
	c-5.16,9.98-10.32,20.08-15.47,30.31c-1.09,0.07-2.19,0.13-3.28,0.19c-5.11-9.72-10.22-19.55-15.34-29.51
	c-1.97,11.42-3.76,21.44-3.46,29.52c-6.79,0.45-13.58,0.93-20.37,1.44c2.3-5.1,4.26-12.32,5.56-20.3
	c3.34-19.08,6.69-37.98,10.04-56.7h6.11c7.01,15.01,14.02,29.74,21.03,44.24c7.5-15,14.99-29.73,22.49-44.24h5.54
	C75.1,105.82,77.62,123.72,80.14,141.53"/>
<path class="st0" d="M173.92,136.52c0.78,13.69-10.25,22.27-25.51,22.62c-7.48,0.18-11.56-1.65-18.08-1.21
	c-0.4-6.97-0.79-13.96-1.18-20.94c4.2,4.47,12.75,7.24,18.51,7.13c3.74-0.08,5.41-1.98,5.41-4.55
	c-0.03-10.84-21.33-12.67-22.38-29.15c-0.85-13.51,8.06-22.04,24.31-22.16c5.35-0.04,9.7,1.85,14.84,0.68
	c0.36,6.59,0.72,13.17,1.09,19.75c-3.46-3.91-8.19-6.26-14.84-6.09c-3.53,0.09-5.42,1.9-5.27,4.47
	C151.24,114.49,172.81,117,173.92,136.52"/>
<path class="st0" d="M241.9,88.66c0,6.01,0,12.01,0,18.02c-2.96-0.22-11.17-1.31-17.99-1.33c-0.76,0-1.52-0.01-2.28-0.01
	c-0.1,3.73-0.1,8.69-0.1,12.94c0.01,7.31,0.01,14.62,0.01,21.94c0,6.87,0.32,13.96,1.26,18.12c-7.34-0.12-14.67-0.21-22-0.25
	c0.93-4.79,1.25-11.18,1.25-18.03c-0.01-7.29-0.01-14.58-0.01-21.87c-0.01-4.23-0.1-9.17-0.31-12.9c-0.75,0-1.51,0-2.27,0
	c-6.72-0.01-14.83,1.02-17.8,1.22V88.65c2.97,0.2,20.6,1.98,30.47,1.87C221.61,90.41,238.93,88.86,241.9,88.66"/>
<path class="st0" d="M288.65,141.68c-0.01-11.33-0.02-22.65-0.03-33.98c0-7.17-0.31-12.68-1.17-18.61
	c7.07,0.26,14.14,0.52,21.21,0.78c6.72,0.01,17.88-0.27,21.77-1.17c0,6.03,0.01,12.06,0.01,18.09c-4.35-0.87-10.48-1.35-17.2-1.43
	c-1.74-0.03-3.49-0.05-5.24-0.07c0,4.82,0.01,9.64,0.01,14.47c1.16,0.02,2.31,0.05,3.46,0.08c6.82,0.16,12.1-0.15,16.11-0.8
	c0,6.02,0.01,12.03,0.01,18.05c-3.71-1.17-9.29-1.55-16.11-1.78c-1.15-0.04-2.31-0.08-3.46-0.11c0.01,2.39,0.01,4.79,0.01,7.18
	c0.01,7.16,0.15,14.04,1.17,18.9c-7.23-0.38-14.46-0.72-21.68-1.03C288.35,156.07,288.65,148.75,288.65,141.68"/>
<path class="st0" d="M363.68,144.96c0.01,9.24,0.28,15.01,1.92,19.88c-7.69-0.58-15.39-1.12-23.08-1.63
	c1.92-5.55,1.91-9.23,1.9-19.27c0-11.8-0.01-23.61-0.01-35.42c-0.01-7.37-1.08-16-1.93-19.39c7.71,0,15.42,0.01,23.11,0.03
	c-0.82,3.05-1.92,12.2-1.92,19.74V144.96z"/>
<path class="st0" d="M273.35,141.22c0,8.64,0.28,14.02,1.93,18.52c-7.7-0.29-15.41-0.55-23.12-0.77c1.92-5.29,1.91-8.76,1.9-18.23
	c-0.01-11.13-0.01-22.26-0.02-33.4c-0.01-6.94-1.08-15.08-1.93-18.28c7.71,0,15.41,0.01,23.12,0.01
	c-0.81,2.85-1.91,11.41-1.91,18.45C273.33,118.76,273.35,129.99,273.35,141.22"/>
<path class="st0" d="M115.79,140.7c0,8.56,0.26,13.88,1.9,18.21c-7.71,0.21-15.41,0.45-23.12,0.74c1.93-5.47,1.93-8.95,1.93-18.49
	c0.01-11.22,0.02-22.44,0.03-33.66c0-7-1.06-15.19-1.91-18.42c7.7,0,15.41-0.01,23.11-0.01c-0.82,2.82-1.93,11.29-1.93,18.27
	C115.81,118.45,115.8,129.57,115.79,140.7"/>
<g>
	<linearGradient id="SVGID_1_" gradientUnits="userSpaceOnUse" x1="-7.0867" y1="139.6474" x2="81.4058" y2="115.936">
		<stop  offset="0" style="stop-color:#A9996E"/>
		<stop  offset="0.386" style="stop-color:#E4D4B0"/>
		<stop  offset="1" style="stop-color:#A9996E"/>
	</linearGradient>
	<path class="st1" d="M18.38,88.95c-3.34,18.64-6.66,37.4-9.88,55.78c-1.2,7.29-2.93,13.9-4.93,18.87
		c5.79-0.44,11.64-0.85,17.44-1.24c-0.11-7.71,1.48-16.93,3.31-27.54l0.77-4.49l1.57,3.05c4.86,9.45,9.9,19.16,14.99,28.85
		l1.87-0.11c4.91-9.74,10.01-19.74,15.18-29.75l1.64-3.18l0.51,3.52c0.34,2.3,0.7,4.65,1.07,6.98c1.26,8,2.45,15.58,2.07,20.15
		c6.48-0.32,13.05-0.62,19.57-0.89c-2.12-5.12-3.76-11.32-4.57-17.29c-2.47-17.49-4.94-35.07-7.41-52.72h-3.83
		c-7.78,15.06-15.04,29.34-22.18,43.62l-1.04,2.09l-1.01-2.11c-7.1-14.71-14.07-29.37-20.73-43.6H18.38z M0,166.1l0.77-1.69
		c2.22-4.93,4.17-12.05,5.48-20.03c3.27-18.69,6.66-37.77,10.04-56.72l0.16-0.92h7.81l0.31,0.65c6.42,13.74,13.15,27.9,20,42.12
		c6.9-13.78,13.93-27.6,21.46-42.16l0.31-0.61h7.24l0.14,0.96c2.52,17.98,5.03,35.87,7.55,53.68c0.86,6.36,2.69,12.98,5.04,18.18
		l0.67,1.49l-1.67,0.07c-7.51,0.3-15.1,0.65-22.56,1.02l-1.44,0.07l0.26-1.38c0.75-3.92-0.59-12.5-1.9-20.78
		c-0.19-1.17-0.37-2.35-0.55-3.52c-4.71,9.13-9.36,18.26-13.84,27.16l-0.29,0.58l-4.68,0.28l-0.34-0.65
		c-4.67-8.87-9.29-17.76-13.77-26.47c-1.73,10.04-3.13,18.76-2.87,25.94l0.04,1.07l-1.1,0.07c-6.76,0.46-13.61,0.94-20.36,1.45
		L0,166.1z"/>
	<linearGradient id="SVGID_2_" gradientUnits="userSpaceOnUse" x1="121.8829" y1="131.6016" x2="178.6362" y2="116.3945">
		<stop  offset="0" style="stop-color:#A9996E"/>
		<stop  offset="0.386" style="stop-color:#E4D4B0"/>
		<stop  offset="1" style="stop-color:#A9996E"/>
	</linearGradient>
	<path class="st2" d="M132.39,156.75c2.53,0,4.7,0.3,7.01,0.62c2.67,0.36,5.45,0.75,8.99,0.66c8.21-0.19,15.14-2.82,19.5-7.42
		c3.52-3.7,5.21-8.55,4.9-14.04c-0.66-11.52-8.72-16.79-15.2-21.02c-4.14-2.7-7.71-5.03-7.9-8.41c-0.08-1.46,0.37-2.76,1.31-3.74
		c1.13-1.19,2.89-1.85,5.08-1.91c0.23-0.01,0.47-0.01,0.69-0.01c5.07,0,9.39,1.47,12.88,4.38l-0.86-15.6
		c-0.79,0.11-1.61,0.17-2.46,0.17c-1.87,0-3.7-0.27-5.47-0.53c-1.81-0.26-3.68-0.54-5.65-0.54h-0.18
		c-8.11,0.06-14.51,2.29-18.5,6.44c-3.44,3.58-5.06,8.61-4.68,14.54c0.54,8.49,6.68,12.78,12.62,16.93
		c5.01,3.5,9.74,6.81,9.76,12.29c0.01,3.46-2.43,5.58-6.52,5.66l-0.37,0.01c-5.04,0-12.17-2.05-16.87-5.6l0.96,17.13
		C131.73,156.76,132.06,156.75,132.39,156.75 M147.4,160.26c-3.24,0-5.83-0.35-8.32-0.69c-2.22-0.31-4.32-0.59-6.69-0.59
		c-0.67,0-1.32,0.02-1.98,0.07l-1.15,0.08l-1.42-25.18l2.16,2.3c3.93,4.18,12.05,6.77,17.32,6.77l0.32,0
		c1.96-0.04,4.3-0.67,4.29-3.44c-0.02-4.35-4.09-7.19-8.81-10.49c-6.08-4.25-12.96-9.05-13.57-18.59
		c-0.41-6.55,1.42-12.15,5.29-16.19c4.43-4.61,11.4-7.09,20.16-7.15l0.19,0c2.14,0,4.09,0.29,5.99,0.56c1.76,0.26,3.43,0.5,5.13,0.5
		c1.16,0,2.23-0.11,3.27-0.35l1.33-0.3l1.34,24.33l-2.19-2.47c-3.52-3.99-8.06-5.84-13.94-5.7c-1.56,0.04-2.75,0.45-3.45,1.19
		c-0.52,0.54-0.75,1.25-0.7,2.12c0.12,2.27,3.11,4.22,6.89,6.68c6.54,4.27,15.49,10.12,16.21,22.75c0.35,6.1-1.55,11.52-5.5,15.67
		c-4.79,5.04-12.29,7.92-21.13,8.13C148.09,160.26,147.74,160.26,147.4,160.26"/>
	<linearGradient id="SVGID_3_" gradientUnits="userSpaceOnUse" x1="185.9508" y1="127.8643" x2="249.3121" y2="110.8867">
		<stop  offset="0" style="stop-color:#A9996E"/>
		<stop  offset="0.386" style="stop-color:#E4D4B0"/>
		<stop  offset="1" style="stop-color:#A9996E"/>
	</linearGradient>
	<path class="st3" d="M202.17,156.97c6.4,0.05,12.86,0.12,19.26,0.22c-0.83-4.74-1.02-11.73-1.02-16.98l-0.01-21.94
		c0-4.08,0-9.17,0.1-12.97l0.03-1.08l3.4,0.01c5.12,0.02,10.99,0.63,14.88,1.03c0.73,0.08,1.39,0.15,1.97,0.2l-0.01-15.6
		c-0.49,0.04-1.08,0.09-1.75,0.14c-6.2,0.5-19.09,1.54-26.84,1.63c-7.99,0.09-21.12-1.05-27.31-1.6c-0.79-0.07-1.47-0.13-2.03-0.18
		v15.43c0.6-0.05,1.29-0.12,2.05-0.2c3.79-0.37,9.52-0.93,14.49-0.93l3.47,0l0.06,1.05c0.19,3.51,0.3,8.35,0.3,12.95l0,21.87
		C203.21,147.16,202.87,152.73,202.17,156.97 M224.24,159.46l-1.45-0.02c-7.29-0.11-14.7-0.2-21.99-0.26l-1.37,0l0.26-1.31
		c0.83-4.25,1.23-10.08,1.23-17.82l-0.01-21.87c0-4.12-0.1-8.44-0.25-11.79h-1.3c-4.86,0-10.52,0.55-14.26,0.92
		c-1.4,0.14-2.55,0.25-3.34,0.3l-1.22,0.09l0.01-20.23l1.22,0.09c0.59,0.04,1.74,0.14,3.3,0.27c6.15,0.54,19.2,1.69,27.08,1.59
		c7.66-0.09,20.5-1.12,26.67-1.62c1.4-0.11,2.45-0.19,3-0.23l1.22-0.09l0.01,20.42l-1.23-0.1c-0.77-0.06-1.9-0.17-3.26-0.31
		c-3.84-0.4-9.65-1-14.65-1.02l-1.16-0.01c-0.07,3.62-0.06,8.13-0.06,11.83l0.01,21.94c0,5.67,0.22,13.38,1.23,17.87L224.24,159.46z
		"/>
	<linearGradient id="SVGID_4_" gradientUnits="userSpaceOnUse" x1="277.919" y1="130.6676" x2="338.8174" y2="114.3499">
		<stop  offset="0" style="stop-color:#A9996E"/>
		<stop  offset="0.386" style="stop-color:#E4D4B0"/>
		<stop  offset="1" style="stop-color:#A9996E"/>
	</linearGradient>
	<path class="st4" d="M288.85,159.18c6.3,0.27,12.67,0.58,18.96,0.9c-0.85-5.06-0.93-11.75-0.93-17.72l-0.01-8.33l4.64,0.15
		c6.23,0.21,11.24,0.55,14.92,1.43l-0.01-15.29c-3.23,0.44-7.1,0.66-11.55,0.66c-1.1,0-2.25-0.01-3.45-0.04l-4.57-0.1l-0.01-16.68
		l6.4,0.08c6.22,0.08,11.85,0.51,16.04,1.21l-0.01-15.42c-4.88,0.74-14.76,0.94-20.3,0.94h-0.33c-6.65-0.25-13.27-0.49-19.89-0.73
		c0.7,5.28,0.99,10.45,1,17.45l0.02,33.98C289.79,146.16,289.67,154.06,288.85,159.18 M310.61,162.45l-1.47-0.08
		c-7.19-0.37-14.49-0.72-21.68-1.03l-1.33-0.06l0.26-1.27c0.73-3.56,1.13-10.08,1.12-18.34l-0.02-33.98
		c0-7.47-0.34-12.81-1.16-18.45l-0.19-1.32l1.36,0.05c7.06,0.25,14.14,0.51,21.21,0.78h0.28c7.83,0,17.79-0.36,21.18-1.14l1.41-0.32
		l0.01,20.85l-1.37-0.27c-4.16-0.82-10.19-1.33-16.98-1.41l-4.08-0.05l0,12.26l2.35,0.05c1.18,0.03,2.31,0.04,3.39,0.04
		c4.94,0,9.15-0.28,12.5-0.83l1.33-0.22l0.02,20.89l-1.49-0.47c-3.54-1.11-8.87-1.49-15.8-1.73l-2.28-0.08v6.03
		c0.01,6.43,0.1,13.71,1.15,18.68L310.61,162.45z"/>
	<linearGradient id="SVGID_5_" gradientUnits="userSpaceOnUse" x1="332.5444" y1="132.838" x2="375.9568" y2="121.2056">
		<stop  offset="0" style="stop-color:#A9996E"/>
		<stop  offset="0.386" style="stop-color:#E4D4B0"/>
		<stop  offset="1" style="stop-color:#A9996E"/>
	</linearGradient>
	<path class="st5" d="M344.04,162.21c6.64,0.44,13.35,0.91,19.99,1.41c-1.25-4.6-1.49-10.1-1.49-18.66l0-36.06
		c0-6.91,0.87-14.75,1.64-18.63l-20.29-0.02c0.77,3.92,1.65,11.44,1.65,18.28l0.02,35.53C345.57,153.29,345.57,157.22,344.04,162.21
		 M367.22,166.08l-1.7-0.13c-7.66-0.58-15.42-1.12-23.08-1.63l-1.48-0.09l0.47-1.37c1.85-5.35,1.85-9.02,1.85-18.8l-0.01-35.53
		c0-7.48-1.12-16.06-1.89-19.13l-0.35-1.37l26.05,0.03l-0.37,1.39c-0.77,2.85-1.88,11.85-1.88,19.45v36.06
		c0,9.31,0.29,14.89,1.86,19.54L367.22,166.08z"/>
	<linearGradient id="SVGID_6_" gradientUnits="userSpaceOnUse" x1="242.5468" y1="130.1283" x2="284.986" y2="118.7567">
		<stop  offset="0" style="stop-color:#A9996E"/>
		<stop  offset="0.386" style="stop-color:#E4D4B0"/>
		<stop  offset="1" style="stop-color:#A9996E"/>
	</linearGradient>
	<path class="st6" d="M253.73,157.91c6.6,0.19,13.31,0.41,19.97,0.66c-1.24-4.26-1.48-9.39-1.49-17.34l-0.02-33.7
		c-0.01-6.42,0.85-13.67,1.61-17.33l-20.25-0.02c0.77,3.72,1.64,10.77,1.65,17.17l0.01,33.49
		C255.22,149.48,255.22,153.2,253.73,157.91 M276.93,160.91l-1.69-0.06c-7.71-0.29-15.49-0.55-23.11-0.77l-1.57-0.04l0.53-1.43
		c1.85-5.11,1.85-8.55,1.84-17.77l-0.02-33.49c-0.01-7.04-1.12-15.12-1.9-18.01l-0.37-1.38l26.1,0.01l-0.41,1.4
		c-0.75,2.66-1.87,11.05-1.86,18.15l0.02,33.7c0.01,8.68,0.3,13.87,1.86,18.14L276.93,160.91z"/>
	<linearGradient id="SVGID_7_" gradientUnits="userSpaceOnUse" x1="84.6382" y1="129.7615" x2="127.3838" y2="118.3079">
		<stop  offset="0" style="stop-color:#A9996E"/>
		<stop  offset="0.386" style="stop-color:#E4D4B0"/>
		<stop  offset="1" style="stop-color:#A9996E"/>
	</linearGradient>
	<path class="st7" d="M96.05,90.19c0.76,3.76,1.63,10.88,1.62,17.32l-0.02,33.77c0,8.65-0.01,12.39-1.49,17.21
		c6.66-0.24,13.36-0.45,19.97-0.64c-1.24-4.14-1.48-9.22-1.48-17.14l0.02-33.36c0-6.36,0.87-13.52,1.63-17.15L96.05,90.19z
		 M92.96,160.82l0.54-1.53c1.86-5.27,1.86-8.74,1.87-18.02l0.03-33.77c0-7.17-1.09-15.14-1.87-18.15l-0.36-1.38l26.09-0.01
		l-0.41,1.41c-0.76,2.62-1.88,10.92-1.89,17.96l-0.02,33.36c-0.01,8.6,0.27,13.72,1.83,17.83l0.55,1.45l-1.59,0.05
		c-7.64,0.2-15.41,0.46-23.11,0.74L92.96,160.82z"/>
</g>
<g>
	<path class="st8" d="M169.22,70.19c0.14-0.61,0.35-1.32,0.59-2.04l-0.03-0.04l0.37-0.92c0.36-0.96,0.8-1.94,1.29-2.9
		c0.2-0.4,0.38-0.75,0.55-1.02l1.62,0.86l-1.58-0.93c0.16-0.28,0.32-0.56,0.48-0.83c-0.47,0.02-0.94,0.03-1.41,0.03
		c-8.81-0.02-15.84-3.66-17.8-4.79l-0.1-0.06l-4.84-2.92l4.84-2.9c0.79-0.46,3.55-2,7.59-3.23c0.92-0.28,1.86-0.53,2.81-0.74
		l0.01-0.01l0.23-0.05c-3.46-3.16-6.49-7.02-9.02-11.49c-1.94-3.41-2.92-6.02-3.17-6.74l-1.79-5.26l5.47,0.76l0,0
		c0.68,0.09,3.5,0.58,7.27,1.86c5.56,1.91,10.42,4.58,14.47,7.92c0.38,0.32,0.76,0.64,1.13,0.98c-0.29-2.1-0.43-4.17-0.43-6.2
		c0.02-12.58,5.33-22.59,6.39-24.46L187.13,0l2.95,5.07l0.02,0.04c1.05,1.86,6.37,11.87,6.39,24.43c-0.01,2.05-0.16,4.12-0.44,6.21
		c0.38-0.34,0.76-0.66,1.14-0.98c4.04-3.34,8.91-6.01,14.47-7.92c3.73-1.27,6.62-1.78,7.26-1.86l5.47-0.76l-1.79,5.22l-0.01,0
		c-0.3,0.95-1.37,3.61-3.16,6.77c-2.56,4.49-5.59,8.34-9.02,11.48l0.07,0.01l0.01,0.02c5.45,1.2,9.38,3.33,10.5,3.98l4.89,2.94
		l-4.92,2.97l-0.03,0.01c-2.05,1.17-9.07,4.77-17.78,4.78c-0.47,0-0.94-0.01-1.41-0.03c0.15,0.25,0.3,0.5,0.45,0.77
		c0.33,0.55,0.58,1.03,0.76,1.43l0,0.01c1.23,2.48,1.83,4.57,2.08,5.59l0.02,0.06l0,0.03l1.27,5.69l-5.68-1.74l-0.03-0.01
		c-1.61-0.55-6.89-2.59-11.13-7.18c-0.86-0.94-1.65-1.96-2.38-3.05c-0.72,1.08-1.51,2.09-2.38,3.04c-4.28,4.64-9.6,6.67-11.14,7.19
		l-0.03,0.01l-5.66,1.74L169.22,70.19z"/>
	<linearGradient id="SVGID_8_" gradientUnits="userSpaceOnUse" x1="155.8066" y1="61.5407" x2="220.3456" y2="24.2791">
		<stop  offset="0" style="stop-color:#A9996E"/>
		<stop  offset="0.386" style="stop-color:#E4D4B0"/>
		<stop  offset="1" style="stop-color:#A9996E"/>
	</linearGradient>
	<path class="st9" d="M220.12,56.16l2.22-1.34l-2.22-1.33c-0.09-0.05-4.65-2.82-11.14-4.03c-1.36,1.09-2.89,1.89-4.46,2.6
		c1.88,0.09,3.67,0.39,5.31,0.78c-0.52-0.03-1.06-0.04-1.6-0.02c-3.62,0.14-6.76,1.5-8.39,2.36c0.44,0.19,1,0.41,1.64,0.62
		c1.8,0.59,4.25,1.17,6.9,1.06c0.79-0.03,1.55-0.12,2.29-0.25c-2.23,0.59-4.8,1.02-7.5,1.02c-3.97,0.01-7.65-0.94-10.42-1.93
		c0.37-0.11,0.76-0.24,1.16-0.37c4-1.37,9.18-3.7,13.9-7.6c4.7-3.9,7.95-8.56,10.05-12.24c2.07-3.68,3.01-6.4,3.02-6.47l0.82-2.4
		l-2.52,0.35c-0.07,0.01-2.91,0.41-6.92,1.78c-4.01,1.38-9.18,3.7-13.9,7.6c-0.55,0.46-1.08,0.92-1.59,1.4
		c-0.33,0.94-1.34,3.63-1.34,3.63s1.46-1.2,2.43-1.86c0.97-0.66,3.51-2.22,3.51-2.22s-2.95,2.62-4.3,4.76
		c-1.34,2.14-3.05,5.04-3.47,6.8c0,0,3.07-0.49,8-3.57c4.8-3,9.01-7.22,9.01-7.22s-2.3,5.66-7.12,9.44
		c-5.23,4.1-9.59,5.27-11.92,5.61c-2.05,0.29-2.95,0.3-2.95,0.3s0.78-1.55,2.17-5.25c0.75-1.97,1.59-4.42,2.26-6.62
		c0.9-3.46,1.57-7.5,1.59-11.84c-0.02-13.08-6.12-23.46-6.18-23.59l-1.35-2.31l-1.34,2.31c-0.07,0.13-6.15,10.51-6.17,23.59
		c0,3.76,0.52,7.3,1.23,10.43c0.71,2.52,1.76,5.62,2.67,8.02c1.4,3.69,2.17,5.25,2.17,5.25s-0.91,0-2.95-0.3
		c-2.34-0.34-6.69-1.51-11.92-5.61c-4.82-3.78-7.12-9.44-7.12-9.44s4.21,4.23,9.01,7.22c4.93,3.08,8,3.57,8,3.57
		c-0.41-1.76-2.12-4.66-3.47-6.8c-1.34-2.14-4.3-4.76-4.3-4.76s2.54,1.55,3.51,2.22c0.97,0.66,2.43,1.86,2.43,1.86
		s-0.95-2.53-1.31-3.54c-0.54-0.51-1.1-1-1.68-1.49c-4.72-3.9-9.89-6.22-13.9-7.6c-4.01-1.37-6.85-1.78-6.93-1.78l-2.52-0.35
		l0.82,2.4c0.03,0.07,0.96,2.79,3.04,6.47c2.09,3.68,5.34,8.34,10.04,12.24c4.7,3.9,9.88,6.23,13.89,7.6
		c0.4,0.13,0.78,0.26,1.16,0.37c-2.76,0.99-6.44,1.93-10.42,1.93c-2.7,0-5.26-0.43-7.49-1.01c0.73,0.13,1.49,0.22,2.27,0.25
		c2.65,0.11,5.12-0.46,6.9-1.06c0.65-0.21,1.19-0.43,1.64-0.62c-1.63-0.86-4.77-2.22-8.37-2.36c-0.56-0.02-1.11-0.01-1.65,0.02
		c1.65-0.39,3.45-0.69,5.34-0.78c-1.57-0.71-3.09-1.51-4.45-2.6c-6.49,1.21-11.06,3.98-11.15,4.03l-2.23,1.33l2.23,1.34
		c0.12,0.06,7.52,4.56,16.95,4.58c5.81-0.01,10.87-1.73,13.91-3.06c-0.8,1.84-2.04,4.14-3.9,6.15c-1.92,2.09-4.2,3.57-6,4.51
		c0.79-1.86,2.05-4.27,3.98-6.36c0.18-0.2,0.38-0.39,0.57-0.58c-1.27,0.35-2.9,0.66-4.81,0.91c-2.95,4.24-3.84,8.41-3.87,8.53
		l-0.58,2.62l2.56-0.79c0.13-0.05,5.9-1.8,10.43-6.71c1.64-1.79,2.86-3.7,3.73-5.43c0.88,1.72,2.1,3.63,3.73,5.43
		c4.53,4.9,10.3,6.65,10.43,6.71l2.58,0.79l-0.58-2.62c-0.04-0.12-0.92-4.28-3.87-8.53c-1.9-0.25-3.54-0.55-4.81-0.91
		c0.2,0.19,0.38,0.38,0.56,0.58c1.93,2.09,3.21,4.49,3.99,6.36c-1.8-0.94-4.08-2.41-6-4.51c-1.86-2-3.11-4.3-3.91-6.15
		c3.03,1.33,8.09,3.06,13.91,3.06C212.6,60.72,219.99,56.22,220.12,56.16z M187.13,46.37c-1.47-3.25-3.8-9.54-3.79-16.66
		c0-4.43,0.9-8.53,1.93-11.78c-0.41,1.9-0.7,4.03-0.7,6.29c-0.01,5.24,1.57,9.87,2.56,12.26c0.27-0.63,0.58-1.44,0.88-2.37
		c0.85-2.54,1.69-6.06,1.69-9.9c0-2.23-0.28-4.34-0.69-6.22c1.03,3.24,1.91,7.32,1.91,11.72c0,5.22-1.24,9.99-2.49,13.44
		C187.98,44.42,187.53,45.51,187.13,46.37z"/>
</g>
</svg>
