<?xml version="1.0" encoding="utf-8"?>
<!-- Generator: Adobe Illustrator 24.0.0, SVG Export Plug-In . SVG Version: 6.00 Build 0)  -->
<svg version="1.1" id="Layer_1" xmlns="http://www.w3.org/2000/svg" xmlns:xlink="http://www.w3.org/1999/xlink" x="0px" y="0px"
	 viewBox="0 0 446.36 508.72" style="enable-background:new 0 0 446.36 508.72;" xml:space="preserve">
<style type="text/css">
	.st0{fill:#FFFFFF;stroke:#1D1D1B;stroke-width:4;stroke-miterlimit:10;}
	.st1{fill:#FFFFFF;stroke:#1D1D1B;stroke-width:2;stroke-miterlimit:10;}
	.st2{opacity:0.3;}
	.st3{fill:#FFFFFF;}
	.st4{fill:url(#SVGID_1_);}
	.st5{fill:#1D1D1B;}
	.st6{fill:url(#SVGID_2_);}
	.st7{fill:url(#SVGID_3_);}
	.st8{fill:url(#SVGID_4_);}
	.st9{fill:url(#SVGID_5_);}
	.st10{fill:url(#SVGID_6_);}
	.st11{fill:url(#SVGID_7_);}
	.st12{fill:url(#SVGID_8_);}
</style>
<polygon class="st0" points="2,379.39 2,128.25 223.34,2.3 444.36,128.25 444.36,379.38 223.34,506.41 "/>
<polygon class="st1" points="13.34,134.84 13.34,372.82 223.33,493.34 433.02,372.82 433.02,134.84 223.33,15.35 "/>
<g>
	<g class="st2">
		<path class="st3" d="M144.88,372.38c0.63-2.69,1.53-5.79,2.62-8.98l-0.11-0.17l1.62-4.05c1.59-4.21,3.52-8.56,5.67-12.78
			c0.88-1.78,1.68-3.28,2.41-4.5l7.14,3.8l-6.96-4.09c0.7-1.25,1.41-2.46,2.13-3.64c-2.08,0.09-4.15,0.14-6.19,0.14
			c-38.78-0.07-69.75-16.13-78.37-21.08l-0.43-0.25l-21.3-12.85l21.32-12.78c3.46-2.03,15.64-8.8,33.43-14.24
			c4.05-1.24,8.21-2.34,12.38-3.28l0.05-0.04l1-0.21c-15.23-13.91-28.56-30.88-39.7-50.56c-8.52-15.03-12.84-26.5-13.96-29.66
			l-7.89-23.15l24.07,3.34l0,0c3.01,0.39,15.41,2.54,32,8.19c24.46,8.41,45.89,20.14,63.72,34.87c1.68,1.4,3.34,2.83,4.98,4.3
			c-1.25-9.25-1.89-18.37-1.89-27.29c0.07-55.4,23.44-99.43,28.13-107.7l13.02-22.37l13,22.32l0.09,0.17
			c4.64,8.17,28.04,52.26,28.13,107.57c-0.04,9.01-0.7,18.14-1.95,27.33c1.66-1.48,3.33-2.93,5.01-4.33
			c17.8-14.73,39.23-26.46,63.7-34.88c16.41-5.6,29.14-7.83,31.98-8.2l24.09-3.34l-7.88,22.99l-0.03-0.01
			c-1.32,4.17-6.02,15.88-13.89,29.82c-11.27,19.75-24.6,36.71-39.71,50.54l0.32,0.06l0.04,0.07c24.01,5.3,41.3,14.65,46.21,17.51
			l21.52,12.92l-21.64,13.08l-0.11,0.05c-9.04,5.15-39.92,20.98-78.28,21.04c-2.05,0-4.13-0.05-6.21-0.14
			c0.67,1.09,1.33,2.22,1.99,3.38c1.44,2.43,2.56,4.53,3.36,6.29l0.01,0.02c5.43,10.93,8.06,20.1,9.15,24.61l0.08,0.27l0.01,0.12
			l5.59,25.07l-24.98-7.65l-0.13-0.06c-7.09-2.4-30.31-11.38-48.99-31.6c-3.78-4.15-7.28-8.64-10.47-13.41
			c-3.17,4.74-6.67,9.21-10.46,13.37c-18.86,20.41-42.28,29.37-49.02,31.63l-0.13,0.05l-24.9,7.67L144.88,372.38z"/>
		<linearGradient id="SVGID_1_" gradientUnits="userSpaceOnUse" x1="85.8443" y1="334.2927" x2="369.9617" y2="170.2575">
			<stop  offset="0" style="stop-color:#A9996E"/>
			<stop  offset="0.386" style="stop-color:#E4D4B0"/>
			<stop  offset="1" style="stop-color:#A9996E"/>
		</linearGradient>
		<path class="st4" d="M368.95,310.6l9.78-5.91l-9.78-5.88c-0.41-0.22-20.45-12.39-49.06-17.73c-5.97,4.79-12.72,8.32-19.62,11.45
			c8.29,0.42,16.16,1.73,23.39,3.43c-2.31-0.13-4.65-0.18-7.05-0.07c-15.93,0.6-29.77,6.59-36.93,10.39
			c1.95,0.85,4.41,1.8,7.21,2.74c7.92,2.6,18.73,5.15,30.39,4.65c3.48-0.12,6.84-0.55,10.08-1.12c-9.83,2.58-21.13,4.48-33.03,4.48
			c-17.49,0.04-33.68-4.12-45.86-8.48c1.63-0.49,3.35-1.07,5.1-1.64c17.63-6.01,40.42-16.28,61.17-33.44
			c20.68-17.18,34.98-37.67,44.23-53.89c9.13-16.18,13.27-28.15,13.31-28.46l3.63-10.57l-11.09,1.54
			c-0.3,0.02-12.83,1.82-30.46,7.84c-17.65,6.07-40.42,16.29-61.17,33.46c-2.42,2.01-4.74,4.07-6.99,6.16
			c-1.44,4.15-5.9,15.98-5.9,15.98s6.43-5.26,10.72-8.19c4.29-2.92,15.47-9.77,15.47-9.77s-13.01,11.54-18.91,20.97
			c-5.9,9.43-13.45,22.17-15.25,29.93c0,0,13.51-2.16,35.21-15.7c21.13-13.19,39.65-31.79,39.65-31.79s-10.12,24.92-31.34,41.55
			c-23.03,18.04-42.2,23.21-52.48,24.69c-9,1.3-13.01,1.31-13.01,1.31s3.41-6.83,9.57-23.1c3.29-8.69,6.99-19.45,9.95-29.15
			c3.97-15.24,6.93-33.02,7.02-52.11c-0.09-57.6-26.92-103.28-27.22-103.86l-5.92-10.17l-5.92,10.17
			c-0.3,0.57-27.09,46.25-27.16,103.86c0,16.57,2.27,32.15,5.43,45.93c3.14,11.07,7.76,24.74,11.77,35.33
			c6.16,16.26,9.57,23.1,9.57,23.1s-4-0.01-13.01-1.31c-10.29-1.48-29.46-6.65-52.48-24.69c-21.22-16.62-31.34-41.55-31.34-41.55
			s18.52,18.6,39.65,31.79c21.7,13.55,35.21,15.7,35.21,15.7c-1.81-7.76-9.35-20.5-15.25-29.93c-5.9-9.43-18.91-20.97-18.91-20.97
			s11.18,6.85,15.47,9.77c4.29,2.92,10.72,8.19,10.72,8.19s-4.19-11.12-5.76-15.59c-2.38-2.22-4.82-4.42-7.39-6.55
			c-20.77-17.17-43.52-27.38-61.17-33.46c-17.65-6.02-30.14-7.82-30.51-7.84l-11.09-1.54l3.6,10.57c0.11,0.31,4.22,12.28,13.4,28.46
			c9.18,16.22,23.51,36.7,44.21,53.89c20.68,17.16,43.48,27.43,61.15,33.44c1.75,0.57,3.44,1.15,5.1,1.64
			c-12.16,4.36-28.35,8.52-45.86,8.48c-11.9,0-23.16-1.89-32.97-4.47c3.21,0.56,6.55,0.98,10,1.1c11.68,0.51,22.52-2.04,30.39-4.65
			c2.85-0.94,5.26-1.89,7.21-2.74c-7.16-3.8-21-9.79-36.84-10.39c-2.47-0.11-4.88-0.06-7.25,0.08c7.25-1.72,15.19-3.02,23.52-3.44
			c-6.93-3.13-13.61-6.67-19.6-11.45c-28.58,5.34-48.69,17.51-49.08,17.73l-9.8,5.88l9.8,5.91c0.53,0.25,33.12,20.09,74.62,20.17
			c25.59-0.02,47.84-7.61,61.22-13.49c-3.51,8.1-9,18.23-17.17,27.05c-8.47,9.22-18.48,15.71-26.4,19.85
			c3.47-8.21,9.04-18.78,17.54-27.98c0.8-0.87,1.65-1.72,2.5-2.56c-5.58,1.55-12.79,2.89-21.16,3.98
			c-12.97,18.68-16.9,37-17.03,37.53l-2.55,11.52l11.27-3.47c0.57-0.24,25.98-7.94,45.93-29.53c7.21-7.9,12.58-16.31,16.41-23.9
			c3.88,7.59,9.23,16,16.41,23.9c19.95,21.59,45.36,29.29,45.93,29.53l11.34,3.47l-2.57-11.52c-0.16-0.53-4.06-18.85-17.06-37.53
			c-8.38-1.09-15.56-2.43-21.16-3.98c0.87,0.84,1.68,1.69,2.48,2.56c8.52,9.2,14.12,19.77,17.58,27.98
			c-7.94-4.13-17.97-10.63-26.4-19.85c-8.19-8.83-13.7-18.95-17.19-27.05c13.36,5.88,35.6,13.46,61.22,13.49
			C335.87,330.69,368.4,310.85,368.95,310.6z M223.74,267.52c-6.45-14.29-16.73-42.01-16.67-73.34c0-19.49,3.96-37.54,8.47-51.87
			c-1.8,8.36-3.09,17.75-3.09,27.67c-0.05,23.07,6.92,43.47,11.29,53.99c1.18-2.79,2.53-6.32,3.87-10.42
			c3.73-11.19,7.43-26.67,7.43-43.57c0.01-9.8-1.24-19.11-3.02-27.4c4.52,14.28,8.43,32.24,8.4,51.6c0,22.96-5.46,43.99-10.97,59.19
			C227.48,258.93,225.48,263.73,223.74,267.52z"/>
	</g>
	<g>
		<g>
			<path class="st5" d="M412.96,216.91v0.94h-2.29v5.58h-0.94v-5.58h-2.29v-0.94H412.96z"/>
			<path class="st5" d="M414.93,218.86h-0.02v4.57h-0.94v-6.52h0.94l2.23,4.05l2.23-4.05h0.94v6.52h-0.94v-4.57h-0.02l-2.21,4.01
				L414.93,218.86z"/>
		</g>
	</g>
	<g>
		<path class="st5" d="M76.49,306.13c0.03,0.55,0.07,1.11,0.1,1.66c-1.02,0.06-2.04,0.12-3.06,0.18c0.13,2.2,0.27,4.41,0.4,6.61
			c-0.55,0.03-1.11,0.07-1.66,0.1c-0.14-2.2-0.27-4.41-0.41-6.61c-1.02,0.06-2.04,0.13-3.06,0.19c-0.03-0.55-0.07-1.11-0.1-1.66
			C71.29,306.44,73.89,306.28,76.49,306.13z"/>
		<path class="st5" d="M81.65,305.82c0.06,1.04,0.12,2.09,0.18,3.13c1.49-0.09,2.97-0.17,4.46-0.25c-0.06-1.04-0.12-2.09-0.17-3.13
			c0.56-0.03,1.11-0.06,1.67-0.09c0.15,2.76,0.3,5.52,0.46,8.28c-0.55,0.03-1.11,0.06-1.66,0.09c-0.06-1.16-0.13-2.32-0.19-3.48
			c-1.48,0.08-2.97,0.17-4.45,0.25c0.07,1.16,0.13,2.32,0.2,3.48c-0.55,0.03-1.11,0.06-1.66,0.1c-0.16-2.76-0.32-5.52-0.48-8.28
			C80.54,305.89,81.1,305.86,81.65,305.82z"/>
		<path class="st5" d="M99.77,304.85c0.03,0.55,0.06,1.11,0.08,1.66c-1.9,0.1-3.81,0.19-5.71,0.29c0.03,0.5,0.05,1,0.08,1.5
			c1-0.05,2.01-0.1,3.01-0.16c0.03,0.55,0.06,1.11,0.09,1.66c-1,0.05-2.01,0.1-3.01,0.16c0.03,0.6,0.06,1.19,0.09,1.79
			c1.96-0.1,3.93-0.2,5.89-0.3c0.03,0.55,0.06,1.11,0.08,1.66c-2.52,0.13-5.03,0.26-7.55,0.39c-0.15-2.76-0.29-5.52-0.44-8.28
			C94.84,305.1,97.3,304.97,99.77,304.85z"/>
		<path class="st5" d="M109.21,304.39c0.71,2,1.43,3.99,2.14,5.99c0.01,0,0.02,0,0.03,0c0.47-2.05,0.94-4.1,1.41-6.15
			c0.72-0.03,1.43-0.06,2.15-0.1c0.64,2,1.27,4,1.9,6.01c0.01,0,0.02,0,0.03,0c0.55-2.05,1.1-4.11,1.65-6.16
			c0.58-0.02,1.16-0.05,1.74-0.07c-0.75,2.8-1.49,5.6-2.23,8.39c-0.74,0.03-1.48,0.06-2.22,0.1c-0.62-2-1.24-4-1.85-6.01
			c-0.01,0-0.02,0-0.03,0c-0.44,2.05-0.88,4.1-1.31,6.15c-0.73,0.03-1.46,0.07-2.19,0.1c-0.98-2.72-1.95-5.44-2.93-8.16
			C108.06,304.44,108.64,304.42,109.21,304.39z"/>
		<path class="st5" d="M122.3,307.97c-0.1-2.32,1.65-4.47,4.93-4.6c3.29-0.13,5.18,1.87,5.27,4.21c0.08,2.32-1.68,4.47-4.93,4.59
			C124.33,312.29,122.4,310.29,122.3,307.97z M130.83,307.63c-0.05-1.44-1.47-2.68-3.54-2.6c-2.07,0.08-3.38,1.45-3.32,2.87
			c0.06,1.44,1.47,2.68,3.54,2.6C129.58,310.42,130.89,309.07,130.83,307.63z"/>
		<path class="st5" d="M136.37,303.28c0.56-0.02,1.11-0.04,1.67-0.06c1.59,1.81,3.17,3.63,4.75,5.45c0.01,0,0.02,0,0.03,0
			c-0.06-1.87-0.12-3.73-0.18-5.6c0.56-0.02,1.11-0.04,1.67-0.05c0.09,2.76,0.18,5.52,0.27,8.29c-0.55,0.02-1.11,0.04-1.67,0.05
			c-1.58-1.82-3.16-3.63-4.74-5.45c-0.01,0-0.02,0-0.03,0c0.06,1.87,0.13,3.73,0.19,5.6c-0.55,0.02-1.11,0.04-1.67,0.06
			C136.57,308.8,136.47,306.04,136.37,303.28z"/>
		<path class="st5" d="M153.33,302.74c1.91-0.05,4.24,0.81,4.32,3.9c0.07,2.74-1.6,4.32-4.08,4.39c-1.5,0.04-3,0.09-4.5,0.13
			c-0.08-2.76-0.17-5.52-0.25-8.29C150.32,302.83,151.83,302.78,153.33,302.74z M150.68,309.45c0.95-0.03,1.89-0.06,2.84-0.08
			c1.46-0.04,2.51-0.9,2.46-2.58c-0.05-1.95-1.3-2.41-2.6-2.38c-0.95,0.03-1.9,0.05-2.84,0.08
			C150.59,306.14,150.63,307.79,150.68,309.45z"/>
		<path class="st5" d="M166.66,302.41c1.54-0.04,3.02,0.51,3.06,2.38c0.04,1.58-1.03,2.18-1.81,2.49c0.73,1.12,1.45,2.23,2.18,3.35
			c-0.7,0.02-1.4,0.03-2.1,0.05c-0.72-1.11-1.45-2.22-2.18-3.33c-0.89,0.02-1.77,0.04-2.66,0.06c0.03,1.13,0.06,2.25,0.08,3.38
			c-0.55,0.01-1.11,0.03-1.67,0.04c-0.07-2.76-0.14-5.53-0.21-8.29C163.13,302.49,164.9,302.45,166.66,302.41z M163.07,304.16
			c0.01,0.53,0.03,1.06,0.04,1.58c1.21-0.03,2.42-0.06,3.63-0.09c0.5-0.01,1.33-0.1,1.31-0.83c-0.02-0.77-0.77-0.77-1.35-0.75
			C165.49,304.1,164.28,304.13,163.07,304.16z"/>
		<path class="st5" d="M172.84,306.42c-0.05-2.32,1.74-4.44,5.02-4.5c3.3-0.06,5.14,1.98,5.18,4.31c0.04,2.32-1.77,4.43-5.02,4.49
			C174.78,310.79,172.89,308.74,172.84,306.42z M181.37,306.26c-0.02-1.44-1.41-2.71-3.48-2.67c-2.07,0.04-3.41,1.38-3.38,2.8
			c0.03,1.44,1.42,2.71,3.48,2.67C180.06,309.02,181.4,307.7,181.37,306.26z"/>
		<path class="st5" d="M187.92,302c0.02,1.68,0.05,3.36,0.07,5.04c0.01,0.99,0.28,1.84,2.37,1.81c2.21-0.03,2.33-0.98,2.32-1.87
			c-0.02-1.68-0.04-3.36-0.06-5.04c0.56-0.01,1.11-0.01,1.67-0.02c0.02,1.68,0.04,3.36,0.06,5.04c0.02,1.75-0.79,3.51-3.98,3.56
			c-2.88,0.04-4.01-1.48-4.04-3.45c-0.03-1.68-0.05-3.36-0.08-5.04C186.8,302.02,187.36,302.01,187.92,302z"/>
		<path class="st5" d="M198.46,307.49c1.45,0.91,2.83,1.24,4.29,1.22c0.83-0.01,2.24-0.23,2.23-1.15c-0.01-0.67-0.74-0.84-1.26-0.85
			c-0.83-0.02-1.66-0.04-2.49-0.06c-2.04-0.03-3.05-1.2-3.06-2.48c-0.01-1.23,0.89-2.56,3.88-2.58c2.18-0.02,3.53,0.8,4.03,1.06
			c-0.25,0.49-0.5,0.98-0.74,1.48c-0.66-0.33-1.87-0.88-3.52-0.87c-0.88,0.01-1.97,0.21-1.97,0.95c0.01,0.64,0.92,0.79,1.48,0.79
			c0.72,0.02,1.44,0.04,2.17,0.06c1.91,0.03,3.14,0.84,3.15,2.59c0.01,1.49-1.15,2.73-3.89,2.75c-2.24,0.02-3.9-0.53-5.06-1.39
			C197.96,308.49,198.21,307.99,198.46,307.49z"/>
		<path class="st5" d="M220.98,301.75c1.62,0,3.01,0.7,3,2.62c0,1.86-1.28,2.67-3,2.67c-1.11,0-2.21,0-3.32,0.01c0,1,0,2,0.01,2.99
			c-0.56,0-1.11,0-1.67,0c-0.01-2.76-0.02-5.53-0.02-8.29C217.64,301.75,219.31,301.75,220.98,301.75z M217.66,305.39
			c1.11,0,2.21,0,3.32-0.01c0.64,0,1.33-0.08,1.33-1.01c0-0.88-0.74-0.96-1.33-0.96c-1.11,0-2.22,0-3.33,0.01
			C217.65,304.07,217.66,304.73,217.66,305.39z"/>
		<path class="st5" d="M226.48,305.89c0-2.32,1.84-4.4,5.12-4.39c3.3,0.01,5.1,2.09,5.09,4.42c-0.01,2.32-1.87,4.39-5.12,4.38
			C228.31,310.3,226.47,308.22,226.48,305.89z M235.01,305.92c0.01-1.44-1.35-2.74-3.42-2.75c-2.07-0.01-3.44,1.3-3.44,2.73
			c0,1.44,1.36,2.74,3.42,2.75C233.64,308.65,235,307.36,235.01,305.92z"/>
		<path class="st5" d="M240.31,301.81c0.61,2.03,1.21,4.06,1.82,6.1c0.01,0,0.02,0,0.03,0c0.58-2.02,1.15-4.05,1.73-6.07
			c0.72,0.01,1.44,0.01,2.15,0.02c0.53,2.03,1.05,4.07,1.58,6.1c0.01,0,0.02,0,0.03,0c0.66-2.02,1.31-4.04,1.97-6.06
			c0.58,0.01,1.16,0.01,1.74,0.02c-0.89,2.75-1.79,5.51-2.67,8.26c-0.74-0.01-1.48-0.01-2.23-0.02c-0.51-2.03-1.02-4.06-1.53-6.1
			c-0.01,0-0.02,0-0.03,0c-0.55,2.02-1.09,4.05-1.64,6.07c-0.73-0.01-1.46-0.01-2.2-0.02c-0.83-2.77-1.66-5.54-2.49-8.31
			C239.15,301.8,239.73,301.8,240.31,301.81z"/>
		<path class="st5" d="M261.18,302.04c-0.01,0.55-0.02,1.11-0.03,1.66c-1.91-0.03-3.81-0.06-5.72-0.08c-0.01,0.5-0.01,1-0.02,1.5
			c1.01,0.01,2.01,0.03,3.02,0.04c-0.01,0.55-0.02,1.11-0.02,1.66c-1-0.01-2.01-0.03-3.01-0.04c-0.01,0.6-0.02,1.19-0.02,1.79
			c1.97,0.03,3.93,0.05,5.9,0.08c-0.01,0.55-0.02,1.11-0.03,1.66c-2.52-0.04-5.04-0.07-7.56-0.11c0.03-2.76,0.07-5.53,0.1-8.29
			C256.25,301.97,258.72,302,261.18,302.04z"/>
		<path class="st5" d="M269.98,302.19c1.54,0.03,2.99,0.63,2.95,2.51c-0.03,1.58-1.12,2.14-1.91,2.41c0.68,1.14,1.36,2.29,2.03,3.43
			c-0.7-0.01-1.4-0.03-2.1-0.04c-0.68-1.14-1.35-2.28-2.03-3.42c-0.89-0.02-1.78-0.03-2.66-0.05c-0.02,1.13-0.04,2.25-0.06,3.38
			c-0.56-0.01-1.11-0.02-1.67-0.03c0.05-2.76,0.09-5.53,0.14-8.29C266.44,302.12,268.21,302.16,269.98,302.19z M266.32,303.79
			c-0.01,0.53-0.02,1.06-0.03,1.58c1.21,0.02,2.42,0.04,3.63,0.07c0.5,0.01,1.33-0.04,1.35-0.77c0.02-0.77-0.74-0.8-1.32-0.81
			C268.74,303.83,267.53,303.81,266.32,303.79z"/>
		<path class="st5" d="M281.68,306.59c0.05-2.32,1.93-4.36,5.21-4.27c3.3,0.09,5.05,2.2,4.99,4.54c-0.06,2.32-1.97,4.35-5.21,4.26
			C283.42,311.03,281.63,308.91,281.68,306.59z M290.21,306.8c0.04-1.44-1.29-2.77-3.36-2.83c-2.07-0.05-3.47,1.23-3.5,2.65
			c-0.04,1.44,1.29,2.77,3.36,2.82C288.78,309.5,290.17,308.24,290.21,306.8z"/>
		<path class="st5" d="M297.44,311.16c-0.55-0.02-1.11-0.03-1.67-0.05c0.08-2.76,0.16-5.53,0.24-8.29c2.46,0.07,4.93,0.15,7.39,0.23
			c-0.02,0.55-0.04,1.11-0.05,1.66c-1.9-0.06-3.81-0.12-5.71-0.18c-0.01,0.5-0.03,1-0.05,1.5c1.01,0.03,2.01,0.06,3.02,0.09
			c-0.02,0.55-0.03,1.11-0.05,1.66c-1-0.03-2.01-0.06-3.01-0.09C297.51,308.86,297.48,310.01,297.44,311.16z"/>
		<path class="st5" d="M312.67,303.37c0.56,0.02,1.11,0.04,1.67,0.06c1.45,1.92,2.9,3.85,4.34,5.77c0.01,0,0.02,0,0.03,0
			c0.07-1.87,0.15-3.73,0.22-5.6c0.56,0.02,1.11,0.04,1.67,0.07c-0.11,2.76-0.22,5.52-0.33,8.28c-0.56-0.02-1.11-0.04-1.66-0.07
			c-1.44-1.92-2.89-3.85-4.34-5.77c-0.01,0-0.02,0-0.03,0c-0.07,1.87-0.14,3.73-0.21,5.6c-0.56-0.02-1.11-0.04-1.67-0.06
			C312.47,308.89,312.57,306.13,312.67,303.37z"/>
		<path class="st5" d="M327.38,303.95c0.74,0.03,1.48,0.06,2.21,0.09c1.24,2.82,2.48,5.64,3.71,8.46c-0.63-0.03-1.26-0.06-1.89-0.08
			c-0.25-0.59-0.5-1.19-0.76-1.78c-1.62-0.07-3.24-0.14-4.85-0.21c-0.3,0.57-0.6,1.14-0.91,1.71c-0.63-0.03-1.26-0.05-1.89-0.08
			C324.46,309.36,325.92,306.65,327.38,303.95z M326.69,308.81c1.07,0.04,2.14,0.09,3.2,0.14c-0.49-1.11-0.97-2.22-1.46-3.33
			C327.85,306.68,327.27,307.74,326.69,308.81z"/>
		<path class="st5" d="M342.8,304.65c-0.03,0.55-0.05,1.11-0.08,1.66c-1.02-0.05-2.04-0.1-3.07-0.15c-0.1,2.21-0.21,4.41-0.31,6.62
			c-0.55-0.03-1.11-0.05-1.66-0.08c0.1-2.21,0.21-4.41,0.31-6.62c-1.02-0.05-2.04-0.09-3.06-0.14c0.03-0.55,0.05-1.11,0.08-1.66
			C337.6,304.4,340.2,304.52,342.8,304.65z"/>
		<path class="st5" d="M347.85,304.9c-0.08,1.68-0.17,3.36-0.25,5.04c-0.05,0.99,0.16,1.85,2.24,1.96c2.21,0.11,2.39-0.82,2.44-1.72
			c0.09-1.68,0.18-3.36,0.26-5.03c0.56,0.03,1.11,0.06,1.67,0.09c-0.09,1.68-0.18,3.36-0.27,5.03c-0.09,1.74-1.02,3.46-4.2,3.29
			c-2.88-0.15-3.91-1.74-3.81-3.7c0.08-1.68,0.17-3.36,0.25-5.04C346.74,304.84,347.3,304.87,347.85,304.9z"/>
		<path class="st5" d="M363.89,305.77c1.54,0.09,2.97,0.75,2.86,2.62c-0.09,1.58-1.2,2.09-2,2.34c0.63,1.17,1.27,2.34,1.9,3.51
			c-0.7-0.04-1.4-0.08-2.1-0.12c-0.63-1.16-1.27-2.33-1.9-3.49c-0.89-0.05-1.77-0.1-2.66-0.15c-0.06,1.12-0.13,2.25-0.19,3.37
			c-0.55-0.03-1.11-0.06-1.66-0.09c0.15-2.76,0.3-5.52,0.46-8.28C360.35,305.57,362.12,305.66,363.89,305.77z M360.16,307.22
			c-0.03,0.53-0.06,1.05-0.09,1.58c1.21,0.07,2.42,0.14,3.62,0.2c0.5,0.03,1.33,0.01,1.38-0.72c0.04-0.77-0.71-0.83-1.29-0.86
			C362.58,307.36,361.37,307.29,360.16,307.22z"/>
		<path class="st5" d="M377.67,306.59c-0.03,0.55-0.07,1.11-0.1,1.66c-1.9-0.12-3.81-0.24-5.71-0.35c-0.03,0.5-0.06,1-0.09,1.5
			c1,0.06,2.01,0.12,3.01,0.18c-0.03,0.55-0.07,1.11-0.1,1.66c-1-0.06-2.01-0.12-3.01-0.18c-0.04,0.6-0.07,1.19-0.11,1.79
			c1.96,0.12,3.93,0.24,5.89,0.36c-0.03,0.55-0.07,1.11-0.1,1.66c-2.52-0.16-5.03-0.31-7.55-0.46c0.16-2.76,0.33-5.52,0.5-8.28
			C372.74,306.29,375.2,306.44,377.67,306.59z"/>
	</g>
	<path class="st5" d="M115.51,270.41c0.93,6.92,2.9,13.55,5.12,18.48c-7.53,0.31-15.05,0.65-22.57,1.02
		c1-5.22-1.39-17.31-2.96-28.15c-5.16,9.98-10.32,20.08-15.47,30.31c-1.09,0.07-2.19,0.13-3.28,0.19
		c-5.11-9.72-10.22-19.55-15.34-29.51c-1.97,11.42-3.76,21.44-3.46,29.52c-6.79,0.45-13.58,0.93-20.37,1.44
		c2.3-5.1,4.26-12.32,5.56-20.3c3.34-19.08,6.69-37.98,10.04-56.7h6.11c7.01,15.01,14.02,29.74,21.03,44.24
		c7.5-15,14.99-29.73,22.49-44.24h5.54C110.48,234.7,112.99,252.59,115.51,270.41"/>
	<path class="st5" d="M209.3,265.39c0.78,13.69-10.25,22.27-25.51,22.62c-7.48,0.18-11.56-1.65-18.08-1.21
		c-0.4-6.97-0.79-13.96-1.18-20.94c4.2,4.47,12.75,7.24,18.51,7.13c3.74-0.08,5.41-1.98,5.41-4.55
		c-0.03-10.84-21.33-12.67-22.38-29.15c-0.85-13.51,8.06-22.04,24.31-22.16c5.35-0.04,9.7,1.85,14.84,0.68
		c0.36,6.59,0.72,13.17,1.09,19.75c-3.46-3.91-8.19-6.26-14.84-6.09c-3.53,0.09-5.42,1.9-5.27,4.47
		C186.61,243.37,208.18,245.88,209.3,265.39"/>
	<path class="st5" d="M277.27,217.53c0,6.01,0,12.01,0,18.02c-2.96-0.22-11.17-1.31-17.99-1.33c-0.76,0-1.52-0.01-2.28-0.01
		c-0.1,3.73-0.1,8.69-0.1,12.94c0.01,7.31,0.01,14.62,0.01,21.94c0,6.87,0.32,13.96,1.26,18.12c-7.34-0.12-14.67-0.21-22-0.25
		c0.93-4.79,1.25-11.18,1.25-18.03c-0.01-7.29-0.01-14.58-0.01-21.87c-0.01-4.23-0.1-9.17-0.31-12.9c-0.75,0-1.51,0-2.27,0
		c-6.72-0.01-14.83,1.02-17.8,1.22v-17.84c2.97,0.2,20.6,1.98,30.47,1.87C256.98,219.28,274.3,217.74,277.27,217.53"/>
	<path class="st5" d="M324.02,270.55c-0.01-11.33-0.02-22.65-0.03-33.98c0-7.17-0.31-12.68-1.17-18.61
		c7.07,0.26,14.14,0.52,21.21,0.78c6.72,0.01,17.88-0.27,21.77-1.17c0,6.03,0.01,12.06,0.01,18.09c-4.35-0.87-10.48-1.35-17.2-1.43
		c-1.74-0.03-3.49-0.05-5.24-0.07c0,4.82,0.01,9.64,0.01,14.47c1.16,0.02,2.31,0.05,3.46,0.08c6.82,0.16,12.1-0.15,16.11-0.8
		c0,6.02,0.01,12.03,0.01,18.05c-3.71-1.17-9.29-1.55-16.11-1.78c-1.15-0.04-2.31-0.08-3.46-0.11c0.01,2.39,0.01,4.79,0.01,7.18
		c0.01,7.16,0.15,14.04,1.17,18.9c-7.23-0.38-14.46-0.72-21.68-1.03C323.73,284.95,324.03,277.62,324.02,270.55"/>
	<path class="st5" d="M399.05,273.84c0.01,9.24,0.28,15.01,1.92,19.88c-7.69-0.58-15.39-1.12-23.08-1.63
		c1.92-5.55,1.91-9.23,1.9-19.27c0-11.8-0.01-23.61-0.01-35.42c-0.01-7.37-1.08-16-1.93-19.39c7.71,0,15.42,0.01,23.11,0.03
		c-0.82,3.05-1.92,12.2-1.92,19.74V273.84z"/>
	<path class="st5" d="M308.73,270.1c0,8.64,0.28,14.02,1.93,18.52c-7.7-0.29-15.41-0.55-23.12-0.77c1.92-5.29,1.91-8.76,1.9-18.23
		c-0.01-11.13-0.01-22.26-0.02-33.4c-0.01-6.94-1.08-15.08-1.93-18.28c7.71,0,15.41,0.01,23.12,0.01
		c-0.81,2.85-1.91,11.41-1.91,18.45C308.71,247.63,308.72,258.87,308.73,270.1"/>
	<path class="st5" d="M151.17,269.57c0,8.56,0.26,13.88,1.9,18.21c-7.71,0.21-15.41,0.45-23.12,0.74c1.93-5.47,1.93-8.95,1.93-18.49
		c0.01-11.22,0.02-22.44,0.03-33.66c0-7-1.06-15.19-1.91-18.42c7.7,0,15.41-0.01,23.11-0.01c-0.82,2.82-1.93,11.29-1.93,18.27
		C151.18,247.33,151.17,258.45,151.17,269.57"/>
	<g>
		<linearGradient id="SVGID_2_" gradientUnits="userSpaceOnUse" x1="28.2862" y1="268.5235" x2="116.7786" y2="244.812">
			<stop  offset="0" style="stop-color:#A9996E"/>
			<stop  offset="0.386" style="stop-color:#E4D4B0"/>
			<stop  offset="1" style="stop-color:#A9996E"/>
		</linearGradient>
		<path class="st6" d="M53.75,217.83c-3.34,18.64-6.66,37.4-9.88,55.78c-1.2,7.29-2.93,13.9-4.93,18.87
			c5.79-0.44,11.64-0.85,17.44-1.24c-0.11-7.71,1.48-16.93,3.31-27.54l0.77-4.49l1.57,3.05c4.86,9.45,9.9,19.16,14.99,28.85
			l1.87-0.11c4.91-9.74,10.01-19.74,15.18-29.75l1.64-3.18l0.51,3.52c0.34,2.3,0.7,4.65,1.07,6.98c1.26,8,2.45,15.58,2.07,20.15
			c6.48-0.32,13.05-0.62,19.57-0.89c-2.12-5.12-3.76-11.32-4.57-17.29c-2.47-17.49-4.94-35.07-7.41-52.72h-3.83
			c-7.78,15.06-15.04,29.34-22.18,43.62l-1.04,2.09l-1.01-2.11c-7.1-14.71-14.07-29.37-20.73-43.6H53.75z M35.37,294.97l0.77-1.69
			c2.22-4.93,4.17-12.05,5.48-20.03c3.27-18.69,6.66-37.77,10.04-56.72l0.16-0.92h7.81l0.31,0.65c6.42,13.74,13.15,27.9,20,42.12
			c6.9-13.78,13.93-27.6,21.46-42.16l0.31-0.61h7.24l0.14,0.96c2.52,17.98,5.03,35.87,7.55,53.68c0.86,6.36,2.69,12.98,5.04,18.18
			l0.67,1.49l-1.67,0.07c-7.51,0.3-15.1,0.65-22.56,1.02l-1.44,0.07l0.26-1.38c0.75-3.92-0.59-12.5-1.9-20.78
			c-0.19-1.17-0.37-2.35-0.55-3.52c-4.71,9.13-9.36,18.26-13.84,27.16l-0.29,0.58l-4.68,0.28l-0.34-0.65
			c-4.67-8.87-9.29-17.76-13.77-26.47c-1.73,10.04-3.13,18.76-2.87,25.94l0.04,1.07l-1.1,0.07c-6.76,0.46-13.61,0.94-20.36,1.45
			L35.37,294.97z"/>
		<linearGradient id="SVGID_3_" gradientUnits="userSpaceOnUse" x1="157.2557" y1="260.4776" x2="214.0091" y2="245.2706">
			<stop  offset="0" style="stop-color:#A9996E"/>
			<stop  offset="0.386" style="stop-color:#E4D4B0"/>
			<stop  offset="1" style="stop-color:#A9996E"/>
		</linearGradient>
		<path class="st7" d="M167.77,285.63c2.53,0,4.7,0.3,7.01,0.62c2.67,0.36,5.45,0.75,8.99,0.66c8.21-0.19,15.14-2.82,19.5-7.42
			c3.52-3.7,5.21-8.55,4.9-14.04c-0.66-11.52-8.72-16.79-15.2-21.02c-4.14-2.7-7.71-5.03-7.9-8.41c-0.08-1.46,0.37-2.76,1.31-3.74
			c1.13-1.19,2.89-1.85,5.08-1.91c0.23-0.01,0.47-0.01,0.69-0.01c5.07,0,9.39,1.47,12.88,4.38l-0.86-15.6
			c-0.79,0.11-1.61,0.17-2.46,0.17c-1.87,0-3.7-0.27-5.47-0.53c-1.81-0.26-3.68-0.54-5.65-0.54h-0.18
			c-8.11,0.06-14.51,2.29-18.5,6.44c-3.44,3.58-5.06,8.61-4.68,14.54c0.54,8.49,6.68,12.78,12.62,16.93
			c5.01,3.5,9.74,6.81,9.76,12.29c0.01,3.46-2.43,5.58-6.52,5.66l-0.37,0.01c-5.04,0-12.17-2.05-16.87-5.6l0.96,17.13
			C167.11,285.64,167.44,285.63,167.77,285.63 M182.78,289.14c-3.24,0-5.83-0.35-8.32-0.69c-2.22-0.31-4.32-0.59-6.69-0.59
			c-0.67,0-1.32,0.02-1.98,0.07l-1.15,0.08l-1.42-25.18l2.16,2.3c3.93,4.18,12.05,6.77,17.32,6.77l0.32,0
			c1.96-0.04,4.3-0.67,4.29-3.44c-0.02-4.35-4.09-7.19-8.81-10.49c-6.08-4.25-12.96-9.05-13.57-18.59
			c-0.41-6.55,1.42-12.15,5.29-16.19c4.43-4.61,11.4-7.09,20.16-7.15l0.19,0c2.14,0,4.09,0.29,5.99,0.56
			c1.76,0.26,3.43,0.5,5.13,0.5c1.16,0,2.23-0.11,3.27-0.35l1.33-0.3l1.34,24.33l-2.19-2.47c-3.52-3.99-8.06-5.84-13.94-5.7
			c-1.56,0.04-2.75,0.45-3.45,1.19c-0.52,0.54-0.75,1.25-0.7,2.12c0.12,2.27,3.11,4.22,6.89,6.68c6.54,4.27,15.49,10.12,16.21,22.75
			c0.35,6.1-1.55,11.52-5.5,15.67c-4.79,5.04-12.29,7.92-21.13,8.13C183.46,289.14,183.11,289.14,182.78,289.14"/>
		<linearGradient id="SVGID_4_" gradientUnits="userSpaceOnUse" x1="221.3237" y1="256.7404" x2="284.685" y2="239.7628">
			<stop  offset="0" style="stop-color:#A9996E"/>
			<stop  offset="0.386" style="stop-color:#E4D4B0"/>
			<stop  offset="1" style="stop-color:#A9996E"/>
		</linearGradient>
		<path class="st8" d="M237.54,285.85c6.4,0.05,12.86,0.12,19.26,0.22c-0.83-4.74-1.02-11.73-1.02-16.98l-0.01-21.94
			c0-4.08,0-9.17,0.1-12.97l0.03-1.08l3.4,0.01c5.12,0.02,10.99,0.63,14.88,1.03c0.73,0.08,1.39,0.15,1.97,0.2l-0.01-15.6
			c-0.49,0.04-1.08,0.09-1.75,0.14c-6.2,0.5-19.09,1.54-26.84,1.63c-7.99,0.09-21.12-1.05-27.31-1.6c-0.79-0.07-1.47-0.13-2.03-0.18
			v15.43c0.6-0.05,1.29-0.12,2.05-0.2c3.79-0.37,9.52-0.93,14.49-0.93l3.47,0l0.06,1.05c0.19,3.51,0.3,8.35,0.3,12.95l0,21.87
			C238.58,276.04,238.24,281.6,237.54,285.85 M259.61,288.33l-1.45-0.02c-7.29-0.11-14.7-0.2-21.99-0.26l-1.37,0l0.26-1.31
			c0.83-4.25,1.23-10.08,1.23-17.82l-0.01-21.87c0-4.12-0.1-8.44-0.25-11.79h-1.3c-4.86,0-10.52,0.55-14.26,0.92
			c-1.4,0.14-2.55,0.25-3.34,0.3l-1.22,0.09l0.01-20.23l1.22,0.09c0.59,0.04,1.74,0.14,3.3,0.27c6.15,0.54,19.2,1.69,27.08,1.59
			c7.66-0.09,20.5-1.12,26.67-1.62c1.4-0.11,2.45-0.19,3-0.23l1.22-0.09l0.01,20.42l-1.23-0.1c-0.77-0.06-1.9-0.17-3.26-0.31
			c-3.84-0.4-9.65-1-14.65-1.02l-1.16-0.01c-0.07,3.62-0.06,8.13-0.06,11.83l0.01,21.94c0,5.67,0.22,13.38,1.23,17.87L259.61,288.33
			z"/>
		<linearGradient id="SVGID_5_" gradientUnits="userSpaceOnUse" x1="313.2919" y1="259.5436" x2="374.1903" y2="243.2259">
			<stop  offset="0" style="stop-color:#A9996E"/>
			<stop  offset="0.386" style="stop-color:#E4D4B0"/>
			<stop  offset="1" style="stop-color:#A9996E"/>
		</linearGradient>
		<path class="st9" d="M324.22,288.06c6.3,0.27,12.67,0.58,18.96,0.9c-0.85-5.06-0.93-11.75-0.93-17.72l-0.01-8.33l4.64,0.15
			c6.23,0.21,11.24,0.55,14.92,1.43l-0.01-15.29c-3.23,0.44-7.1,0.66-11.55,0.66c-1.1,0-2.25-0.01-3.45-0.04l-4.57-0.1l-0.01-16.68
			l6.4,0.08c6.22,0.08,11.85,0.51,16.04,1.21l-0.01-15.42c-4.88,0.74-14.76,0.94-20.3,0.94h-0.33c-6.65-0.25-13.27-0.49-19.89-0.73
			c0.7,5.28,0.99,10.45,1,17.45l0.02,33.98C325.16,275.03,325.04,282.93,324.22,288.06 M345.98,291.32l-1.47-0.08
			c-7.19-0.37-14.49-0.72-21.68-1.03l-1.33-0.06l0.26-1.27c0.73-3.56,1.13-10.08,1.12-18.34l-0.03-33.98
			c0-7.47-0.34-12.81-1.16-18.45l-0.19-1.32l1.36,0.05c7.06,0.25,14.14,0.51,21.21,0.78h0.28c7.83,0,17.79-0.36,21.18-1.14
			l1.41-0.32l0.01,20.85l-1.37-0.27c-4.16-0.82-10.19-1.33-16.98-1.41l-4.08-0.05l0,12.26l2.35,0.05c1.18,0.03,2.31,0.04,3.39,0.04
			c4.94,0,9.15-0.28,12.5-0.83l1.33-0.22l0.02,20.89l-1.49-0.47c-3.54-1.11-8.87-1.49-15.8-1.73l-2.28-0.08v6.03
			c0.01,6.43,0.1,13.71,1.15,18.68L345.98,291.32z"/>
		<linearGradient id="SVGID_6_" gradientUnits="userSpaceOnUse" x1="367.9173" y1="261.714" x2="411.3297" y2="250.0817">
			<stop  offset="0" style="stop-color:#A9996E"/>
			<stop  offset="0.386" style="stop-color:#E4D4B0"/>
			<stop  offset="1" style="stop-color:#A9996E"/>
		</linearGradient>
		<path class="st10" d="M379.41,291.08c6.64,0.44,13.35,0.91,19.99,1.41c-1.25-4.6-1.49-10.1-1.49-18.66l0-36.06
			c0-6.91,0.87-14.75,1.64-18.63l-20.29-0.02c0.77,3.92,1.65,11.44,1.65,18.28l0.02,35.53C380.94,282.16,380.95,286.1,379.41,291.08
			 M402.59,294.96l-1.7-0.13c-7.66-0.58-15.42-1.12-23.08-1.63l-1.48-0.09l0.47-1.37c1.85-5.35,1.85-9.02,1.85-18.8l-0.01-35.53
			c0-7.48-1.12-16.06-1.89-19.13l-0.35-1.37l26.05,0.03l-0.37,1.39c-0.77,2.85-1.88,11.85-1.88,19.45v36.06
			c0,9.31,0.29,14.89,1.86,19.54L402.59,294.96z"/>
		<linearGradient id="SVGID_7_" gradientUnits="userSpaceOnUse" x1="277.9196" y1="259.0043" x2="320.3589" y2="247.6327">
			<stop  offset="0" style="stop-color:#A9996E"/>
			<stop  offset="0.386" style="stop-color:#E4D4B0"/>
			<stop  offset="1" style="stop-color:#A9996E"/>
		</linearGradient>
		<path class="st11" d="M289.1,286.79c6.6,0.19,13.31,0.41,19.97,0.66c-1.24-4.26-1.48-9.39-1.49-17.34l-0.02-33.7
			c-0.01-6.42,0.85-13.67,1.61-17.33l-20.25-0.02c0.77,3.72,1.64,10.77,1.65,17.17l0.01,33.49
			C290.59,278.36,290.59,282.08,289.1,286.79 M312.3,289.79l-1.69-0.06c-7.71-0.29-15.49-0.55-23.11-0.77l-1.57-0.04l0.53-1.43
			c1.85-5.11,1.85-8.55,1.84-17.77l-0.02-33.49c-0.01-7.04-1.12-15.12-1.9-18.01l-0.37-1.38l26.1,0.01l-0.41,1.4
			c-0.75,2.66-1.87,11.05-1.86,18.15l0.02,33.7c0.01,8.68,0.3,13.87,1.86,18.14L312.3,289.79z"/>
		<linearGradient id="SVGID_8_" gradientUnits="userSpaceOnUse" x1="120.0111" y1="258.6376" x2="162.7567" y2="247.1839">
			<stop  offset="0" style="stop-color:#A9996E"/>
			<stop  offset="0.386" style="stop-color:#E4D4B0"/>
			<stop  offset="1" style="stop-color:#A9996E"/>
		</linearGradient>
		<path class="st12" d="M131.43,219.06c0.76,3.76,1.63,10.88,1.62,17.32l-0.02,33.77c0,8.65-0.01,12.39-1.49,17.21
			c6.66-0.24,13.36-0.45,19.97-0.64c-1.24-4.14-1.48-9.22-1.48-17.14l0.02-33.36c0-6.36,0.87-13.52,1.63-17.15L131.43,219.06z
			 M128.33,289.69l0.54-1.53c1.86-5.27,1.86-8.74,1.87-18.02l0.03-33.77c0-7.17-1.09-15.14-1.87-18.15l-0.36-1.38l26.09-0.01
			l-0.41,1.41c-0.76,2.62-1.88,10.92-1.89,17.96l-0.02,33.36c-0.01,8.6,0.27,13.72,1.83,17.83l0.55,1.45l-1.59,0.05
			c-7.64,0.2-15.41,0.46-23.11,0.74L128.33,289.69z"/>
	</g>
</g>
</svg>
