<?xml version="1.0" encoding="utf-8"?>
<!-- Generator: Adobe Illustrator 24.0.0, SVG Export Plug-In . SVG Version: 6.00 Build 0)  -->
<svg version="1.1" xmlns="http://www.w3.org/2000/svg" xmlns:xlink="http://www.w3.org/1999/xlink" x="0px" y="0px"
	 viewBox="0 0 459.37 523.59" style="enable-background:new 0 0 459.37 523.59;" xml:space="preserve">
<style type="text/css">
	.st0{fill:#1D1D1B;}
</style>
<g id="Layer_2">
</g>
<g id="Layer_1">
	<g>
		<path class="st0" d="M229.85,0L0,130.79v260.9l227.81,130.74l2.03,1.17l229.52-131.91V130.79L229.85,0z M451.21,386.96
			L229.84,514.19L8.16,386.96V135.53L229.84,9.39l221.37,126.14V386.96z"/>
		<path class="st0" d="M238.53,150.01c1.78,8.29,3.03,17.6,3.02,27.4c0,16.91-3.7,32.38-7.43,43.57c-1.34,4.1-2.69,7.63-3.87,10.42
			c-4.37-10.52-11.33-30.92-11.29-53.99c0-9.92,1.29-19.31,3.09-27.67c-4.52,14.33-8.47,32.38-8.47,51.87
			c-0.07,31.33,10.22,59.05,16.67,73.34c1.74-3.79,3.74-8.59,5.72-14.15c5.51-15.2,10.97-36.22,10.97-59.19
			C246.96,182.25,243.04,164.3,238.53,150.01z"/>
		<path class="st0" d="M17.84,141.11v240.3l211,121.09l1,0.57l210.69-121.09l1-0.58v-240.3L230.83,21.05l-0.99-0.56L17.84,141.11z
			 M216.51,32.67c0.01,0.09,0.03,0.19,0.04,0.28c0.63,4.03,1.21,8.13,1.91,12.25c0.83,4.09,1.66,8.23,2.51,12.42
			c0.87,4.19,1.63,8.47,2.78,12.67c0.69,2.7,1.37,5.43,2.05,8.17l-4.03,6.92c-1.36-5.65-2.54-11.28-3.79-16.79
			c-1.03-4.2-1.66-8.46-2.41-12.63c-0.73-4.18-1.46-8.31-2.16-12.39c-0.41-2.86-0.75-5.7-1.1-8.52L216.51,32.67z M249.85,304.65
			c10.29-1.48,29.46-6.65,52.48-24.69c21.22-16.62,31.34-41.55,31.34-41.55s-18.52,18.6-39.65,31.79
			c-21.7,13.55-35.21,15.7-35.21,15.7c1.81-7.76,9.35-20.5,15.25-29.93c5.9-9.43,18.91-20.97,18.91-20.97s-11.18,6.85-15.47,9.77
			c-4.29,2.92-10.72,8.19-10.72,8.19s4.46-11.83,5.9-15.98c2.25-2.09,4.57-4.15,6.99-6.16c20.75-17.17,43.52-27.38,61.17-33.46
			c17.63-6.02,30.16-7.82,30.46-7.84l11.09-1.54l-3.63,10.57c-0.05,0.31-4.18,12.28-13.31,28.46c-9.25,16.22-23.55,36.7-44.23,53.89
			c-20.75,17.16-43.54,27.43-61.17,33.44c-1.74,0.57-3.47,1.15-5.1,1.64c12.19,4.36,28.37,8.52,45.86,8.48
			c11.9,0,23.2-1.9,33.03-4.48c-3.24,0.57-6.6,0.99-10.08,1.12c-11.66,0.51-22.47-2.04-30.39-4.65c-2.8-0.94-5.26-1.89-7.21-2.74
			c7.16-3.8,21-9.79,36.93-10.39c2.39-0.11,4.74-0.06,7.05,0.07c-7.23-1.71-15.1-3.02-23.39-3.43c6.91-3.13,13.66-6.67,19.62-11.45
			c28.6,5.34,48.64,17.51,49.06,17.73l9.78,5.88l-9.78,5.91c-0.55,0.25-33.08,20.09-74.62,20.17c-25.62-0.02-47.86-7.61-61.22-13.49
			c3.49,8.1,9,18.23,17.19,27.05c8.42,9.22,18.46,15.71,26.4,19.85c-3.47-8.21-9.07-18.78-17.58-27.98
			c-0.8-0.87-1.61-1.72-2.48-2.56c5.6,1.55,12.79,2.89,21.16,3.98c12.99,18.68,16.9,37,17.06,37.53l2.57,11.52l-11.34-3.47
			c-0.57-0.24-25.99-7.94-45.93-29.53c-7.19-7.9-12.53-16.31-16.41-23.9c-3.83,7.59-9.2,16-16.41,23.9
			c-19.95,21.59-45.36,29.29-45.93,29.53l-11.27,3.47l2.55-11.52c0.14-0.53,4.06-18.85,17.03-37.53c8.38-1.09,15.59-2.43,21.16-3.98
			c-0.85,0.84-1.7,1.69-2.5,2.56c-8.49,9.2-14.07,19.77-17.54,27.98c7.92-4.13,17.93-10.63,26.4-19.85
			c8.17-8.83,13.66-18.95,17.17-27.05c-13.38,5.88-35.63,13.46-61.22,13.49c-41.5-0.07-74.1-19.91-74.62-20.17l-9.8-5.91l9.8-5.88
			c0.39-0.22,20.5-12.39,49.08-17.73c5.99,4.79,12.67,8.32,19.6,11.45c-8.33,0.42-16.27,1.72-23.52,3.44
			c2.37-0.13,4.78-0.19,7.25-0.08c15.84,0.6,29.68,6.59,36.84,10.39c-1.95,0.85-4.36,1.8-7.21,2.74c-7.87,2.6-18.71,5.15-30.39,4.65
			c-3.45-0.12-6.78-0.54-10-1.1c9.81,2.57,21.07,4.47,32.97,4.47c17.51,0.04,33.7-4.12,45.86-8.48c-1.65-0.49-3.35-1.07-5.1-1.64
			c-17.67-6.01-40.47-16.28-61.15-33.44c-20.71-17.18-35.03-37.67-44.21-53.89c-9.18-16.18-13.29-28.15-13.4-28.46l-3.6-10.57
			l11.09,1.54c0.37,0.02,12.85,1.82,30.51,7.84c17.65,6.07,40.4,16.29,61.17,33.46c2.56,2.13,5.01,4.32,7.39,6.55
			c1.57,4.47,5.76,15.59,5.76,15.59s-6.43-5.26-10.72-8.19c-4.29-2.92-15.47-9.77-15.47-9.77s13.01,11.54,18.91,20.97
			c5.9,9.43,13.45,22.17,15.25,29.93c0,0-13.51-2.16-35.21-15.7c-21.13-13.19-39.65-31.79-39.65-31.79s10.12,24.92,31.34,41.55
			c23.03,18.04,42.2,23.21,52.48,24.69c9,1.3,13.01,1.31,13.01,1.31s-3.41-6.83-9.57-23.1c-4.01-10.59-8.64-24.25-11.77-35.33
			c-3.16-13.78-5.43-29.36-5.43-45.93c0.07-57.6,26.86-103.28,27.16-103.86l5.92-10.17l5.92,10.17
			c0.3,0.57,27.13,46.25,27.22,103.86c-0.09,19.08-3.05,36.87-7.02,52.11c-2.96,9.7-6.66,20.46-9.95,29.15
			c-6.16,16.26-9.57,23.1-9.57,23.1S240.85,305.95,249.85,304.65z M269.54,228.2c0.36-2.63,0.66-5.25,0.92-7.87
			c3.63-1.47,7.26-2.87,10.89-4.17c2.06-0.76,4.1-1.53,6.15-2.29l0.86-0.32c-4.81,3.26-9.42,6.7-13.8,10.33
			C272.87,225.27,271.2,226.72,269.54,228.2z M174.09,214.85c1.17,0.44,2.34,0.88,3.52,1.31c4.18,1.5,8.36,3.13,12.53,4.85
			c0.24,2.38,0.52,4.76,0.85,7.16c-1.64-1.47-3.3-2.91-4.98-4.3C182.21,220.72,178.22,217.72,174.09,214.85z M209.42,36.7
			c0.27,2.5,0.54,5.01,0.86,7.54c0.65,4.13,1.31,8.32,1.98,12.56c0.69,4.24,1.27,8.56,2.23,12.83c1.43,6.78,2.73,13.75,4.4,20.71
			l-1.65,2.83c-0.57,1.01-1.42,2.56-2.48,4.59c-0.31-1.36-0.61-2.72-0.92-4.06c-2.15-8.77-3.49-17.58-5.05-26.12
			c-0.84-4.26-1.3-8.55-1.86-12.77c-0.55-4.23-1.09-8.39-1.63-12.51c-0.1-1.04-0.18-2.07-0.27-3.11L209.42,36.7z M202.03,40.91
			c0.04,0.62,0.08,1.23,0.13,1.86c0.47,4.17,0.95,8.39,1.44,12.67c0.5,4.28,0.89,8.63,1.66,12.95c1.43,8.67,2.64,17.62,4.66,26.54
			c0.61,2.93,1.23,5.9,1.85,8.87c-1.28,2.69-2.68,5.8-4.15,9.28c-0.54-2.4-1.07-4.79-1.6-7.16c-0.82-4.56-1.63-9.07-2.44-13.53
			c-1.77-8.89-2.71-17.78-3.91-26.41c-0.65-4.31-0.93-8.62-1.31-12.87c-0.28-3.25-0.55-6.45-0.83-9.64L202.03,40.91z M194.41,45.24
			c0.19,2.74,0.38,5.49,0.58,8.27c0.32,4.3,0.52,8.68,1.12,13.04c1.05,8.75,1.87,17.76,3.51,26.8c0.74,4.53,1.49,9.12,2.24,13.75
			c0.91,4.44,1.84,8.93,2.76,13.45c-1.37,3.59-2.76,7.47-4.11,11.6c-0.02-0.09-0.04-0.18-0.06-0.27c-0.5-2.34-1.07-4.66-1.51-6.99
			c-0.41-2.35-0.83-4.68-1.24-7c-0.83-4.65-1.65-9.25-2.45-13.81c-0.63-4.6-1.24-9.16-1.86-13.67c-1.38-9-1.95-17.93-2.77-26.62
			c-0.47-4.34-0.55-8.67-0.75-12.94c-0.04-0.99-0.09-1.97-0.13-2.96L194.41,45.24z M186.46,49.77c0.01,0.43,0.02,0.85,0.03,1.29
			c0.13,4.31,0.14,8.69,0.55,13.09c0.68,8.8,1.12,17.86,2.36,26.98c0.55,4.58,1.09,9.2,1.64,13.87c0.74,4.63,1.5,9.31,2.26,14.03
			c0.37,2.36,0.76,4.73,1.14,7.12c0.41,2.38,0.94,4.73,1.41,7.11c0.58,2.83,1.16,5.68,1.74,8.54c-1.35,4.82-2.62,9.89-3.75,15.21
			c-0.94-4.37-1.97-8.69-2.75-13.04c-0.85-4.82-1.68-9.59-2.52-14.33c-0.4-2.37-0.87-4.72-1.21-7.08c-0.31-2.36-0.63-4.72-0.94-7.07
			c-0.63-4.69-1.24-9.34-1.86-13.95c-0.42-4.63-0.84-9.22-1.26-13.76c-0.99-9.08-1.18-18.03-1.62-26.76
			c-0.19-2.83-0.21-5.64-0.21-8.44L186.46,49.77z M178,54.58c-0.02,2.18-0.02,4.37,0.09,6.58c0.3,8.83,0.34,17.9,1.19,27.1
			c0.35,4.61,0.69,9.26,1.05,13.95c0.54,4.67,1.09,9.39,1.64,14.16c0.28,2.38,0.56,4.77,0.84,7.18c0.3,2.4,0.74,4.78,1.1,7.19
			c0.76,4.81,1.53,9.67,2.31,14.57c0.8,4.88,1.9,9.74,2.85,14.68c0.76,3.68,1.43,7.41,2.25,11.12c-1.1,7.55-1.84,15.46-2.1,23.65
			c-0.16-0.63-0.32-1.26-0.48-1.89l-0.94-3.72l-0.79-3.75c-1.06-4.99-2.12-9.96-3.16-14.88c-1.14-4.9-1.84-9.88-2.72-14.77
			c-0.81-4.91-1.77-9.75-2.44-14.6c-0.63-4.87-1.27-9.69-1.89-14.47c-0.3-2.39-0.66-4.77-0.89-7.15c-0.21-2.38-0.43-4.75-0.64-7.12
			c-0.42-4.73-0.84-9.41-1.25-14.05c-0.23-4.65-0.45-9.26-0.67-13.83c-0.6-9.12-0.4-18.08-0.46-26.83c0-0.07,0-0.15,0-0.22
			L178,54.58z M163.87,62.62l5.39-3.07c-0.11,8.22-0.37,16.63,0.04,25.19c0.15,4.62,0.29,9.29,0.44,14.01
			c0.34,4.7,0.68,9.45,1.04,14.24c0.18,2.4,0.35,4.8,0.53,7.22c0.2,2.42,0.53,4.82,0.78,7.25c0.56,4.86,1.12,9.76,1.68,14.69
			c0.59,4.93,1.48,9.85,2.22,14.84c0.81,4.97,1.44,10.04,2.51,15.03c0.98,5.01,1.96,10.06,2.95,15.15l0.74,3.82l0.89,3.79
			c0.59,2.53,1.19,5.07,1.79,7.62c0.72,3.16,1.46,6.32,2.25,9.48c-2.61-0.95-5.21-1.86-7.8-2.72c-2.1-0.73-4.19-1.45-6.27-2.18
			l-3.12-1.08l-3.15-0.91c-4.18-1.21-8.33-2.4-12.46-3.59c-1.89-0.6-3.79-1.07-5.69-1.52c-8.32-4.09-17.11-7.73-26.32-10.9
			c-5.51-1.88-10.55-3.36-14.95-4.53c0.22,0.01,0.44,0.03,0.65,0.04c1.98,0.16,3.94,0.48,5.93,0.72c3.96,0.51,7.96,1.02,11.99,1.54
			c4.03,0.55,8.06,1.46,12.13,2.18c4.06,0.82,8.18,1.4,12.27,2.52c4.1,1.02,8.23,2.04,12.39,3.06l3.13,0.77l3.1,0.95
			c2.07,0.63,4.15,1.26,6.24,1.9c0.28,0.08,0.55,0.16,0.82,0.24c-0.06-0.33-0.13-0.66-0.2-1c-0.52-2.54-1.05-5.07-1.57-7.59
			l-0.78-3.77l-0.63-3.8c-0.84-5.06-1.69-10.07-2.52-15.06c-0.93-4.97-1.4-9.98-2.08-14.92c-0.6-4.95-1.35-9.84-1.8-14.73
			c-0.43-4.9-0.85-9.75-1.27-14.57c-0.2-2.41-0.46-4.8-0.59-7.19c-0.11-2.39-0.22-4.78-0.33-7.15c-0.22-4.75-0.43-9.45-0.65-14.1
			c-0.03-4.67-0.05-9.28-0.07-13.85C163.4,74.55,163.62,68.55,163.87,62.62z M90.43,104.41c1.54-0.4,3.08-0.79,4.63-1.19
			c0.73-0.18,1.46-0.36,2.2-0.52c0.12-0.8,0.25-1.6,0.38-2.39l7.47-4.25c-0.54,3.69-1.08,7.39-1.63,11.13
			c-0.12,0.88-0.23,1.76-0.34,2.65c-0.74,0.13-1.46,0.27-2.18,0.42c-4.04,0.87-8.05,1.74-12.02,2.6c-1.98,0.45-3.96,0.81-5.92,1.33
			c-1.95,0.54-3.89,1.09-5.82,1.63c-3.86,1.08-7.68,2.15-11.46,3.21c-0.83,0.28-1.65,0.57-2.47,0.85L90.43,104.41z M21.84,143.44
			l17.62-10.03c5.29-2.09,10.67-4.22,16.27-5.85c3.63-1.15,7.31-2.33,11.02-3.5c3.76-0.96,7.56-1.92,11.39-2.89
			c1.91-0.49,3.83-0.98,5.76-1.47c1.94-0.47,3.91-0.77,5.87-1.17c3.94-0.75,7.91-1.51,11.9-2.28c1.99-0.36,3.99-0.64,6-0.9
			c0.21-2.45,0.44-4.88,0.74-7.29c0.63-4.87,1.25-9.69,1.88-14.47c0.02-0.18,0.05-0.36,0.07-0.54l6.99-3.98
			c-0.18,1.26-0.37,2.52-0.55,3.79c-0.32,2.39-0.52,4.83-0.78,7.25c-0.5,4.87-1,9.77-1.51,14.72c-0.25,2.68-0.43,5.38-0.59,8.09
			c-2.23,0.2-4.45,0.41-6.66,0.72c-4.07,0.62-8.11,1.23-12.12,1.83c-1.99,0.32-3.99,0.56-5.97,0.95c-1.97,0.42-3.93,0.84-5.88,1.25
			c-3.9,0.84-7.76,1.66-11.59,2.47c-3.79,1.04-7.53,2.08-11.25,3.1c-7.45,1.86-14.56,4.61-21.58,7c-3.52,1.11-6.89,2.67-10.25,4.07
			c-2.29,0.97-4.54,1.92-6.79,2.87V143.44z M21.84,151.35c2.59-1.02,5.21-2.06,7.85-3.1c3.35-1.3,6.7-2.76,10.21-3.78
			c6.98-2.19,14.04-4.74,21.45-6.4c3.68-0.92,7.4-1.86,11.17-2.8c3.79-0.71,7.62-1.44,11.48-2.16c1.94-0.37,3.87-0.73,5.82-1.1
			c1.96-0.34,3.93-0.52,5.92-0.79c3.95-0.5,7.95-1.01,11.99-1.52c3.64-0.43,7.34-0.58,11.06-0.84c0.21-4.52,0.33-9.01,0.69-13.44
			c0.42-4.9,0.84-9.76,1.25-14.57c0.23-2.4,0.38-4.81,0.66-7.19c0.3-2.37,0.6-4.73,0.9-7.08c0.01-0.11,0.03-0.22,0.04-0.33
			l6.61-3.76c-0.33,3.32-0.67,6.65-1.01,10.02c-0.24,2.39-0.48,4.79-0.72,7.2c-0.22,2.41-0.31,4.85-0.47,7.29
			c-0.29,4.89-0.57,9.82-0.87,14.8c-0.26,4.98-0.23,10.01-0.37,15.08c0,0.04,0,0.08,0,0.11c-0.03,0-0.07,0-0.09,0
			c-4.17,0.16-8.31,0.13-12.41,0.45c-4.09,0.36-8.15,0.71-12.18,1.06c-2.01,0.2-4.01,0.31-6,0.57c-1.98,0.3-3.96,0.59-5.92,0.88
			c-3.93,0.58-7.83,1.16-11.67,1.73c-3.83,0.8-7.62,1.6-11.37,2.38c-7.52,1.38-14.74,3.68-21.85,5.61c-3.56,0.89-7,2.23-10.42,3.41
			c-3.41,1.2-6.78,2.39-10.11,3.56c-0.55,0.22-1.08,0.45-1.62,0.68V151.35z M21.84,161.36c0.85-0.34,1.7-0.68,2.56-1.01
			c3.31-1.08,6.68-2.17,10.07-3.28c3.4-1.08,6.81-2.33,10.35-3.12c7.06-1.74,14.23-3.84,21.7-5.03c3.72-0.69,7.47-1.38,11.27-2.08
			c3.82-0.47,7.68-0.95,11.57-1.43c1.94-0.24,3.89-0.48,5.86-0.73c1.97-0.22,3.96-0.27,5.95-0.42c3.97-0.25,7.99-0.5,12.03-0.75
			c4.05-0.22,8.14-0.09,12.26-0.15c1.75,0.02,3.5-0.01,5.26-0.02c0.01-2.14,0.04-4.26,0.02-6.38c0.05-5.01-0.05-9.98,0.12-14.9
			c0.2-4.92,0.42-9.8,0.62-14.63c0.12-2.41,0.16-4.83,0.34-7.21c0.2-2.39,0.4-4.76,0.6-7.13c0.36-4.44,0.73-8.83,1.1-13.2l6.39-3.64
			c-0.26,2.7-0.53,5.4-0.8,8.14c-0.26,4.7-0.53,9.46-0.81,14.26c-0.14,2.4-0.27,4.81-0.41,7.24c-0.12,2.42-0.1,4.86-0.16,7.31
			c-0.07,4.9-0.15,9.84-0.23,14.83c-0.05,4.99,0.2,10.01,0.28,15.08c0.1,3.01,0.13,6.04,0.22,9.08c-2.5-0.11-5-0.14-7.47-0.26
			c-4.17-0.1-8.31-0.4-12.41-0.33c-4.1,0.1-8.17,0.19-12.21,0.28c-2.02,0.07-4.02,0.05-6.02,0.19c-2,0.17-3.98,0.33-5.95,0.5
			c-3.96,0.33-7.87,0.66-11.74,0.99c-3.85,0.56-7.67,1.11-11.44,1.65c-7.58,0.9-14.89,2.74-22.07,4.22
			c-3.6,0.66-7.08,1.78-10.55,2.74c-3.46,0.98-6.88,1.96-10.25,2.92c-2.04,0.68-4.05,1.4-6.04,2.13V161.36z M21.84,171.05
			c2.25-0.75,4.51-1.51,6.82-2.23c3.35-0.87,6.75-1.75,10.19-2.64c3.45-0.87,6.91-1.9,10.48-2.46c7.12-1.29,14.38-2.93,21.88-3.64
			c3.74-0.45,7.53-0.91,11.34-1.36c3.83-0.23,7.71-0.46,11.61-0.69c1.95-0.12,3.91-0.24,5.89-0.35c1.97-0.09,3.96-0.02,5.95-0.04
			c3.98,0,8,0.01,12.05,0.01c4.05,0.04,8.13,0.43,12.25,0.63c4.11,0.3,8.27,0.35,12.42,0.95c0.4,0.05,0.78,0.09,1.17,0.14
			c-0.04-0.48-0.07-0.95-0.11-1.42c-0.49-5.06-0.55-10.11-0.79-15.1c-0.16-5-0.48-9.96-0.52-14.88c0-4.92,0-9.81-0.01-14.65
			c0.01-2.42-0.04-4.84,0.04-7.23c0.09-2.4,0.19-4.78,0.29-7.15c0.19-4.75,0.38-9.45,0.57-14.11c0.3-3.72,0.6-7.4,0.9-11.05
			l5.9-3.36c-0.12,1.8-0.23,3.61-0.3,5.43c-0.26,4.61-0.5,9.27-0.76,13.98c-0.07,4.72-0.14,9.48-0.2,14.29
			c-0.03,2.41-0.07,4.82-0.1,7.25c-0.01,2.43,0.11,4.87,0.16,7.31c0.14,4.9,0.27,9.84,0.41,14.83c0.16,4.99,0.61,9.99,0.92,15.04
			c0.38,5.05,0.57,10.17,1.2,15.26c0.2,1.83,0.39,3.67,0.59,5.52c-1.52-0.24-3.04-0.48-4.54-0.71c-4.19-0.77-8.4-1-12.55-1.46
			c-4.16-0.36-8.28-0.92-12.38-1.12c-4.1-0.17-8.17-0.33-12.2-0.49c-2.01-0.06-4.02-0.21-6.02-0.2c-1.99,0.04-3.98,0.08-5.96,0.12
			c-3.96,0.08-7.88,0.16-11.77,0.24c-3.87,0.31-7.7,0.62-11.51,0.93c-7.6,0.42-14.97,1.78-22.2,2.81
			c-3.63,0.43-7.16,1.33-10.66,2.07c-3.5,0.76-6.95,1.52-10.36,2.26c-3.39,0.9-6.71,1.93-9.99,2.87c-0.03,0.01-0.07,0.02-0.1,0.03
			V171.05z M21.84,180.36c0.26-0.07,0.52-0.14,0.78-0.21c3.26-0.85,6.56-1.79,9.93-2.6c3.38-0.65,6.82-1.32,10.29-1.99
			c3.48-0.65,6.98-1.45,10.58-1.79c7.16-0.84,14.47-2.02,22-2.24c3.76-0.21,7.56-0.43,11.39-0.64c3.84,0.01,7.71,0.03,11.63,0.04
			c1.95,0.01,3.91,0.02,5.89,0.02c1.97,0.03,3.96,0.23,5.94,0.34c3.98,0.26,7.99,0.52,12.04,0.78c4.05,0.29,8.1,0.95,12.21,1.41
			c4.09,0.56,8.24,0.88,12.37,1.74c3.92,0.71,7.87,1.42,11.85,2.14c-0.6-4.83-1.19-9.63-1.78-14.39
			c-0.71-5.02-0.97-10.06-1.43-15.03c-0.38-4.98-0.91-9.92-1.16-14.83c-0.22-4.92-0.43-9.79-0.64-14.63
			c-0.09-2.42-0.25-4.82-0.28-7.22c-0.01-2.4-0.01-4.79-0.02-7.16c-0.01-4.76-0.03-9.47-0.04-14.13c0.18-4.66,0.36-9.27,0.53-13.84
			c0.06-2.72,0.19-5.4,0.36-8.07l5.72-3.25c-0.29,5.19-0.53,10.44-0.5,15.77c-0.05,4.62-0.1,9.29-0.16,14.01
			c0.14,4.72,0.28,9.48,0.42,14.29c0.07,2.4,0.14,4.82,0.22,7.25c0.09,2.42,0.31,4.85,0.48,7.29c0.34,4.88,0.69,9.81,1.04,14.78
			c0.38,4.97,1.05,9.93,1.58,14.96c0.58,5.02,0.99,10.12,1.85,15.16c0.76,5.07,1.53,10.17,2.29,15.32l0.59,3.87l0.22,1.14
			l-0.94-0.26l-3.18-0.71c-4.24-0.94-8.44-1.87-12.61-2.8c-4.15-1.03-8.35-1.53-12.48-2.26c-4.14-0.63-8.23-1.45-12.31-1.91
			c-4.08-0.43-8.15-0.85-12.16-1.27c-2.02-0.19-4.01-0.46-6-0.58c-2-0.09-3.99-0.17-5.97-0.26c-3.96-0.17-7.87-0.34-11.76-0.51
			c-3.87,0.07-7.72,0.13-11.52,0.19c-1.95-0.02-3.88,0.03-5.8,0.12l-7.05-0.98l0.48,1.41c-3.35,0.27-6.66,0.59-9.94,0.84
			c-3.63,0.2-7.2,0.87-10.72,1.39c-3.53,0.54-7.01,1.07-10.44,1.6c-3.42,0.69-6.78,1.5-10.1,2.23c-1.23,0.28-2.44,0.55-3.66,0.82
			V180.36z M21.84,189.32c1.39-0.28,2.78-0.55,4.18-0.84c3.3-0.64,6.63-1.36,10.03-1.96c3.41-0.44,6.86-0.88,10.36-1.33
			c3.49-0.42,7.02-1,10.63-1.11c3.69-0.2,7.43-0.48,11.21-0.67L70.5,190c-3.49,0.06-6.94,0.17-10.35,0.22
			c-3.64-0.03-7.23,0.41-10.78,0.7c-3.54,0.31-7.04,0.62-10.5,0.93c-3.44,0.47-6.83,1.06-10.17,1.58c-1.68,0.26-3.33,0.53-4.99,0.79
			c-0.63,0.1-1.25,0.2-1.87,0.3V189.32z M21.84,198c0.75-0.11,1.51-0.21,2.28-0.31c1.64-0.22,3.29-0.44,4.94-0.67
			c3.32-0.43,6.69-0.94,10.1-1.32c3.42-0.22,6.9-0.44,10.41-0.66c3.52-0.2,7.07-0.56,10.67-0.44c3.9,0.04,7.86-0.01,11.85,0.05
			l2.04,5.97c0.08,0.22,0.18,0.5,0.29,0.8c-3.82-0.2-7.61-0.3-11.34-0.49c-3.64-0.26-7.24-0.05-10.79,0.02
			c-3.55,0.09-7.06,0.18-10.53,0.26c-3.45,0.25-6.86,0.63-10.23,0.93c-1.68,0.16-3.35,0.32-5,0.48c-1.58,0.16-3.14,0.27-4.68,0.55
			V198z M21.84,206.56c0.01,0,0.02,0,0.03,0c1.61-0.29,3.25-0.35,4.9-0.47c1.65-0.12,3.3-0.23,4.96-0.35
			c3.34-0.22,6.72-0.51,10.15-0.67c3.44,0,6.91-0.01,10.42-0.01c3.52,0.02,7.08-0.11,10.68,0.24c4.38,0.33,8.82,0.54,13.31,0.93
			c0.81,1.98,1.84,4.37,3.09,7.1c-4.67-0.6-9.3-1-13.85-1.52c-3.62-0.49-7.22-0.51-10.77-0.67c-3.55-0.14-7.06-0.27-10.52-0.4
			c-3.46,0.03-6.89,0.19-10.26,0.28c-1.69,0.06-3.37,0.11-5.03,0.16c-1.66,0.06-3.32,0.06-4.95,0.28c-0.72,0.08-1.44,0.15-2.15,0.22
			V206.56z M21.84,214.98c0.77-0.06,1.53-0.12,2.3-0.18c1.61-0.18,3.26-0.14,4.9-0.16c1.65-0.01,3.31-0.02,4.99-0.03
			c3.33-0.01,6.72-0.09,10.15-0.03c3.42,0.22,6.89,0.44,10.4,0.66c3.51,0.25,7.07,0.34,10.65,0.92c5.44,0.76,10.99,1.34,16.6,2.31
			c1.18,2.4,2.5,4.97,3.98,7.69c-6.17-1.41-12.31-2.28-18.29-3.35c-3.59-0.72-7.19-0.96-10.73-1.35c-3.54-0.36-7.04-0.72-10.49-1.08
			c-3.47-0.19-6.89-0.25-10.26-0.37c-1.69-0.05-3.36-0.11-5.03-0.16c-1.66-0.04-3.31-0.15-4.96-0.04c-1.42,0.06-2.81,0.11-4.21,0.17
			V214.98z M21.84,223.25c1.4-0.02,2.79-0.04,4.21-0.07c1.62-0.08,3.26,0.07,4.91,0.15c1.64,0.09,3.3,0.19,4.97,0.28
			c3.33,0.21,6.72,0.34,10.14,0.61c3.42,0.44,6.87,0.88,10.37,1.32c3.5,0.46,7.05,0.79,10.6,1.59c7.11,1.45,14.42,2.61,21.74,4.76
			c0.1,0.03,0.19,0.05,0.29,0.08c1.71,2.96,3.46,5.86,5.27,8.7c-1.16-0.36-2.33-0.71-3.48-1.07c-7.34-2.46-14.7-3.93-21.83-5.67
			c-3.56-0.94-7.15-1.42-10.66-2.03c-3.52-0.59-7-1.17-10.43-1.74c-3.44-0.41-6.86-0.68-10.22-1.02c-1.68-0.16-3.35-0.32-5.01-0.48
			c-1.66-0.15-3.3-0.36-4.94-0.35c-1.99-0.05-3.96-0.09-5.91-0.14V223.25z M21.84,231.39c1.9,0.09,3.82,0.18,5.76,0.28
			c1.63,0.02,3.25,0.28,4.89,0.46c1.64,0.2,3.3,0.4,4.97,0.6c3.32,0.42,6.69,0.77,10.1,1.26c3.39,0.65,6.82,1.31,10.3,1.97
			c3.47,0.69,7,1.24,10.51,2.27c7.03,1.9,14.28,3.52,21.5,6.13c2.94,0.98,5.91,1.97,8.9,2.97c2.58,3.74,5.25,7.35,8,10.84
			c-1.37-0.61-2.77-1.23-4.13-1.83c-3.71-1.4-7.38-2.78-11.02-4.15c-7.22-2.92-14.51-4.86-21.56-7.05
			c-3.51-1.17-7.07-1.87-10.56-2.71c-3.49-0.81-6.94-1.61-10.34-2.4c-3.43-0.63-6.83-1.12-10.17-1.67c-1.67-0.27-3.34-0.53-4.98-0.8
			c-1.65-0.26-3.29-0.57-4.93-0.66c-2.45-0.22-4.85-0.43-7.24-0.63V231.39z M21.84,266.26c2.95-0.84,5.95-1.68,8.97-2.54
			c0.42-0.11,0.85-0.23,1.26-0.36c-0.41-0.13-0.83-0.25-1.26-0.35c-3.03-0.86-6.02-1.71-8.97-2.54v-4.89
			c2.69,0.65,5.42,1.31,8.19,1.98c1.6,0.34,3.18,0.9,4.78,1.39c1.59,0.51,3.19,1.02,4.81,1.53c2.95,0.96,5.96,1.86,8.97,2.88
			c-3.01,1.01-6.02,1.92-8.97,2.88c-1.62,0.52-3.22,1.03-4.81,1.53c-1.6,0.5-3.18,1.06-4.78,1.39c-2.76,0.67-5.49,1.33-8.19,1.98
			V266.26z M21.84,274.36c2.89-0.62,5.8-1.26,8.77-1.9c1.62-0.3,3.22-0.83,4.84-1.3c1.62-0.46,3.25-0.94,4.88-1.42
			c3.28-0.98,6.62-1.9,9.97-2.96c3.07-1.12,6.18-2.27,9.32-3.42c-3.14-1.15-6.25-2.29-9.32-3.42c-3.35-1.06-6.69-1.98-9.97-2.96
			c-1.64-0.48-3.27-0.96-4.88-1.43c-1.62-0.46-3.22-0.98-4.84-1.28c-2.97-0.64-5.88-1.27-8.77-1.9v-4.86
			c2.56,0.45,5.14,0.91,7.76,1.37c1.61,0.23,3.2,0.69,4.82,1.09c1.62,0.4,3.24,0.81,4.88,1.22c3.27,0.84,6.6,1.62,9.94,2.54
			c3.31,1.07,6.67,2.17,10.06,3.27c3.4,1.13,6.86,2.12,10.26,3.59c2.31,0.94,4.64,1.85,6.98,2.77c-2.34,0.93-4.67,1.84-6.98,2.77
			c-3.4,1.47-6.86,2.46-10.26,3.59c-3.39,1.11-6.75,2.2-10.06,3.27c-3.34,0.92-6.67,1.7-9.94,2.53c-1.64,0.42-3.26,0.83-4.88,1.23
			c-1.62,0.4-3.21,0.85-4.82,1.08c-2.62,0.46-5.2,0.92-7.76,1.37V274.36z M21.84,282.41c2.7-0.41,5.42-0.82,8.19-1.24
			c1.64-0.2,3.25-0.61,4.89-0.98c1.64-0.37,3.29-0.74,4.94-1.12c3.31-0.76,6.69-1.47,10.09-2.31c3.36-1.01,6.77-2.03,10.22-3.06
			c3.45-1.05,6.98-1.98,10.43-3.38c5.91-2.24,12-4.31,18.06-6.96c-6.05-2.64-12.15-4.72-18.06-6.97c-3.45-1.39-6.98-2.32-10.43-3.37
			c-3.44-1.03-6.85-2.05-10.22-3.05c-3.4-0.85-6.77-1.55-10.09-2.32c-1.66-0.37-3.31-0.74-4.94-1.12c-1.64-0.36-3.25-0.78-4.89-0.98
			c-2.76-0.42-5.49-0.83-8.19-1.24v-4.85c2.29,0.26,4.6,0.51,6.94,0.78c1.62,0.13,3.24,0.48,4.87,0.78c1.63,0.3,3.27,0.61,4.92,0.91
			c3.3,0.63,6.66,1.19,10.04,1.9c3.35,0.86,6.75,1.74,10.2,2.63c3.44,0.91,6.93,1.68,10.4,2.93c6.93,2.34,14.1,4.42,21.21,7.49
			c3.57,1.44,7.17,2.89,10.82,4.36c1.49,0.7,2.99,1.41,4.5,2.12c-1.51,0.71-3.01,1.42-4.5,2.12c-3.65,1.47-7.25,2.93-10.82,4.36
			c-7.1,3.07-14.27,5.16-21.21,7.49c-3.46,1.25-6.96,2.03-10.4,2.93c-3.45,0.89-6.84,1.76-10.2,2.63c-3.38,0.71-6.74,1.27-10.04,1.9
			c-1.65,0.31-3.29,0.61-4.92,0.91c-1.63,0.29-3.25,0.65-4.87,0.78c-2.34,0.26-4.65,0.52-6.94,0.78V282.41z M21.84,290.47
			c2.39-0.21,4.79-0.42,7.24-0.63c1.64-0.09,3.27-0.41,4.93-0.67c1.64-0.27,3.31-0.53,4.98-0.81c3.34-0.55,6.74-1.04,10.17-1.66
			c3.4-0.79,6.85-1.6,10.34-2.41c3.49-0.84,7.05-1.54,10.56-2.71c7.05-2.2,14.34-4.13,21.56-7.05c3.64-1.36,7.31-2.75,11.02-4.15
			c3.45-1.53,6.93-3.07,10.44-4.63c1.75,2.01,3.54,3.97,5.35,5.88c-0.31,0.14-0.61,0.29-0.93,0.42c-1.88,0.75-3.74,1.49-5.61,2.23
			c-3.71,1.48-7.39,2.96-11.04,4.41c-3.7,1.23-7.37,2.45-10.99,3.66c-7.22,2.61-14.47,4.24-21.5,6.14
			c-3.51,1.02-7.04,1.57-10.51,2.26c-3.47,0.67-6.91,1.32-10.3,1.98c-3.4,0.48-6.78,0.83-10.1,1.26c-1.66,0.2-3.32,0.4-4.97,0.6
			c-1.64,0.19-3.26,0.44-4.89,0.46c-1.94,0.1-3.86,0.19-5.76,0.28V290.47z M21.84,298.56c1.96-0.04,3.92-0.09,5.91-0.13
			c1.64,0.01,3.29-0.2,4.94-0.35c1.66-0.16,3.33-0.32,5.01-0.48c3.36-0.34,6.78-0.62,10.22-1.03c3.44-0.58,6.91-1.15,10.43-1.75
			c3.52-0.61,7.1-1.08,10.66-2.03c7.13-1.74,14.5-3.2,21.83-5.67c3.69-1.13,7.42-2.28,11.18-3.44c3.71-1.38,7.46-2.78,11.25-4.19
			c1.89-0.71,3.8-1.42,5.71-2.13c1.2-0.46,2.37-0.99,3.55-1.51c1.72,1.7,3.46,3.36,5.23,4.98l-1,0.21l-0.05,0.04
			c-4.17,0.94-8.32,2.04-12.38,3.28c-12.06,3.68-21.53,7.97-27.46,10.99c-6.69,1.82-13.36,2.91-19.86,4.23
			c-3.54,0.81-7.1,1.12-10.6,1.59c-3.49,0.45-6.94,0.89-10.37,1.32c-3.41,0.26-6.8,0.4-10.14,0.61c-1.67,0.09-3.33,0.2-4.97,0.28
			c-1.65,0.09-3.29,0.23-4.91,0.16c-1.42-0.02-2.81-0.04-4.21-0.07V298.56z M21.84,306.75c1.4,0.06,2.8,0.11,4.21,0.17
			c1.64,0.12,3.29,0.01,4.96-0.04c1.66-0.05,3.33-0.1,5.03-0.16c3.37-0.13,6.79-0.18,10.26-0.38c3.45-0.35,6.95-0.72,10.49-1.08
			c3.55-0.38,7.15-0.63,10.73-1.35c2.09-0.37,4.21-0.72,6.33-1.08l-13.86,8.31c-1.81,0.13-3.61,0.22-5.39,0.34
			c-3.51,0.22-6.98,0.44-10.4,0.66c-3.43,0.05-6.82-0.04-10.15-0.04c-1.68-0.01-3.34-0.02-4.99-0.04c-1.64-0.01-3.29,0.03-4.9-0.15
			c-0.77-0.06-1.54-0.12-2.3-0.18V306.75z M21.84,315.07c0.72,0.07,1.43,0.15,2.15,0.22c1.64,0.23,3.29,0.22,4.95,0.28
			c1.66,0.05,3.34,0.11,5.03,0.16c3.37,0.09,6.79,0.25,10.26,0.28c3.46-0.13,6.97-0.27,10.52-0.41c3.54-0.16,7.13-0.17,10.74-0.66
			l9.43,5.69c-4.03,0.32-8.02,0.53-11.96,0.82c-3.6,0.35-7.16,0.22-10.68,0.24c-3.51-0.01-6.98-0.01-10.42-0.01
			c-3.42-0.16-6.81-0.46-10.15-0.67c-1.66-0.12-3.32-0.24-4.96-0.35c-1.64-0.12-3.29-0.18-4.9-0.46c-0.01,0-0.02,0-0.03,0V315.07z
			 M21.84,323.57c1.54,0.29,3.1,0.4,4.68,0.56c1.65,0.15,3.33,0.32,5,0.48c3.37,0.3,6.78,0.67,10.23,0.93
			c3.47,0.08,6.98,0.18,10.53,0.26c3.56,0.07,7.16,0.29,10.79,0.03c6.14-0.31,12.43-0.4,18.78-1.04c2.51,1.42,6.56,3.58,11.9,5.99
			c-0.02,0-0.04,0.01-0.06,0.01c-3.83,0.27-7.63,0.55-11.39,0.8c-7.5,0.74-14.87,0.49-22.07,0.57c-3.6,0.11-7.15-0.23-10.67-0.44
			c-3.51-0.23-6.98-0.45-10.41-0.67c-3.41-0.38-6.78-0.89-10.1-1.32c-1.66-0.23-3.31-0.45-4.94-0.67c-0.76-0.11-1.52-0.21-2.28-0.32
			V323.57z M21.84,332.2c0.62,0.1,1.25,0.2,1.87,0.3c1.65,0.26,3.31,0.52,4.99,0.79c3.34,0.52,6.74,1.12,10.17,1.59
			c3.46,0.31,6.96,0.61,10.5,0.93c3.55,0.29,7.13,0.74,10.78,0.7c7.28,0.1,14.73,0.53,22.34-0.02c3.8-0.18,7.64-0.37,11.52-0.54
			c3.23-0.34,6.5-0.7,9.78-1.05c5.26,1.98,11.23,3.94,17.76,5.62c-2.55,0.33-5.11,0.66-7.63,0.99c-1.98,0.23-3.95,0.55-5.93,0.72
			c-1.96,0.13-3.93,0.27-5.88,0.4c-3.91,0.27-7.78,0.53-11.61,0.79c-3.85,0.04-7.64,0.05-11.4,0.09
			c-7.53,0.25-14.88-0.46-22.07-0.84c-3.61-0.11-7.14-0.7-10.63-1.12c-3.5-0.45-6.95-0.89-10.36-1.33c-3.4-0.6-6.73-1.32-10.03-1.96
			c-1.4-0.28-2.79-0.56-4.18-0.84V332.2z M21.84,340.98c1.22,0.27,2.43,0.55,3.66,0.82c3.32,0.74,6.68,1.54,10.1,2.23
			c3.44,0.52,6.91,1.06,10.44,1.6c3.52,0.51,7.09,1.19,10.72,1.39c7.27,0.56,14.7,1.46,22.31,1.39c3.81,0.06,7.65,0.12,11.52,0.19
			c3.89-0.16,7.8-0.34,11.76-0.51c1.98-0.08,3.97-0.17,5.97-0.26c1.99-0.11,3.98-0.39,6-0.58c4.01-0.41,8.07-0.85,12.16-1.27
			c4.08-0.45,8.18-1.28,12.31-1.91c0.08-0.01,0.16-0.03,0.24-0.04c6.56,0.94,13.48,1.5,20.66,1.51c2.04,0,4.11-0.05,6.19-0.14
			c-0.72,1.18-1.43,2.39-2.13,3.64l2.34,1.38c-0.01,0.08-0.02,0.16-0.04,0.24l-2.48-1.32c-0.73,1.22-1.53,2.72-2.41,4.5
			c-1.49,2.93-2.86,5.92-4.1,8.88c0.55-4.43,1.09-8.88,1.65-13.36c-3.98,0.72-7.93,1.44-11.85,2.15c-4.14,0.86-8.28,1.19-12.37,1.74
			c-4.11,0.46-8.15,1.11-12.21,1.41c-4.04,0.26-8.06,0.52-12.04,0.78c-1.98,0.11-3.97,0.3-5.94,0.34c-1.98,0.01-3.94,0.01-5.89,0.02
			c-3.92,0.02-7.8,0.04-11.63,0.05c-3.83-0.22-7.62-0.42-11.39-0.63c-7.53-0.23-14.84-1.41-22-2.25c-3.6-0.33-7.1-1.14-10.58-1.79
			c-3.47-0.68-6.91-1.33-10.29-1.98c-3.37-0.82-6.67-1.75-9.93-2.6c-0.26-0.07-0.52-0.14-0.78-0.21V340.98z M77.36,410.96
			c1.87,0.53,3.76,1.05,5.66,1.58c1.96,0.52,3.93,0.89,5.92,1.34c3.98,0.86,7.99,1.72,12.02,2.59c0.72,0.16,1.45,0.29,2.18,0.43
			c0.11,0.88,0.22,1.77,0.34,2.64c0.35,2.35,0.69,4.68,1.03,7.01L77.36,410.96z M109.84,429.6c-0.47-3.63-0.94-7.26-1.42-10.94
			c-0.3-2.42-0.52-4.84-0.74-7.29c-2.01-0.26-4.01-0.54-6-0.91c-3.99-0.76-7.96-1.52-11.9-2.28c-1.96-0.39-3.93-0.7-5.87-1.16
			c-1.93-0.5-3.85-0.98-5.76-1.47c-3.83-0.97-7.63-1.94-11.39-2.89c-2.9-0.92-5.77-1.83-8.62-2.74l-33.55-19.25
			c1.35,0.57,2.68,1.13,4.05,1.71c3.37,1.4,6.74,2.96,10.25,4.07c7.01,2.38,14.12,5.13,21.58,7c3.72,1.02,7.46,2.06,11.25,3.1
			c3.83,0.82,7.69,1.64,11.59,2.47c1.95,0.42,3.91,0.84,5.88,1.25c1.97,0.4,3.98,0.63,5.97,0.95c4.01,0.6,8.05,1.22,12.12,1.83
			c2.2,0.31,4.43,0.53,6.66,0.72c0.16,2.71,0.34,5.42,0.59,8.1c0.51,4.94,1.01,9.85,1.51,14.72c0.25,2.34,0.44,4.67,0.75,6.98
			L109.84,429.6z M121.82,436.48c-0.14-1.14-0.29-2.27-0.43-3.42c-0.28-2.37-0.43-4.78-0.66-7.18c-0.41-4.81-0.83-9.68-1.25-14.57
			c-0.36-4.43-0.48-8.93-0.69-13.44c-3.72-0.26-7.42-0.41-11.06-0.84c-4.04-0.51-8.03-1.02-11.99-1.52
			c-1.98-0.27-3.96-0.45-5.92-0.79c-1.95-0.37-3.89-0.74-5.82-1.09c-3.87-0.74-7.69-1.45-11.48-2.17c-3.76-0.94-7.49-1.87-11.17-2.8
			c-7.4-1.66-14.47-4.21-21.45-6.4c-3.5-1.02-6.86-2.47-10.21-3.77c-2.64-1.05-5.26-2.08-7.85-3.11v-6
			c0.54,0.23,1.07,0.46,1.62,0.68c3.33,1.17,6.7,2.36,10.11,3.57c3.42,1.18,6.86,2.52,10.42,3.42c7.1,1.94,14.33,4.24,21.85,5.62
			c3.76,0.78,7.54,1.57,11.37,2.38c3.84,0.57,7.75,1.15,11.67,1.74c1.96,0.29,3.94,0.57,5.92,0.87c1.99,0.26,4,0.37,6,0.57
			c4.03,0.35,8.09,0.7,12.18,1.06c4.1,0.33,8.24,0.29,12.41,0.46c0.03,0,0.06,0,0.09,0c0,0.03,0,0.08,0,0.12
			c0.14,5.06,0.11,10.09,0.37,15.08c0.3,4.97,0.59,9.91,0.87,14.8c0.16,2.44,0.25,4.88,0.47,7.29c0.24,2.41,0.48,4.81,0.72,7.2
			c0.21,2.05,0.41,4.09,0.62,6.13L121.82,436.48z M133.19,443c-0.26-3.1-0.52-6.22-0.78-9.37c-0.2-2.36-0.4-4.75-0.6-7.12
			c-0.18-2.39-0.23-4.81-0.34-7.22c-0.2-4.83-0.42-9.7-0.62-14.63c-0.18-4.92-0.08-9.9-0.12-14.89c0.01-2.13-0.01-4.25-0.02-6.38
			c-1.76-0.01-3.51-0.05-5.26-0.03c-4.12-0.07-8.21,0.07-12.26-0.15c-4.04-0.26-8.06-0.5-12.03-0.76c-1.99-0.14-3.98-0.2-5.95-0.41
			c-1.96-0.25-3.91-0.48-5.86-0.72c-3.89-0.49-7.75-0.96-11.57-1.43c-3.79-0.7-7.55-1.39-11.27-2.08
			c-7.47-1.19-14.64-3.28-21.7-5.03c-3.55-0.8-6.96-2.04-10.35-3.12c-3.39-1.11-6.76-2.21-10.07-3.29
			c-0.86-0.33-1.71-0.67-2.56-1.01v-5.85c1.99,0.72,4,1.44,6.04,2.12c3.37,0.96,6.79,1.94,10.25,2.92
			c3.46,0.96,6.95,2.08,10.55,2.74c7.17,1.49,14.48,3.32,22.07,4.22c3.78,0.55,7.6,1.1,11.44,1.66c3.88,0.33,7.79,0.66,11.74,0.99
			c1.98,0.17,3.96,0.33,5.95,0.5c2,0.15,4,0.12,6.02,0.19c4.03,0.1,8.1,0.19,12.21,0.28c4.11,0.06,8.24-0.23,12.41-0.33
			c2.47-0.12,4.96-0.15,7.47-0.27c-0.09,3.04-0.11,6.08-0.22,9.08c-0.08,5.07-0.33,10.09-0.28,15.08c0.08,4.98,0.17,9.93,0.23,14.83
			c0.06,2.45,0.04,4.89,0.16,7.32c0.14,2.41,0.27,4.83,0.41,7.24c0.27,4.79,0.55,9.55,0.81,14.26c0.14,1.44,0.28,2.87,0.42,4.3
			L133.19,443z M151.5,362.92c-0.63,5.09-0.82,10.21-1.2,15.26c-0.19,3.13-0.43,6.25-0.63,9.35l-3.91,17.65l3.31-1.02
			c-0.04,1.3-0.07,2.6-0.11,3.89c-0.05,2.45-0.17,4.89-0.16,7.32c0.03,2.43,0.07,4.84,0.1,7.24c0.06,4.81,0.13,9.58,0.2,14.3
			c0.26,4.71,0.51,9.37,0.76,13.99c0.02,0.58,0.06,1.16,0.09,1.74l-6-3.44c-0.2-2.42-0.39-4.84-0.59-7.28
			c-0.19-4.66-0.38-9.35-0.57-14.11c-0.1-2.37-0.19-4.76-0.29-7.15c-0.08-2.4-0.02-4.81-0.04-7.23c0.01-4.84,0.01-9.72,0.01-14.65
			c0.03-4.92,0.35-9.89,0.52-14.89c0.25-5,0.3-10.04,0.79-15.11c0.03-0.47,0.07-0.94,0.11-1.42c-0.39,0.04-0.78,0.09-1.17,0.14
			c-4.16,0.6-8.31,0.65-12.42,0.95c-4.12,0.2-8.2,0.59-12.25,0.63c-4.06,0.01-8.07,0.01-12.05,0.01c-1.99-0.01-3.98,0.05-5.95-0.04
			c-1.98-0.12-3.94-0.23-5.89-0.35c-3.9-0.23-7.78-0.46-11.61-0.68c-3.81-0.46-7.59-0.92-11.34-1.37
			c-7.51-0.7-14.76-2.35-21.88-3.64c-3.58-0.57-7.03-1.6-10.48-2.47c-3.44-0.89-6.83-1.76-10.19-2.63
			c-2.31-0.71-4.57-1.47-6.82-2.23v-5.61c0.03,0.01,0.07,0.02,0.1,0.03c3.28,0.94,6.6,1.96,9.99,2.86
			c3.41,0.75,6.86,1.51,10.36,2.26c3.5,0.74,7.03,1.64,10.66,2.07c7.23,1.02,14.61,2.39,22.2,2.81c3.81,0.31,7.64,0.61,11.51,0.93
			c3.89,0.08,7.81,0.15,11.77,0.25c1.98,0.03,3.97,0.08,5.96,0.11c2,0.01,4.01-0.14,6.02-0.19c4.03-0.16,8.1-0.33,12.2-0.49
			c4.11-0.2,8.22-0.76,12.38-1.13c4.15-0.46,8.36-0.68,12.55-1.46c1.51-0.23,3.02-0.47,4.54-0.71
			C151.89,359.24,151.7,361.08,151.5,362.92z M160.45,403.29c-0.16,2.43-0.38,4.87-0.48,7.29c-0.08,2.43-0.15,4.84-0.22,7.25
			c-0.14,4.8-0.28,9.57-0.42,14.29c0.06,4.71,0.1,9.39,0.16,14.01c-0.02,4.09,0.11,8.14,0.31,12.14l-5.73-3.29
			c-0.07-1.46-0.12-2.93-0.15-4.41c-0.17-4.57-0.35-9.18-0.53-13.83c0.01-4.68,0.03-9.38,0.04-14.13c0.01-2.37,0.01-4.78,0.02-7.16
			c0.03-2.4,0.19-4.81,0.28-7.23c0.08-1.85,0.16-3.71,0.24-5.57l6.67-2.05C160.57,401.5,160.51,402.4,160.45,403.29z M172.09,399.26
			c-0.25,2.44-0.59,4.83-0.78,7.25c-0.18,2.43-0.35,4.83-0.53,7.23c-0.35,4.79-0.7,9.55-1.04,14.24c-0.15,4.72-0.3,9.38-0.44,14.01
			c-0.36,7.35-0.21,14.58-0.1,21.69l-5.48-3.15c-0.18-4.76-0.3-9.57-0.18-14.45c0.02-4.57,0.04-9.19,0.07-13.86
			c0.21-4.65,0.42-9.36,0.65-14.1c0.11-2.37,0.22-4.76,0.33-7.16c0.13-2.39,0.4-4.78,0.59-7.19c0.13-1.55,0.27-3.12,0.41-4.69
			l5.09-1.57l0.13-0.05c0.45-0.15,0.98-0.33,1.57-0.54C172.27,397.7,172.18,398.48,172.09,399.26z M179.28,438.47
			c-0.85,9.2-0.89,18.26-1.19,27.11c-0.05,1.05-0.07,2.1-0.09,3.15l-5.11-2.93c0.01-7.72-0.07-15.59,0.45-23.6
			c0.22-4.57,0.44-9.17,0.67-13.82c0.41-4.64,0.83-9.32,1.25-14.05c0.21-2.36,0.42-4.74,0.64-7.12c0.24-2.38,0.6-4.75,0.89-7.15
			c0.22-1.7,0.45-3.41,0.67-5.11c2.09-0.87,4.5-1.95,7.12-3.24c-0.23,1.43-0.46,2.87-0.68,4.3c-0.36,2.41-0.8,4.79-1.1,7.19
			c-0.28,2.4-0.56,4.8-0.84,7.18c-0.55,4.77-1.1,9.49-1.64,14.16C179.97,429.22,179.63,433.87,179.28,438.47z M187.04,462.59
			c-0.34,3.7-0.41,7.38-0.49,11.03l-5.03-2.89c0.02-1.67,0.07-3.35,0.18-5.04c0.44-8.73,0.63-17.69,1.62-26.77
			c0.42-4.53,0.84-9.12,1.26-13.76c0.62-4.6,1.23-9.25,1.86-13.95c0.31-2.33,0.63-4.71,0.94-7.06c0.34-2.37,0.81-4.71,1.21-7.08
			c0.48-2.72,0.96-5.46,1.44-8.21c2.47-1.36,5.06-2.89,7.71-4.61c-0.63,3.09-1.26,6.17-1.88,9.22c-0.47,2.38-1,4.73-1.41,7.1
			c-0.38,2.39-0.76,4.76-1.14,7.12c-0.76,4.72-1.52,9.4-2.26,14.03c-0.55,4.67-1.1,9.3-1.64,13.87
			C188.16,444.73,187.72,453.78,187.04,462.59z M194.99,473.21c-0.12,1.7-0.24,3.37-0.35,5.05l-4.75-2.73
			c0.19-4.16,0.28-8.37,0.74-12.6c0.82-8.7,1.39-17.63,2.77-26.63c0.62-4.51,1.23-9.06,1.86-13.67c0.81-4.56,1.63-9.15,2.45-13.8
			c0.41-2.33,0.83-4.66,1.24-7c0.44-2.34,1.01-4.65,1.51-6.99c1.04-4.68,2.08-9.4,3.14-14.14c0.05-0.2,0.1-0.4,0.14-0.6
			c2.99-2.19,6.01-4.62,8.98-7.29c-0.45,1.56-0.89,3.13-1.29,4.7c-1.19,4.77-2.38,9.51-3.55,14.2c-0.57,2.35-1.2,4.66-1.72,7.01
			c-0.48,2.36-0.97,4.71-1.45,7.04c-0.96,4.66-1.91,9.29-2.85,13.87c-0.76,4.62-1.5,9.2-2.24,13.75c-1.64,9.03-2.46,18.05-3.51,26.8
			C195.51,464.54,195.31,468.92,194.99,473.21z M229.84,498.47l-3.27-1.88c0.18-0.84,0.36-1.68,0.54-2.52
			c0.79-3.59,1.54-7.23,2.37-10.9c0.83,3.67,1.58,7.31,2.37,10.9c0.21,0.97,0.41,1.93,0.62,2.89L229.84,498.47z M235.17,495.4
			c-0.14-0.74-0.29-1.47-0.44-2.21c-0.81-3.98-1.56-8.03-2.44-12.11c-0.93-3.72-1.87-7.5-2.82-11.32c-0.95,3.82-1.89,7.6-2.81,11.32
			c-0.87,4.08-1.63,8.13-2.43,12.11c-0.12,0.62-0.24,1.23-0.36,1.85l-4.1-2.35c0.58-3.4,1.14-6.84,1.79-10.3
			c0.89-4.03,1.79-8.11,2.69-12.24c0.93-4.12,1.75-8.33,2.96-12.46c0.76-2.8,1.51-5.63,2.28-8.48c0.76,2.85,1.51,5.68,2.28,8.48
			c1.21,4.13,2.03,8.34,2.96,12.46c0.9,4.13,1.8,8.21,2.68,12.24c0.68,3.58,1.26,7.15,1.85,10.67L235.17,495.4z M242.05,491.45
			c-0.5-3.28-0.99-6.59-1.55-9.92c-0.82-4.09-1.67-8.24-2.51-12.42c-0.87-4.19-1.64-8.48-2.78-12.66
			c-1.84-7.19-3.55-14.59-5.73-21.95c-2.18,7.36-3.89,14.76-5.73,21.95c-1.15,4.19-1.91,8.48-2.78,12.66
			c-0.85,4.19-1.69,8.33-2.51,12.42c-0.54,3.21-1.02,6.39-1.5,9.55l-4.28-2.45c0.23-1.82,0.46-3.65,0.72-5.48
			c0.71-4.08,1.43-8.2,2.16-12.38c0.75-4.18,1.38-8.43,2.41-12.64c1.92-8.43,3.64-17.14,6.16-25.76c1.19-4.34,2.37-8.71,3.59-13.15
			c0.57-1.82,1.16-3.63,1.74-5.47c0.59,1.84,1.17,3.65,1.75,5.47c1.21,4.43,2.4,8.81,3.59,13.15c2.52,8.62,4.24,17.34,6.16,25.76
			c1.02,4.21,1.66,8.46,2.41,12.64c0.72,4.19,1.45,8.31,2.16,12.38c0.28,1.96,0.52,3.91,0.77,5.85L242.05,491.45z M249.24,487.32
			c-0.18-1.6-0.36-3.21-0.56-4.83c-0.65-4.14-1.31-8.33-1.98-12.57c-0.69-4.23-1.27-8.56-2.24-12.83
			c-1.8-8.56-3.39-17.43-5.79-26.21c-1.13-4.41-2.27-8.88-3.41-13.38c-1.34-4.44-2.67-8.92-4.03-13.43
			c-0.58-1.93-1.17-3.87-1.75-5.82c-0.58,1.95-1.17,3.89-1.75,5.82c-1.36,4.51-2.69,8.99-4.03,13.43c-1.14,4.5-2.29,8.97-3.41,13.38
			c-2.41,8.78-4,17.64-5.8,26.21c-0.96,4.27-1.54,8.59-2.23,12.83c-0.67,4.24-1.32,8.43-1.98,12.57c-0.19,1.5-0.34,2.98-0.51,4.46
			l-4.46-2.56c0.54-4.1,1.07-8.27,1.62-12.47c0.57-4.22,1.02-8.51,1.86-12.77c1.56-8.55,2.9-17.36,5.05-26.13
			c0.99-4.4,1.99-8.86,3.02-13.35c1.19-4.43,2.4-8.91,3.63-13.43c0.61-2.26,1.22-4.52,1.84-6.81c0.64-2.27,1.4-4.49,2.1-6.76
			c1.43-4.52,2.88-9.08,4.33-13.68c0.23-0.72,0.47-1.43,0.72-2.14c0.25,0.71,0.49,1.43,0.72,2.14c1.45,4.6,2.9,9.16,4.33,13.68
			c0.7,2.27,1.46,4.49,2.1,6.76c0.61,2.29,1.23,4.55,1.84,6.81c1.22,4.52,2.43,8.99,3.63,13.43c1.02,4.49,2.02,8.95,3.01,13.35
			c2.16,8.77,3.49,17.58,5.05,26.13c0.85,4.25,1.3,8.54,1.87,12.77c0.54,4.21,1.09,8.39,1.63,12.51c0.01,0.11,0.02,0.22,0.03,0.34
			L249.24,487.32z M256.7,483.03c-0.43-3.87-0.88-7.78-1.33-11.74c-0.5-4.27-0.89-8.63-1.66-12.95c-1.43-8.67-2.65-17.61-4.66-26.54
			c-0.94-4.48-1.88-9.01-2.84-13.59c-1.14-4.51-2.29-9.06-3.45-13.67c-0.57-2.3-1.16-4.61-1.75-6.93c-0.6-2.32-1.34-4.59-2.01-6.9
			c-1.38-4.61-2.76-9.25-4.16-13.94c-1.43-4.68-3.13-9.25-4.7-13.96c-0.22-0.62-0.44-1.24-0.66-1.87c-0.22,0.63-0.44,1.25-0.65,1.87
			c-1.57,4.7-3.28,9.28-4.71,13.96c-1.39,4.69-2.78,9.34-4.15,13.94c-0.67,2.31-1.4,4.58-2.01,6.9c-0.58,2.32-1.17,4.63-1.75,6.93
			c-1.16,4.61-2.31,9.16-3.44,13.67c-0.96,4.58-1.9,9.11-2.84,13.59c-2.02,8.93-3.23,17.87-4.66,26.54
			c-0.78,4.32-1.17,8.68-1.66,12.95c-0.44,3.84-0.87,7.62-1.29,11.38l-4.5-2.58c0.18-2.14,0.37-4.28,0.55-6.46
			c0.38-4.24,0.66-8.56,1.31-12.87c1.2-8.63,2.15-17.51,3.91-26.41c0.81-4.47,1.62-8.97,2.44-13.53c1.01-4.5,2.02-9.05,3.05-13.64
			c0.51-2.29,1.03-4.6,1.55-6.91c0.53-2.31,1.2-4.58,1.8-6.89c1.24-4.6,2.48-9.24,3.74-13.92c1.28-4.67,2.85-9.27,4.28-13.96
			c0.06-0.19,0.12-0.39,0.18-0.58c3.48-3.9,6.72-8.06,9.66-12.46c2.24,3.34,4.63,6.54,7.16,9.58c0.36,1.16,0.72,2.31,1.09,3.46
			c1.43,4.69,3,9.29,4.28,13.96c1.26,4.69,2.5,9.33,3.74,13.92c0.6,2.31,1.27,4.58,1.8,6.89c0.52,2.31,1.04,4.62,1.55,6.91
			c1.02,4.59,2.04,9.14,3.05,13.64c0.82,4.56,1.63,9.06,2.43,13.53c1.77,8.9,2.72,17.78,3.91,26.41c0.66,4.3,0.93,8.62,1.31,12.87
			c0.2,2.3,0.39,4.57,0.59,6.83L256.7,483.03z M264.34,478.63c-0.12-1.8-0.25-3.6-0.37-5.42c-0.33-4.3-0.52-8.67-1.12-13.04
			c-1.05-8.75-1.88-17.77-3.51-26.8c-0.74-4.54-1.49-9.12-2.24-13.75c-0.94-4.58-1.9-9.21-2.85-13.87
			c-0.48-2.33-0.97-4.68-1.45-7.04c-0.51-2.35-1.14-4.66-1.71-7.01c-1.17-4.69-2.36-9.42-3.55-14.2c-0.57-2.24-1.21-4.46-1.87-6.68
			c3.03,2.88,6.13,5.49,9.22,7.85c0.16,0.68,0.34,1.35,0.49,2.03c1.05,4.74,2.09,9.46,3.13,14.14c0.5,2.34,1.06,4.65,1.51,6.99
			c0.41,2.34,0.83,4.67,1.25,7c0.82,4.65,1.64,9.25,2.45,13.8c0.62,4.61,1.24,9.16,1.85,13.67c1.38,8.99,1.96,17.93,2.77,26.63
			c0.47,4.34,0.55,8.66,0.75,12.93c0,0.01,0,0.02,0,0.03L264.34,478.63z M272.42,473.99c-0.1-3.77-0.15-7.58-0.5-11.4
			c-0.68-8.81-1.12-17.86-2.36-26.99c-0.55-4.57-1.09-9.2-1.65-13.87c-0.74-4.64-1.49-9.31-2.25-14.03
			c-0.38-2.36-0.76-4.73-1.15-7.12c-0.4-2.37-0.94-4.72-1.41-7.1c-0.7-3.45-1.41-6.93-2.12-10.42c2.66,1.79,5.27,3.39,7.78,4.82
			c0.54,3.08,1.08,6.15,1.61,9.2c0.41,2.37,0.87,4.71,1.21,7.08c0.31,2.36,0.63,4.73,0.94,7.06c0.62,4.7,1.24,9.35,1.85,13.95
			c0.42,4.64,0.85,9.23,1.26,13.76c0.99,9.08,1.18,18.03,1.61,26.77c0.12,1.82,0.16,3.62,0.18,5.41L272.42,473.99z M280.96,469.09
			c-0.01-1.17-0.03-2.34-0.09-3.51c-0.3-8.84-0.34-17.91-1.19-27.11c-0.35-4.6-0.7-9.25-1.05-13.95c-0.55-4.67-1.09-9.39-1.65-14.16
			c-0.27-2.38-0.54-4.78-0.83-7.18c-0.3-2.4-0.73-4.79-1.1-7.19c-0.27-1.71-0.54-3.44-0.82-5.16c2.59,1.32,5.01,2.45,7.17,3.38
			c0.26,1.95,0.51,3.9,0.76,5.83c0.29,2.4,0.66,4.77,0.91,7.15c0.21,2.38,0.42,4.76,0.63,7.12c0.42,4.72,0.84,9.4,1.25,14.05
			c0.23,4.65,0.45,9.25,0.67,13.82c0.54,8.14,0.44,16.13,0.45,23.96L280.96,469.09z M295.22,460.89l-5.47,3.14
			c0.12-7.22,0.27-14.57-0.1-22.05c-0.14-4.62-0.29-9.29-0.44-14.01c-0.34-4.69-0.69-9.44-1.04-14.24c-0.18-2.39-0.36-4.8-0.53-7.23
			c-0.19-2.41-0.53-4.81-0.78-7.25c-0.11-0.98-0.22-1.97-0.34-2.96c1.28,0.48,2.36,0.87,3.21,1.16l0.13,0.06l3.46,1.06
			c0.15,1.73,0.3,3.47,0.45,5.19c0.2,2.41,0.46,4.8,0.59,7.19c0.12,2.39,0.22,4.78,0.33,7.16c0.22,4.75,0.44,9.45,0.65,14.1
			c0.03,4.66,0.04,9.29,0.07,13.86C295.53,451.08,295.4,456.01,295.22,460.89z M305.05,450.57c-0.03,1.6-0.1,3.18-0.17,4.76
			l-5.73,3.3c0.2-4.13,0.35-8.29,0.32-12.51c0.06-4.62,0.11-9.3,0.16-14.01c-0.14-4.72-0.28-9.48-0.42-14.29
			c-0.08-2.41-0.15-4.82-0.22-7.25c-0.1-2.42-0.32-4.86-0.48-7.29c-0.07-1.06-0.15-2.13-0.23-3.2l6.68,2.04
			c0.09,2.04,0.18,4.07,0.27,6.09c0.09,2.41,0.25,4.83,0.27,7.23c0.01,2.39,0.01,4.79,0.03,7.16c0.01,4.74,0.03,9.45,0.04,14.13
			C305.4,441.39,305.23,446.01,305.05,450.57z M354.41,426.87c0.36-2.44,0.71-4.87,1.08-7.34c0.12-0.87,0.23-1.76,0.34-2.64
			c0.73-0.14,1.46-0.27,2.18-0.43c4.04-0.87,8.05-1.73,12.02-2.59c1.98-0.45,3.97-0.82,5.92-1.34c1.95-0.54,3.89-1.08,5.82-1.62
			c0.27-0.07,0.53-0.15,0.79-0.22L354.41,426.87z M401.87,399.59c-3.19,1.02-6.41,2.04-9.66,3.07c-3.77,0.95-7.56,1.92-11.39,2.89
			c-1.91,0.49-3.83,0.98-5.77,1.47c-1.94,0.46-3.9,0.77-5.86,1.16c-3.94,0.76-7.91,1.51-11.91,2.28c-1.98,0.37-3.98,0.65-5.99,0.91
			c-0.21,2.45-0.44,4.87-0.74,7.29c-0.49,3.78-0.98,7.54-1.47,11.27l-6.93,3.98c0-0.02,0.01-0.05,0.01-0.07
			c0.31-2.39,0.52-4.82,0.78-7.25c0.5-4.87,1-9.78,1.51-14.72c0.26-2.69,0.43-5.39,0.59-8.1c2.23-0.19,4.45-0.41,6.65-0.72
			c4.07-0.61,8.11-1.23,12.11-1.83c2-0.32,4-0.56,5.96-0.95c1.98-0.41,3.93-0.83,5.88-1.25c3.9-0.83,7.77-1.65,11.59-2.47
			c3.79-1.04,7.54-2.08,11.24-3.1c7.46-1.86,14.57-4.62,21.58-7c3.52-1.11,6.89-2.67,10.26-4.07c1.89-0.8,3.74-1.58,5.61-2.37
			L401.87,399.59z M437.53,375.21c-2.73,1.08-5.48,2.17-8.27,3.27c-3.35,1.3-6.69,2.76-10.21,3.77c-6.97,2.2-14.03,4.75-21.44,6.4
			c-3.68,0.93-7.41,1.86-11.17,2.8c-3.79,0.72-7.62,1.43-11.48,2.17c-1.94,0.35-3.88,0.72-5.82,1.09c-1.96,0.34-3.94,0.52-5.92,0.79
			c-3.96,0.5-7.96,1.01-11.99,1.52c-3.65,0.43-7.34,0.58-11.06,0.84c-0.22,4.51-0.34,9.01-0.69,13.44
			c-0.42,4.89-0.84,9.76-1.26,14.57c-0.23,2.4-0.37,4.81-0.65,7.18c-0.16,1.26-0.32,2.51-0.48,3.77l-6.71,3.86
			c0.22-2.15,0.43-4.3,0.65-6.47c0.24-2.39,0.48-4.79,0.72-7.2c0.22-2.42,0.31-4.86,0.48-7.29c0.29-4.89,0.57-9.83,0.87-14.8
			c0.26-4.99,0.24-10.02,0.37-15.08c0-0.04,0-0.08,0-0.12c0.03,0,0.07,0,0.09,0c4.17-0.16,8.31-0.13,12.41-0.46
			c4.1-0.36,8.15-0.71,12.18-1.06c2.01-0.2,4.02-0.31,6-0.57c1.98-0.29,3.96-0.58,5.93-0.87c3.93-0.59,7.82-1.16,11.67-1.74
			c3.83-0.8,7.62-1.6,11.37-2.38c7.53-1.38,14.75-3.68,21.85-5.62c3.56-0.89,7-2.24,10.42-3.42c3.41-1.2,6.78-2.39,10.1-3.57
			c0.68-0.28,1.35-0.57,2.03-0.85V375.21z M437.53,365.2c-0.99,0.39-1.97,0.79-2.97,1.17c-3.32,1.08-6.67,2.17-10.07,3.29
			c-3.4,1.08-6.81,2.32-10.36,3.12c-7.06,1.74-14.23,3.83-21.69,5.03c-3.72,0.69-7.47,1.38-11.26,2.08
			c-3.82,0.48-7.68,0.95-11.57,1.43c-1.94,0.24-3.9,0.48-5.86,0.72c-1.96,0.21-3.95,0.27-5.94,0.41c-3.98,0.25-7.99,0.5-12.04,0.76
			c-4.05,0.22-8.14,0.08-12.26,0.15c-1.75-0.02-3.5,0.01-5.25,0.03c-0.01,2.13-0.03,4.26-0.02,6.38c-0.06,5,0.06,9.97-0.12,14.89
			c-0.21,4.92-0.41,9.79-0.63,14.63c-0.11,2.41-0.16,4.83-0.34,7.22c-0.2,2.37-0.4,4.76-0.59,7.12c-0.27,3.26-0.54,6.49-0.81,9.71
			l-6.34,3.64c0.15-1.55,0.31-3.1,0.46-4.66c0.27-4.71,0.54-9.47,0.81-14.26c0.13-2.41,0.27-4.82,0.41-7.24
			c0.12-2.43,0.09-4.87,0.16-7.32c0.07-4.9,0.16-9.84,0.23-14.83c0.05-4.99-0.19-10.01-0.27-15.08c-0.1-3.01-0.13-6.04-0.22-9.08
			c2.5,0.12,4.99,0.15,7.47,0.27c4.17,0.1,8.31,0.4,12.41,0.33c4.11-0.09,8.17-0.18,12.21-0.28c2.02-0.07,4.02-0.04,6.01-0.19
			c2-0.16,3.98-0.33,5.96-0.5c3.95-0.33,7.86-0.66,11.73-0.99c3.86-0.55,7.68-1.1,11.46-1.66c7.58-0.9,14.89-2.74,22.07-4.22
			c3.6-0.66,7.08-1.79,10.54-2.74c3.46-0.98,6.89-1.96,10.26-2.92c2.18-0.73,4.32-1.5,6.45-2.27V365.2z M437.53,355.54
			c-2.38,0.8-4.78,1.62-7.23,2.37c-3.36,0.87-6.75,1.74-10.2,2.63c-3.44,0.87-6.9,1.9-10.48,2.47c-7.12,1.29-14.37,2.93-21.88,3.64
			c-3.74,0.45-7.53,0.91-11.35,1.37c-3.83,0.23-7.7,0.45-11.61,0.68c-1.96,0.12-3.91,0.24-5.89,0.35c-1.97,0.09-3.96,0.03-5.95,0.04
			c-3.98-0.01-8.01-0.01-12.06-0.01c-4.05-0.04-8.14-0.44-12.25-0.63c-4.12-0.29-8.26-0.35-12.43-0.95
			c-0.39-0.05-0.78-0.1-1.17-0.14c0.03,0.48,0.07,0.95,0.11,1.42c0.49,5.06,0.55,10.11,0.78,15.11c0.16,5,0.48,9.96,0.52,14.89
			c0.01,4.92,0.01,9.81,0.01,14.65c-0.01,2.41,0.05,4.83-0.03,7.23c-0.1,2.38-0.19,4.77-0.29,7.15c-0.19,4.76-0.38,9.46-0.57,14.11
			c-0.21,2.57-0.41,5.1-0.62,7.64l-5.99,3.44c0.04-0.7,0.08-1.39,0.11-2.09c0.25-4.62,0.5-9.28,0.76-13.99
			c0.07-4.72,0.13-9.49,0.2-14.3c0.03-2.4,0.06-4.81,0.09-7.24c0.01-2.43-0.11-4.87-0.16-7.32c-0.04-1.46-0.08-2.94-0.12-4.41
			l4.99,1.53l-5.59-25.07l-0.01-0.12l-0.08-0.27c-0.15-0.63-0.34-1.37-0.56-2.18c-0.35-4.84-0.55-9.73-1.16-14.61
			c-0.19-1.83-0.39-3.67-0.59-5.52c1.52,0.24,3.03,0.48,4.54,0.71c4.19,0.78,8.41,1,12.56,1.46c4.16,0.37,8.28,0.93,12.38,1.13
			c4.1,0.16,8.17,0.33,12.19,0.49c2.02,0.05,4.02,0.2,6.02,0.19c2-0.03,3.99-0.08,5.97-0.11c3.96-0.1,7.88-0.16,11.76-0.25
			c3.88-0.31,7.71-0.62,11.5-0.93c7.61-0.42,14.99-1.79,22.22-2.81c3.63-0.44,7.15-1.34,10.65-2.07c3.51-0.76,6.96-1.51,10.37-2.26
			c3.38-0.9,6.71-1.92,10-2.86c0.17-0.05,0.34-0.1,0.5-0.15V355.54z M437.53,346.26c-0.39,0.1-0.79,0.21-1.18,0.31
			c-3.26,0.85-6.56,1.78-9.93,2.6c-3.38,0.65-6.82,1.31-10.3,1.98c-3.47,0.65-6.97,1.45-10.57,1.79
			c-7.17,0.84-14.47,2.02-22.01,2.25c-3.76,0.21-7.55,0.41-11.38,0.63c-3.84-0.01-7.72-0.03-11.64-0.05
			c-1.95-0.01-3.91-0.01-5.89-0.02c-1.97-0.04-3.95-0.23-5.94-0.34c-3.98-0.26-7.99-0.52-12.04-0.78c-4.05-0.3-8.1-0.95-12.2-1.41
			c-4.09-0.55-8.24-0.88-12.37-1.74c-3.93-0.71-7.87-1.43-11.85-2.15c0.34,2.79,0.69,5.57,1.03,8.34c-0.4-0.85-0.81-1.71-1.25-2.59
			l-0.01-0.02c-0.8-1.76-1.92-3.86-3.36-6.29c-0.66-1.16-1.32-2.28-1.99-3.38c2.08,0.09,4.16,0.14,6.21,0.14
			c6.85-0.01,13.46-0.53,19.76-1.4c3.98,0.62,7.91,1.4,11.85,1.84c4.08,0.42,8.14,0.85,12.16,1.27c2.01,0.19,4.01,0.47,6,0.58
			c2,0.09,3.99,0.18,5.97,0.26c3.96,0.17,7.87,0.35,11.75,0.51c3.88-0.07,7.73-0.13,11.53-0.19c7.61,0.07,15.04-0.83,22.3-1.39
			c3.64-0.21,7.2-0.88,10.73-1.39c3.52-0.55,7.01-1.08,10.45-1.6c3.42-0.69,6.78-1.49,10.11-2.23c1.36-0.3,2.71-0.61,4.06-0.91
			V346.26z M437.53,337.33c-1.52,0.31-3.06,0.62-4.58,0.92c-3.3,0.64-6.64,1.36-10.04,1.96c-3.41,0.44-6.86,0.88-10.36,1.33
			c-3.5,0.42-7.02,1.01-10.63,1.12c-7.19,0.38-14.54,1.09-22.07,0.84c-3.76-0.03-7.56-0.05-11.4-0.09
			c-3.83-0.25-7.7-0.52-11.61-0.79c-1.95-0.13-3.91-0.26-5.88-0.4c-1.97-0.16-3.93-0.48-5.92-0.72c-2.18-0.29-4.4-0.57-6.61-0.86
			c6.58-1.68,12.61-3.63,17.94-5.63c2.88,0.31,5.75,0.62,8.59,0.92c3.89,0.18,7.73,0.36,11.52,0.54c7.6,0.55,15.06,0.12,22.34,0.02
			c3.64,0.03,7.23-0.42,10.77-0.7c3.54-0.32,7.04-0.63,10.5-0.93c3.44-0.47,6.83-1.07,10.17-1.59c1.68-0.27,3.34-0.53,4.99-0.79
			c0.76-0.12,1.52-0.24,2.28-0.37V337.33z M437.53,328.67c-0.89,0.13-1.79,0.25-2.69,0.37c-1.64,0.22-3.29,0.44-4.95,0.67
			c-3.31,0.43-6.68,0.94-10.09,1.32c-3.43,0.22-6.9,0.44-10.41,0.67c-3.51,0.21-7.06,0.55-10.66,0.44
			c-7.2-0.08-14.57,0.16-22.08-0.57c-3.34-0.23-6.71-0.47-10.11-0.71c5.26-2.36,9.31-4.49,11.93-5.96
			c5.9,0.53,11.73,0.63,17.43,0.92c3.63,0.26,7.23,0.04,10.79-0.03c3.55-0.08,7.05-0.18,10.52-0.26c3.46-0.25,6.87-0.63,10.24-0.93
			c1.68-0.16,3.36-0.33,5.01-0.48c1.66-0.16,3.31-0.27,4.94-0.6c0.05-0.01,0.1-0.02,0.15-0.02V328.67z M437.53,320.12
			c-0.15,0.02-0.29,0.04-0.44,0.06c-1.61,0.29-3.25,0.34-4.9,0.46c-1.65,0.12-3.3,0.23-4.98,0.35c-3.33,0.21-6.71,0.5-10.13,0.67
			c-3.44,0.01-6.91,0.01-10.42,0.01c-3.51-0.03-7.07,0.1-10.67-0.24c-3.48-0.26-7-0.45-10.56-0.71l9.35-5.65
			c3.16,0.34,6.31,0.38,9.42,0.52c3.56,0.14,7.06,0.28,10.53,0.41c3.47-0.03,6.89-0.19,10.26-0.28c1.69-0.05,3.37-0.1,5.03-0.16
			c1.66-0.06,3.31-0.06,4.95-0.28c0.86-0.09,1.71-0.18,2.56-0.27V320.12z M437.53,311.71c-0.9,0.07-1.8,0.14-2.71,0.22
			c-1.61,0.18-3.26,0.14-4.89,0.15c-1.65,0.02-3.31,0.03-4.99,0.04c-3.34,0-6.72,0.08-10.16,0.04c-3.43-0.23-6.89-0.44-10.41-0.66
			c-1.21-0.08-2.43-0.15-3.65-0.23l-13.41-8.06c1.39,0.23,2.77,0.47,4.14,0.71c3.59,0.72,7.2,0.97,10.74,1.35
			c3.53,0.36,7.04,0.72,10.49,1.08c3.46,0.2,6.89,0.24,10.26,0.38c1.69,0.06,3.37,0.11,5.02,0.16c1.66,0.05,3.33,0.16,4.96,0.04
			c1.56-0.06,3.09-0.12,4.62-0.19V311.71z M437.53,303.48c-1.54,0.02-3.07,0.05-4.62,0.07c-1.62,0.07-3.26-0.07-4.91-0.16
			c-1.65-0.09-3.3-0.19-4.98-0.28c-3.33-0.21-6.72-0.34-10.14-0.61c-3.41-0.43-6.87-0.87-10.37-1.32c-3.5-0.47-7.04-0.78-10.59-1.59
			c-5.47-1.11-11.06-2.06-16.68-3.42c-7.64-4.01-22.65-10.94-42.06-15.23l-0.04-0.07l-0.32-0.06c1.58-1.45,3.15-2.94,4.69-4.46
			c0.81,0.36,1.63,0.71,2.45,1.03c1.91,0.71,3.81,1.42,5.7,2.13c3.79,1.41,7.54,2.8,11.25,4.19c3.76,1.16,7.49,2.31,11.18,3.44
			c7.34,2.46,14.7,3.93,21.83,5.67c3.56,0.96,7.15,1.42,10.67,2.03c3.52,0.59,7,1.16,10.42,1.75c3.44,0.41,6.87,0.69,10.22,1.03
			c1.69,0.16,3.36,0.31,5.02,0.48c1.65,0.15,3.3,0.36,4.95,0.35c2.13,0.05,4.23,0.1,6.31,0.14V303.48z M437.53,295.36
			c-2.04-0.1-4.08-0.19-6.16-0.3c-1.64-0.02-3.26-0.27-4.9-0.46c-1.65-0.2-3.3-0.4-4.96-0.6c-3.32-0.42-6.7-0.77-10.11-1.26
			c-3.38-0.65-6.82-1.31-10.29-1.98c-3.47-0.7-7-1.24-10.51-2.26c-7.04-1.9-14.28-3.53-21.5-6.14c-3.63-1.21-7.29-2.43-10.99-3.66
			c-3.65-1.45-7.33-2.93-11.05-4.41c-1.79-0.72-3.59-1.43-5.4-2.16c1.82-1.91,3.61-3.86,5.37-5.86c3.12,1.38,6.22,2.76,9.3,4.12
			c3.71,1.4,7.38,2.78,11.02,4.15c7.22,2.92,14.51,4.86,21.56,7.05c3.51,1.17,7.07,1.87,10.56,2.71c3.49,0.81,6.94,1.62,10.34,2.41
			c3.42,0.63,6.83,1.12,10.17,1.66c1.68,0.27,3.33,0.54,4.98,0.81c1.65,0.26,3.29,0.57,4.92,0.67c2.58,0.23,5.13,0.45,7.65,0.67
			V295.36z M437.53,260.36c-3.09,0.87-6.21,1.75-9.38,2.65c-0.42,0.1-0.85,0.23-1.25,0.35c0.41,0.13,0.83,0.25,1.25,0.36
			c3.17,0.9,6.3,1.78,9.38,2.66v4.87c-2.82-0.68-5.69-1.38-8.59-2.08c-1.61-0.33-3.19-0.89-4.79-1.39c-1.6-0.51-3.19-1.02-4.81-1.53
			c-2.95-0.96-5.95-1.87-8.97-2.88c3.02-1.01,6.02-1.92,8.97-2.88c1.62-0.51,3.22-1.02,4.81-1.53c1.59-0.5,3.18-1.06,4.79-1.39
			c2.9-0.7,5.77-1.39,8.59-2.08V260.36z M437.53,252.29c-3.02,0.65-6.07,1.31-9.18,1.99c-1.62,0.3-3.22,0.82-4.84,1.28
			c-1.61,0.47-3.25,0.95-4.88,1.43c-3.29,0.98-6.62,1.9-9.98,2.96c-3.07,1.13-6.17,2.27-9.31,3.42c3.14,1.16,6.25,2.3,9.31,3.42
			c3.35,1.06,6.69,1.98,9.98,2.96c1.64,0.48,3.27,0.96,4.88,1.42c1.62,0.47,3.22,0.99,4.84,1.3c3.11,0.67,6.16,1.33,9.18,1.99v4.84
			c-2.69-0.48-5.41-0.95-8.17-1.44c-1.61-0.23-3.21-0.69-4.82-1.08c-1.62-0.41-3.25-0.82-4.88-1.23c-3.27-0.83-6.6-1.61-9.94-2.53
			c-3.32-1.08-6.67-2.16-10.06-3.27c-3.4-1.13-6.86-2.12-10.26-3.59c-2.3-0.94-4.64-1.84-6.98-2.77c2.34-0.93,4.67-1.83,6.98-2.77
			c3.4-1.47,6.86-2.46,10.26-3.59c3.4-1.1,6.75-2.2,10.06-3.27c3.34-0.92,6.67-1.7,9.94-2.54c1.63-0.41,3.26-0.82,4.88-1.22
			c1.61-0.4,3.21-0.86,4.82-1.09c2.76-0.49,5.48-0.96,8.17-1.44V252.29z M437.53,244.26c-2.83,0.43-5.69,0.87-8.59,1.3
			c-1.65,0.2-3.26,0.62-4.89,0.98c-1.64,0.37-3.29,0.74-4.94,1.12c-3.32,0.77-6.69,1.47-10.09,2.32c-3.36,1.01-6.77,2.03-10.22,3.05
			c-3.44,1.06-6.97,1.98-10.43,3.37c-5.91,2.25-12,4.32-18.06,6.97c6.06,2.65,12.15,4.72,18.06,6.96c3.46,1.4,6.98,2.33,10.43,3.38
			c3.45,1.03,6.86,2.05,10.22,3.06c3.4,0.84,6.77,1.55,10.09,2.31c1.66,0.38,3.31,0.75,4.94,1.12c1.64,0.36,3.25,0.78,4.89,0.98
			c2.9,0.44,5.76,0.88,8.59,1.3v4.84c-2.43-0.27-4.87-0.55-7.35-0.82c-1.62-0.13-3.23-0.48-4.87-0.78
			c-1.62-0.31-3.27-0.61-4.92-0.91c-3.3-0.63-6.66-1.19-10.04-1.9c-3.36-0.87-6.75-1.74-10.2-2.63c-3.44-0.9-6.93-1.68-10.4-2.93
			c-6.94-2.33-14.11-4.42-21.21-7.49c-3.57-1.43-7.17-2.89-10.82-4.36c-1.49-0.7-3-1.41-4.5-2.12c1.5-0.71,3.01-1.42,4.5-2.12
			c3.64-1.47,7.25-2.92,10.82-4.36c7.1-3.07,14.26-5.15,21.21-7.49c3.46-1.25,6.96-2.02,10.4-2.93c3.44-0.89,6.84-1.77,10.2-2.63
			c3.38-0.71,6.74-1.27,10.04-1.9c1.65-0.31,3.3-0.61,4.92-0.91c1.64-0.29,3.25-0.65,4.87-0.78c2.48-0.28,4.92-0.55,7.35-0.82
			V244.26z M437.53,236.23c-2.52,0.22-5.07,0.44-7.65,0.67c-1.64,0.09-3.27,0.41-4.92,0.66c-1.65,0.27-3.3,0.53-4.98,0.8
			c-3.34,0.55-6.75,1.04-10.17,1.67c-3.4,0.79-6.85,1.59-10.34,2.4c-3.49,0.84-7.05,1.54-10.56,2.71
			c-7.05,2.19-14.34,4.13-21.56,7.05c-3.64,1.37-7.31,2.75-11.02,4.15c-0.57,0.25-1.15,0.51-1.71,0.76
			c2.62-3.37,5.17-6.85,7.64-10.45c2.29-0.77,4.58-1.53,6.84-2.28c7.22-2.61,14.46-4.23,21.5-6.13c3.5-1.03,7.04-1.58,10.51-2.27
			c3.47-0.67,6.91-1.33,10.29-1.97c3.41-0.49,6.78-0.84,10.11-1.26c1.66-0.2,3.31-0.4,4.96-0.6c1.64-0.19,3.26-0.44,4.9-0.46
			c2.08-0.1,4.12-0.2,6.16-0.3V236.23z M437.53,228.16c-2.09,0.05-4.19,0.1-6.31,0.15c-1.65-0.01-3.3,0.2-4.95,0.35
			c-1.66,0.16-3.33,0.32-5.02,0.48c-3.35,0.34-6.78,0.61-10.22,1.02c-3.43,0.57-6.91,1.16-10.42,1.74
			c-3.52,0.61-7.11,1.09-10.67,2.03c-7.13,1.74-14.5,3.21-21.83,5.67c-0.49,0.15-0.99,0.31-1.49,0.46c1.79-2.81,3.53-5.68,5.23-8.62
			c6.77-1.85,13.51-2.96,20.08-4.3c3.55-0.8,7.09-1.13,10.59-1.59c3.5-0.45,6.96-0.89,10.37-1.32c3.42-0.27,6.81-0.41,10.14-0.61
			c1.68-0.09,3.33-0.19,4.98-0.28c1.65-0.08,3.29-0.24,4.91-0.15c1.56,0.03,3.09,0.05,4.62,0.07V228.16z M437.53,220
			c-1.54-0.06-3.07-0.12-4.62-0.19c-1.63-0.12-3.3-0.01-4.96,0.04c-1.65,0.06-3.33,0.11-5.02,0.16c-3.37,0.13-6.79,0.18-10.26,0.37
			c-3.45,0.35-6.96,0.71-10.49,1.08c-3.54,0.39-7.15,0.63-10.74,1.35c-5.38,0.96-10.89,1.76-16.43,2.94
			c1.42-2.65,2.71-5.18,3.88-7.57c5.01-0.8,9.97-1.35,14.84-2.02c3.57-0.58,7.13-0.67,10.64-0.92c3.52-0.22,6.98-0.44,10.41-0.66
			c3.43-0.05,6.81,0.02,10.16,0.03c1.68,0.01,3.34,0.02,4.99,0.03c1.64,0.02,3.29-0.02,4.89,0.16c0.91,0.07,1.81,0.14,2.71,0.21V220
			z M437.53,211.7c-0.85-0.09-1.7-0.18-2.56-0.27c-1.64-0.22-3.29-0.22-4.95-0.28c-1.66-0.05-3.34-0.1-5.03-0.16
			c-3.37-0.09-6.79-0.25-10.26-0.28c-3.46,0.13-6.97,0.27-10.53,0.4c-3.55,0.16-7.15,0.18-10.77,0.67c-4,0.45-8.06,0.82-12.15,1.31
			c1.21-2.65,2.22-5.01,3.04-7.02c3.93-0.31,7.83-0.51,11.67-0.79c3.6-0.35,7.16-0.22,10.67-0.24c3.52,0,6.99,0,10.42,0.01
			c3.42,0.16,6.8,0.46,10.13,0.67c1.68,0.12,3.33,0.24,4.98,0.35c1.65,0.12,3.29,0.19,4.9,0.47c0.15,0.02,0.29,0.04,0.44,0.06V211.7
			z M437.53,203.23c-0.05-0.01-0.1-0.02-0.15-0.02c-1.62-0.32-3.27-0.43-4.94-0.6c-1.65-0.16-3.33-0.32-5.01-0.48
			c-3.37-0.3-6.78-0.68-10.24-0.93c-3.47-0.08-6.98-0.17-10.52-0.26c-3.56-0.06-7.16-0.28-10.79-0.02
			c-3.22,0.16-6.48,0.26-9.76,0.41c0.11-0.33,0.21-0.63,0.3-0.89l0.03,0.01l2-5.83c3.46-0.03,6.89,0,10.28-0.03
			c3.61-0.12,7.15,0.24,10.66,0.44c3.51,0.22,6.98,0.45,10.41,0.66c3.41,0.38,6.78,0.89,10.09,1.32c1.66,0.23,3.31,0.45,4.95,0.67
			c0.9,0.12,1.8,0.24,2.69,0.37V203.23z M437.53,194.6c-0.76-0.13-1.52-0.25-2.28-0.37c-1.65-0.27-3.31-0.53-4.99-0.79
			c-3.34-0.52-6.74-1.12-10.17-1.58c-3.46-0.31-6.96-0.62-10.5-0.93c-3.54-0.29-7.13-0.73-10.77-0.7c-2.9-0.04-5.83-0.13-8.79-0.19
			l2.24-6.54c3.25,0.19,6.47,0.42,9.65,0.59c3.61,0.11,7.13,0.69,10.63,1.11c3.5,0.45,6.96,0.89,10.36,1.33
			c3.4,0.6,6.74,1.32,10.04,1.96c1.52,0.31,3.06,0.61,4.58,0.92V194.6z M361.26,99.98c0,0.02,0.01,0.03,0.01,0.05
			c0.15,0.89,0.29,1.78,0.43,2.67c0.74,0.16,1.47,0.33,2.2,0.52c1.86,0.48,3.71,0.95,5.56,1.43l27.43,15.63
			c-1.22-0.42-2.43-0.84-3.66-1.26c-3.79-1.06-7.6-2.13-11.46-3.21c-1.94-0.54-3.87-1.08-5.82-1.63c-1.95-0.51-3.93-0.88-5.92-1.33
			c-3.97-0.86-7.98-1.73-12.02-2.6c-0.72-0.15-1.45-0.29-2.18-0.42c-0.11-0.89-0.22-1.77-0.34-2.65c-0.57-3.85-1.12-7.67-1.68-11.46
			L361.26,99.98z M348.55,92.73c0.04,0.29,0.07,0.58,0.11,0.87c0.62,4.78,1.25,9.6,1.88,14.47c0.29,2.41,0.52,4.84,0.74,7.29
			c2.01,0.26,4.01,0.54,5.99,0.9c4,0.77,7.97,1.53,11.91,2.28c1.96,0.4,3.93,0.7,5.86,1.17c1.94,0.49,3.86,0.98,5.77,1.47
			c3.83,0.97,7.62,1.93,11.39,2.89c3.71,1.18,7.38,2.35,11.02,3.5c6.1,1.77,11.94,4.14,17.69,6.4l16.61,9.47v3.95
			c-2.38-1.01-4.77-2.02-7.2-3.04c-3.37-1.4-6.74-2.95-10.26-4.07c-7.01-2.39-14.13-5.14-21.58-7c-3.71-1.02-7.46-2.06-11.24-3.1
			c-3.82-0.82-7.69-1.64-11.59-2.47c-1.94-0.41-3.9-0.83-5.88-1.25c-1.96-0.39-3.97-0.63-5.96-0.95c-4-0.61-8.04-1.22-12.11-1.83
			c-2.2-0.31-4.42-0.53-6.65-0.72c-0.16-2.71-0.33-5.41-0.59-8.09c-0.51-4.95-1.01-9.85-1.51-14.72c-0.26-2.42-0.46-4.86-0.78-7.25
			c-0.2-1.38-0.4-2.76-0.6-4.13L348.55,92.73z M336.58,85.91c0.03,0.23,0.06,0.45,0.09,0.68c0.3,2.35,0.61,4.71,0.91,7.08
			c0.27,2.37,0.42,4.78,0.65,7.19c0.42,4.81,0.83,9.67,1.26,14.57c0.35,4.43,0.47,8.93,0.69,13.44c3.72,0.26,7.41,0.41,11.06,0.84
			c4.03,0.51,8.03,1.02,11.99,1.52c1.98,0.27,3.96,0.46,5.92,0.79c1.94,0.37,3.88,0.73,5.82,1.1c3.86,0.73,7.69,1.45,11.48,2.16
			c3.76,0.94,7.48,1.87,11.17,2.8c7.4,1.66,14.47,4.21,21.44,6.4c3.52,1.02,6.86,2.48,10.21,3.78c2.78,1.1,5.54,2.19,8.27,3.26v6.01
			c-0.68-0.29-1.35-0.58-2.03-0.85c-3.33-1.17-6.69-2.36-10.1-3.56c-3.42-1.18-6.86-2.52-10.42-3.41
			c-7.1-1.94-14.33-4.23-21.85-5.61c-3.75-0.79-7.54-1.58-11.37-2.38c-3.85-0.57-7.75-1.15-11.67-1.73
			c-1.96-0.29-3.94-0.58-5.93-0.88c-1.98-0.26-3.99-0.37-6-0.57c-4.02-0.35-8.08-0.7-12.18-1.06c-4.1-0.32-8.24-0.29-12.41-0.45
			c-0.03,0-0.07,0-0.09,0c0-0.04,0-0.08,0-0.11c-0.14-5.07-0.11-10.1-0.37-15.08c-0.3-4.98-0.58-9.91-0.87-14.8
			c-0.16-2.44-0.26-4.88-0.48-7.29c-0.24-2.41-0.48-4.81-0.72-7.2c-0.35-3.48-0.7-6.93-1.04-10.36L336.58,85.91z M325.41,79.55
			c0.38,4.48,0.76,8.99,1.14,13.54c0.2,2.36,0.39,4.74,0.59,7.13c0.18,2.39,0.23,4.8,0.34,7.21c0.21,4.83,0.41,9.71,0.63,14.63
			c0.18,4.92,0.07,9.89,0.12,14.9c-0.01,2.12,0.01,4.24,0.02,6.38c1.75,0.01,3.5,0.04,5.25,0.02c4.12,0.06,8.21-0.07,12.26,0.15
			c4.05,0.25,8.06,0.5,12.04,0.75c1.99,0.15,3.97,0.2,5.94,0.42c1.96,0.24,3.92,0.49,5.86,0.73c3.89,0.48,7.75,0.96,11.57,1.43
			c3.79,0.7,7.54,1.4,11.26,2.08c7.47,1.18,14.64,3.28,21.69,5.03c3.54,0.8,6.96,2.04,10.36,3.12c3.4,1.11,6.75,2.2,10.07,3.28
			c1,0.38,1.98,0.78,2.97,1.17v5.83c-2.13-0.77-4.27-1.54-6.45-2.27c-3.37-0.96-6.79-1.93-10.26-2.92
			c-3.46-0.96-6.94-2.08-10.54-2.74c-7.17-1.48-14.48-3.32-22.07-4.22c-3.78-0.54-7.6-1.1-11.46-1.65
			c-3.87-0.33-7.78-0.66-11.73-0.99c-1.98-0.17-3.96-0.33-5.96-0.5c-1.99-0.14-3.99-0.12-6.01-0.19c-4.04-0.1-8.1-0.19-12.21-0.28
			c-4.1-0.06-8.24,0.23-12.41,0.33c-2.48,0.12-4.97,0.15-7.47,0.26c0.09-3.04,0.12-6.07,0.22-9.08c0.08-5.07,0.32-10.09,0.27-15.08
			c-0.08-4.99-0.16-9.93-0.23-14.83c-0.06-2.45-0.03-4.89-0.16-7.31c-0.14-2.42-0.28-4.84-0.41-7.24c-0.27-4.8-0.55-9.55-0.81-14.26
			c-0.28-2.85-0.56-5.68-0.83-8.49L325.41,79.55z M307.45,163.81c0.64-5.09,0.82-10.21,1.2-15.26c0.31-5.06,0.76-10.06,0.93-15.04
			c0.14-4.98,0.27-9.93,0.41-14.83c0.05-2.44,0.17-4.88,0.16-7.31c-0.03-2.43-0.06-4.85-0.09-7.25c-0.07-4.81-0.13-9.57-0.2-14.29
			c-0.26-4.71-0.51-9.37-0.76-13.98c-0.07-1.94-0.19-3.87-0.32-5.78l5.9,3.36c0.31,3.77,0.62,7.57,0.93,11.4
			c0.19,4.66,0.38,9.36,0.57,14.11c0.09,2.37,0.19,4.76,0.29,7.15c0.07,2.39,0.02,4.81,0.03,7.23c0,4.84,0,9.72-0.01,14.65
			c-0.04,4.92-0.36,9.88-0.52,14.88c-0.24,5-0.29,10.04-0.78,15.1c-0.04,0.47-0.08,0.94-0.11,1.42c0.39-0.05,0.78-0.09,1.17-0.14
			c4.17-0.6,8.31-0.65,12.43-0.95c4.11-0.2,8.2-0.6,12.25-0.63c4.05,0,8.07-0.01,12.06-0.01c1.99,0.02,3.98-0.05,5.95,0.04
			c1.98,0.11,3.93,0.23,5.89,0.35c3.91,0.23,7.77,0.46,11.61,0.69c3.82,0.46,7.61,0.91,11.35,1.36c7.51,0.71,14.76,2.35,21.88,3.64
			c3.58,0.57,7.04,1.59,10.48,2.46c3.44,0.89,6.84,1.77,10.2,2.64c2.45,0.76,4.84,1.56,7.23,2.36v5.6c-0.17-0.05-0.33-0.1-0.5-0.15
			c-3.29-0.94-6.61-1.96-10-2.87c-3.41-0.74-6.86-1.5-10.37-2.26c-3.5-0.74-7.02-1.64-10.65-2.07c-7.23-1.03-14.61-2.39-22.22-2.81
			c-3.79-0.31-7.62-0.62-11.5-0.93c-3.88-0.08-7.8-0.16-11.76-0.24c-1.98-0.04-3.97-0.08-5.97-0.12c-2-0.01-4,0.14-6.02,0.2
			c-4.03,0.16-8.09,0.33-12.19,0.49c-4.11,0.2-8.22,0.76-12.38,1.12c-4.15,0.46-8.37,0.69-12.56,1.46
			c-1.51,0.24-3.02,0.47-4.54,0.71C307.06,167.48,307.26,165.64,307.45,163.81z M297.47,138.22c0.35-4.97,0.7-9.89,1.05-14.78
			c0.16-2.44,0.38-4.87,0.48-7.29c0.07-2.43,0.14-4.85,0.22-7.25c0.14-4.81,0.27-9.57,0.42-14.29c-0.05-4.72-0.11-9.39-0.16-14.01
			c0.03-5.46-0.21-10.83-0.51-16.13l5.71,3.26c0.18,2.79,0.33,5.59,0.38,8.43c0.18,4.57,0.36,9.18,0.53,13.84
			c-0.01,4.66-0.03,9.37-0.04,14.13c-0.01,2.37-0.01,4.76-0.03,7.16c-0.03,2.4-0.18,4.8-0.27,7.22c-0.21,4.84-0.42,9.71-0.64,14.63
			c-0.25,4.91-0.78,9.85-1.16,14.83c-0.46,4.97-0.72,10.01-1.43,15.03c-0.58,4.76-1.18,9.56-1.77,14.39
			c3.98-0.72,7.92-1.44,11.85-2.14c4.13-0.87,8.28-1.18,12.37-1.74c4.1-0.46,8.15-1.11,12.2-1.41c4.04-0.26,8.06-0.52,12.04-0.78
			c1.98-0.11,3.97-0.31,5.94-0.34c1.98-0.01,3.94-0.01,5.89-0.02c3.91-0.01,7.8-0.03,11.64-0.04c3.83,0.21,7.62,0.43,11.38,0.64
			c7.54,0.23,14.84,1.41,22.01,2.24c3.6,0.34,7.1,1.14,10.57,1.79c3.48,0.67,6.92,1.33,10.3,1.99c3.37,0.81,6.67,1.75,9.93,2.6
			c0.4,0.1,0.79,0.21,1.18,0.31v5.38c-1.35-0.3-2.71-0.61-4.06-0.91c-3.33-0.73-6.68-1.54-10.11-2.23
			c-3.44-0.52-6.92-1.06-10.45-1.6c-3.53-0.52-7.09-1.19-10.73-1.39c-2.77-0.21-5.56-0.48-8.38-0.72l0.53-1.54l-7.52,1.04
			c-2.29-0.12-4.6-0.2-6.93-0.18c-3.8-0.07-7.65-0.13-11.53-0.19c-3.88,0.17-7.8,0.34-11.75,0.51c-1.98,0.09-3.97,0.17-5.97,0.26
			c-1.99,0.12-3.99,0.39-6,0.58c-4.02,0.42-8.08,0.84-12.16,1.27c-4.09,0.46-8.18,1.28-12.31,1.91c-4.13,0.73-8.33,1.22-12.48,2.26
			c-4.17,0.92-8.37,1.86-12.61,2.8l-3.18,0.71l-0.94,0.26l0.22-1.14l0.58-3.87c0.77-5.14,1.54-10.25,2.3-15.32
			c0.85-5.05,1.26-10.15,1.86-15.16C296.42,148.15,297.1,143.19,297.47,138.22z M287.65,120.21c0.18-2.42,0.36-4.82,0.53-7.22
			c0.35-4.79,0.69-9.54,1.04-14.24c0.15-4.71,0.29-9.38,0.44-14.01c0.43-8.68,0.15-17.21,0.05-25.55l5.37,3.06
			c0.26,6.04,0.49,12.17,0.35,18.4c-0.03,4.57-0.04,9.18-0.07,13.85c-0.21,4.66-0.43,9.36-0.65,14.1c-0.11,2.37-0.21,4.76-0.33,7.15
			c-0.13,2.39-0.4,4.79-0.59,7.19c-0.41,4.81-0.84,9.67-1.27,14.57c-0.45,4.89-1.2,9.78-1.8,14.73c-0.67,4.94-1.15,9.95-2.07,14.92
			c-0.84,4.99-1.68,10-2.52,15.06l-0.63,3.8l-0.78,3.77c-0.52,2.52-1.04,5.05-1.56,7.59c-0.07,0.33-0.14,0.67-0.2,1
			c0.27-0.08,0.54-0.16,0.82-0.24c2.09-0.64,4.17-1.27,6.24-1.9l3.11-0.95l3.12-0.77c4.17-1.03,8.29-2.05,12.4-3.06
			c4.08-1.12,8.21-1.71,12.27-2.52c4.08-0.72,8.1-1.63,12.13-2.18c4.03-0.52,8.03-1.03,11.99-1.54c1.98-0.24,3.95-0.56,5.92-0.72
			c0.96-0.06,1.9-0.13,2.85-0.19c-4.56,1.2-9.83,2.74-15.54,4.69c-8.68,2.98-16.96,6.39-24.85,10.2c-2.92,0.65-5.86,1.3-8.76,2.22
			c-4.13,1.19-8.29,2.39-12.47,3.59l-3.14,0.91l-3.12,1.08c-2.09,0.72-4.17,1.45-6.27,2.18c-2.6,0.86-5.2,1.77-7.8,2.72
			c0.78-3.16,1.53-6.32,2.24-9.48c0.6-2.55,1.2-5.09,1.79-7.62l0.89-3.79l0.74-3.82c1-5.09,1.98-10.14,2.96-15.15
			c1.07-4.99,1.7-10.06,2.51-15.03c0.74-4.99,1.62-9.91,2.22-14.84c0.57-4.94,1.13-9.84,1.68-14.69
			C287.12,125.04,287.46,122.63,287.65,120.21z M279.68,88.26c0.84-9.2,0.89-18.27,1.19-27.1c0.11-2.33,0.12-4.64,0.09-6.94
			l5.12,2.92c0,0.19,0,0.38,0,0.58c-0.06,8.75,0.14,17.71-0.46,26.83c-0.22,4.56-0.44,9.17-0.67,13.83
			c-0.41,4.64-0.83,9.32-1.25,14.05c-0.2,2.36-0.42,4.74-0.63,7.12c-0.24,2.38-0.61,4.76-0.91,7.15c-0.62,4.78-1.26,9.6-1.9,14.47
			c-0.66,4.85-1.62,9.69-2.43,14.6c-0.88,4.89-1.58,9.87-2.72,14.77c-1.04,4.92-2.1,9.88-3.17,14.88l-0.79,3.75l-0.04,0.15
			c-0.47-7.84-1.36-15.41-2.56-22.62c0.44-2.24,0.87-4.47,1.33-6.68c0.95-4.94,2.04-9.79,2.85-14.68c0.78-4.9,1.54-9.76,2.31-14.57
			c0.37-2.41,0.81-4.79,1.1-7.19c0.29-2.41,0.56-4.8,0.83-7.18c0.56-4.76,1.1-9.48,1.65-14.16
			C278.99,97.52,279.33,92.86,279.68,88.26z M271.92,64.15c0.4-4.4,0.41-8.78,0.55-13.09c0.01-0.55,0.03-1.1,0.04-1.65l4.97,2.83
			c0,2.91-0.01,5.85-0.21,8.8c-0.44,8.73-0.63,17.69-1.61,26.76c-0.42,4.54-0.84,9.13-1.26,13.76c-0.61,4.61-1.23,9.25-1.85,13.95
			c-0.32,2.35-0.63,4.7-0.94,7.07c-0.34,2.37-0.81,4.71-1.21,7.08c-0.83,4.74-1.66,9.51-2.51,14.33c-0.57,3.12-1.26,6.23-1.95,9.36
			c-1.19-5.18-2.5-10.11-3.89-14.78c0.36-1.77,0.72-3.54,1.08-5.3c0.46-2.39,1-4.74,1.41-7.11c0.39-2.39,0.76-4.76,1.15-7.12
			c0.76-4.72,1.51-9.4,2.25-14.03c0.56-4.67,1.1-9.29,1.65-13.87C270.8,82,271.24,72.95,271.92,64.15z M263.97,53.51
			c0.2-2.91,0.4-5.78,0.59-8.64l4.66,2.66c-0.05,1.11-0.1,2.21-0.14,3.32c-0.21,4.26-0.28,8.59-0.75,12.94
			c-0.82,8.69-1.39,17.62-2.77,26.62c-0.61,4.5-1.23,9.06-1.85,13.67c-0.81,4.55-1.63,9.16-2.45,13.81c-0.42,2.32-0.83,4.65-1.25,7
			c-0.28,1.47-0.6,2.93-0.93,4.39c-1.39-4.09-2.81-7.89-4.2-11.39c0.74-3.62,1.48-7.22,2.22-10.78c0.75-4.63,1.5-9.21,2.24-13.75
			c1.63-9.04,2.46-18.05,3.51-26.8C263.45,62.19,263.65,57.82,263.97,53.51z M256.8,42.77c0.06-0.75,0.11-1.48,0.16-2.22l4.5,2.56
			c-0.29,3.3-0.57,6.63-0.86,10c-0.39,4.25-0.65,8.56-1.31,12.87c-1.19,8.64-2.15,17.52-3.91,26.41c-0.8,4.46-1.62,8.97-2.43,13.53
			c-0.35,1.57-0.71,3.15-1.06,4.73c-1.52-3.49-2.95-6.56-4.22-9.13c0.46-2.21,0.92-4.4,1.38-6.59c2.02-8.92,3.23-17.87,4.66-26.54
			c0.78-4.32,1.16-8.67,1.66-12.95C255.86,51.16,256.33,46.94,256.8,42.77z M248.68,44.25c0.33-2.66,0.61-5.29,0.89-7.91l4.38,2.5
			c-0.1,1.16-0.19,2.31-0.3,3.47c-0.54,4.12-1.09,8.29-1.63,12.51c-0.57,4.21-1.02,8.51-1.87,12.77
			c-1.55,8.54-2.89,17.35-5.05,26.12c-0.15,0.65-0.3,1.32-0.44,1.97c-0.52-0.97-0.97-1.78-1.31-2.38l-0.09-0.17l-2.74-4.7
			c1.46-6.32,2.65-12.63,3.94-18.79c0.97-4.26,1.54-8.59,2.24-12.83C247.37,52.57,248.03,48.38,248.68,44.25z M242.41,32.95
			c0.03-0.22,0.07-0.43,0.1-0.65l4.19,2.39c-0.37,2.94-0.73,5.9-1.15,8.88c-0.72,4.08-1.44,8.21-2.16,12.39
			c-0.75,4.17-1.39,8.43-2.41,12.63c-1.11,4.89-2.16,9.87-3.34,14.87l-4.01-6.89c0.52-2.11,1.05-4.21,1.58-6.29
			c1.14-4.2,1.91-8.48,2.78-12.67c0.84-4.19,1.69-8.34,2.51-12.42C241.2,41.08,241.78,36.98,242.41,32.95z M235.73,28.45l4.02,2.29
			c-0.09,0.51-0.17,1.02-0.26,1.53c-0.68,3.98-1.32,8.01-2.09,12.08c-0.88,4.03-1.78,8.1-2.68,12.24
			c-0.93,4.12-1.75,8.33-2.96,12.46c-0.27,0.98-0.53,1.98-0.8,2.96l-0.7-1.2l-1.77,3.04c-0.43-1.6-0.86-3.22-1.29-4.8
			c-1.21-4.13-2.03-8.34-2.96-12.46c-0.91-4.13-1.81-8.21-2.69-12.24c-0.76-4.07-1.4-8.1-2.09-12.08c-0.07-0.39-0.13-0.78-0.2-1.17
			l4.03-2.29c0.31,1.57,0.62,3.14,0.93,4.72c0.8,3.98,1.56,8.04,2.43,12.11c0.93,3.73,1.86,7.5,2.81,11.32
			c0.95-3.82,1.89-7.59,2.82-11.32c0.87-4.07,1.63-8.13,2.44-12.11C235.07,31.83,235.4,30.13,235.73,28.45z M233.08,26.94
			c-0.42,1.89-0.82,3.8-1.23,5.72c-0.78,3.59-1.54,7.24-2.37,10.9c-0.83-3.66-1.58-7.31-2.37-10.9c-0.39-1.8-0.77-3.59-1.15-5.37
			l3.88-2.21L233.08,26.94z"/>
	</g>
</g>
</svg>
