<?xml version="1.0" encoding="utf-8"?>
<!-- Generator: Adobe Illustrator 24.0.0, SVG Export Plug-In . SVG Version: 6.00 Build 0)  -->
<svg version="1.1" id="Layer_1" xmlns="http://www.w3.org/2000/svg" xmlns:xlink="http://www.w3.org/1999/xlink" x="0px" y="0px"
	 viewBox="0 0 322.7 306.9" style="enable-background:new 0 0 322.7 306.9;" xml:space="preserve">
<style type="text/css">
	.st0{fill:#231F20;}
	.st1{fill:#9F936D;}
	.st2{fill:#E1DAC9;}
	.st3{fill:none;stroke:#FFFFFF;stroke-width:0.862;stroke-miterlimit:10;}
	.st4{enable-background:new    ;}
	.st5{clip-path:url(#SVGID_2_);fill:url(#SVGID_3_);}
	.st6{clip-path:url(#SVGID_5_);fill:url(#SVGID_6_);}
	.st7{clip-path:url(#SVGID_8_);fill:url(#SVGID_9_);}
	.st8{clip-path:url(#SVGID_11_);fill:url(#SVGID_12_);}
	.st9{clip-path:url(#SVGID_14_);fill:url(#SVGID_15_);}
	.st10{clip-path:url(#SVGID_17_);fill:url(#SVGID_18_);}
	.st11{clip-path:url(#SVGID_20_);fill:url(#SVGID_21_);}
	.st12{clip-path:url(#SVGID_23_);fill:url(#SVGID_24_);}
	.st13{clip-path:url(#SVGID_26_);fill:url(#SVGID_27_);}
	.st14{clip-path:url(#SVGID_29_);fill:url(#SVGID_30_);}
	.st15{clip-path:url(#SVGID_32_);fill:url(#SVGID_33_);}
	.st16{clip-path:url(#SVGID_35_);fill:url(#SVGID_36_);}
	.st17{clip-path:url(#SVGID_38_);fill:url(#SVGID_39_);}
	.st18{clip-path:url(#SVGID_41_);fill:url(#SVGID_42_);}
	.st19{clip-path:url(#SVGID_44_);}
	.st20{clip-path:url(#SVGID_46_);fill:#FFFFFF;}
	.st21{clip-path:url(#SVGID_48_);fill:#FFFFFF;}
	.st22{clip-path:url(#SVGID_50_);fill:#FFFFFF;}
	.st23{clip-path:url(#SVGID_52_);fill:#FFFFFF;}
	.st24{clip-path:url(#SVGID_54_);fill:#FFFFFF;}
	.st25{clip-path:url(#SVGID_56_);fill:#FFFFFF;}
	.st26{clip-path:url(#SVGID_58_);fill:#FFFFFF;}
	.st27{clip-path:url(#SVGID_60_);fill:#FFFFFF;}
	.st28{clip-path:url(#SVGID_62_);fill:#FFFFFF;}
	.st29{clip-path:url(#SVGID_64_);fill:#FFFFFF;}
	.st30{clip-path:url(#SVGID_66_);fill:#FFFFFF;}
	.st31{clip-path:url(#SVGID_68_);fill:#FFFFFF;}
	.st32{clip-path:url(#SVGID_70_);fill:#FFFFFF;}
	.st33{clip-path:url(#SVGID_72_);fill:#FFFFFF;}
	.st34{clip-path:url(#SVGID_74_);fill:url(#SVGID_75_);}
	.st35{fill:#FFFFFF;}
	.st36{clip-path:url(#SVGID_77_);fill:url(#SVGID_78_);}
</style>
<path class="st0" d="M69.4,71.7c0.1,0.2,0.3,0.4,0.4,0.6c-0.6,0.3-1.2,0.7-1.7,1c0.8,1.3,1.5,2.5,2.3,3.8c-0.2,0.1-0.5,0.3-0.7,0.4
	c-0.8-1.3-1.6-2.5-2.3-3.8c-0.6,0.3-1.1,0.7-1.7,1.1c-0.1-0.2-0.3-0.4-0.4-0.6C66.6,73.4,68,72.5,69.4,71.7"/>
<path class="st0" d="M71.5,70.4c0.2-0.1,0.5-0.3,0.7-0.4c0.3,0.6,0.7,1.2,1,1.8c1-0.6,1.9-1.1,2.9-1.6c-0.3-0.6-0.7-1.2-1-1.8
	c0.2-0.1,0.5-0.3,0.7-0.4c0.8,1.5,1.7,3,2.5,4.6c-0.2,0.1-0.5,0.3-0.7,0.4c-0.4-0.7-0.8-1.4-1.1-2.1c-1,0.5-1.9,1.1-2.9,1.6l1.2,2
	c-0.2,0.1-0.5,0.3-0.7,0.4C73.2,73.4,72.3,71.9,71.5,70.4"/>
<path class="st0" d="M82.6,64.5c0.1,0.2,0.2,0.4,0.3,0.7c-1.1,0.6-2.3,1.1-3.4,1.7c0.2,0.4,0.4,0.8,0.6,1.2c0.6-0.3,1.1-0.6,1.7-0.9
	c0.1,0.2,0.2,0.4,0.3,0.7c-0.6,0.3-1.1,0.6-1.7,0.9c0.2,0.5,0.5,0.9,0.7,1.4c1.2-0.6,2.3-1.2,3.5-1.8c0.1,0.2,0.2,0.4,0.3,0.7
	c-1.4,0.7-2.8,1.4-4.2,2.1c-0.8-1.5-1.6-3.1-2.4-4.6C79.8,65.9,81.2,65.2,82.6,64.5"/>
<path class="st0" d="M88.2,61.9c0.9,1,1.8,2,2.7,3h0c-0.2-1.3-0.3-2.7-0.5-4c0.2-0.1,0.5-0.2,0.7-0.3c0.9,1,1.7,2,2.6,3.1
	c0,0,0,0,0,0c-0.1-1.3-0.2-2.7-0.3-4c0.3-0.1,0.5-0.2,0.8-0.3c0.1,1.8,0.3,3.6,0.4,5.4c-0.2,0.1-0.5,0.2-0.8,0.3
	c-0.8-1-1.6-1.9-2.5-2.9c0,0,0,0,0,0c0.2,1.3,0.3,2.5,0.5,3.8c-0.3,0.1-0.5,0.2-0.8,0.3c-1.2-1.3-2.4-2.7-3.6-4
	C87.7,62.1,87.9,62,88.2,61.9"/>
<path class="st0" d="M96.7,61.1c-0.6-1.5,0.3-3,1.8-3.6c1.5-0.6,3.2,0,3.7,1.5c0.5,1.5-0.4,3-1.8,3.5C98.9,63.1,97.3,62.6,96.7,61.1
	 M101.5,59.3c-0.4-1-1.5-1.5-2.7-1.1s-1.7,1.6-1.3,2.6c0.4,1,1.6,1.5,2.7,1C101.3,61.4,101.8,60.3,101.5,59.3"/>
<path class="st0" d="M104.6,55.5c1.5,0.9,2.9,1.8,4.4,2.7c0,0,0,0,0,0c-0.4-1.2-0.8-2.5-1.2-3.8c0.3-0.1,0.5-0.2,0.8-0.2
	c0.5,1.7,1,3.3,1.5,4.9c-0.2,0.1-0.5,0.2-0.8,0.2c-1.4-0.9-2.9-1.8-4.3-2.7h0c0.4,1.2,0.8,2.5,1.3,3.7c-0.2,0.1-0.5,0.2-0.8,0.2
	c-0.6-1.6-1.1-3.3-1.7-4.9C104.1,55.6,104.3,55.5,104.6,55.5"/>
<path class="st0" d="M113.7,52.6c1.9-0.5,3,0.6,3.3,1.8c0.4,1.4-0.4,2.8-1.9,3.2c-0.8,0.2-1.6,0.5-2.4,0.7c-0.5-1.7-1-3.3-1.5-5
	C112.1,53.1,112.9,52.9,113.7,52.6 M112.2,53.8c0.3,1.2,0.7,2.4,1,3.5c0.6-0.2,1.1-0.3,1.7-0.5c1.3-0.4,1.5-1.5,1.3-2.3
	c-0.3-1.1-1.2-1.5-2.3-1.2C113.4,53.5,112.8,53.7,112.2,53.8"/>
<path class="st0" d="M122,50.5c0.9-0.2,1.8,0,2,1.1c0.2,1.1-0.5,1.6-0.9,1.8c0.5,0.6,1.1,1.3,1.6,1.9c-0.3,0.1-0.6,0.1-0.9,0.2
	c-0.5-0.6-1-1.2-1.5-1.9c-0.7,0.2-1.3,0.3-2,0.5c0.2,0.7,0.3,1.4,0.5,2.1c-0.2,0.1-0.5,0.1-0.8,0.2c-0.4-1.7-0.8-3.3-1.2-5
	C119.8,51,120.9,50.8,122,50.5 M119.7,51.8c0.1,0.5,0.2,1,0.4,1.5c0.8-0.2,1.6-0.4,2.4-0.6c0.6-0.1,0.8-0.5,0.7-1
	c-0.1-0.6-0.6-0.6-1.1-0.5C121.3,51.5,120.5,51.7,119.7,51.8"/>
<path class="st0" d="M126.1,52.3c-0.3-1.6,0.8-2.9,2.4-3.2c1.6-0.3,3.1,0.5,3.4,2.1c0.3,1.6-0.9,2.9-2.4,3.2
	C128,54.7,126.5,53.9,126.1,52.3 M131.1,51.3c-0.2-1-1.2-1.8-2.5-1.5c-1.2,0.2-2,1.3-1.8,2.3c0.2,1,1.3,1.7,2.5,1.5
	C130.6,53.4,131.3,52.4,131.1,51.3"/>
<path class="st0" d="M139.3,50.7c0.1,1-0.1,2.1-2.1,2.4c-2,0.3-2.5-0.7-2.7-1.7c-0.2-1.1-0.3-2.1-0.5-3.2c0.3,0,0.5-0.1,0.8-0.1
	c0.2,1.1,0.3,2.1,0.5,3.2c0.1,0.8,0.5,1.2,1.8,1.1s1.5-0.8,1.4-1.5c-0.1-1.1-0.3-2.1-0.4-3.2c0.3,0,0.5-0.1,0.8-0.1
	C139,48.6,139.1,49.6,139.3,50.7"/>
<path class="st0" d="M142.1,50.9c0.4,0.2,1,0.7,2.3,0.6c0.7-0.1,1.7-0.4,1.6-1c-0.1-0.8-1.1-0.8-1.8-0.7c-0.3,0-0.5,0.1-0.8,0.1
	c-0.7,0.1-1.6-0.2-1.8-1.1c-0.1-1.1,1.1-1.7,2.2-1.8c1.2-0.1,2.1,0.3,2.3,0.5c-0.1,0.2-0.3,0.4-0.4,0.6c-0.5-0.2-0.9-0.5-1.8-0.4
	c-0.7,0.1-1.5,0.4-1.5,1c0.1,0.4,0.4,0.5,1,0.5c0.2,0,0.5,0,0.7-0.1c1.3-0.1,2.5,0.1,2.6,1.3c0.1,1.1-1.1,1.7-2.4,1.9
	c-1.6,0.2-2.4-0.5-2.8-0.7C141.7,51.3,141.9,51.1,142.1,50.9"/>
<path class="st0" d="M153.1,47.8C153.1,47.8,153.1,47.8,153.1,47.8c0,1.2,0.1,2.4,0.2,3.6c-0.3,0-0.5,0-0.8,0
	c-0.1-1.7-0.2-3.4-0.3-5.2c0.3,0,0.5,0,0.8,0c0.7,1,1.4,2.1,2,3.1c0.6-1.1,1.2-2.2,1.8-3.3c0.3,0,0.5,0,0.8,0
	c0.1,1.7,0.1,3.5,0.1,5.2c-0.3,0-0.5,0-0.8,0c0-1.2-0.1-2.4-0.1-3.6c0,0,0,0,0,0c-0.6,1.1-1.2,2.2-1.7,3.2
	C154.5,49.8,153.8,48.8,153.1,47.8"/>
<path class="st0" d="M160.6,46c0.6,0.7,1.1,1.5,1.7,2.2c0.6-0.7,1.1-1.5,1.7-2.2c0.3,0,0.7,0,1,0c-0.8,1-1.6,2-2.3,2.9
	c0,0.7,0,1.5,0,2.2c-0.3,0-0.5,0-0.8,0c0-0.7,0-1.5,0-2.2c-0.7-1-1.5-2-2.2-2.9C160,46,160.3,46,160.6,46"/>
<path class="st0" d="M166.7,49.8c0.4,0.2,0.9,0.8,2.2,0.9c0.7,0,1.7-0.2,1.8-0.8c0-0.8-1-0.9-1.7-0.9c-0.3,0-0.6,0-0.8,0
	c-0.7,0-1.6-0.4-1.6-1.4c0-1.1,1.4-1.6,2.4-1.5c1.2,0,2,0.6,2.2,0.8c-0.2,0.2-0.3,0.4-0.5,0.6c-0.5-0.3-0.8-0.6-1.8-0.6
	c-0.7,0-1.6,0.2-1.6,0.8c0,0.4,0.3,0.6,0.9,0.6c0.2,0,0.5,0,0.7,0c1.3,0,2.5,0.4,2.4,1.7c-0.1,1.1-1.3,1.6-2.6,1.5
	c-1.6,0-2.3-0.8-2.6-1.1C166.3,50.1,166.5,49.9,166.7,49.8"/>
<path class="st0" d="M177.9,46.6c0,0.2,0,0.5-0.1,0.7c-0.6,0-1.3-0.1-1.9-0.2c-0.1,1.5-0.2,2.9-0.3,4.4c-0.3,0-0.5,0-0.8,0
	c0.1-1.5,0.2-2.9,0.3-4.4c-0.6,0-1.3-0.1-1.9-0.1c0-0.2,0-0.5,0-0.7C174.8,46.4,176.4,46.5,177.9,46.6"/>
<path class="st0" d="M184.6,47.3c0,0.2-0.1,0.5-0.1,0.7c-1.2-0.2-2.5-0.3-3.7-0.4c-0.1,0.5-0.1,0.9-0.1,1.3c0.6,0.1,1.2,0.1,1.9,0.2
	c0,0.2-0.1,0.5-0.1,0.7c-0.6-0.1-1.2-0.1-1.9-0.2c-0.1,0.5-0.1,1-0.2,1.6c1.3,0.1,2.5,0.3,3.8,0.4c0,0.2-0.1,0.5-0.1,0.7
	c-1.5-0.2-3-0.3-4.5-0.5c0.2-1.7,0.3-3.4,0.5-5.2C181.6,47,183.1,47.1,184.6,47.3"/>
<path class="st0" d="M190.5,48.1c0.9,0.1,1.7,0.7,1.5,1.7c-0.2,1.1-1,1.3-1.5,1.3c0.3,0.8,0.5,1.6,0.8,2.3c-0.3,0-0.6-0.1-0.9-0.1
	c-0.2-0.8-0.5-1.5-0.7-2.3c-0.7-0.1-1.3-0.2-2-0.3c-0.1,0.7-0.2,1.4-0.3,2.1c-0.3,0-0.5-0.1-0.8-0.1c0.2-1.7,0.5-3.4,0.7-5.1
	C188.3,47.8,189.4,48,190.5,48.1 M187.9,48.5c-0.1,0.5-0.1,1-0.2,1.5c0.8,0.1,1.6,0.2,2.4,0.4c0.6,0.1,1-0.1,1-0.6
	c0.1-0.6-0.4-0.8-0.8-0.9C189.5,48.7,188.7,48.6,187.9,48.5"/>
<path class="st0" d="M194.5,48.8c0.4,0.8,0.9,1.7,1.3,2.5c0.7-0.6,1.4-1.2,2.1-1.8c0.3,0.1,0.7,0.1,1,0.2c-0.9,0.8-1.9,1.6-2.8,2.4
	l-0.4,2.2c-0.3,0-0.5-0.1-0.8-0.1c0.1-0.7,0.3-1.5,0.4-2.2c-0.6-1.1-1.1-2.2-1.7-3.3C193.9,48.7,194.2,48.8,194.5,48.8"/>
<path class="st0" d="M203.2,53.2c0.4-1.6,2-2.3,3.5-1.9c1.6,0.4,2.6,1.8,2.2,3.4c-0.4,1.6-2,2.2-3.5,1.9
	C203.9,56.2,202.8,54.8,203.2,53.2 M208.2,54.5c0.3-1-0.4-2.1-1.6-2.4s-2.3,0.3-2.6,1.4s0.4,2.1,1.6,2.4
	C206.8,56.1,207.9,55.5,208.2,54.5"/>
<path class="st0" d="M211.5,58.1c-0.2-0.1-0.5-0.1-0.8-0.2c0.5-1.7,0.9-3.3,1.4-5c1.5,0.4,2.9,0.9,4.4,1.3c-0.1,0.2-0.1,0.5-0.2,0.7
	c-1.2-0.4-2.4-0.7-3.6-1.1c-0.1,0.4-0.2,0.9-0.4,1.3c0.7,0.2,1.4,0.4,2.2,0.6c-0.1,0.2-0.1,0.5-0.2,0.7c-0.7-0.2-1.4-0.4-2.2-0.6
	C211.9,56.6,211.7,57.3,211.5,58.1"/>
<path class="st0" d="M222.9,56.3c0.6,1.6,1.2,3.2,1.8,4.8c0,0,0,0,0,0c0.5-1.2,0.9-2.5,1.4-3.7c0.2,0.1,0.5,0.2,0.8,0.3
	c-0.6,1.6-1.2,3.2-1.8,4.8c-0.2-0.1-0.5-0.2-0.7-0.3c-0.6-1.6-1.1-3.2-1.8-4.8c0,0,0,0,0,0c-0.4,1.2-0.9,2.5-1.3,3.7
	c-0.2-0.1-0.5-0.2-0.7-0.3c0.6-1.6,1.1-3.3,1.7-4.9C222.4,56.1,222.6,56.2,222.9,56.3"/>
<path class="st0" d="M232.2,65.5c-0.3-0.1-0.6-0.2-0.8-0.3c0-0.6,0-1.2-0.1-1.9c-0.8-0.3-1.5-0.6-2.3-0.9c-0.5,0.4-0.9,0.8-1.4,1.3
	c-0.3-0.1-0.5-0.2-0.8-0.3c1.4-1.3,2.8-2.6,4.2-3.9c0.3,0.1,0.6,0.2,0.8,0.3C232,61.7,232.1,63.6,232.2,65.5 M231.1,60.4
	c-0.5,0.4-1,0.9-1.5,1.3c0.5,0.2,1.1,0.4,1.6,0.7C231.2,61.8,231.2,61.1,231.1,60.4"/>
<path class="st0" d="M239.9,63.3c-0.1,0.2-0.2,0.5-0.3,0.7c-0.6-0.3-1.2-0.6-1.8-0.8c-0.6,1.3-1.2,2.7-1.8,4
	c-0.2-0.1-0.5-0.2-0.7-0.3c0.6-1.3,1.2-2.7,1.8-4c-0.6-0.3-1.2-0.5-1.8-0.8c0.1-0.2,0.2-0.5,0.3-0.7C237,61.9,238.4,62.6,239.9,63.3
	"/>
<path class="st0" d="M245,69.4c-0.4,0.9-1.3,1.6-3.1,0.7c-1.8-0.9-1.7-2.1-1.3-2.9c0.5-1,0.9-1.9,1.4-2.9c0.2,0.1,0.5,0.2,0.7,0.4
	c-0.5,1-0.9,1.9-1.4,2.9c-0.3,0.7-0.3,1.3,0.9,1.9c1.1,0.6,1.7,0.2,2.1-0.4c0.5-0.9,1-1.9,1.5-2.9c0.2,0.1,0.5,0.2,0.7,0.4
	C246,67.5,245.5,68.5,245,69.4"/>
<path class="st0" d="M252.1,69.6c0.8,0.4,1.4,1.3,0.8,2.2c-0.6,1-1.4,0.9-1.9,0.7c0,0.8-0.1,1.7-0.1,2.5c-0.3-0.2-0.5-0.3-0.8-0.5
	c0-0.8,0.1-1.6,0.1-2.4c-0.6-0.3-1.2-0.7-1.8-1c-0.4,0.6-0.7,1.3-1,1.9c-0.2-0.1-0.5-0.3-0.7-0.4c0.8-1.5,1.6-3,2.5-4.5
	C250.2,68.5,251.1,69.1,252.1,69.6 M249.5,69c-0.2,0.4-0.5,0.9-0.7,1.3c0.7,0.4,1.5,0.8,2.2,1.2c0.5,0.3,1,0.2,1.2-0.2
	c0.3-0.5-0.1-0.9-0.5-1.1C251,69.9,250.3,69.4,249.5,69"/>
<path class="st0" d="M259.7,74.2c-0.1,0.2-0.3,0.4-0.4,0.6c-1.1-0.7-2.2-1.4-3.3-2c-0.2,0.4-0.5,0.8-0.7,1.2c0.6,0.3,1.1,0.7,1.6,1
	c-0.1,0.2-0.3,0.4-0.4,0.6c-0.6-0.3-1.1-0.7-1.6-1c-0.3,0.4-0.5,0.9-0.8,1.3c1.1,0.7,2.2,1.4,3.4,2.1c-0.1,0.2-0.3,0.4-0.4,0.6
	c-1.3-0.8-2.7-1.7-4-2.5c0.9-1.5,1.8-3,2.6-4.4C257,72.5,258.3,73.3,259.7,74.2"/>
<rect x="146.4" y="283.1" class="st1" width="2.2" height="0.6"/>
<path class="st1" d="M154,279.6v0.4c0,0-0.1,0-0.1,0s0,0-0.1,0s0,0-0.1,0.1c0,0,0,0.1,0,0.1l0,4.8c0,0.1,0,0.2,0,0.3
	c0,0.1-0.1,0.1-0.1,0.2c-0.1,0.1-0.1,0.1-0.2,0.2c-0.1,0-0.2,0.1-0.4,0.1h-1.9c-0.2,0-0.3,0-0.4-0.1s-0.2-0.1-0.2-0.2
	c-0.1-0.1-0.1-0.1-0.1-0.2s0-0.2,0-0.3v-4.8c0,0,0-0.1,0-0.1c0,0,0,0-0.1-0.1c0,0,0,0-0.1,0s0,0-0.1,0v-0.4h1.4v0.4c0,0-0.1,0-0.1,0
	s0,0-0.1,0c0,0,0,0-0.1,0.1c0,0,0,0.1,0,0.1v4.2c0,0.1,0,0.2,0.1,0.2c0,0,0.1,0.1,0.1,0.1c0.1,0,0.1,0,0.1,0c0.1,0,0.1,0,0.2,0h0.4
	c0.1,0,0.1,0,0.2,0c0.1,0,0.1,0,0.1-0.1c0.1,0,0.1-0.1,0.1-0.1c0-0.1,0.1-0.1,0.1-0.2v-4.2c0,0,0-0.1,0-0.1c0,0,0,0-0.1-0.1
	c0,0,0,0-0.1,0s-0.1,0-0.1,0v-0.4L154,279.6L154,279.6z"/>
<path class="st1" d="M158.7,280.2l0,4.9c0,0,0,0.1,0,0.1c0,0,0,0,0.1,0.1c0,0,0,0,0.1,0c0,0,0,0,0.1,0v0.4h-0.2h-0.2h-0.4h-0.2h-0.2
	v0h0l-1.2-3.6v3.2c0,0,0,0.1,0,0.1c0,0,0,0,0.1,0c0,0,0,0,0.1,0s0,0,0,0c0,0,0,0,0,0v0.4h-0.2h-0.2h-0.4h-0.2h-0.2v-0.4
	c0,0,0,0,0.1,0c0,0,0,0,0.1,0c0,0,0,0,0.1,0c0,0,0-0.1,0-0.1v-5c0,0,0-0.1,0-0.1c0,0,0,0-0.1-0.1s0,0-0.1,0s0,0-0.1,0v-0.4h0.2h0.2
	h0.4h0.2l1.4,4.2v-3.7c0,0,0-0.1,0-0.1s0,0-0.1-0.1c0,0,0,0-0.1,0s0,0-0.1,0v-0.4h0.2h0.2h0.4h0.2h0.2v0.4c0,0,0,0-0.1,0
	c0,0,0,0-0.1,0S158.8,280.1,158.7,280.2C158.8,280.1,158.7,280.1,158.7,280.2"/>
<path class="st1" d="M163.5,284.7c0,0,0.1,0,0.1-0.1c0,0,0.1-0.1,0.1-0.1l0.3,0.1l-0.5,1.1l-2.3,0c-0.1,0-0.2-0.1-0.3-0.1
	c-0.1,0-0.2-0.1-0.2-0.2c-0.1-0.1-0.1-0.2-0.1-0.4c0-0.3,0-0.6,0-1c0-0.4,0-0.7,0-0.9c0-0.1,0-0.4,0-0.8c0-0.4,0-0.7,0-1.1
	c0-0.4,0-0.7,0-0.9c0-0.2,0.1-0.3,0.1-0.4c0.1-0.1,0.1-0.2,0.2-0.2c0.1,0,0.2-0.1,0.3-0.1l2.1,0l0.5,1.1l-0.3,0.1
	c-0.1,0-0.1-0.1-0.1-0.1s-0.1-0.1-0.1-0.1s-0.1,0-0.3,0s-0.3,0-0.5,0s-0.3,0-0.5,0h-0.2c-0.1,0-0.2,0-0.2,0s-0.1,0.1-0.1,0.1
	c0,0,0,0.1-0.1,0.1c0,0,0,0.1,0,0.2v3.1c0,0.1,0,0.1,0,0.2c0,0,0,0.1,0.1,0.2c0,0,0.1,0.1,0.1,0.1c0.1,0,0.1,0,0.2,0h0.2
	c0.2,0,0.3,0,0.5,0s0.4,0,0.5,0C163.4,284.7,163.5,284.7,163.5,284.7"/>
<path class="st1" d="M169.1,279.6v0.4c0,0-0.1,0-0.1,0c0,0,0,0-0.1,0s0,0-0.1,0.1c0,0,0,0.1,0,0.1l0,4.8c0,0.1,0,0.2,0,0.3
	c0,0.1-0.1,0.1-0.1,0.2c-0.1,0.1-0.1,0.1-0.2,0.2c-0.1,0-0.2,0.1-0.4,0.1h-1.9c-0.2,0-0.3,0-0.4-0.1c-0.1,0-0.2-0.1-0.2-0.2
	s-0.1-0.1-0.1-0.2s0-0.2,0-0.3v-4.8c0,0,0-0.1,0-0.1c0,0,0,0-0.1-0.1c0,0,0,0-0.1,0s-0.1,0-0.1,0v-0.4h1.4v0.4c0,0-0.1,0-0.1,0
	s0,0-0.1,0s0,0-0.1,0.1c0,0,0,0.1,0,0.1v4.2c0,0.1,0,0.2,0.1,0.2c0,0,0.1,0.1,0.1,0.1c0.1,0,0.1,0,0.1,0c0.1,0,0.1,0,0.2,0h0.4
	c0.1,0,0.1,0,0.2,0c0.1,0,0.1,0,0.1-0.1c0.1,0,0.1-0.1,0.1-0.1c0-0.1,0.1-0.1,0.1-0.2v-4.2c0,0,0-0.1,0-0.1c0,0,0,0-0.1-0.1
	c0,0,0,0-0.1,0s0,0-0.1,0v-0.4L169.1,279.6L169.1,279.6z"/>
<path class="st1" d="M172.7,280.4v4.7h0v0c0,0.1,0,0.1,0,0.1c0,0,0,0,0.1,0.1c0,0,0,0,0.1,0c0,0,0,0,0.1,0v0.4h-1.4v-0.4
	c0,0,0.1,0,0.1,0s0,0,0.1,0c0,0,0,0,0.1-0.1c0,0,0-0.1,0-0.1v-4.8h-0.9c-0.1,0-0.2,0-0.2,0s-0.2,0.1-0.3,0.1
	c0.1-0.2,0.1-0.4,0.2-0.5c0-0.1,0.1-0.3,0.2-0.5h3.3c0.1,0.2,0.1,0.4,0.2,0.5c0,0.1,0.1,0.3,0.1,0.5c-0.1,0-0.1-0.1-0.2-0.1
	s-0.1,0-0.2-0.1s-0.1,0-0.2,0L172.7,280.4L172.7,280.4z"/>
<rect x="175" y="283.1" class="st1" width="2.2" height="0.6"/>
<path class="st0" d="M79.3,235.9c-0.2,0.3-0.3,0.5-0.5,0.8c-1.4-0.8-2.7-1.6-4.1-2.4c-0.3,0.5-0.6,1-0.9,1.5
	c0.7,0.4,1.4,0.8,2.1,1.2c-0.2,0.3-0.3,0.5-0.5,0.8c-0.7-0.4-1.4-0.8-2.1-1.2c-0.3,0.6-0.7,1.1-1,1.7c1.4,0.9,2.9,1.7,4.3,2.6
	c-0.2,0.3-0.3,0.5-0.5,0.8c-1.8-1-3.5-2-5.3-3.1c1.1-1.8,2.2-3.7,3.4-5.5C76,233.9,77.7,234.9,79.3,235.9"/>
<path class="st0" d="M82.3,240.9c-0.2-1.2-0.4-2.5-0.7-3.7c0.4,0.2,0.7,0.4,1.1,0.6c0.2,0.9,0.3,1.8,0.5,2.8
	c0.9-0.4,1.7-0.8,2.6-1.1c0.4,0.2,0.7,0.4,1.1,0.6c-1.2,0.5-2.3,1.1-3.5,1.6c0.3,1.5,0.6,2.9,1,4.4c-0.4-0.2-0.8-0.4-1.2-0.6
	c-0.2-1.1-0.5-2.3-0.7-3.4c-1.1,0.5-2.2,0.9-3.2,1.3c-0.4-0.2-0.8-0.4-1.2-0.6C79.5,242,80.9,241.5,82.3,240.9"/>
<path class="st0" d="M94.1,243.3c-0.1,0.3-0.2,0.6-0.4,0.9c-0.7-0.3-1.5-0.7-2.2-1c-0.8,1.7-1.6,3.4-2.3,5c-0.3-0.1-0.6-0.3-0.9-0.4
	c0.8-1.7,1.6-3.3,2.4-5c-0.7-0.3-1.5-0.7-2.2-1.1c0.1-0.3,0.3-0.6,0.4-0.8C90.6,241.7,92.3,242.5,94.1,243.3"/>
<path class="st0" d="M100.4,246c1,0.4,1.8,1.3,1.3,2.5c-0.5,1.3-1.6,1.4-2.2,1.2c0.1,1,0.2,2.1,0.4,3.1c-0.4-0.1-0.7-0.3-1.1-0.4
	c-0.1-1-0.2-2-0.3-3c-0.8-0.3-1.6-0.6-2.4-1c-0.3,0.8-0.7,1.7-1,2.5c-0.3-0.1-0.6-0.3-0.9-0.4c0.8-2,1.7-4,2.5-6
	C97.9,245,99.2,245.5,100.4,246 M97.2,245.7c-0.2,0.6-0.5,1.2-0.7,1.8c0.9,0.4,1.9,0.8,2.9,1.2c0.7,0.3,1.2,0.1,1.5-0.5
	c0.3-0.7-0.2-1.1-0.8-1.3C99.1,246.5,98.2,246.1,97.2,245.7"/>
<path class="st0" d="M108.8,255.9c-0.4-0.1-0.7-0.2-1.1-0.4c-0.1-0.8-0.2-1.6-0.3-2.3c-1-0.3-2-0.7-2.9-1c-0.6,0.6-1.1,1.1-1.7,1.6
	c-0.3-0.1-0.7-0.3-1.1-0.4c1.8-1.6,3.5-3.3,5.2-5c0.3,0.1,0.7,0.2,1,0.4C108.2,251.2,108.5,253.5,108.8,255.9 M107,249.7
	c-0.6,0.6-1.2,1.2-1.8,1.8c0.7,0.2,1.4,0.5,2.1,0.7C107.2,251.4,107.1,250.5,107,249.7"/>
<path class="st0" d="M117.1,251.7c0.3,2,0.6,3.9,1,5.9c1.3-1.5,2.6-3.1,3.8-4.6c0.3,0.1,0.7,0.2,1.1,0.3c-1.5,1.9-3,3.7-4.6,5.5
	c-0.4-0.1-0.8-0.2-1.2-0.3c-0.4-2.4-0.8-4.7-1.2-7.1C116.4,251.5,116.8,251.6,117.1,251.7"/>
<path class="st0" d="M126.3,254c-0.5,2.1-0.9,4.2-1.4,6.3c-0.3-0.1-0.7-0.1-1-0.2c0.5-2.1,1-4.2,1.4-6.3
	C125.6,253.8,125.9,253.9,126.3,254"/>
<path class="st0" d="M133.6,255.4c1.1,0.2,2,0.9,1.8,2.2c-0.2,1.4-1.3,1.7-1.9,1.6c0.3,1,0.6,2,1,2.9c-0.4-0.1-0.8-0.1-1.1-0.2
	c-0.3-1-0.6-1.9-0.9-2.9c-0.8-0.1-1.7-0.3-2.5-0.5c-0.2,0.9-0.4,1.8-0.5,2.6c-0.3-0.1-0.7-0.1-1-0.2c0.4-2.1,0.9-4.2,1.3-6.4
	C131,255,132.3,255.2,133.6,255.4 M130.5,255.8c-0.1,0.6-0.2,1.2-0.4,1.9c1,0.2,2,0.4,3,0.6c0.7,0.1,1.2-0.2,1.3-0.8
	c0.1-0.7-0.4-1-1-1.1C132.4,256.2,131.4,256,130.5,255.8"/>
<path class="st0" d="M141.1,259.6c1,0.1,2.1,0.3,3.1,0.4c-0.1,0.6-0.1,1.1-0.2,1.7c-0.1,1.2-1.6,1.8-3.3,1.5
	c-1.9-0.2-3.6-1.7-3.3-3.9c0.3-1.8,2-3.1,4.2-2.8c1.6,0.2,2.3,1.1,2.7,1.5c-0.2,0.2-0.5,0.4-0.8,0.6c-0.3-0.4-0.8-1-2-1.1
	c-1.8-0.2-3,0.7-3.2,2.1c-0.2,1.2,0.7,2.5,2.5,2.8c1.2,0.1,2.1-0.3,2.2-0.8c0-0.2,0.1-0.5,0.1-0.7c-0.7-0.1-1.4-0.2-2.2-0.3
	C141,260.2,141.1,259.9,141.1,259.6"/>
<path class="st0" d="M148.3,257.4c-0.2,2.1-0.4,4.3-0.6,6.5c-0.3,0-0.7-0.1-1-0.1c0.2-2.1,0.4-4.3,0.6-6.5
	C147.7,257.3,148,257.4,148.3,257.4"/>
<path class="st0" d="M152.8,257.7c1.2,1.7,2.5,3.4,3.8,5.1c0,0,0,0,0,0c0.1-1.6,0.1-3.3,0.2-4.9c0.3,0,0.6,0,1,0
	c-0.1,2.2-0.1,4.3-0.2,6.5c-0.3,0-0.7,0-1,0c-1.3-1.7-2.6-3.4-3.9-5.1c0,0,0,0,0,0c-0.1,1.6-0.2,3.3-0.3,4.9c-0.3,0-0.7,0-1-0.1
	c0.1-2.1,0.3-4.3,0.4-6.5C152.2,257.7,152.5,257.7,152.8,257.7"/>
<path class="st0" d="M172.2,263.2c-0.6,0.7-1.4,1.4-3.4,1.4c-1.9,0.1-3.7-1.3-3.7-3.2c0-1.9,1.5-3.4,3.5-3.5c1.8-0.1,3,0.9,3.3,1.2
	c-0.2,0.2-0.5,0.4-0.7,0.6c-0.3-0.2-1.2-0.9-2.6-0.9c-1.3,0-2.6,0.9-2.5,2.5c0,1.1,1,2.4,2.9,2.3c1.5,0,2.2-0.8,2.5-1.1
	C171.7,262.8,171.9,263,172.2,263.2"/>
<path class="st0" d="M181.4,263.6c-0.4,0-0.8,0.1-1.1,0.1c-0.4-0.7-0.8-1.4-1.2-2c-1,0.1-2.1,0.2-3.1,0.2c-0.3,0.7-0.6,1.5-0.9,2.2
	c-0.4,0-0.7,0-1.1,0.1c0.9-2.2,1.8-4.4,2.6-6.7c0.4,0,0.7-0.1,1.1-0.1C178.9,259.5,180.1,261.6,181.4,263.6 M177.3,258.7
	c-0.3,0.8-0.6,1.5-0.9,2.3c0.7,0,1.4-0.1,2.2-0.2C178.1,260.1,177.7,259.4,177.3,258.7"/>
<path class="st0" d="M184.1,256.8c1.5,1.5,3.1,2.9,4.7,4.3c0,0,0,0,0,0c-0.2-1.6-0.5-3.2-0.7-4.9c0.3,0,0.6-0.1,1-0.1
	c0.3,2.1,0.6,4.3,1,6.4c-0.3,0-0.7,0.1-1,0.1c-1.6-1.4-3.2-2.9-4.7-4.3c0,0,0,0,0,0c0.2,1.6,0.4,3.3,0.6,4.9c-0.3,0-0.7,0.1-1,0.1
	c-0.2-2.1-0.5-4.3-0.8-6.4C183.5,256.9,183.8,256.9,184.1,256.8"/>
<path class="st0" d="M193.6,255.4c1.6,1.4,3.2,2.7,4.9,4.1c0,0,0,0,0,0c-0.3-1.6-0.7-3.2-1-4.8c0.3-0.1,0.6-0.1,0.9-0.2
	c0.4,2.1,0.9,4.2,1.3,6.3c-0.3,0.1-0.7,0.1-1,0.2c-1.7-1.3-3.4-2.7-5-4c0,0,0,0,0,0c0.3,1.6,0.6,3.2,0.9,4.8c-0.3,0.1-0.7,0.1-1,0.2
	c-0.4-2.1-0.7-4.2-1.1-6.4C192.9,255.5,193.2,255.4,193.6,255.4"/>
<path class="st0" d="M209.5,258.5c-0.4,0.1-0.7,0.2-1.1,0.3c-0.5-0.6-1-1.2-1.5-1.8c-1,0.3-2,0.5-3,0.7c-0.2,0.8-0.3,1.5-0.5,2.3
	c-0.4,0.1-0.7,0.2-1.1,0.2c0.6-2.3,1.1-4.7,1.6-7c0.4-0.1,0.7-0.2,1.1-0.3C206.4,254.8,207.9,256.6,209.5,258.5 M204.6,254.2
	c-0.2,0.8-0.3,1.6-0.5,2.5c0.7-0.2,1.4-0.3,2.1-0.5C205.7,255.5,205.1,254.9,204.6,254.2"/>
<path class="st0" d="M213.7,250.5c1-0.3,2.1-0.1,2.4,1.1c0.2,0.7,0,1.1-0.2,1.4c0.4,0,1.1,0.4,1.4,1.2c0.4,1.2-0.4,2.1-1.7,2.5
	c-1.3,0.4-2.6,0.8-3.9,1.1c-0.6-2.1-1.2-4.1-1.8-6.2C211.3,251.2,212.5,250.9,213.7,250.5 M214.5,253.1c0.6-0.2,0.9-0.7,0.7-1.2
	c-0.2-0.5-0.6-0.7-1.2-0.5c-0.9,0.3-1.9,0.6-2.8,0.8l0.5,1.7C212.7,253.6,213.6,253.4,214.5,253.1 M215.4,255.8
	c0.9-0.3,1.2-0.7,1-1.3c-0.2-0.6-0.6-0.8-1.6-0.5c-0.9,0.3-1.9,0.6-2.8,0.9c0.2,0.6,0.4,1.2,0.5,1.8
	C213.5,256.4,214.4,256.1,215.4,255.8"/>
<path class="st0" d="M219.7,248.5c0.7,2,1.4,4.1,2.1,6.1c-0.3,0.1-0.6,0.2-1,0.3c-0.7-2-1.4-4.1-2.1-6.1
	C219.1,248.7,219.4,248.6,219.7,248.5"/>
<path class="st0" d="M224.4,251.8c0.5,0.1,1.4,0.5,3-0.1c0.9-0.4,2-1.1,1.7-1.9c-0.4-1-1.6-0.5-2.4-0.2c-0.3,0.1-0.6,0.2-1,0.4
	c-0.9,0.3-2.1,0.3-2.5-0.8c-0.5-1.3,0.9-2.4,2-2.9c1.4-0.6,2.6-0.3,2.9-0.2c-0.1,0.3-0.2,0.6-0.2,0.9c-0.7-0.1-1.3-0.2-2.3,0.2
	c-0.8,0.3-1.7,1-1.4,1.7c0.2,0.5,0.6,0.6,1.4,0.3c0.3-0.1,0.6-0.2,0.9-0.3c1.5-0.6,3.1-0.8,3.7,0.6c0.5,1.2-0.7,2.5-2.4,3.1
	c-2,0.8-3.2,0.2-3.8,0C224.1,252.3,224.3,252.1,224.4,251.8"/>
<path class="st0" d="M235.8,245.5c-0.8-1.9,0.2-3.8,1.9-4.6c1.8-0.9,3.9-0.4,4.9,1.4c0.9,1.8-0.1,3.8-1.9,4.7
	C238.8,247.8,236.6,247.4,235.8,245.5 M241.7,242.7c-0.6-1.2-2.1-1.7-3.5-1c-1.4,0.7-2,2.2-1.4,3.4c0.6,1.2,2.1,1.7,3.6,1
	C241.7,245.4,242.3,243.9,241.7,242.7"/>
<path class="st0" d="M244.8,237.4c1,1.9,2.1,3.8,3.1,5.7c-0.3,0.2-0.6,0.3-0.9,0.5c-1-1.9-2-3.8-3.1-5.7
	C244.2,237.7,244.5,237.6,244.8,237.4"/>
<path class="st0" d="M248,235.6c0.3-0.2,0.6-0.3,0.9-0.5c0.9,1.6,1.9,3.2,2.8,4.8c1.3-0.7,2.5-1.5,3.8-2.2c0.2,0.3,0.3,0.5,0.5,0.8
	c-1.6,0.9-3.1,1.9-4.7,2.8C250.1,239.4,249,237.5,248,235.6"/>
<path class="st1" d="M101.7,80.8c0.6,0.4,1.2,0.5,1.8,0.5c0.4,0,1-0.1,1-0.5c0-0.3-0.3-0.4-0.5-0.4l-1.1,0c-0.9,0-1.3-0.5-1.3-1.1
	c0-0.5,0.4-1.1,1.7-1.1c0.9,0,1.5,0.4,1.7,0.5l-0.3,0.6c-0.3-0.2-0.8-0.4-1.5-0.4c-0.4,0-0.8,0.1-0.8,0.4c0,0.3,0.4,0.3,0.6,0.3
	l0.9,0c0.8,0,1.3,0.4,1.3,1.1c0,0.6-0.5,1.2-1.7,1.2c-1,0-1.7-0.2-2.2-0.6L101.7,80.8z"/>
<polygon class="st1" points="107.5,79.7 107.5,79.7 107.5,81.9 106.7,81.9 106.7,78.4 107.5,78.4 108.7,80.2 110,78.4 110.7,78.4 
	110.7,81.9 110,81.9 110,79.7 109.9,79.7 108.7,81.4 "/>
<path class="st1" d="M113.6,78.3h0.9l1.8,3.6h-0.8l-0.4-0.8H113l-0.4,0.8h-0.8L113.6,78.3z M113.4,80.5h1.4l-0.7-1.4L113.4,80.5z"/>
<polygon class="st1" points="117.9,78.3 117.9,81.2 119.9,81.2 119.9,81.9 117.2,81.9 117.2,78.3 "/>
<polygon class="st1" points="121.9,78.3 121.9,81.2 123.9,81.2 123.9,81.9 121.1,81.9 121.1,78.3 "/>
<path class="st0" d="M144.5,74.4c0.5-1,1.1-1.9,1.8-2.7s1.5-1.6,2.4-2.3c0.9-0.7,1.8-1.2,2.8-1.5s2-0.6,3-0.6c0.2,0,0.5,0,0.8,0.1
	c0.3,0.1,0.5,0.1,0.8,0.2c0.2,0.1,0.4,0.2,0.6,0.4c0.1,0.2,0.2,0.4,0.2,0.6s-0.1,0.4-0.3,0.6c-0.2,0.1-0.4,0.2-0.6,0.2
	c-0.2,0-0.4-0.1-0.6-0.3c-0.1-0.2-0.3-0.4-0.4-0.6c-0.1-0.2-0.3-0.4-0.5-0.6c-0.2-0.2-0.4-0.3-0.8-0.3c-0.5,0-1,0.1-1.4,0.3
	s-0.9,0.4-1.2,0.7s-0.7,0.6-1.1,0.9c-0.3,0.3-0.6,0.6-0.9,0.9c-0.5,0.6-1,1.2-1.5,2c-0.5,0.8-1,1.6-1.4,2.4c-0.4,0.9-0.7,1.7-1,2.6
	s-0.4,1.7-0.4,2.5c0,0.2,0,0.4,0.1,0.6s0.1,0.4,0.2,0.5c0.1,0.2,0.2,0.3,0.3,0.4c0.1,0.1,0.3,0.1,0.5,0.1c0.3,0,0.6-0.1,0.9-0.3
	c0.3-0.2,0.6-0.5,1-0.8c0.4-0.3,0.7-0.7,1.1-1.1c0.4-0.4,0.7-0.8,1-1.2c0.3-0.4,0.6-0.7,0.8-1.1s0.4-0.6,0.6-0.7l0.2,0.2
	c-0.4,0.4-0.8,1-1.3,1.7s-1.1,1.3-1.6,1.9c-0.6,0.6-1.2,1.1-1.8,1.6s-1.3,0.6-1.9,0.6c-0.4,0-0.7-0.1-0.9-0.2s-0.4-0.3-0.6-0.6
	s-0.2-0.5-0.3-0.8s-0.1-0.6-0.1-0.9c0-0.9,0.1-1.8,0.4-2.6s0.6-1.7,1-2.5h-3.1c-0.5,1-1,1.9-1.6,2.8c-0.6,0.9-1.3,1.7-2,2.4
	c-0.7,0.7-1.6,1.2-2.5,1.6c-0.9,0.4-2,0.6-3.2,0.6c-0.4,0-0.7-0.1-1.2-0.1c-0.4-0.1-0.8-0.2-1.2-0.4s-0.7-0.4-0.9-0.8
	c-0.2-0.3-0.4-0.7-0.4-1.1c0-0.2,0-0.4,0.1-0.6s0.1-0.4,0.2-0.5c0.1-0.2,0.2-0.3,0.4-0.4c0.2-0.1,0.4-0.1,0.6-0.1
	c0.3,0,0.5,0.1,0.7,0.3s0.3,0.4,0.3,0.7c0,0.6-0.3,0.9-0.8,0.9c0,0.7,0.2,1.2,0.5,1.5s0.8,0.5,1.5,0.5c0.8,0,1.4-0.1,2-0.4
	s1.1-0.6,1.7-1.2c0.8-0.8,1.5-1.6,2-2.4c0.5-0.8,1-1.6,1.4-2.4c0.4-0.8,0.8-1.6,1.2-2.3s0.9-1.5,1.5-2.1c0.6-0.7,1.4-1.3,2.3-1.9
	c0.9-0.6,2.1-1.2,3.5-1.7v0c-0.8,0-1.6,0-2.6,0.1s-1.9,0.2-2.9,0.3c-1,0.2-2,0.4-2.9,0.6c-0.9,0.3-1.8,0.6-2.5,1
	c-0.7,0.4-1.3,0.9-1.8,1.5s-0.7,1.3-0.7,2.1c0,0.6,0.2,1.1,0.5,1.4c0.3,0.4,0.8,0.6,1.3,0.6c0.4,0,0.8-0.1,1.1-0.2s0.7-0.4,0.9-0.6
	c0.3-0.3,0.5-0.6,0.6-1s0.2-0.8,0.2-1.2c0-0.2,0-0.4-0.1-0.7c-0.1-0.2-0.1-0.4-0.2-0.6l0.2,0c0.1,0.2,0.2,0.3,0.2,0.6
	s0.1,0.4,0.1,0.7c0,0.6-0.1,1.1-0.4,1.6c-0.2,0.4-0.5,0.8-0.9,1.1s-0.8,0.5-1.3,0.7c-0.5,0.2-1,0.2-1.6,0.2c-0.8,0-1.4-0.2-1.9-0.7
	c-0.5-0.5-0.7-1.1-0.7-1.9c0-0.8,0.2-1.5,0.6-2.1c0.4-0.6,1-1.1,1.8-1.5c0.7-0.4,1.6-0.8,2.5-1.1s1.9-0.5,3-0.7
	c1-0.2,2.1-0.3,3.1-0.4c1-0.1,2-0.1,2.9-0.1c0.6,0,1.1,0,1.4,0s0.7,0,0.9-0.1s0.4-0.1,0.6-0.1s0.3,0,0.4,0c0.1,0,0.2,0,0.3,0.1
	s0.1,0.1,0.1,0.1c0,0.1-0.1,0.2-0.2,0.2c-0.1,0.1-0.4,0.1-0.9,0.1c-0.1,0-0.3,0-0.4,0c-0.1,0-0.3,0-0.4,0c-0.8,0.2-1.6,0.6-2.2,1.1
	c-0.6,0.5-1.2,1-1.7,1.7s-0.9,1.3-1.4,2.1c-0.4,0.7-0.8,1.5-1.2,2.2C141.4,74.4,144.5,74.4,144.5,74.4z"/>
<path class="st0" d="M145.2,83.6c-0.1,0-0.2,0-0.4,0c-0.6,0-1.1,0.2-1.4,0.6c-0.3,0.4-0.5,0.9-0.5,1.6c0,0.7,0.2,1.3,0.7,1.7
	c0.4,0.4,1,0.6,1.7,0.6c0.7,0,1.4-0.2,2-0.4c0.6-0.3,1.2-0.7,1.7-1.2c0.5-0.5,1.1-1.1,1.5-1.7c0.5-0.6,0.9-1.3,1.3-1.9
	s0.8-1.3,1.1-1.9c0.4-0.6,0.7-1.2,1-1.7l0,0c-0.2,0.2-0.5,0.5-0.8,0.9s-0.7,0.7-1,1c-0.4,0.3-0.8,0.6-1.2,0.8
	c-0.4,0.2-0.9,0.3-1.3,0.3s-0.8-0.1-1-0.4s-0.3-0.6-0.3-0.9c0-0.3,0.1-0.7,0.3-1.2c0.2-0.4,0.4-0.9,0.7-1.5c0.3-0.5,0.6-1.1,1-1.7
	c0.4-0.6,0.7-1.2,1.1-1.8l2.2-0.1c-1.2,1.8-2.1,3.2-2.7,4.3c-0.6,1.1-1,1.8-1,2.2c0,0.2,0.1,0.3,0.1,0.4c0.1,0.1,0.2,0.2,0.4,0.2
	c0.2,0,0.6-0.1,0.9-0.4c0.4-0.3,0.8-0.6,1.2-1c0.4-0.4,0.9-0.9,1.3-1.5c0.4-0.6,0.8-1.1,1.2-1.7c0.3-0.5,0.6-0.9,0.8-1.4
	c0.2-0.4,0.4-0.8,0.5-1l2-0.1c-0.7,1.3-1.5,2.6-2.2,3.8c-0.7,1.3-1.4,2.5-2.2,3.8c0.7-0.2,1.3-0.5,2-0.9s1.3-0.9,1.9-1.4
	c0.6-0.5,1.2-1.1,1.7-1.7c0.5-0.6,1-1.2,1.4-1.8l0.2,0.2c-0.5,0.7-1,1.3-1.6,2c-0.6,0.6-1.2,1.2-1.8,1.8c-0.6,0.5-1.3,1-1.9,1.4
	c-0.7,0.4-1.3,0.7-2,0.8c-0.5,0.8-1.1,1.6-1.7,2.3c-0.6,0.7-1.3,1.3-2.1,1.9c-0.8,0.5-1.6,0.9-2.4,1.2s-1.8,0.4-2.8,0.4
	c-0.5,0-1,0-1.4-0.1s-0.9-0.2-1.2-0.5c-0.4-0.2-0.6-0.5-0.9-0.8s-0.3-0.8-0.3-1.3c0-0.4,0.1-0.8,0.3-1.1s0.4-0.5,0.7-0.7
	c0.3-0.2,0.6-0.3,1-0.4c0.4-0.1,0.7-0.1,1.1-0.1c0.2,0,0.3,0,0.5,0c0.2,0,0.3,0,0.4,0.1L145.2,83.6L145.2,83.6z"/>
<path class="st0" d="M168.4,67.5c-1,1.5-1.9,2.9-2.7,4.1s-1.5,2.2-2.1,3.1s-1.1,1.7-1.6,2.3c-0.4,0.7-0.8,1.2-1.1,1.7
	s-0.5,0.9-0.6,1.3c-0.1,0.4-0.2,0.7-0.2,1c0,0.3,0.1,0.5,0.2,0.7c0.1,0.2,0.4,0.3,0.7,0.3c0.4,0,0.7-0.1,1.1-0.3s0.7-0.5,1.1-0.9
	s0.6-0.7,0.9-1.2s0.5-0.8,0.7-1.3c0.2-0.4,0.4-0.8,0.5-1.2c0.1-0.4,0.2-0.7,0.2-0.9c0-0.1,0-0.1,0-0.2c0-0.1-0.1-0.1-0.1-0.2
	c0-0.1-0.1-0.1-0.1-0.2s0-0.2,0-0.4c0-0.3,0.1-0.5,0.3-0.7c0.2-0.2,0.4-0.3,0.7-0.3c0.2,0,0.4,0.1,0.6,0.2c0.1,0.1,0.3,0.2,0.4,0.4
	c0.1,0.2,0.1,0.3,0.2,0.6c0,0.2,0.1,0.4,0.1,0.6c0,0.3,0,0.6-0.1,1c0.2,0.2,0.4,0.3,0.7,0.5c0.3,0.2,0.6,0.2,0.9,0.2
	c0.5,0,0.9-0.1,1.2-0.3s0.7-0.5,1-0.9l0.1,0.1c-0.3,0.4-0.6,0.7-1.1,1c-0.4,0.2-0.9,0.4-1.3,0.4c-0.3,0-0.6-0.1-0.9-0.2
	c-0.3-0.1-0.5-0.3-0.8-0.5c-0.2,0.7-0.5,1.4-0.9,2c-0.4,0.6-0.9,1.1-1.5,1.6c-0.6,0.4-1.2,0.8-1.9,1.1c-0.7,0.2-1.4,0.4-2.1,0.4
	c-0.8,0-1.4-0.2-1.7-0.6c-0.4-0.4-0.6-0.9-0.6-1.6c0-0.2,0-0.5,0.1-0.7c0.1-0.3,0.2-0.6,0.4-1c0.2-0.4,0.5-0.9,0.8-1.4
	s0.8-1.3,1.3-2.1c0.5-0.8,1.2-1.8,2-3c0.8-1.2,1.7-2.6,2.7-4.1L168.4,67.5z"/>
<path class="st0" d="M167.2,81.9c0.7-1.2,1.4-2.4,2.1-3.6c0.7-1.2,1.4-2.4,2.2-3.7l2.4-0.1l-2.7,3.8l0,0c0.5-0.7,1-1.2,1.4-1.6
	c0.4-0.4,0.8-0.7,1.1-1c0.3-0.2,0.6-0.4,0.8-0.6c0.2-0.1,0.4-0.2,0.5-0.3c0.1-0.2,0.3-0.3,0.4-0.4c0.1-0.1,0.3-0.2,0.5-0.2
	c0.2-0.1,0.4-0.1,0.6-0.1c0.3,0,0.6,0,1,0c-0.3,0.4-0.5,0.8-0.7,1.2c-0.2,0.4-0.3,0.8-0.3,1.3c0,0.6,0.3,0.9,0.9,0.9
	c0.2,0,0.4,0,0.6-0.1s0.4-0.2,0.5-0.3s0.3-0.3,0.5-0.4c0.1-0.1,0.3-0.3,0.4-0.4l0.1,0.1c-0.4,0.5-0.8,0.9-1.4,1.2
	c-0.5,0.3-1.1,0.5-1.7,0.5c-0.6,0-1-0.2-1.3-0.4c-0.3-0.3-0.5-0.7-0.5-1.3c0-0.4,0.1-0.7,0.3-1l0,0c-0.6,0.4-1.1,0.8-1.6,1.3
	c-0.5,0.5-1,1.1-1.5,1.6s-0.9,1.2-1.2,1.8s-0.7,1.2-1,1.8L167.2,81.9z"/>
<path class="st0" d="M182,74.6c-0.6,1-1.2,1.9-1.7,2.6c-0.5,0.7-0.9,1.3-1.1,1.8c-0.3,0.5-0.5,0.9-0.7,1.2s-0.2,0.6-0.2,0.8
	c0,0.2,0,0.3,0.1,0.4s0.2,0.2,0.3,0.2c0.3,0,0.7-0.2,1.2-0.5s1.1-0.9,1.9-1.6c0.3-0.3,0.6-0.6,0.9-0.9c0.3-0.3,0.6-0.6,0.8-0.9
	c0.2-0.3,0.5-0.6,0.7-0.8c0.2-0.2,0.4-0.4,0.5-0.6l0.2,0.1c-0.2,0.2-0.4,0.5-0.6,0.8c-0.2,0.3-0.5,0.6-0.8,0.9s-0.6,0.6-0.9,0.9
	c-0.3,0.3-0.6,0.6-0.9,0.9c-0.8,0.8-1.5,1.4-2.1,1.7c-0.6,0.3-1.1,0.5-1.6,0.5c-0.4,0-0.8-0.1-1.1-0.4c-0.2-0.2-0.4-0.6-0.4-1
	c0-0.3,0.1-0.6,0.1-0.9c0.1-0.3,0.3-0.7,0.5-1.1s0.6-1,1-1.7c0.4-0.7,0.9-1.5,1.6-2.4L182,74.6z M183.9,70.3
	c0.2,0.2,0.3,0.4,0.3,0.7c0,0.3-0.1,0.5-0.3,0.8s-0.5,0.3-0.8,0.3c-0.3,0-0.6-0.1-0.8-0.2c-0.2-0.2-0.3-0.4-0.3-0.7s0.1-0.6,0.4-0.8
	c0.2-0.2,0.5-0.3,0.8-0.3C183.5,70.1,183.7,70.1,183.9,70.3"/>
<path class="st0" d="M194.9,67.7l2.3-0.1c-0.5,0.7-1,1.6-1.6,2.5s-1.2,1.8-1.8,2.8c-0.6,0.9-1.2,1.9-1.8,2.8
	c-0.6,0.9-1.1,1.8-1.6,2.6c-0.5,0.8-0.8,1.5-1.1,2s-0.4,1-0.4,1.3c0,0.2,0,0.3,0.1,0.4c0.1,0.1,0.2,0.1,0.3,0.1
	c0.3,0,0.7-0.2,1.2-0.4c0.5-0.3,1.1-0.8,1.7-1.4c0.5-0.5,1-1.1,1.5-1.6s1-1.2,1.5-1.9l0.2,0.1c-0.1,0.2-0.3,0.4-0.6,0.7
	c-0.2,0.3-0.4,0.6-0.7,0.9c-0.2,0.3-0.5,0.6-0.8,0.9s-0.5,0.6-0.8,0.9c-0.7,0.7-1.3,1.2-1.9,1.7c-0.6,0.4-1.3,0.6-1.9,0.6
	c-0.3,0-0.6-0.1-0.8-0.2s-0.4-0.2-0.5-0.4c-0.1-0.2-0.2-0.3-0.2-0.5s0-0.4,0-0.6l0,0c-0.4,0.4-0.9,0.8-1.4,1.1
	c-0.5,0.3-1.1,0.4-1.8,0.4c-0.3,0-0.6-0.1-0.8-0.2c-0.2-0.1-0.4-0.3-0.6-0.5c-0.1-0.2-0.2-0.4-0.3-0.7c-0.1-0.3-0.1-0.5-0.1-0.8
	c0-0.7,0.2-1.4,0.5-2.1s0.8-1.3,1.4-1.8c0.6-0.5,1.2-1,1.9-1.3s1.4-0.5,2.1-0.5c0.9,0,1.5,0.4,1.9,1.3L194.9,67.7z M186.7,80.8
	c0.5-0.4,0.9-0.9,1.3-1.5c0.4-0.6,0.7-1.2,1-1.9s0.4-1.2,0.4-1.7c0-0.4-0.1-0.7-0.3-0.9c-0.2-0.2-0.5-0.3-0.8-0.3
	c-0.4,0-0.9,0.2-1.3,0.6c-0.5,0.4-0.9,0.9-1.3,1.4c-0.4,0.6-0.7,1.2-0.9,1.8s-0.4,1.2-0.4,1.7c0,0.3,0.1,0.6,0.2,0.9
	s0.4,0.4,0.8,0.4C185.8,81.4,186.2,81.2,186.7,80.8"/>
<path class="st1" d="M201.1,78.4c0.7,0,1.1,0.3,1.1,1c0,0.2-0.1,0.5-0.2,0.6c0.2,0.2,0.4,0.4,0.4,0.8c0,0.7-0.5,1.1-1.3,1.1h-2.3
	v-3.6H201.1z M199.4,79.7h1.6c0.2,0,0.4-0.1,0.4-0.3c0-0.2-0.2-0.3-0.4-0.3h-1.6V79.7z M199.4,80.4v0.8h1.6c0.3,0,0.6-0.1,0.6-0.4
	c0-0.3-0.3-0.4-0.6-0.4H199.4z"/>
<path class="st1" d="M204.9,78.3h0.9l1.8,3.6h-0.8l-0.4-0.8h-2.1l-0.4,0.8h-0.8L204.9,78.3z M204.7,80.5h1.4l-0.7-1.4L204.7,80.5z"
	/>
<polygon class="st1" points="211.5,78.3 211.5,79.1 210.2,79.1 210.2,81.9 209.5,81.9 209.5,79.1 208.2,79.1 208.2,78.3 "/>
<path class="st1" d="M216,79.6c-0.2-0.2-0.7-0.6-1.4-0.6c-0.9,0-1.4,0.6-1.4,1.2c0,0.5,0.5,1.2,1.5,1.2c0.6,0,1.2-0.3,1.5-0.5
	l0.3,0.7c-0.5,0.4-1.3,0.6-1.8,0.6c-1.2,0-2.2-0.7-2.2-1.9c0-1.3,1.2-1.9,2.1-1.9c0.9,0,1.4,0.4,1.8,0.7L216,79.6z"/>
<polygon class="st1" points="218.9,78.3 218.9,79.7 220.8,79.7 220.8,78.3 221.5,78.3 221.5,81.9 220.8,81.9 220.8,80.4 218.9,80.4 
	218.9,81.9 218.1,81.9 218.1,78.3 "/>
<polygon class="st2" points="224,156.6 104.1,156.6 87.5,172.8 87.5,217.4 104.1,233.6 224,233.6 240.6,217.4 240.6,172.8 "/>
<line class="st3" x1="101.2" y1="187.2" x2="228.6" y2="187.2"/>
<line class="st3" x1="101.2" y1="207.9" x2="228.6" y2="207.9"/>
<g class="st4">
	<path class="st0" d="M134.3,179.4c0.2,0.2-0.1,0.4-0.2,0.5c-0.6,0.2-0.6,1-1.4,0.9c-1,0.3-2.2,0.3-3.1-0.2c-0.5-0.2-0.7-0.7-1-1.1
		c-0.3-0.5-0.2-1.1-0.4-1.7c0.2-0.2,0-0.4,0-0.6c0.1-0.7-0.1-1.5,0-2.2c-0.2-0.4,0.2-0.8-0.1-1.1c0.3-1-0.2-1.8,0.1-2.7
		c0.1-0.2,0.1-0.5,0.2-0.7l0.5-0.7c0.6-0.4,1.3-0.7,2.1-0.9c0.8-0.1,1.7,0.2,2.3,0.8c0.3-0.1,0.4,0.3,0.5,0.5
		c-0.1,0.2,0.1,0.4,0.2,0.6c-0.2,0.8,0.4,1.5,0,2.2c-0.6,0.2-1.2,0.2-1.8,0.1c-0.1-0.1-0.3-0.2-0.4-0.3c0-0.5,0.1-1.1-0.1-1.6
		c-0.2-0.2-0.3-0.7-0.7-0.5c-0.2,0-0.5,0.1-0.5,0.3c0,0.7-0.5,1.4-0.2,2.1c0,0.2-0.2,0.5,0,0.7c-0.3,0.9,0.3,1.9-0.1,2.8
		c0.5,1-0.9,2.9,1,2.8c0.9-0.4,0.4-1.5,0.5-2.3c0.6-0.6,1.4-0.2,2.1-0.1c0.3,0.4,0.2,0.9,0.3,1.4C134.3,178.6,134.3,179,134.3,179.4
		z"/>
</g>
<g class="st4">
	<path class="st0" d="M142,181c-0.6,0.1-1.6,0.2-1.9-0.4c-0.3-0.7,0.2-1.7-0.6-2.1c-0.4,0.1-1-0.1-1.3,0.3c0,0.2,0,0.5,0.1,0.7
		c-0.3,0.4,0.3,0.9-0.2,1.3c-0.5,0.5-1.2,0.2-1.8,0.2c-0.1-0.1-0.3-0.2-0.2-0.4c0.4-0.7,0.2-1.4,0.4-2.2c0.3-1.6,0.7-3.2,0.8-5
		c0.2-0.5,0.1-1,0.2-1.5c0.4-0.7,0.2-1.6,0.4-2.4c0.1-0.2,0.2-0.4,0.4-0.4c0.6,0,1.4-0.3,2,0c0.3,0.2,0.4,0.4,0.5,0.6
		c-0.1,0.7,0.5,1.4,0.2,2.1c0.4,0.4,0,0.9,0.3,1.3c-0.1,0.5-0.1,1.1,0,1.6c-0.2,0.3,0.2,0.5,0.2,0.9c0.1,0.3,0,0.7,0.2,0.9
		c-0.2,0.4,0.1,0.8,0.3,1.1c0,0.5-0.1,1.2,0.2,1.6c0.2,0.4,0,0.9,0.2,1.3C142.3,180.8,142.1,180.9,142,181z M139.3,175.4
		c-0.3-0.8-0.1-1.8-0.5-2.6l-0.1,0.1c0,1.2,0,2.4-0.2,3.6l0.1,0.1c0.3-0.1,0.7,0.2,0.9-0.1C139.4,176.1,139.2,175.8,139.3,175.4z"/>
</g>
<g class="st4">
	<path class="st0" d="M149.6,180.9c-0.5-0.2-1.2,0.2-1.6-0.3c-0.3-0.8-0.5-1.6-0.9-2.4c-0.3-0.8-0.6-1.6-0.8-2.5
		c-0.1-0.4-0.1-0.8-0.4-1.1c-0.1,0.2-0.1,0.4-0.2,0.7c0.2,0.8,0.3,1.6,0.2,2.3c0.1,0.4,0.3,0.7,0.1,1.1c0.2,0.5,0.1,1.2,0.2,1.7
		c0,0.3-0.4,0.4-0.6,0.5c-0.4-0.2-1.1,0-1.4-0.4c0-0.5,0.1-0.9,0-1.4c0.2-1-0.1-1.9,0-2.9c0.2-1.1-0.2-2.2,0.1-3.4
		c0-1.1-0.1-2.3-0.1-3.5c0.1-0.3,0.4-0.2,0.6-0.4c0.7,0.1,1.4,0,1.7,0.7c0.2,0.8,0.6,1.4,0.7,2.3c0.3,0.2,0.2,0.6,0.3,0.9
		c0.2,0.6,0.2,1.3,0.3,2c0.1,0.1,0.1,0.2,0.3,0.1c0.3-0.2,0-0.4,0-0.6c0.2-1.1-0.1-2,0-3.1c0.2-0.8-0.2-1.5,0.2-2.2
		c0.6,0,1.5-0.4,1.9,0.3c0,0.4-0.1,0.7,0,1.2c-0.1,0.5,0.1,1.1-0.1,1.7c0.3,0.8-0.1,1.7,0.1,2.5c-0.2,0.6,0.1,1.1,0,1.7
		c0.6,0.6-0.4,1.5,0.2,2C149.6,179.1,151.1,180.5,149.6,180.9z"/>
</g>
<g class="st4">
	<path class="st0" d="M157.7,180.9c-0.5-0.2-1.2,0.2-1.6-0.3c-0.3-0.8-0.5-1.6-0.9-2.4c-0.3-0.8-0.6-1.6-0.8-2.5
		c-0.1-0.4-0.1-0.8-0.4-1.1c-0.1,0.2-0.1,0.4-0.2,0.7c0.2,0.8,0.3,1.6,0.2,2.3c0.1,0.4,0.3,0.7,0.1,1.1c0.2,0.5,0.1,1.2,0.2,1.7
		c0,0.3-0.4,0.4-0.6,0.5c-0.4-0.2-1.1,0-1.4-0.4c0-0.5,0.1-0.9,0-1.4c0.2-1-0.1-1.9,0-2.9c0.2-1.1-0.2-2.2,0.1-3.4
		c0-1.1-0.1-2.3-0.1-3.5c0.1-0.3,0.4-0.2,0.6-0.4c0.7,0.1,1.4,0,1.7,0.7c0.2,0.8,0.6,1.4,0.7,2.3c0.3,0.2,0.2,0.6,0.3,0.9
		c0.2,0.6,0.2,1.3,0.3,2c0.1,0.1,0.1,0.2,0.3,0.1c0.3-0.2,0-0.4,0-0.6c0.2-1.1-0.1-2,0-3.1c0.2-0.8-0.2-1.5,0.2-2.2
		c0.6,0,1.5-0.4,1.9,0.3c0,0.4-0.1,0.7,0,1.2c-0.1,0.5,0.1,1.1-0.1,1.7c0.3,0.8-0.1,1.7,0.1,2.5c-0.2,0.6,0.1,1.1,0,1.7
		c0.6,0.6-0.4,1.5,0.2,2C157.7,179.1,159.1,180.5,157.7,180.9z"/>
</g>
<g class="st4">
	<path class="st0" d="M165.9,181c-0.6,0.1-1.6,0.2-1.9-0.4c-0.3-0.7,0.2-1.7-0.6-2.1c-0.4,0.1-1-0.1-1.3,0.3c0,0.2,0,0.5,0.1,0.7
		c-0.3,0.4,0.3,0.9-0.2,1.3c-0.5,0.5-1.2,0.2-1.8,0.2c-0.1-0.1-0.3-0.2-0.2-0.4c0.4-0.7,0.2-1.4,0.4-2.2c0.3-1.6,0.7-3.2,0.8-5
		c0.2-0.5,0.1-1,0.2-1.5c0.4-0.7,0.2-1.6,0.4-2.4c0.1-0.2,0.2-0.4,0.5-0.4c0.6,0,1.4-0.3,2,0c0.3,0.2,0.4,0.4,0.5,0.6
		c-0.1,0.7,0.5,1.4,0.2,2.1c0.4,0.4,0,0.9,0.3,1.3c-0.1,0.5-0.1,1.1,0,1.6c-0.2,0.3,0.2,0.5,0.2,0.9c0.1,0.3,0,0.7,0.2,0.9
		c-0.2,0.4,0.1,0.8,0.3,1.1c0,0.5-0.1,1.2,0.2,1.6c0.2,0.4,0,0.9,0.2,1.3C166.3,180.8,166.1,180.9,165.9,181z M163.3,175.4
		c-0.3-0.8-0.1-1.8-0.5-2.6l-0.1,0.1c0,1.2,0,2.4-0.2,3.6l0.1,0.1c0.3-0.1,0.7,0.2,0.9-0.1C163.4,176.1,163.2,175.8,163.3,175.4z"/>
</g>
<g class="st4">
	<path class="st0" d="M173.8,175.9c-0.2,0-0.4,0.3-0.6,0.1c-0.6,0.3-1,0-1.6,0c-0.3,0-0.7-0.1-1,0c-0.4-0.1-0.8,0.2-1.2,0
		c-0.4-0.2-1.1,0.3-1.2-0.4c0.2-0.4-0.2-1,0.2-1.4c1.5-0.1,1.4-0.1,3-0.1c1,0,0.8,0,1.8,0c0.4,0.2,0.9,0.3,1.2,0.7
		C174.3,175.3,174.2,175.7,173.8,175.9z"/>
</g>
<g class="st4">
	<path class="st0" d="M180.3,170.6c-0.5,0.1-0.9,0.3-1.5,0c-0.5,0.2-0.1,0.9-0.2,1.4c0.2,0.1,0.1,0.3,0,0.5c0.1,0.8,0,1.6,0,2.3
		c-0.3,0.4,0.2,0.9-0.2,1.2c0.2,0.6-0.1,1.2,0,1.7c-0.1,0.2,0.1,0.4,0.2,0.5c-0.2,0.7,0,1.4-0.2,2.1c-0.1,0.1-0.2,0.3-0.3,0.4
		c-0.4,0.1-0.9-0.2-1.3,0c-0.3-0.2-0.1-0.8-0.2-1.1c0.1-0.2,0-0.5,0-0.7c0.4-0.9-0.2-1.7,0.1-2.6c0-0.3-0.1-0.7,0-0.9l0-1.8
		c-0.1-0.6,0.1-1.3,0.1-2c0-0.4,0.1-0.8-0.2-1.1c-0.5-0.4-1.4,0.5-1.6-0.3c0.1-0.5-0.2-0.9,0.1-1.3c1.4-0.2,2.9-0.1,4.3-0.2
		c0.5,0.2,1.2,0.2,1.3,0.9C180.6,170,180.8,170.5,180.3,170.6z"/>
</g>
<g class="st4">
	<path class="st0" d="M186.8,180.3c-0.8,0.4-1.8,0.7-2.8,0.4c-0.7-0.2-1.3-0.8-1.8-1.4c-0.1-0.5-0.3-1-0.2-1.4l0.6-0.4
		c0.5-0.1,0.9,0,1.2,0.3c0,0.4,0.2,0.9,0.5,1.1c0.3,0.1,0.7,0.1,1,0c0.4-0.2,0.4-0.6,0.4-0.9c-0.1-0.7-0.3-1.2-0.8-1.7
		c-0.7-0.6-1.2-1.5-1.9-2c-0.6-1-1.1-2.1-0.9-3.3c0.3-0.4,0.1-0.9,0.5-1.2l0.5-0.6c0.7-0.5,1.6-0.6,2.5-0.5l1.2,0.5
		c0,0.5,0.9,0.3,0.5,0.8l0.2,1.1c-0.1,0.6-0.7,0.4-1.1,0.6c-0.4-0.1-0.9,0.3-1.1-0.2c-0.2-0.4,0-0.9-0.5-1.1c-0.2-0.1-0.4-0.1-0.6,0
		c-0.5,0.4-0.2,1.1-0.3,1.5c0.2,0.6,0.6,1.2,1.2,1.5c0.3,0.3,0.6,0.7,0.9,1c0.2,0.3,0.6,0.2,0.6,0.6c0.3,0.4,0.9,0.8,0.7,1.4
		c0,0.4,0.5,0.7,0.1,1.1c0.3,0.3-0.1,0.7,0.1,1C187.6,179.3,187.3,179.9,186.8,180.3z"/>
</g>
<g class="st4">
	<path class="st0" d="M195.6,171.9c0.1,0.4,0.1,1,0.3,1.4c-0.2,0.4,0.4,0.9-0.1,1.1c0.1,0.5,0,1,0,1.5c0.1,0.5-0.2,1,0,1.6
		c-0.2,0.2,0,0.5-0.1,0.7c-0.2,0.8,0.2,1.8-0.8,2.2c-0.3,0-0.4,0.2-0.6,0.2c-0.7,0.2-1.3,0.2-1.9,0.3c-0.4-0.3-1.1,0-1.4-0.5
		c-0.5-0.4-1.1-0.9-1.2-1.6l0-1.8c0.2-1.1-0.2-2.3,0.1-3.5c-0.1-0.7-0.3-1.4-0.1-2.1c0.1-0.8-0.2-1.7,0.2-2.4
		c0.3-0.3,0.7-0.1,1.1-0.3c0.3,0,0.6,0.1,0.8,0.3c0.2,0.4-0.2,0.8,0.2,1.1c0,0.7-0.3,1.3-0.1,1.9c-0.2,0.4,0,0.7,0.1,1.1
		c-0.2,0.4,0,0.9-0.2,1.3c0.3,1,0,2.1,0,3.2c0.2,0.4,0,1.2,0.6,1.4c0.2,0,0.5,0.2,0.7,0c0.3-0.3,0.2-0.7,0.5-1
		c0.1-0.7-0.1-1.4,0.1-2.1c-0.1-0.4,0-0.9,0-1.3c-0.2-0.7,0.1-1.5,0-2.2c0.1-1-0.1-2.1,0-3.1c0.1-0.7,0.9-0.2,1.3-0.5
		c0.4,0.1,0.9,0.2,1.1,0.5l0.1,1.1C195.4,170.7,195.9,171.4,195.6,171.9z"/>
</g>
<g class="st4">
	<path class="st0" d="M148.7,190.3c0,0.1-0.1,0.2-0.1,0.2c-1.3,1.4-4.8,2-6.6,3.2c-0.6,0.4-1.1,0.8-1.7,1.2
		c-1.2,0.7-2.5,1.1-3.7,1.6c-1.1,0.5-2.2,1-3.2,1.5c-1.5,0.7-3.8,3.3-5.1,4.5c-0.5,0.5-1.3,0.8-1.7,1.4c-0.3,0.4-0.4,0.9-0.6,1.3
		c-0.5,1.1-1.4,1.9-2.2,2.8c-1,1.1-2.4,2.8-3.7,3.4c-0.1,0-1,0.4-1,0.4c-0.2,0-0.3-0.1-0.3-0.3c0-1,1.5-2.8,2.1-3.5
		c0.8-1,1.4-2,2.1-3c1-1.4,2.5-2.2,3.8-3.3c0.8-1.9,1.8-3.8,2.6-5.7c-0.5,0.2-1,0.4-1.5,0.6c-1.7,0.9-7.1,5-8.3,6.5
		c-0.6,0.7-2,3.6-2.8,3.6c-0.5,0-0.1-0.8-0.1-1c0.7-2,1.9-2.7,3.2-4.2c0.3-0.4,0.6-0.8,0.9-1.2c0.5-0.7,1-1.4,1.4-2.2
		c0.5-0.7,0.9-1.4,1.3-2.1c0.2-0.3,0.4-0.7,0.6-1c0.2-0.5,0.4-0.9,0.4-1.4c-1.7,0.7-3.8,2.8-5,4.3c-0.1,0.2-0.6,1-0.9,1
		c-0.1,0-0.4-0.2-0.4-0.4c0-0.2,0.3-0.3,0.4-0.4c0.6-0.4,0.8-1.1,1.3-1.6c1.1-1.1,2.3-2.2,3.7-3c0.1-0.1,1.2-0.6,1.4-0.6
		c0.3,0,0.4,0.4,0.4,0.6c0,1.8-2.2,4.7-3.3,6.2c0.9-0.6,8.3-5.1,8.7-5.1c0.1,0,0.3,0.1,0.3,0.3c0,0.6-1.9,4.9-2.4,5.8
		c1.3-1,2.6-2,4-2.9c1.3-0.8,2.8-1.5,4.2-2.2c1.3-0.7,2.8-1,4.1-1.8c0.8-0.5,7.1-3.6,7.6-3.6C148.6,190.1,148.7,190.2,148.7,190.3z
		 M121.7,209.4c0.6-0.6,1.2-1.2,1.8-1.8c1.2-1.4,1.9-3.2,2.9-4.8c-0.8,0.8-1.6,1.8-2.4,2.6c-1.2,1.2-3.5,3.6-3.9,5.2
		C120.6,210.4,121.3,209.8,121.7,209.4z"/>
	<path class="st0" d="M137.4,203.6c-0.4,0.4-1.9,1.2-2.3,1.2c-0.2,0-0.3-0.3-0.3-0.4c0-0.4,0.1-0.8,0.3-1.2
		c-0.3,0.1-1.9,0.9-1.9,0.9c-0.1,0-0.2,0-0.2-0.1c0,0,0.1-0.1,0.1-0.1c0.3-0.1,0.9-0.5,1.1-0.6c0.7-0.4,1.5-0.7,2.2-1.2
		c0.2-0.2,0.6-0.6,0.8-0.6c0.1,0,0.2,0.1,0.2,0.2c0,0.3-1.8,1.5-1.8,2.2c0,0.1,0.1,0.2,0.3,0.2c0.6,0,1-0.4,1.5-0.6l0.1,0
		C137.4,203.5,137.4,203.5,137.4,203.6z M138.3,200.9c-0.7,0-0.8-1.7-0.8-2.2c0-0.4,0.5-0.5,0.8-0.5c0.1,0,0.1,0.1,0.2,0.1
		c0,0.5-0.3,0.9-0.3,1.4c0,0.5,0.3,0.8,0.3,1C138.4,200.9,138.4,200.9,138.3,200.9z"/>
	<path class="st0" d="M147.1,203.7c-0.4,0.6-1.9,1-2.4,1.1c-0.2,0.1-0.5,0.1-0.7,0.1c-0.2,0-0.5-0.1-0.7-0.1c-0.7,0-0.2-1.4-0.8-1.4
		c-0.8,0-3.8,2.4-4.3,2.4c-0.2,0-0.4-0.1-0.4-0.4c0-0.8,1.2-1.2,1.2-2c0-0.1,0-0.2,0-0.3c0-0.1-0.1,0-0.2,0c-0.9,0-1.2,0.3-1.9,0.7
		c-0.2,0.1-0.4,0.2-0.6,0.3l-0.1,0c0-0.1,0-0.1,0.1-0.2c0.1-0.2,0.4-0.3,0.6-0.4c0.9-0.5,2.5-2,3.5-2c0.3,0,0.8,0,0.8,0.4
		c0,0.4-0.7,0.9-0.7,1.2c0,0.1,0.1,0.3,0.2,0.3c0.8,0,2.3-1.6,3.4-1.6c0.4,0,0.5,0,0.5,0.4c0,0.7-0.6,1.1-0.6,1.5l0.1,0.1
		c0.2,0,0.4,0.1,0.6,0.1c0.8,0,1.5-0.2,2.2-0.6c0,0,0.1,0,0.1-0.1l0,0C147.2,203.5,147.2,203.6,147.1,203.7z"/>
	<path class="st0" d="M180.9,196c-0.7,0.1-1.3,0.2-2,0.3c-2.8,0.4-5.6,0.7-8.4,0.8c-3.2,0.1-6.4,0.8-9.6,0.8c-1.7,0-3.3-0.3-5-0.4
		c-1.8,1-2.9,2.9-4.3,4.4c-0.8,0.8-1.7,1.6-2.5,2.4c-0.6,0.5-2.6,2.7-3.2,2.7c-0.2,0-0.4-0.1-0.4-0.4c0-0.4,0.2-0.6,0.5-0.8
		c0.7-0.6,1.4-1.4,2.2-1.9c0.6-0.4,1.3-1.3,1.8-1.8c0.4-0.4,0.8-0.7,1.2-1.1c1-1.1,1.7-2.3,2.7-3.4c-1.7-0.4-3.5-0.8-5.2-0.8
		c-1.1,0-2.2-0.2-3.3-0.2c-0.9,0-5.8,0-5.8,1.2c0,0.5,0.8,0.4,0.9,0.9c-0.1,0.1-0.2,0.1-0.3,0.1c-0.5,0-2.2-0.7-2.2-1.2
		c0-0.6,2.2-1,2.7-1.1c1.1-0.2,2.2-0.3,3.4-0.3h1c1.8,0,3.5,0.2,5.3,0.2c1.4,0,2.8,0.5,4.3,0.6c0.7-0.6,1.5-1.1,2.2-1.6
		c1.1-0.8,2.3-2.3,3.8-2.3c0.2,0,0.8,0.1,0.8,0.4c0,1-4,3-4.9,3.5c1.4,0,2.8,0.4,4.3,0.4c1.9,0,3.7-0.4,5.6-0.5
		c1.4-0.1,2.9-0.1,4.3-0.1c1.4-0.1,2.8-0.2,4.1-0.4c1.2-0.2,2.5-0.3,3.7-0.5c0.7-0.1,1.5-0.4,2.2-0.4c0.3,0,0.7,0.1,0.6,0.4
		C181.3,195.9,181.1,196,180.9,196z"/>
	<path class="st0" d="M157.5,204.1c-0.1,0.1-0.1,0.1-0.2,0.1c-0.8,0.5-1.9,0.9-2.9,0.9c-1.1,0-1.4-0.9-1.4-1.8
		c-0.3,0.3-0.7,0.7-1.1,0.8c0,0-0.1,0-0.1,0c0-0.1,0.1-0.2,0.3-0.3c0.3-0.3,0.9-0.7,1-0.8c0.4-0.4,0.3-1,0.7-1.4
		c0.8-0.7,1.2-1.2,2.4-1.2c0.6,0,1.3,0.1,1.3,0.8c0,0.7-1.8,2-2.4,2.2c-0.4,0.2-0.9,0.3-1.3,0.6c-0.1,0,0,0.1,0,0.2
		c0,0.3,0.6,0.5,0.9,0.5c0.7,0,1.7-0.2,2.4-0.6c0.2-0.1,1-0.5,1-0.5s0.1,0,0.1,0.1C158.1,203.8,157.7,204,157.5,204.1z M156,201.1
		c-0.2,0-0.7,0.1-0.9,0.2c-0.4,0.2-1.2,1.2-1.2,1.6c0,0.1,0.1,0.1,0.2,0.2c0.3,0,0.5-0.1,0.7-0.2c0.4-0.3,0.9-0.4,1.3-0.7
		c0.2-0.2,0.4-0.3,0.5-0.6C156.6,201.3,156.3,201.1,156,201.1z"/>
	<path class="st0" d="M162.4,204.6c-0.3,0.1-0.6,0.1-0.9,0.2c-0.8,0.3-1.6,0.8-2.4,0.8c-0.2,0-0.3-0.2-0.3-0.3
		c0-0.2,1.3-1.9,1.6-2.3l0-0.1c0-0.2-0.2-0.5-0.5-0.5c-0.6,0-1.6,1.6-2.5,1.7c0,0,0,0-0.1-0.1c0,0,0.1-0.2,0.1-0.2
		c0.3-0.2,0.7-0.5,1-0.7c0.9-0.7,1.6-2.1,2.8-2.1c0.3,0,0.6,0.3,0.6,0.6c0,1.1-1.3,2.1-1.3,2.7c0,0-0.1,0.2,0,0.2c0.1,0,0.2,0,0.4,0
		c0.8,0,1.6-0.5,2.3-0.8c0.1-0.1,0.4-0.2,0.6-0.3c0,0,0.1-0.1,0.1,0c0,0,0,0.1,0,0.1C164,203.8,162.8,204.4,162.4,204.6z"/>
	<path class="st0" d="M175.8,203.3l0.2,0.1c0.2,0,0.4-0.1,0.6-0.3c0.3-0.4,0.9-0.7,1.2-1.2c0.3-0.4,0.6-1.3,1.2-1.4
		c0.1,0,0.3,0.2,0.3,0.3c0,0.2-0.3,0.6-0.7,1.1c-0.8,1-2.2,2.2-2.6,2.2c-1.1,0-1-0.8-1.2-1.5c-0.2,0.2-0.5,0.3-0.7,0.4
		c-1.1,0.4-1.3,1.4-3,1.4c-0.3,0-0.7-0.1-0.7-0.5c0-1.3,2.5-2.5,3.6-2.5c0.3,0,0.6,0.1,0.8,0.2c0.4-0.2,0.7-0.7,1-1
		c1.2-1.2,2.9-2.8,2.9-4.6c0-0.2-0.1-0.4-0.3-0.4c-1,0-4.1,2.2-4.1,3.2c0,0.2,0.2,0.4,0.5,0.4c0.3,0,0.5-0.2,0.7-0.3
		c0.1-0.2,0.3-0.8,0.4-1.3c0.1-0.3,0.1-0.5,0.4-0.4c0,0,0.1-0.1,0.2-0.1c0.2,0,0.3,0.3,0.3,0.5c0,1-1,2.3-2,2.3c-0.7,0-1-0.5-1-1.1
		c0-1.1,1.2-2.3,2.2-2.8c0.2-0.1,0.4-0.2,0.6-0.3c0.7-0.4,1.4-1,2.2-1c0.7,0,1,0.5,1,1.1c0,2-2.9,4.8-4.4,6.1
		C175.5,202.5,175.6,202.9,175.8,203.3z M171.3,203.8c0.6,0,1.3-0.3,1.7-0.7c0.2-0.2,0.5-0.3,0.8-0.4c0.2-0.1,0.4-0.2,0.4-0.4
		c0-0.1-0.3-0.1-0.4-0.1c-0.9,0-2,0.7-2.5,1.5L171.3,203.8z"/>
</g>
<g class="st4">
	<path class="st0" d="M183.7,203.8c-0.5,0.1-0.9,0.4-1.4,0.4c-0.2,0-0.5-0.1-0.6-0.3c-0.4-0.1-0.9-0.3-0.9-0.8
		c0-0.5,1.1-1.9,2.3-3.3c1.5-1.6,3.3-3.2,4-3.2c0.1,0,0.2,0,0.2,0.2c0,0.1-0.1,0.2-0.1,0.5c0,0.1,0.1,0.3,0.1,0.5
		c0,1.9-1.5,1.5-2.6,2.1c-1,0.6-1.3,1.5-1.9,2.4c-0.2,0.4-0.7,0.6-0.7,1.1c1.9-0.4,3-0.7,4.4-2.2c0.4-0.4,0.8-0.7,1.2-1
		c0.2-0.4,0.4-0.8,0.4-1.2c0-0.4-0.1-0.7-0.1-1.1c0-0.4,0.1-0.5,0.5-0.5c0.5,0,1.3,0.2,1.3,0.9c0,1-0.8,1.6-1.6,2.2
		C187.4,202.1,185.5,203.2,183.7,203.8z"/>
</g>
<g class="st4">
	<path class="st0" d="M191.1,203.8c0-0.4,0.4-0.7,0.7-0.9c1-0.6,1.3-1.1,1.9-2c-1.3,1-1.6,0.8-2.8,1.4c-0.1,0.1-0.3,0.3-0.5,0.3
		c-0.1,0-0.3-0.2-0.3-0.2c0-0.4,1-0.6,1.3-0.7c1.1-0.6,2.1-1.3,3.2-2c0.9-0.5,2.9-2.3,3.6-3.1c0.1-0.1,0.2-0.3,0.3-0.4
		c0.1-0.1,0.4-0.1,0.5-0.1c0.2,0,0.3,0.3,0.3,0.5c0,0.2-0.1,0.5-0.2,0.6c-0.1,0.1-0.3,0.2-0.5,0.4c-0.9,0.6-1.7,1.6-2.4,2.5
		c-0.2,0.2-0.4,0.5-0.7,0.6c-1.1,0.5-1.7,1.8-2.4,2.5c-0.5,0.4-1.1,0.8-1.7,1.1C191.3,204.1,191.1,204,191.1,203.8z"/>
	<path class="st0" d="M197,207.5c0-0.2,0.7-0.8,0.9-1.1c0.8-0.8,1.6-1.7,2.4-2.5c0.8-0.8,2.8-2.3,4.4-3.8c1.4-1.3,2.7-2.7,2.8-3.6
		c-0.6-0.2-3-0.4-3-1.2c0-0.2,0.2-0.4,0.4-0.4c0.2,0,0.3,0.1,0.4,0.2c0.5,0.8,1.9,0.5,2.7,0.5c0.2,0,0.4,0.1,0.4,0.4
		c0,1.2-1,2.6-2.1,3.8c-0.9,1-2,2-2.6,2.6c-1,1-2.4,1.6-3.3,2.6c-0.7,0.7-1.5,2.9-2.6,2.9C197.3,207.8,197,207.8,197,207.5z"/>
</g>
<g class="st4">
	<path class="st0" d="M136.2,217.5v0.9h-2.3v5.5H133v-5.5h-2.3v-0.9H136.2z"/>
	<path class="st0" d="M141.8,217.5c1,0,2,0.5,2,1.8c0,1.4-0.9,1.8-1.5,1.9l1.3,2.7h-1.1l-1.3-2.7h-2.4v2.7H138v-6.5H141.8z
		 M138.9,218.4v1.9h2.9c0.7,0,1.1-0.4,1.1-1c0-0.7-0.6-0.9-1.1-0.9H138.9z"/>
	<path class="st0" d="M146.5,217.5v6.5h-0.9v-6.5H146.5z"/>
	<path class="st0" d="M150,217.5l3.8,4.9h0v-4.9h0.9v6.5h-0.9L150,219h0v4.9H149v-6.5H150z"/>
	<path class="st0" d="M158.2,217.5v6.5h-0.9v-6.5H158.2z"/>
	<path class="st0" d="M165.4,217.5v0.9h-2.3v5.5h-0.9v-5.5h-2.3v-0.9H165.4z"/>
	<path class="st0" d="M167.2,217.5l2,2.8l2-2.8h1.2l-2.7,3.7v2.8h-0.9v-2.8l-2.6-3.7H167.2z"/>
	<path class="st0" d="M174.2,224c-0.3,0-0.6-0.2-0.6-0.6c0-0.4,0.3-0.6,0.6-0.6c0.4,0,0.7,0.3,0.7,1c0,0.8-0.9,1.5-1,1.5l-0.1-0.1
		c0.1-0.1,0.8-0.7,0.8-1.1c0,0,0-0.1-0.1-0.1H174.2z"/>
	<path class="st0" d="M186.4,222.8c-0.6,0.7-1.4,1.3-3.2,1.3c-1.8,0-3.4-1.3-3.4-3.3c0-1.9,1.5-3.4,3.4-3.4c1.8,0,2.8,1,3.1,1.3
		l-0.7,0.6c-0.3-0.2-1.1-1-2.4-1c-1.2,0-2.5,0.9-2.5,2.5c0,1.2,0.9,2.4,2.7,2.4c1.4,0,2.1-0.7,2.4-1L186.4,222.8z"/>
	<path class="st0" d="M194,223.9H193l-0.9-2.1h-2.9l-1,2.1h-1l2.9-6.5h1L194,223.9z M190.6,218.6l-1,2.2h2L190.6,218.6z"/>
</g>
<polygon class="st0" points="283,95.7 283,96.3 281.5,96.3 281.5,99.8 281,99.8 281,96.3 279.5,96.3 279.5,95.7 "/>
<polygon class="st0" points="284.2,96.9 284.2,96.9 284.2,99.8 283.6,99.8 283.6,95.7 284.2,95.7 285.6,98.2 287.1,95.7 287.6,95.7 
	287.6,99.8 287.1,99.8 287.1,96.9 287,96.9 285.6,99.4 "/>
<g>
	<g>
		<defs>
			<path id="SVGID_1_" d="M86.5,95l-0.4,0.8c-4.5,9-8.7,17.6-12.9,26.1c-4.1-8.8-8.1-17.5-12-26.1L60.9,95h-5.8l-0.2,1.1
				c-2.1,12.3-4.2,24.6-6.3,36.7c-0.8,5.1-2,9.7-3.4,12.8l-0.9,2.1l2.2-0.2c4.2-0.3,8.5-0.6,12.8-0.9l1.3-0.1l0-1.3
				c-0.2-4.1,0.5-9.1,1.5-14.7c2.5,5.1,5.1,10.2,7.8,15.4l0.4,0.8l3.7-0.2l0.3-0.7c2.5-5.2,5.1-10.5,7.8-15.8c0,0.1,0,0.2,0,0.3
				c0.8,5.3,1.7,10.8,1.2,13.2l-0.3,1.7l1.7-0.1c4.7-0.2,9.4-0.5,14.2-0.7l2-0.1l-0.8-1.8c-1.4-3.3-2.6-7.5-3.1-11.6
				c-1.6-11.5-3.2-23.1-4.7-34.8L92,95H86.5z"/>
		</defs>
		<clipPath id="SVGID_2_">
			<use xlink:href="#SVGID_1_"  style="overflow:visible;"/>
		</clipPath>
		
			<linearGradient id="SVGID_3_" gradientUnits="userSpaceOnUse" x1="-125.4693" y1="-268.1411" x2="-124.4693" y2="-268.1411" gradientTransform="matrix(58.6488 -33.8609 33.8609 58.6488 16478.0293 11617.8438)">
			<stop  offset="0" style="stop-color:#9F936D"/>
			<stop  offset="0.3592" style="stop-color:#E7D6B2"/>
			<stop  offset="0.8951" style="stop-color:#9F936D"/>
			<stop  offset="1" style="stop-color:#9F936D"/>
		</linearGradient>
		<polygon class="st5" points="21.4,108.2 86.7,70.5 123.6,134.5 58.4,172.2 		"/>
	</g>
</g>
<g>
	<g>
		<defs>
			<path id="SVGID_4_" d="M142.5,95.3c-5.7,0-10.2,1.7-13.1,4.8c-2.6,2.7-3.8,6.5-3.5,11c0.4,6.5,5,9.8,8.8,12.5
				c3.3,2.3,5.3,3.9,5.3,6.3c0,0.4,0,1.5-2.1,1.6h-0.2c-3.2,0-8.1-1.6-10.4-4.2l-2.6-2.8l1,18.7l1.4-0.1c0.4,0,0.8,0,1.2,0
				c1.4,0,2.7,0.2,4.1,0.4c1.6,0.2,3.2,0.5,5.3,0.5c0.2,0,0.4,0,0.7,0c5.7-0.1,10.6-2.1,13.7-5.5c2.6-2.8,3.9-6.5,3.6-10.6
				c-0.5-8.5-6.2-12.4-10.5-15.2c-2.1-1.4-4-2.7-4.1-3.8c0-0.4,0.1-0.7,0.3-0.9c0.3-0.3,0.9-0.5,1.7-0.6c0.1,0,0.3,0,0.4,0
				c3.3,0,5.9,1.1,7.9,3.5l2.6,3l-1-18.4l-1.6,0.4c-0.6,0.1-1.2,0.2-1.9,0.2c-1,0-2.1-0.2-3.1-0.3C145.3,95.5,144,95.3,142.5,95.3
				L142.5,95.3z"/>
		</defs>
		<clipPath id="SVGID_5_">
			<use xlink:href="#SVGID_4_"  style="overflow:visible;"/>
		</clipPath>
		
			<linearGradient id="SVGID_6_" gradientUnits="userSpaceOnUse" x1="-125.1757" y1="-268.7691" x2="-124.1757" y2="-268.7691" gradientTransform="matrix(41.2041 -23.7892 23.7892 41.2041 11670.7676 8228.3408)">
			<stop  offset="0" style="stop-color:#9F936D"/>
			<stop  offset="0.3592" style="stop-color:#E7D6B2"/>
			<stop  offset="0.8951" style="stop-color:#9F936D"/>
			<stop  offset="1" style="stop-color:#9F936D"/>
		</linearGradient>
		<polygon class="st6" points="103.7,107.4 148.2,81.7 177.1,131.7 132.6,157.4 		"/>
	</g>
</g>
<g>
	<g>
		<defs>
			<path id="SVGID_7_" d="M157.9,109.9l1.4-0.1c0.5,0,1.2-0.1,2.1-0.2c2.3-0.2,5.9-0.6,8.9-0.6h0.2c0.1,2.1,0.1,4.6,0.1,7v14.1
				c0,5-0.2,8.7-0.8,11.4l-0.3,1.6l1.6,0c4.6,0,9.2,0.1,13.8,0.2l1.7,0l-0.4-1.7c-0.5-2.2-0.8-6.3-0.8-11.4v-14.2c0-2.2,0-4.8,0-7
				h0.1c3.1,0,6.7,0.4,9.1,0.7c0.9,0.1,1.6,0.2,2.1,0.2l1.5,0.1l0-14.6l-1.4,0.1c-0.4,0-1,0.1-1.9,0.2c-3.9,0.3-11.9,1-16.7,1.1
				c-0.2,0-0.4,0-0.6,0c-4.9,0-12.7-0.7-16.4-1c-1-0.1-1.7-0.2-2.1-0.2l-1.4-0.1L157.9,109.9z"/>
		</defs>
		<clipPath id="SVGID_8_">
			<use xlink:href="#SVGID_7_"  style="overflow:visible;"/>
		</clipPath>
		
			<linearGradient id="SVGID_9_" gradientUnits="userSpaceOnUse" x1="-125.2002" y1="-268.6558" x2="-124.2002" y2="-268.6558" gradientTransform="matrix(42.2508 -24.3935 24.3935 42.2508 12004.7646 8425.8643)">
			<stop  offset="0" style="stop-color:#9F936D"/>
			<stop  offset="0.3592" style="stop-color:#E7D6B2"/>
			<stop  offset="0.8951" style="stop-color:#9F936D"/>
			<stop  offset="1" style="stop-color:#9F936D"/>
		</linearGradient>
		<polygon class="st7" points="137.2,107.4 188.3,77.9 219.2,131.4 168.1,160.9 		"/>
	</g>
</g>
<g>
	<g>
		<defs>
			<path id="SVGID_10_" d="M252.3,95.6c-2.1,0.5-8.3,0.7-13.1,0.7H239c-4.4-0.2-8.9-0.3-13.3-0.5l-1.6-0.1l0.2,1.6
				c0.5,3.6,0.7,7.1,0.7,11.9l0,22c0,5.3-0.2,9.5-0.7,11.8l-0.3,1.6l1.6,0.1c4.5,0.2,9.1,0.4,13.6,0.7l1.8,0.1l-0.4-1.7
				c-0.6-3.2-0.7-7.8-0.7-12v-3.2l0.8,0c4.3,0.1,7.6,0.4,9.7,1.1l1.8,0.6l0-15.2l-1.6,0.3c-2.1,0.3-4.7,0.5-7.7,0.5
				c-0.7,0-1.4,0-2.1,0l-0.9,0V109l1.9,0c4.2,0.1,8,0.4,10.5,0.9l1.6,0.3l0-15.1L252.3,95.6z"/>
		</defs>
		<clipPath id="SVGID_11_">
			<use xlink:href="#SVGID_10_"  style="overflow:visible;"/>
		</clipPath>
		
			<linearGradient id="SVGID_12_" gradientUnits="userSpaceOnUse" x1="-125.2342" y1="-268.5809" x2="-124.2342" y2="-268.5809" gradientTransform="matrix(43.7975 -25.2865 25.2865 43.7975 12493.7236 8729.2344)">
			<stop  offset="0" style="stop-color:#9F936D"/>
			<stop  offset="0.3592" style="stop-color:#E7D6B2"/>
			<stop  offset="0.8951" style="stop-color:#9F936D"/>
			<stop  offset="1" style="stop-color:#9F936D"/>
		</linearGradient>
		<polygon class="st8" points="202.4,107.7 246.5,82.2 275.7,132.8 231.6,158.3 		"/>
	</g>
</g>
<g>
	<g>
		<defs>
			<path id="SVGID_13_" d="M258.9,97.5c0.5,2,1.2,7.4,1.2,12.2l0,23c0,6.4,0,8.6-1.1,12l-0.6,1.7l1.8,0.1c4.8,0.3,9.7,0.7,14.5,1.1
				l2,0.2l-0.6-1.9c-1-2.9-1.1-6.5-1.1-12.4V110c0-4.9,0.7-10.6,1.2-12.4l0.4-1.7l-18,0L258.9,97.5z"/>
		</defs>
		<clipPath id="SVGID_14_">
			<use xlink:href="#SVGID_13_"  style="overflow:visible;"/>
		</clipPath>
		
			<linearGradient id="SVGID_15_" gradientUnits="userSpaceOnUse" x1="-125.0152" y1="-269.1234" x2="-124.0152" y2="-269.1234" gradientTransform="matrix(35.4417 -20.4623 20.4623 35.4417 10187.6367 7111.9604)">
			<stop  offset="0" style="stop-color:#9F936D"/>
			<stop  offset="0.3592" style="stop-color:#E7D6B2"/>
			<stop  offset="0.8951" style="stop-color:#9F936D"/>
			<stop  offset="1" style="stop-color:#9F936D"/>
		</linearGradient>
		<polygon class="st9" points="235.9,108.8 272.1,87.9 299.1,134.7 263,155.6 		"/>
	</g>
</g>
<g>
	<g>
		<defs>
			<path id="SVGID_16_" d="M202.2,97.5c0.5,1.8,1.2,7,1.2,11.5l0,21.7c0,6.1,0,8.1-1.1,11.3l-0.6,1.8l1.9,0.1
				c4.8,0.1,9.7,0.3,14.5,0.5l2,0.1l0,0l-0.7-1.9c-0.9-2.7-1.1-6-1.1-11.5l0-21.8c0-4.5,0.7-9.9,1.1-11.6l0.5-1.7l-18,0L202.2,97.5z
				"/>
		</defs>
		<clipPath id="SVGID_17_">
			<use xlink:href="#SVGID_16_"  style="overflow:visible;"/>
		</clipPath>
		
			<linearGradient id="SVGID_18_" gradientUnits="userSpaceOnUse" x1="-124.9791" y1="-269.2026" x2="-123.9791" y2="-269.2026" gradientTransform="matrix(34.3611 -19.8384 19.8384 34.3611 9828.6494 6900.6494)">
			<stop  offset="0" style="stop-color:#9F936D"/>
			<stop  offset="0.3592" style="stop-color:#E7D6B2"/>
			<stop  offset="0.8951" style="stop-color:#9F936D"/>
			<stop  offset="1" style="stop-color:#9F936D"/>
		</linearGradient>
		<polygon class="st10" points="180.6,107.9 215.4,87.8 241,132.2 206.2,152.3 		"/>
	</g>
</g>
<g>
	<g>
		<defs>
			<path id="SVGID_19_" d="M102.9,95.8l0.4,1.7c0.5,1.9,1.2,7.1,1.2,11.6l0,21.9c0,6.1,0,8.1-1.1,11.5l-0.6,1.9l2-0.1
				c4.8-0.2,9.7-0.3,14.5-0.5l1.9-0.1l-0.7-1.8c-0.9-2.6-1.1-5.8-1.1-11.3l0-21.6c0-4.4,0.7-9.8,1.2-11.5l0.5-1.7L102.9,95.8z"/>
		</defs>
		<clipPath id="SVGID_20_">
			<use xlink:href="#SVGID_19_"  style="overflow:visible;"/>
		</clipPath>
		
			<linearGradient id="SVGID_21_" gradientUnits="userSpaceOnUse" x1="-124.9902" y1="-269.1734" x2="-123.9902" y2="-269.1734" gradientTransform="matrix(34.6805 -20.0228 20.0228 34.6805 9818.8262 6962.4678)">
			<stop  offset="0" style="stop-color:#9F936D"/>
			<stop  offset="0.3592" style="stop-color:#E7D6B2"/>
			<stop  offset="0.8951" style="stop-color:#9F936D"/>
			<stop  offset="1" style="stop-color:#9F936D"/>
		</linearGradient>
		<polygon class="st11" points="81.7,107.9 116.5,87.8 142.1,132.1 107.3,152.2 		"/>
	</g>
</g>
<path class="st0" d="M95.6,131.1c0.6,4.5,1.8,8.8,3.2,12c-4.7,0.2-9.4,0.4-14.2,0.7c0.6-3.4-0.9-11.2-1.9-18.2
	c-3.2,6.5-6.5,13-9.7,19.6c-0.7,0-1.4,0.1-2.1,0.1c-3.2-6.3-6.4-12.7-9.6-19.1c-1.2,7.4-2.4,13.9-2.2,19.1
	c-4.3,0.3-8.5,0.6-12.8,0.9c1.4-3.3,2.7-8,3.5-13.1c2.1-12.3,4.2-24.6,6.3-36.7H60c4.4,9.7,8.8,19.2,13.2,28.6
	c4.7-9.7,9.4-19.2,14.1-28.6h3.5C92.4,108,94,119.6,95.6,131.1"/>
<path class="st0" d="M154.4,127.8c0.5,8.9-6.4,14.4-16,14.7c-4.7,0.1-7.3-1.1-11.3-0.8c-0.2-4.5-0.5-9-0.7-13.6
	c2.6,2.9,8,4.7,11.6,4.6c2.4-0.1,3.4-1.3,3.4-2.9c0-7-13.4-8.2-14-18.9c-0.5-8.8,5.1-14.3,15.3-14.3c3.4,0,6.1,1.2,9.3,0.4
	c0.2,4.3,0.4,8.5,0.7,12.8c-2.2-2.5-5.1-4.1-9.3-3.9c-2.2,0.1-3.4,1.2-3.3,2.9C140.2,113.6,153.7,115.2,154.4,127.8"/>
<path class="st0" d="M197.1,96.9c0,3.9,0,7.8,0,11.7c-1.9-0.2-7-0.8-11.3-0.9c-0.5,0-0.9,0-1.4,0c-0.1,2.4-0.1,5.6-0.1,8.4
	c0,4.7,0,9.5,0,14.2c0,4.4,0.2,9,0.8,11.7c-4.6-0.1-9.2-0.1-13.8-0.2c0.6-3.1,0.8-7.2,0.8-11.7c0-4.7,0-9.4,0-14.2
	c0-2.7-0.1-5.9-0.2-8.3c-0.5,0-0.9,0-1.4,0c-4.2,0-9.3,0.7-11.2,0.8V96.9c1.9,0.1,12.9,1.3,19.1,1.2C184.4,98,195.2,97,197.1,96.9"
	/>
<path class="st0" d="M226.4,131.2c0-7.3,0-14.7,0-22c0-4.6-0.2-8.2-0.7-12c4.4,0.2,8.9,0.3,13.3,0.5c4.2,0,11.2-0.2,13.7-0.8
	c0,3.9,0,7.8,0,11.7c-2.7-0.6-6.6-0.9-10.8-0.9c-1.1,0-2.2,0-3.3,0c0,3.1,0,6.2,0,9.4c0.7,0,1.4,0,2.2,0.1c4.3,0.1,7.6-0.1,10.1-0.5
	c0,3.9,0,7.8,0,11.7c-2.3-0.8-5.8-1-10.1-1.2c-0.7,0-1.4-0.1-2.2-0.1c0,1.6,0,3.1,0,4.6c0,4.6,0.1,9.1,0.7,12.2
	c-4.5-0.2-9.1-0.5-13.6-0.7C226.2,140.5,226.4,135.8,226.4,131.2"/>
<path class="st0" d="M273.5,133.3c0,6,0.2,9.7,1.2,12.9c-4.8-0.4-9.7-0.7-14.5-1.1c1.2-3.6,1.2-6,1.2-12.5c0-7.7,0-15.3,0-22.9
	c0-4.8-0.7-10.4-1.2-12.6c4.8,0,9.7,0,14.5,0c-0.5,2-1.2,7.9-1.2,12.8C273.5,117.8,273.5,125.5,273.5,133.3"/>
<path class="st0" d="M216.8,130.9c0,5.6,0.2,9.1,1.2,12c-4.8-0.2-9.7-0.4-14.5-0.5c1.2-3.4,1.2-5.7,1.2-11.8c0-7.2,0-14.4,0-21.6
	c0-4.5-0.7-9.8-1.2-11.8c4.8,0,9.7,0,14.5,0c-0.5,1.8-1.2,7.4-1.2,11.9C216.8,116.4,216.8,123.6,216.8,130.9"/>
<path class="st0" d="M117.9,130.6c0,5.5,0.2,9,1.2,11.8c-4.8,0.1-9.7,0.3-14.5,0.5c1.2-3.5,1.2-5.8,1.2-12c0-7.3,0-14.5,0-21.8
	c0-4.5-0.7-9.8-1.2-11.9c4.8,0,9.7,0,14.5,0c-0.5,1.8-1.2,7.3-1.2,11.8C117.9,116.2,117.9,123.4,117.9,130.6"/>
<g>
	<g>
		<defs>
			<path id="SVGID_22_" d="M52.6,133.5c-0.6,3.5-1.3,6.9-2.2,9.7c2-0.1,4.1-0.3,6.1-0.4c0.2-4.7,1.1-10.2,2.1-16.3l1.5-9l3.7,7.5
				c2.7,5.3,5.4,10.8,8.2,16.2c2.7-5.6,5.5-11.2,8.4-16.9l3.9-7.8l1.2,8.6c0.2,1.5,0.4,3,0.7,4.5c0.7,4.3,1.2,8.2,1.3,11.2
				c2.5-0.1,5-0.2,7.5-0.4c-0.9-2.9-1.7-6-2-9c-1.4-10.5-2.9-21-4.3-31.5c-4.5,9-8.7,17.6-12.9,26.2l-2.5,5.1l-2.4-5.2
				c-4.2-9-8.4-18-12.3-26.8C56.4,110.8,54.5,122.2,52.6,133.5"/>
		</defs>
		<clipPath id="SVGID_23_">
			<use xlink:href="#SVGID_22_"  style="overflow:visible;"/>
		</clipPath>
		
			<linearGradient id="SVGID_24_" gradientUnits="userSpaceOnUse" x1="-127.4283" y1="-268.402" x2="-126.4283" y2="-268.402" gradientTransform="matrix(45.192 26.0916 -26.0916 45.192 -1191.8115 15564.0537)">
			<stop  offset="0" style="stop-color:#9F936D"/>
			<stop  offset="0.386" style="stop-color:#DECDAA"/>
			<stop  offset="1" style="stop-color:#9F936D"/>
		</linearGradient>
		<polygon class="st12" points="61.5,80.1 113.9,110.3 83.8,162.4 31.4,132.2 		"/>
	</g>
</g>
<g>
	<g>
		<defs>
			<path id="SVGID_25_" d="M142.6,99.3c-4.5,0-8.1,1.3-10.2,3.5c-1.8,1.9-2.6,4.6-2.4,7.9c0.3,4.6,3.6,6.9,7.1,9.5
				c3.2,2.3,6.9,5,6.9,9.6c0,2.8-1.9,5.6-6.1,5.7c-0.1,0-0.2,0-0.3,0c-2.4,0-5.6-0.7-8.4-2l0.3,5.5c1.2,0.1,2.3,0.2,3.4,0.4
				c1.5,0.2,2.9,0.4,4.7,0.4c0.2,0,0.4,0,0.6,0c4.6-0.1,8.5-1.6,10.8-4.2c1.9-2,2.7-4.6,2.6-7.6c-0.4-6.5-4.8-9.4-8.7-12.1
				c-2.9-2-5.7-3.8-5.8-7c-0.1-1.5,0.4-2.9,1.3-3.9c0.8-0.8,2.2-1.8,4.6-1.9c0.2,0,0.3,0,0.5,0c2.1,0,4.1,0.4,5.9,1.1l-0.2-4.3
				c-1.2,0-2.3-0.2-3.4-0.4C144.8,99.5,143.7,99.3,142.6,99.3C142.6,99.3,142.6,99.3,142.6,99.3z"/>
		</defs>
		<clipPath id="SVGID_26_">
			<use xlink:href="#SVGID_25_"  style="overflow:visible;"/>
		</clipPath>
		
			<linearGradient id="SVGID_27_" gradientUnits="userSpaceOnUse" x1="-128.2686" y1="-269.559" x2="-127.2686" y2="-269.559" gradientTransform="matrix(27.1558 15.6784 -15.6784 27.1558 -615.984 9442.8594)">
			<stop  offset="0" style="stop-color:#9F936D"/>
			<stop  offset="0.386" style="stop-color:#DECDAA"/>
			<stop  offset="1" style="stop-color:#9F936D"/>
		</linearGradient>
		<polygon class="st13" points="135,89.6 169.4,109.4 146.2,149.6 111.8,129.7 		"/>
	</g>
</g>
<g>
	<g>
		<defs>
			<path id="SVGID_28_" d="M178.4,100.8c-0.2,0-0.6,0-0.6,0c-4.8,0-11.8-0.6-15.8-1v5.6c2.4-0.2,5.6-0.5,8.4-0.5l4.1,0l0.1,2.6
				c0.1,2.3,0.2,5.5,0.2,8.5v14.2c0,3.5-0.1,6.5-0.4,9c2.5,0,5,0.1,7.6,0.1c-0.3-2.9-0.4-6.3-0.4-9V116c0-2.7,0-6,0.1-8.4l0.1-2.7
				l4.1,0c2.9,0,6.1,0.3,8.6,0.6v-5.7C190.2,100.2,183,100.7,178.4,100.8"/>
		</defs>
		<clipPath id="SVGID_29_">
			<use xlink:href="#SVGID_28_"  style="overflow:visible;"/>
		</clipPath>
		
			<linearGradient id="SVGID_30_" gradientUnits="userSpaceOnUse" x1="-127.9491" y1="-269.0101" x2="-126.9491" y2="-269.0101" gradientTransform="matrix(32.023 18.4885 -18.4885 32.023 -718.7629 11087.6758)">
			<stop  offset="0" style="stop-color:#9F936D"/>
			<stop  offset="0.386" style="stop-color:#DECDAA"/>
			<stop  offset="1" style="stop-color:#9F936D"/>
		</linearGradient>
		<polygon class="st14" points="170.1,85.8 211.4,109.7 186.3,153.2 144.9,129.4 		"/>
	</g>
</g>
<g>
	<g>
		<defs>
			<path id="SVGID_31_" d="M229.1,109.2l0,22c0,2.9-0.1,6.4-0.4,9.4c2.5,0.1,4.9,0.2,7.4,0.4c-0.3-2.9-0.3-6.3-0.3-9.4l0-7.4l5,0.2
				c2.8,0.1,5.2,0.2,7.3,0.5v-5.3c-1.6,0.1-3.3,0.2-5.3,0.2c-0.7,0-1.4,0-2.2,0l-4.8-0.1l0-14.8l6,0.1c3,0,5.7,0.2,8.1,0.5V100
				c-4,0.3-9.4,0.4-10.8,0.4h-0.3c-3.4-0.1-6.8-0.3-10.1-0.4C229,102.7,229.1,105.6,229.1,109.2"/>
		</defs>
		<clipPath id="SVGID_32_">
			<use xlink:href="#SVGID_31_"  style="overflow:visible;"/>
		</clipPath>
		
			<linearGradient id="SVGID_33_" gradientUnits="userSpaceOnUse" x1="-128.4189" y1="-269.7486" x2="-127.4189" y2="-269.7486" gradientTransform="matrix(25.3405 14.6303 -14.6303 25.3405 -469.7925 8825.1396)">
			<stop  offset="0" style="stop-color:#9F936D"/>
			<stop  offset="0.386" style="stop-color:#DECDAA"/>
			<stop  offset="1" style="stop-color:#9F936D"/>
		</linearGradient>
		<polygon class="st15" points="234,90.8 267.7,110.2 244.6,150.2 211,130.7 		"/>
	</g>
</g>
<g>
	<g>
		<defs>
			<path id="SVGID_34_" d="M263.4,99.9c0.4,2.9,0.7,6.6,0.7,9.8l0,23c0,4.6,0,7.3-0.5,9.9c2.5,0.2,5.1,0.4,7.6,0.6
				c-0.4-2.6-0.5-5.7-0.5-9.9V110c0-3.3,0.3-7.2,0.7-10.1L263.4,99.9z"/>
		</defs>
		<clipPath id="SVGID_35_">
			<use xlink:href="#SVGID_34_"  style="overflow:visible;"/>
		</clipPath>
		
			<linearGradient id="SVGID_36_" gradientUnits="userSpaceOnUse" x1="-128.4836" y1="-269.8341" x2="-127.4836" y2="-269.8341" gradientTransform="matrix(24.6304 14.2203 -14.2203 24.6304 -417.4554 8587.5908)">
			<stop  offset="0" style="stop-color:#9F936D"/>
			<stop  offset="0.386" style="stop-color:#DECDAA"/>
			<stop  offset="1" style="stop-color:#9F936D"/>
		</linearGradient>
		<polygon class="st16" points="265.5,96.4 290.2,110.7 269.5,146.7 244.7,132.4 		"/>
	</g>
</g>
<g>
	<g>
		<defs>
			<path id="SVGID_37_" d="M207.4,109l0,21.7c0,4.2,0,6.7-0.4,9.1c2.5,0.1,5,0.2,7.6,0.3c-0.4-2.4-0.4-5.3-0.4-9.1l0-21.8
				c0-3,0.3-6.5,0.7-9.2l-8,0C207.1,102.5,207.4,105.9,207.4,109"/>
		</defs>
		<clipPath id="SVGID_38_">
			<use xlink:href="#SVGID_37_"  style="overflow:visible;"/>
		</clipPath>
		
			<linearGradient id="SVGID_39_" gradientUnits="userSpaceOnUse" x1="-128.6205" y1="-270.0281" x2="-127.6205" y2="-270.0281" gradientTransform="matrix(23.2682 13.4339 -13.4339 23.2682 -435.7151 8124.1284)">
			<stop  offset="0" style="stop-color:#9F936D"/>
			<stop  offset="0.386" style="stop-color:#DECDAA"/>
			<stop  offset="1" style="stop-color:#9F936D"/>
		</linearGradient>
		<polygon class="st17" points="208.8,96.4 232.2,109.9 212.8,143.5 189.4,130 		"/>
	</g>
</g>
<g>
	<g>
		<defs>
			<path id="SVGID_40_" d="M107.9,99.9c0.4,2.7,0.7,6.1,0.7,9.2l0,21.9c0,4.1,0,6.7-0.4,9.1c2.5-0.1,5-0.2,7.6-0.2
				c-0.4-2.4-0.5-5.3-0.5-9.2l0-21.6c0-2.9,0.3-6.4,0.7-9.1l0,0L107.9,99.9z"/>
		</defs>
		<clipPath id="SVGID_41_">
			<use xlink:href="#SVGID_40_"  style="overflow:visible;"/>
		</clipPath>
		
			<linearGradient id="SVGID_42_" gradientUnits="userSpaceOnUse" x1="-128.6369" y1="-270.0558" x2="-127.6369" y2="-270.0558" gradientTransform="matrix(23.1151 13.3455 -13.3455 23.1151 -530.3641 8072.2524)">
			<stop  offset="0" style="stop-color:#9F936D"/>
			<stop  offset="0.386" style="stop-color:#DECDAA"/>
			<stop  offset="1" style="stop-color:#9F936D"/>
		</linearGradient>
		<polygon class="st18" points="109.9,96.4 133.3,109.9 113.9,143.4 90.5,129.9 		"/>
	</g>
</g>
<g>
	<g>
		<defs>
			<rect id="SVGID_43_" x="51" y="100.2" width="218.8" height="42.3"/>
		</defs>
		<clipPath id="SVGID_44_">
			<use xlink:href="#SVGID_43_"  style="overflow:visible;"/>
		</clipPath>
		<g class="st19">
			<g>
				<defs>
					<rect id="SVGID_45_" x="51" y="100.2" width="218.8" height="42.3"/>
				</defs>
				<clipPath id="SVGID_46_">
					<use xlink:href="#SVGID_45_"  style="overflow:visible;"/>
				</clipPath>
				<path class="st20" d="M59,102.1c-2.2,15.5-2.1,15.5-3.2,21.7c-0.7,3.9-2.7,13.2-3.3,15.1s-1.5,3.6-1.5,3.6s4-2.8,6-18.1
					c1-7.2,2-18.1,2-18.1L59,102.1L59,102.1z"/>
			</g>
			<g>
				<defs>
					<rect id="SVGID_47_" x="51" y="100.2" width="218.8" height="42.3"/>
				</defs>
				<clipPath id="SVGID_48_">
					<use xlink:href="#SVGID_47_"  style="overflow:visible;"/>
				</clipPath>
				<path class="st21" d="M86.9,104.9c0,0-3,6-3.9,7.8c-0.9,1.8-5.8,11.5-5.8,11.5s2.8-3.5,4.9-7.1c2.3-4.1,3.1-6.8,3.7-8.2
					C86.4,107.6,86.9,104.9,86.9,104.9"/>
			</g>
			<g>
				<defs>
					<rect id="SVGID_49_" x="51" y="100.2" width="218.8" height="42.3"/>
				</defs>
				<clipPath id="SVGID_50_">
					<use xlink:href="#SVGID_49_"  style="overflow:visible;"/>
				</clipPath>
				<path class="st22" d="M145.3,100.3c0,0-2.9-0.3-5.5,0.2c-2.3,0.4-4.3,1.1-5.5,2.7c-0.8,1-1.5,2-1.7,3.4
					c-0.2,1.1,0.1,2.9,0.1,2.9s0.4-1.4,1.2-3.5c0.5-1.2,1.2-2.2,2.7-3.3c1.3-1,4.2-1.5,4.2-1.5L145.3,100.3z"/>
			</g>
			<g>
				<defs>
					<rect id="SVGID_51_" x="51" y="100.2" width="218.8" height="42.3"/>
				</defs>
				<clipPath id="SVGID_52_">
					<use xlink:href="#SVGID_51_"  style="overflow:visible;"/>
				</clipPath>
				<path class="st23" d="M137.5,113.3c0,0,3.9,2.2,6.1,3.8c2.3,1.7,5.2,4,5.8,5.7s0.8,2.6,0.8,2.6s-1.5-3.4-5.5-6.5
					C142.6,117.4,137.5,113.3,137.5,113.3"/>
			</g>
			<g>
				<defs>
					<rect id="SVGID_53_" x="51" y="100.2" width="218.8" height="42.3"/>
				</defs>
				<clipPath id="SVGID_54_">
					<use xlink:href="#SVGID_53_"  style="overflow:visible;"/>
				</clipPath>
				<path class="st24" d="M144.7,132.1c-0.7,1.8-1.6,2.9-2.9,3.5c-1.5,0.7-4,0.7-5,0.7c-1.4-0.1-4.6-1-4.6-1s2.3,1.5,3.6,1.8
					c1.7,0.4,4.4,0.4,6.4-0.9C144.7,134.7,144.7,132.1,144.7,132.1"/>
			</g>
			<g>
				<defs>
					<rect id="SVGID_55_" x="51" y="100.2" width="218.8" height="42.3"/>
				</defs>
				<clipPath id="SVGID_56_">
					<use xlink:href="#SVGID_55_"  style="overflow:visible;"/>
				</clipPath>
				<path class="st25" d="M163.1,104.6v-4c0,0,8.4,1.3,14.1,1s15.2-1,15.2-1s-1.1,1.4-4.7,1.7c-3.6,0.3-9.8,0-14.3,0
					s-9.8-0.7-9.8-0.7L163.1,104.6z"/>
			</g>
			<g>
				<defs>
					<rect id="SVGID_57_" x="51" y="100.2" width="218.8" height="42.3"/>
				</defs>
				<clipPath id="SVGID_58_">
					<use xlink:href="#SVGID_57_"  style="overflow:visible;"/>
				</clipPath>
				<path class="st26" d="M175.9,120.1c0,4.2,0.1,9.5,0,12.7c-0.1,3.2-1.1,4.9-1.1,4.9s1.6-3.7,1.8-8.8c0.1-5.2,0.8-14.6,0-17.5
					l-0.8-2.9V120.1z"/>
			</g>
			<g>
				<defs>
					<rect id="SVGID_59_" x="51" y="100.2" width="218.8" height="42.3"/>
				</defs>
				<clipPath id="SVGID_60_">
					<use xlink:href="#SVGID_59_"  style="overflow:visible;"/>
				</clipPath>
				<path class="st27" d="M212.7,100.7h-4.2c0,0-0.1,11.1,0,15.5c0.1,4.4,0.9,15.3,0.9,17.2c0,1.9-1,4.3-1,4.3s2.8-3,2.3-6.9
					s-0.8-13.4-1.2-16.7c-0.4-3.3-0.3-12.7-0.3-12.7"/>
			</g>
			<g>
				<defs>
					<rect id="SVGID_61_" x="51" y="100.2" width="218.8" height="42.3"/>
				</defs>
				<clipPath id="SVGID_62_">
					<use xlink:href="#SVGID_61_"  style="overflow:visible;"/>
				</clipPath>
				<path class="st28" d="M248.4,101.3c0,0-4.5,0.1-7.4,0s-11.4-0.7-11.4-0.7s0.9,13.4,0.9,17.6c0,1.8-0.1,5.1-0.3,8.4
					c-0.2,4.6-0.5,9.2-0.6,10.1c-0.1,1.5-0.9,3.1-0.9,3.1s1.9-1.3,2.1-3.1c0.1-1.8,0.8-8.6,0.8-10.8c0-2.3-0.3-10.2-0.3-13.8
					s-0.6-8.8-0.6-8.8l0.1-1.2c0,0,2.6-0.1,6.6,0s7.5,0,7.5,0L248.4,101.3z"/>
			</g>
			<g>
				<defs>
					<rect id="SVGID_63_" x="51" y="100.2" width="218.8" height="42.3"/>
				</defs>
				<clipPath id="SVGID_64_">
					<use xlink:href="#SVGID_63_"  style="overflow:visible;"/>
				</clipPath>
				<path class="st29" d="M247.1,120.2c0,0-2.3,0.5-5.1,0.6s-5.4-0.3-5.4-0.3s3.1,1,5.5,1C244.5,121.6,247.1,120.2,247.1,120.2"/>
			</g>
			<g>
				<defs>
					<rect id="SVGID_65_" x="51" y="100.2" width="218.8" height="42.3"/>
				</defs>
				<clipPath id="SVGID_66_">
					<use xlink:href="#SVGID_65_"  style="overflow:visible;"/>
				</clipPath>
				<path class="st30" d="M269.8,101.1H265c0,0-0.1,12,0,16.7c0.1,4.7,0.9,16.5,0.9,18.5s-1,4.6-1,4.6s2.8-3.2,2.3-7.4
					c-0.5-4.2-0.8-14.4-1.2-17.9s-0.3-13.7-0.3-13.7"/>
			</g>
			<g>
				<defs>
					<rect id="SVGID_67_" x="51" y="100.2" width="218.8" height="42.3"/>
				</defs>
				<clipPath id="SVGID_68_">
					<use xlink:href="#SVGID_67_"  style="overflow:visible;"/>
				</clipPath>
				<path class="st31" d="M114.2,101.1h-4.9c0,0-0.2,11.1,0,15.5s0.9,15.3,0.9,17.2s-1,4.3-1,4.3s2.8-3,2.3-6.9s-0.8-13.4-1.2-16.7
					s-0.3-12.7-0.3-12.7"/>
			</g>
			<g>
				<defs>
					<rect id="SVGID_69_" x="51" y="100.2" width="218.8" height="42.3"/>
				</defs>
				<clipPath id="SVGID_70_">
					<use xlink:href="#SVGID_69_"  style="overflow:visible;"/>
				</clipPath>
				<path class="st32" d="M61.4,108c6.4,13.9,6.3,13.9,7.3,15.8c0.7,1.5,2.2,4.5,2.2,4.5s-3.2-5-4.7-8.2
					C64.6,116.9,61.4,108,61.4,108"/>
			</g>
			<g>
				<defs>
					<rect id="SVGID_71_" x="51" y="100.2" width="218.8" height="42.3"/>
				</defs>
				<clipPath id="SVGID_72_">
					<use xlink:href="#SVGID_71_"  style="overflow:visible;"/>
				</clipPath>
				<path class="st33" d="M88.2,139.2c0,0,0.7-1,0.5-3.1c0-0.2-0.1-0.6-0.1-1.1c-0.5-3.9-2.3-14.9-2.3-14.9s1.2,4.5,2,7.6
					c0.7,3,0.9,4.5,1.1,6.5C89.9,138.1,88.2,139.2,88.2,139.2"/>
			</g>
		</g>
	</g>
</g>
<g>
	<g>
		<defs>
			<path id="SVGID_73_" d="M2.9,75.6H35v-0.2L161.5,2.8L288,75.4l0,0h31.9v156H288v-0.1l-126.5,72.8L35,231.4v-0.2H2.9V75.6z
				 M34.7,72.7H2.9H0v161.4h2.9h31.9l126.7,72.8L288,234.3v0h34.7v-0.5v-2.4v-156v-2.8h-2.9H288L162.1,0.3L161.5,0L34.7,72.7z"/>
		</defs>
		<clipPath id="SVGID_74_">
			<use xlink:href="#SVGID_73_"  style="overflow:visible;"/>
		</clipPath>
		
			<linearGradient id="SVGID_75_" gradientUnits="userSpaceOnUse" x1="-126.1971" y1="-266.9472" x2="-125.1971" y2="-266.9472" gradientTransform="matrix(322.726 0 0 322.726 40727.0859 86304.2578)">
			<stop  offset="0" style="stop-color:#A1936A"/>
			<stop  offset="0.386" style="stop-color:#E5D1AB"/>
			<stop  offset="1" style="stop-color:#A1936A"/>
		</linearGradient>
		<rect class="st34" width="322.7" height="306.9"/>
	</g>
</g>
<path class="st35" d="M156.1,36.8c0-0.2,0.1-0.4,0.2-0.6l0,0l0.1-0.3c0.1-0.3,0.2-0.6,0.4-0.9c0.1-0.1,0.1-0.2,0.2-0.3l0.5,0.3
	l-0.5-0.3c0.1-0.1,0.1-0.2,0.1-0.2c-0.1,0-0.3,0-0.4,0c-2.7,0-4.9-1.1-5.5-1.5l0,0l-1.5-0.9l1.5-0.9c0.2-0.1,1.1-0.6,2.3-1
	c0.3-0.1,0.6-0.2,0.9-0.2l0,0l0.1,0c-1.1-1-2-2.2-2.8-3.5c-0.6-1-0.9-1.9-1-2.1l-0.6-1.6l1.7,0.2l0,0c0.2,0,1.1,0.2,2.2,0.6
	c1.7,0.6,3.2,1.4,4.5,2.4c0.1,0.1,0.2,0.2,0.4,0.3c-0.1-0.6-0.1-1.3-0.1-1.9c0-3.9,1.6-7,2-7.5l0.9-1.6l0.9,1.6l0,0
	c0.3,0.6,2,3.6,2,7.5c0,0.6-0.1,1.3-0.1,1.9c0.1-0.1,0.2-0.2,0.4-0.3c1.2-1,2.7-1.9,4.5-2.4c1.1-0.4,2-0.5,2.2-0.6l1.7-0.2l-0.6,1.6
	l0,0c-0.1,0.3-0.4,1.1-1,2.1c-0.8,1.4-1.7,2.6-2.8,3.5l0,0l0,0c1.7,0.4,2.9,1,3.2,1.2l1.5,0.9l-1.5,0.9h0c-0.6,0.4-2.8,1.5-5.5,1.5
	c-0.1,0-0.3,0-0.4,0c0.1,0.1,0.1,0.2,0.1,0.2c0.1,0.2,0.2,0.3,0.2,0.4l0,0c0.4,0.8,0.6,1.4,0.6,1.7l0,0v0l0.4,1.8l-1.8-0.5h0
	c-0.5-0.2-2.1-0.8-3.4-2.2c-0.3-0.3-0.5-0.6-0.7-0.9c-0.2,0.3-0.5,0.6-0.7,0.9c-1.3,1.4-3,2-3.4,2.2h0l-1.7,0.5L156.1,36.8z"/>
<g>
	<g>
		<defs>
			<path id="SVGID_76_" d="M160.5,24.4c0-1.4,0.3-2.6,0.6-3.6c-0.1,0.6-0.2,1.2-0.2,1.9c0,1.6,0.5,3,0.8,3.8
				c0.1-0.2,0.2-0.4,0.3-0.7c0.3-0.8,0.5-1.9,0.5-3c0-0.7-0.1-1.3-0.2-1.9c0.3,1,0.6,2.3,0.6,3.6c0,1.6-0.4,3.1-0.8,4.1
				c-0.1,0.4-0.3,0.7-0.4,1C161.2,28.5,160.5,26.6,160.5,24.4 M161.2,17.1c0,0-1.9,3.2-1.9,7.3c0,1.2,0.2,2.2,0.4,3.2
				c0.2,0.8,0.5,1.7,0.8,2.5c0.4,1.1,0.7,1.6,0.7,1.6s-0.3,0-0.9-0.1c-0.7-0.1-2.1-0.5-3.7-1.7c-1.5-1.2-2.2-2.9-2.2-2.9
				s1.3,1.3,2.8,2.2c1.5,1,2.5,1.1,2.5,1.1c-0.1-0.5-0.6-1.4-1.1-2.1s-1.3-1.5-1.3-1.5s0.8,0.5,1.1,0.7s0.8,0.6,0.8,0.6
				s-0.3-0.8-0.4-1.1c-0.2-0.1-0.3-0.3-0.5-0.5c-1.4-1.2-3-1.9-4.3-2.3c-1.2-0.4-2.1-0.5-2.1-0.5l-0.8-0.1l0.2,0.7
				c0,0,0.3,0.9,0.9,2s1.6,2.6,3.1,3.8s3,1.9,4.3,2.3c0.1,0,0.2,0.1,0.4,0.1c-0.9,0.3-2,0.6-3.2,0.6c-0.8,0-1.6-0.1-2.3-0.3
				c0.2,0,0.5,0.1,0.7,0.1c0.8,0,1.6-0.1,2.1-0.3c0.2-0.1,0.4-0.1,0.5-0.2c-0.5-0.3-1.5-0.7-2.6-0.7c-0.2,0-0.3,0-0.5,0
				c0.5-0.1,1.1-0.2,1.6-0.2c-0.5-0.2-0.9-0.5-1.4-0.8c-2,0.4-3.4,1.2-3.4,1.2l-0.7,0.4l0.7,0.4c0,0,2.3,1.4,5.2,1.4
				c1.8,0,3.4-0.5,4.3-0.9c-0.2,0.6-0.6,1.3-1.2,1.9c-0.6,0.6-1.3,1.1-1.9,1.4c0.2-0.6,0.6-1.3,1.2-2c0.1-0.1,0.1-0.1,0.2-0.2
				c-0.4,0.1-0.9,0.2-1.5,0.3c-0.9,1.3-1.2,2.6-1.2,2.6l-0.2,0.8l0.8-0.2c0,0,1.8-0.5,3.2-2.1c0.5-0.5,0.9-1.1,1.1-1.7
				c0.3,0.5,0.6,1.1,1.1,1.7c1.4,1.5,3.2,2,3.2,2.1l0.8,0.2l-0.2-0.8c0,0-0.3-1.3-1.2-2.6c-0.6-0.1-1.1-0.2-1.5-0.3
				c0.1,0.1,0.1,0.1,0.2,0.2c0.6,0.6,1,1.4,1.2,2c-0.6-0.3-1.3-0.7-1.9-1.4c-0.6-0.6-1-1.3-1.2-1.9c0.9,0.4,2.5,0.9,4.3,0.9
				c2.9,0,5.2-1.4,5.2-1.4l0.7-0.4l-0.7-0.4c0,0-1.4-0.9-3.4-1.2c-0.4,0.3-0.9,0.6-1.4,0.8c0.6,0,1.1,0.1,1.6,0.2
				c-0.2,0-0.3,0-0.5,0c-1.1,0-2.1,0.5-2.6,0.7c0.1,0.1,0.3,0.1,0.5,0.2c0.6,0.2,1.3,0.4,2.1,0.3c0.2,0,0.5,0,0.7-0.1
				c-0.7,0.2-1.5,0.3-2.3,0.3c-1.2,0-2.4-0.3-3.2-0.6c0.1,0,0.2-0.1,0.4-0.1c1.2-0.4,2.8-1.1,4.3-2.3s2.4-2.6,3.1-3.8
				c0.6-1.1,0.9-2,0.9-2l0.2-0.7l-0.8,0.1c0,0-0.9,0.1-2.1,0.5c-1.2,0.4-2.8,1.1-4.3,2.3c-0.2,0.1-0.3,0.3-0.5,0.4
				c-0.1,0.3-0.4,1.1-0.4,1.1s0.4-0.4,0.8-0.6c0.3-0.2,1.1-0.7,1.1-0.7s-0.9,0.8-1.3,1.5s-0.9,1.5-1.1,2.1c0,0,0.9-0.1,2.5-1.1
				c1.5-0.9,2.8-2.2,2.8-2.2s-0.7,1.7-2.2,2.9c-1.6,1.3-2.9,1.6-3.7,1.7c-0.6,0.1-0.9,0.1-0.9,0.1s0.2-0.5,0.7-1.6
				c0.2-0.6,0.5-1.4,0.7-2c0.3-1.1,0.5-2.3,0.5-3.6c0-4-1.9-7.2-1.9-7.3l-0.4-0.7L161.2,17.1z"/>
		</defs>
		<clipPath id="SVGID_77_">
			<use xlink:href="#SVGID_76_"  style="overflow:visible;"/>
		</clipPath>
		
			<linearGradient id="SVGID_78_" gradientUnits="userSpaceOnUse" x1="-124.1158" y1="-271.1582" x2="-123.1158" y2="-271.1582" gradientTransform="matrix(19.8709 -11.4725 11.4725 19.8709 5728.4863 3997.2917)">
			<stop  offset="0" style="stop-color:#9F936D"/>
			<stop  offset="0.386" style="stop-color:#DECDAA"/>
			<stop  offset="1" style="stop-color:#9F936D"/>
		</linearGradient>
		<polygon class="st36" points="141.5,21.8 167.1,7 181.8,32.5 156.2,47.2 		"/>
	</g>
</g>
</svg>
