<?xml version="1.0" encoding="utf-8"?>
<!-- Generator: Adobe Illustrator 23.0.4, SVG Export Plug-In . SVG Version: 6.00 Build 0)  -->
<svg version="1.1" id="Layer_1" xmlns="http://www.w3.org/2000/svg" xmlns:xlink="http://www.w3.org/1999/xlink" x="0px" y="0px"
	 viewBox="0 0 235.14 235.14" style="enable-background:new 0 0 235.14 235.14;" xml:space="preserve">
<style type="text/css">
	.st0{fill:url(#SVGID_1_);}
	.st1{opacity:0.5;}
	.st2{fill:#F6F6F6;}
</style>
<g>
	<linearGradient id="SVGID_1_" gradientUnits="userSpaceOnUse" x1="15.7339" y1="176.3616" x2="219.4022" y2="58.7737">
		<stop  offset="0" style="stop-color:#AA9A6D"/>
		<stop  offset="0.4" style="stop-color:#E3D2AE"/>
		<stop  offset="1" style="stop-color:#AA9A6D"/>
	</linearGradient>
	<circle class="st0" cx="117.57" cy="117.57" r="117.57"/>
	<g class="st1">
		<g>
			<path class="st2" d="M48.32,37.69c1.16,0.01,2.33-0.01,3.5-0.02c0.01-1.42,0.02-2.84,0.01-4.25c0-0.32,0-0.65,0-0.97
				c-2.16,1.67-4.26,3.42-6.28,5.25C46.47,37.7,47.4,37.7,48.32,37.69z"/>
		</g>
		<g>
			<path class="st2" d="M186.81,197.45c-1.16-0.01-2.33,0.01-3.49,0.02c0,1.42-0.02,2.83-0.01,4.25c0,0.32,0,0.64,0,0.97
				c2.16-1.67,4.26-3.42,6.28-5.25C188.66,197.43,187.74,197.43,186.81,197.45z"/>
		</g>
		<g>
			<path class="st2" d="M183.32,37.67c1.17,0.01,2.33,0.03,3.49,0.02c0.93,0.01,1.85,0.01,2.77,0.01c-2.02-1.83-4.12-3.58-6.28-5.25
				c0,0.32,0,0.65,0,0.97C183.3,34.84,183.32,36.25,183.32,37.67z"/>
		</g>
		<g>
			<path class="st2" d="M51.82,197.46c-1.17-0.01-2.34-0.03-3.5-0.02c-0.92-0.02-1.85-0.02-2.77-0.01c2.03,1.83,4.12,3.58,6.28,5.25
				c0-0.32,0-0.65,0-0.97C51.84,200.3,51.83,198.88,51.82,197.46z"/>
		</g>
		<g>
			<path class="st2" d="M56.52,37.52c0.07,2,0.09,4.02,0.14,6.04c-1.67-0.08-3.33-0.1-4.97-0.17c-2.78-0.07-5.53-0.26-8.26-0.22
				c-1.21,0.03-2.4,0.06-3.6,0.08c-1.23,1.29-2.43,2.6-3.59,3.94c2.37,0,4.74,0.01,7.15,0.01c2.7,0.03,5.41,0.29,8.15,0.42
				c2.74,0.2,5.5,0.23,8.27,0.63c0.26,0.03,0.52,0.06,0.78,0.09c-0.03-0.32-0.05-0.63-0.07-0.95c-0.33-3.37-0.36-6.73-0.53-10.05
				c-0.11-3.33-0.32-6.63-0.34-9.91c0-0.17,0-0.34,0-0.51c-1.12,0.72-2.23,1.46-3.32,2.22C56.36,31.92,56.48,34.71,56.52,37.52z"/>
		</g>
		<g>
			<path class="st2" d="M178.62,197.61c-0.07-2-0.09-4.02-0.15-6.05c1.67,0.08,3.32,0.1,4.97,0.18c2.78,0.07,5.53,0.26,8.26,0.22
				c1.21-0.03,2.39-0.05,3.59-0.08c1.23-1.29,2.43-2.6,3.59-3.94c-2.37,0-4.75,0-7.15-0.01c-2.7-0.03-5.42-0.29-8.15-0.42
				c-2.74-0.2-5.5-0.23-8.27-0.63c-0.26-0.03-0.52-0.06-0.78-0.09c0.02,0.32,0.04,0.63,0.07,0.94c0.33,3.37,0.36,6.73,0.52,10.06
				c0.11,3.33,0.32,6.63,0.34,9.91c0,0.17,0,0.34,0,0.5c1.12-0.72,2.22-1.46,3.32-2.22C178.77,203.21,178.66,200.42,178.62,197.61z"
				/>
		</g>
		<g>
			<path class="st2" d="M183.59,47.62c2.74-0.13,5.46-0.4,8.15-0.42c2.4,0,4.78-0.01,7.15-0.01c-1.16-1.34-2.36-2.66-3.59-3.94
				c-1.2-0.03-2.38-0.05-3.59-0.08c-2.73-0.04-5.48,0.15-8.26,0.22c-1.65,0.08-3.31,0.1-4.97,0.17c0.06-2.02,0.08-4.04,0.15-6.04
				c0.05-2.81,0.16-5.6,0.18-8.37c-1.09-0.76-2.2-1.5-3.32-2.22c0,0.17,0,0.34,0,0.51c-0.02,3.28-0.24,6.58-0.34,9.91
				c-0.16,3.33-0.19,6.69-0.52,10.05c-0.03,0.31-0.05,0.63-0.07,0.95c0.26-0.03,0.52-0.06,0.78-0.09
				C178.09,47.86,180.85,47.82,183.59,47.62z"/>
		</g>
		<g>
			<path class="st2" d="M51.55,187.51c-2.74,0.13-5.46,0.39-8.15,0.42c-2.41,0-4.79,0-7.15,0.01c1.16,1.34,2.36,2.66,3.59,3.94
				c1.2,0.03,2.39,0.06,3.6,0.08c2.73,0.04,5.48-0.15,8.26-0.22c1.64-0.08,3.3-0.1,4.97-0.18c-0.06,2.03-0.08,4.05-0.14,6.05
				c-0.05,2.81-0.16,5.59-0.18,8.37c1.09,0.76,2.2,1.5,3.32,2.22c0-0.17,0-0.34,0-0.5c0.02-3.28,0.23-6.58,0.34-9.91
				c0.16-3.33,0.2-6.69,0.53-10.06c0.02-0.31,0.04-0.63,0.07-0.94c-0.26,0.03-0.52,0.06-0.78,0.09
				C57.05,187.28,54.29,187.31,51.55,187.51z"/>
		</g>
		<g>
			<path class="st2" d="M64.25,31.13c0.11,3.32,0.41,6.65,0.61,10.01c0.26,3.36,0.38,6.77,0.8,10.16c0.13,1.22,0.26,2.44,0.39,3.67
				c-1.01-0.16-2.02-0.32-3.02-0.47c-2.79-0.51-5.59-0.66-8.36-0.97c-2.77-0.24-5.51-0.62-8.24-0.75c-2.73-0.11-5.44-0.22-8.12-0.33
				c-1.34-0.04-2.67-0.14-4.01-0.13c-0.75,0.02-1.5,0.03-2.25,0.05c-0.92,1.21-1.82,2.43-2.69,3.68c0.33,0,0.65,0,0.97,0
				c1.3,0.01,2.61,0.01,3.92,0.02c1.31,0.02,2.63,0.15,3.95,0.23c2.65,0.17,5.32,0.34,8.01,0.52c2.7,0.19,5.39,0.63,8.13,0.94
				c2.72,0.37,5.48,0.58,8.24,1.16c2.61,0.47,5.24,0.95,7.89,1.43c-0.4-3.21-0.79-6.41-1.18-9.58c-0.47-3.34-0.64-6.7-0.95-10.01
				c-0.25-3.32-0.61-6.6-0.77-9.87c-0.12-2.8-0.24-5.58-0.37-8.34c-1.05,0.56-2.1,1.13-3.14,1.73
				C64.13,26.54,64.19,28.82,64.25,31.13z"/>
		</g>
		<g>
			<path class="st2" d="M170.89,204.01c-0.11-3.32-0.41-6.65-0.62-10.01c-0.25-3.36-0.38-6.77-0.8-10.16
				c-0.13-1.22-0.26-2.45-0.39-3.67c1.01,0.16,2.02,0.32,3.02,0.47c2.79,0.52,5.6,0.67,8.36,0.97c2.77,0.25,5.51,0.62,8.24,0.75
				c2.73,0.11,5.44,0.22,8.12,0.33c1.34,0.04,2.68,0.14,4.01,0.13c0.76-0.01,1.5-0.03,2.26-0.04c0.92-1.21,1.82-2.43,2.69-3.68
				c-0.33,0-0.65,0-0.97,0c-1.3,0-2.6,0-3.92-0.01c-1.31-0.03-2.63-0.15-3.95-0.23c-2.65-0.17-5.32-0.35-8.01-0.52
				c-2.7-0.2-5.39-0.63-8.12-0.94c-2.72-0.37-5.49-0.59-8.23-1.16c-2.61-0.47-5.24-0.95-7.89-1.43c0.4,3.22,0.79,6.41,1.18,9.58
				c0.47,3.34,0.64,6.7,0.95,10.01c0.25,3.32,0.61,6.6,0.77,9.87c0.12,2.8,0.25,5.58,0.37,8.34c1.06-0.56,2.1-1.13,3.14-1.73
				C171.01,208.59,170.95,206.31,170.89,204.01z"/>
		</g>
		<g>
			<path class="st2" d="M180.79,57.75c2.73-0.31,5.43-0.74,8.12-0.94c2.69-0.18,5.37-0.35,8.01-0.52c1.32-0.07,2.64-0.2,3.95-0.23
				c1.32,0,2.62-0.01,3.92-0.02c0.33,0,0.65,0,0.97,0c-0.87-1.25-1.77-2.47-2.69-3.68c-0.75-0.02-1.5-0.03-2.26-0.05
				c-1.33-0.01-2.66,0.09-4.01,0.13c-2.68,0.11-5.39,0.22-8.12,0.33c-2.73,0.13-5.47,0.5-8.24,0.75c-2.76,0.31-5.57,0.46-8.36,0.97
				c-1,0.16-2.01,0.31-3.02,0.47c0.13-1.23,0.26-2.45,0.39-3.67c0.42-3.39,0.54-6.8,0.8-10.16c0.2-3.37,0.51-6.7,0.62-10.01
				c0.06-2.31,0.13-4.58,0.19-6.87c-1.03-0.59-2.08-1.17-3.14-1.73c-0.12,2.76-0.24,5.54-0.37,8.34c-0.16,3.27-0.52,6.55-0.77,9.87
				c-0.31,3.31-0.48,6.67-0.95,10.01c-0.39,3.17-0.78,6.37-1.18,9.58c2.65-0.48,5.27-0.96,7.89-1.43
				C175.3,58.33,178.07,58.12,180.79,57.75z"/>
		</g>
		<g>
			<path class="st2" d="M54.35,177.39c-2.73,0.31-5.43,0.74-8.13,0.94c-2.69,0.17-5.37,0.34-8.01,0.52
				c-1.32,0.07-2.64,0.2-3.95,0.23c-1.32,0.01-2.62,0.01-3.92,0.01c-0.33,0-0.65,0-0.98,0c0.87,1.25,1.77,2.47,2.69,3.68
				c0.75,0.01,1.5,0.03,2.25,0.04c1.33,0.01,2.67-0.09,4.01-0.13c2.68-0.11,5.39-0.22,8.12-0.33c2.73-0.13,5.47-0.51,8.24-0.75
				c2.76-0.3,5.56-0.45,8.36-0.97c1-0.15,2.01-0.31,3.02-0.47c-0.13,1.23-0.26,2.45-0.39,3.67c-0.42,3.39-0.54,6.8-0.8,10.16
				c-0.2,3.36-0.5,6.69-0.61,10.01c-0.06,2.31-0.13,4.59-0.19,6.87c1.03,0.59,2.08,1.17,3.14,1.73c0.12-2.76,0.24-5.54,0.37-8.34
				c0.16-3.27,0.52-6.55,0.77-9.87c0.31-3.31,0.48-6.66,0.95-10.01c0.39-3.17,0.78-6.36,1.18-9.58c-2.65,0.48-5.28,0.96-7.89,1.43
				C59.83,176.8,57.07,177.02,54.35,177.39z"/>
		</g>
		<g>
			<path class="st2" d="M71.62,24.43c0.23,3.25,0.46,6.53,0.69,9.84c0.25,3.31,0.7,6.61,1.05,9.96c0.39,3.34,0.66,6.73,1.23,10.09
				c0.5,3.37,1.02,6.77,1.52,10.2l0.39,2.57l0.15,0.76l-0.63-0.17l-2.12-0.47c-2.82-0.63-5.62-1.25-8.39-1.86
				c-2.76-0.69-5.56-1.02-8.31-1.5c-2.75-0.42-5.48-0.96-8.2-1.27c-2.72-0.28-5.43-0.56-8.09-0.84c-1.34-0.12-2.67-0.31-4-0.38
				c-1.33-0.06-2.65-0.12-3.98-0.18c-2.28-0.1-4.53-0.19-6.77-0.29c-0.7,1.12-1.38,2.26-2.04,3.4c0.31,0,0.62,0,0.93,0.01
				c2.55,0.17,5.12,0.35,7.73,0.53c1.3,0.09,2.61,0.18,3.91,0.26c1.32,0.11,2.62,0.32,3.94,0.48c2.64,0.34,5.3,0.68,7.98,1.03
				c2.68,0.37,5.36,0.97,8.08,1.45c2.7,0.54,5.45,0.93,8.17,1.68c2.73,0.68,5.48,1.36,8.25,2.04l2.08,0.51l2.06,0.63
				c1.38,0.42,2.76,0.84,4.16,1.27c0.19,0.05,0.37,0.11,0.55,0.16c-0.04-0.22-0.08-0.44-0.13-0.66c-0.35-1.69-0.7-3.37-1.04-5.05
				l-0.52-2.51l-0.42-2.53c-0.56-3.37-1.13-6.71-1.68-10.02c-0.62-3.31-0.93-6.64-1.38-9.93c-0.4-3.3-0.9-6.55-1.2-9.81
				c-0.29-3.26-0.57-6.49-0.84-9.7c-0.13-1.6-0.31-3.2-0.39-4.79c0-0.08-0.01-0.17-0.01-0.25c-1.01,0.44-2.02,0.9-3.01,1.37
				C71.42,21.77,71.53,23.09,71.62,24.43z"/>
		</g>
		<g>
			<path class="st2" d="M163.52,210.71c-0.23-3.25-0.46-6.54-0.7-9.84c-0.25-3.3-0.7-6.61-1.04-9.96c-0.4-3.34-0.67-6.73-1.24-10.09
				c-0.5-3.37-1.02-6.77-1.53-10.2l-0.38-2.57l-0.15-0.76l0.63,0.17l2.12,0.47c2.82,0.62,5.62,1.24,8.39,1.86
				c2.76,0.69,5.56,1.02,8.31,1.5c2.75,0.42,5.47,0.97,8.2,1.27c2.72,0.28,5.42,0.57,8.09,0.84c1.34,0.13,2.67,0.31,3.99,0.39
				c1.33,0.06,2.65,0.12,3.97,0.17c2.28,0.1,4.53,0.2,6.77,0.29c0.7-1.12,1.38-2.26,2.04-3.41c-0.31,0-0.62,0-0.93-0.01
				c-2.55-0.17-5.12-0.34-7.73-0.52c-1.3-0.08-2.6-0.18-3.92-0.26c-1.31-0.11-2.62-0.32-3.94-0.48c-2.64-0.34-5.3-0.68-7.98-1.03
				c-2.68-0.36-5.36-0.97-8.07-1.45c-2.71-0.54-5.45-0.93-8.17-1.68c-2.73-0.68-5.48-1.36-8.25-2.04l-2.08-0.52l-2.07-0.63
				c-1.38-0.42-2.76-0.84-4.15-1.27c-0.19-0.05-0.37-0.1-0.54-0.16c0.04,0.22,0.09,0.44,0.13,0.67c0.34,1.69,0.69,3.38,1.04,5.05
				l0.52,2.51l0.42,2.53c0.56,3.36,1.12,6.71,1.68,10.03c0.62,3.31,0.94,6.64,1.38,9.93c0.4,3.3,0.9,6.55,1.2,9.81
				c0.28,3.26,0.57,6.49,0.84,9.7c0.13,1.61,0.31,3.2,0.4,4.79c0,0.08,0.01,0.17,0.01,0.25c1.01-0.44,2.02-0.9,3.01-1.37
				C163.72,213.37,163.61,212.04,163.52,210.71z"/>
		</g>
		<g>
			<path class="st2" d="M154.85,66.09l-0.52,2.51c-0.34,1.68-0.69,3.36-1.04,5.05c-0.05,0.22-0.09,0.45-0.13,0.66
				c0.18-0.05,0.36-0.11,0.54-0.16c1.39-0.42,2.77-0.85,4.15-1.27l2.07-0.63l2.08-0.51c2.77-0.68,5.52-1.36,8.25-2.04
				c2.72-0.75,5.46-1.14,8.17-1.68c2.71-0.48,5.39-1.09,8.07-1.45c2.68-0.35,5.34-0.69,7.98-1.03c1.32-0.16,2.63-0.37,3.94-0.48
				c1.31-0.09,2.62-0.18,3.92-0.26c2.6-0.18,5.18-0.35,7.73-0.53c0.31,0,0.62,0,0.93-0.01c-0.66-1.15-1.34-2.28-2.04-3.4
				c-2.24,0.1-4.49,0.19-6.77,0.29c-1.32,0.06-2.64,0.12-3.97,0.18c-1.33,0.08-2.66,0.26-3.99,0.38c-2.68,0.28-5.38,0.56-8.09,0.84
				c-2.72,0.31-5.44,0.85-8.2,1.27c-2.75,0.49-5.54,0.81-8.31,1.5c-2.77,0.62-5.57,1.24-8.39,1.86l-2.12,0.47l-0.63,0.17l0.15-0.76
				l0.38-2.57c0.51-3.42,1.03-6.82,1.53-10.2c0.57-3.36,0.84-6.75,1.24-10.09c0.35-3.35,0.79-6.65,1.04-9.96
				c0.23-3.31,0.47-6.59,0.7-9.84c0.08-1.34,0.19-2.66,0.27-3.98c-0.99-0.47-2-0.93-3.01-1.37c0,0.08-0.01,0.16-0.01,0.25
				c-0.09,1.59-0.26,3.19-0.4,4.79c-0.28,3.2-0.56,6.44-0.84,9.7c-0.3,3.26-0.8,6.51-1.2,9.81c-0.44,3.29-0.76,6.62-1.38,9.93
				c-0.56,3.32-1.12,6.66-1.68,10.02L154.85,66.09z"/>
		</g>
		<g>
			<path class="st2" d="M80.28,169.04l0.52-2.51c0.35-1.67,0.7-3.36,1.04-5.05c0.05-0.22,0.09-0.45,0.13-0.67
				c-0.18,0.05-0.36,0.11-0.55,0.16c-1.39,0.43-2.77,0.85-4.16,1.27l-2.06,0.63l-2.08,0.52c-2.77,0.68-5.52,1.36-8.25,2.04
				c-2.72,0.75-5.47,1.14-8.17,1.68c-2.71,0.48-5.39,1.08-8.08,1.45c-2.68,0.35-5.34,0.69-7.98,1.03c-1.32,0.15-2.63,0.37-3.94,0.48
				c-1.31,0.09-2.61,0.18-3.91,0.26c-2.6,0.18-5.18,0.35-7.73,0.52c-0.31,0-0.62,0-0.93,0.01c0.66,1.15,1.34,2.28,2.04,3.41
				c2.24-0.1,4.5-0.2,6.78-0.29c1.32-0.06,2.64-0.12,3.98-0.17c1.33-0.07,2.65-0.26,4-0.39c2.67-0.28,5.38-0.56,8.09-0.84
				c2.72-0.3,5.44-0.85,8.2-1.27c2.75-0.48,5.54-0.81,8.31-1.5c2.77-0.62,5.57-1.24,8.39-1.86l2.12-0.47l0.63-0.17l-0.15,0.76
				l-0.39,2.57c-0.51,3.42-1.02,6.83-1.52,10.2c-0.57,3.36-0.84,6.75-1.23,10.09c-0.36,3.35-0.8,6.65-1.05,9.96
				c-0.23,3.31-0.46,6.59-0.69,9.84c-0.09,1.33-0.19,2.66-0.27,3.98c0.99,0.47,2,0.93,3.01,1.37c0-0.08,0.01-0.17,0.01-0.25
				c0.09-1.59,0.26-3.18,0.39-4.79c0.28-3.2,0.56-6.44,0.84-9.7c0.3-3.26,0.8-6.51,1.2-9.81c0.45-3.28,0.77-6.62,1.38-9.93
				c0.55-3.32,1.12-6.66,1.68-10.03L80.28,169.04z"/>
		</g>
		<g>
			<path class="st2" d="M78.5,17.47c0.12,1.6,0.23,3.2,0.35,4.81c0.13,1.61,0.35,3.21,0.52,4.83c0.37,3.23,0.74,6.49,1.12,9.78
				c0.4,3.28,0.98,6.56,1.48,9.88c0.54,3.31,0.96,6.68,1.67,10c0.65,3.34,1.3,6.7,1.97,10.08l0.49,2.54l0.59,2.52
				c0.4,1.68,0.79,3.37,1.19,5.07c0.48,2.1,0.97,4.21,1.49,6.31c-1.74-0.63-3.47-1.24-5.19-1.81c-1.4-0.48-2.79-0.97-4.18-1.45
				l-2.08-0.72l-2.1-0.6c-2.78-0.8-5.55-1.6-8.3-2.39c-2.73-0.86-5.51-1.37-8.23-2.03c-2.73-0.59-5.42-1.31-8.13-1.79
				c-2.71-0.45-5.39-0.91-8.05-1.35c-1.33-0.21-2.65-0.48-3.97-0.64c-1.33-0.14-2.65-0.28-3.96-0.42c-2.62-0.28-5.22-0.56-7.8-0.84
				c-1.95-0.09-3.87-0.18-5.79-0.27c-0.54,1.06-1.06,2.13-1.56,3.21c2.36,0.17,4.74,0.34,7.14,0.51c2.53,0.34,5.1,0.67,7.69,1.02
				c1.3,0.17,2.6,0.34,3.9,0.51c1.3,0.19,2.6,0.49,3.91,0.73c2.62,0.51,5.26,1.02,7.93,1.53c2.66,0.54,5.31,1.31,8,1.96
				c2.68,0.72,5.41,1.28,8.09,2.2c2.7,0.85,5.42,1.7,8.15,2.56l2.05,0.64l2.04,0.76c1.36,0.51,2.72,1.02,4.09,1.53
				c4.3,1.54,8.61,3.28,12.91,5.16c-1.54-5.23-2.97-10.46-4.24-15.69c-0.42-1.67-0.84-3.32-1.26-4.98l-0.63-2.48l-0.53-2.5
				c-0.71-3.32-1.41-6.63-2.11-9.9c-0.76-3.26-1.23-6.57-1.81-9.83c-0.54-3.27-1.18-6.49-1.62-9.72c-0.42-3.24-0.84-6.45-1.26-9.63
				c-0.2-1.59-0.44-3.17-0.6-4.76c-0.14-1.58-0.29-3.16-0.42-4.74c-0.02-0.28-0.05-0.55-0.07-0.82c-0.98,0.35-1.95,0.71-2.92,1.09
				C78.49,17.39,78.49,17.43,78.5,17.47z"/>
		</g>
		<g>
			<path class="st2" d="M156.64,217.66c-0.12-1.59-0.24-3.2-0.36-4.81c-0.13-1.61-0.35-3.2-0.52-4.82
				c-0.37-3.23-0.74-6.49-1.12-9.77c-0.39-3.29-0.98-6.56-1.48-9.89c-0.54-3.31-0.96-6.68-1.67-10c-0.65-3.34-1.31-6.7-1.97-10.08
				l-0.49-2.55l-0.59-2.53c-0.39-1.68-0.79-3.37-1.19-5.07c-0.47-2.11-0.97-4.21-1.49-6.32c1.74,0.63,3.46,1.23,5.19,1.82
				c1.4,0.48,2.79,0.97,4.17,1.45l2.08,0.72l2.09,0.6c2.78,0.8,5.55,1.6,8.3,2.39c2.73,0.87,5.5,1.37,8.23,2.03
				c2.74,0.59,5.43,1.31,8.13,1.79c2.7,0.45,5.39,0.91,8.05,1.36c1.33,0.21,2.65,0.47,3.97,0.63c1.33,0.15,2.64,0.28,3.96,0.43
				c2.62,0.28,5.23,0.56,7.8,0.84c1.95,0.09,3.87,0.18,5.78,0.27c0.54-1.06,1.06-2.14,1.56-3.22c-2.36-0.16-4.73-0.33-7.14-0.5
				c-2.54-0.33-5.1-0.67-7.69-1.01c-1.3-0.17-2.6-0.34-3.9-0.51c-1.3-0.19-2.6-0.49-3.91-0.73c-2.62-0.5-5.26-1.02-7.93-1.53
				c-2.66-0.54-5.31-1.32-8-1.97c-2.68-0.72-5.41-1.28-8.09-2.2c-2.7-0.84-5.41-1.7-8.15-2.56l-2.06-0.64l-2.04-0.76
				c-1.36-0.51-2.72-1.02-4.09-1.53c-4.3-1.54-8.61-3.28-12.91-5.16c1.54,5.23,2.97,10.46,4.24,15.69c0.42,1.67,0.85,3.33,1.26,4.97
				l0.63,2.48l0.53,2.5c0.71,3.32,1.41,6.62,2.11,9.9c0.76,3.26,1.23,6.58,1.81,9.83c0.54,3.27,1.18,6.49,1.62,9.72
				c0.42,3.24,0.85,6.45,1.26,9.63c0.2,1.6,0.44,3.18,0.6,4.76c0.14,1.58,0.28,3.17,0.42,4.74c0.02,0.28,0.05,0.55,0.07,0.82
				c0.98-0.35,1.96-0.71,2.92-1.09C156.65,217.74,156.65,217.7,156.64,217.66z"/>
		</g>
		<g>
			<path class="st2" d="M145.84,65.66l-0.53,2.5l-0.63,2.48c-0.42,1.65-0.84,3.31-1.26,4.98c-1.27,5.23-2.7,10.46-4.24,15.69
				c4.3-1.88,8.61-3.61,12.91-5.16c1.37-0.51,2.73-1.02,4.09-1.53l2.04-0.76l2.06-0.64c2.74-0.86,5.46-1.71,8.15-2.56
				c2.68-0.92,5.41-1.48,8.09-2.2c2.69-0.65,5.34-1.43,8-1.96c2.67-0.52,5.3-1.03,7.93-1.53c1.31-0.24,2.61-0.53,3.91-0.73
				c1.31-0.17,2.6-0.34,3.9-0.51c2.59-0.34,5.15-0.68,7.69-1.02c2.4-0.17,4.78-0.34,7.13-0.51c-0.5-1.08-1.02-2.15-1.56-3.21
				c-1.92,0.09-3.83,0.18-5.79,0.27c-2.57,0.28-5.17,0.56-7.8,0.84c-1.32,0.14-2.63,0.28-3.96,0.42c-1.33,0.16-2.64,0.43-3.97,0.64
				c-2.66,0.45-5.34,0.9-8.05,1.35c-2.71,0.48-5.4,1.2-8.13,1.79c-2.72,0.66-5.5,1.16-8.23,2.03c-2.75,0.79-5.52,1.59-8.3,2.39
				l-2.09,0.6l-2.08,0.72c-1.39,0.48-2.78,0.96-4.17,1.45c-1.73,0.57-3.46,1.18-5.19,1.81c0.52-2.1,1.02-4.21,1.49-6.31
				c0.4-1.7,0.8-3.39,1.19-5.07l0.59-2.52l0.49-2.54c0.66-3.39,1.32-6.75,1.97-10.08c0.71-3.32,1.13-6.69,1.67-10
				c0.49-3.32,1.08-6.6,1.48-9.88c0.38-3.29,0.75-6.55,1.12-9.78c0.17-1.62,0.39-3.22,0.52-4.83c0.12-1.61,0.24-3.21,0.36-4.81
				c0-0.04,0.01-0.08,0.01-0.12c-0.97-0.38-1.94-0.74-2.92-1.09c-0.02,0.28-0.05,0.55-0.07,0.82c-0.14,1.57-0.28,3.15-0.42,4.74
				c-0.16,1.59-0.41,3.17-0.6,4.76c-0.41,3.18-0.84,6.39-1.26,9.63c-0.44,3.23-1.08,6.45-1.62,9.72c-0.58,3.25-1.05,6.57-1.81,9.83
				C147.25,59.04,146.55,62.34,145.84,65.66z"/>
		</g>
		<g>
			<path class="st2" d="M89.3,169.47l0.53-2.5l0.63-2.48c0.42-1.65,0.84-3.31,1.26-4.97c1.26-5.23,2.7-10.45,4.24-15.69
				c-4.3,1.88-8.61,3.61-12.91,5.16c-1.37,0.51-2.73,1.02-4.09,1.53l-2.04,0.76l-2.05,0.64c-2.74,0.86-5.46,1.72-8.15,2.56
				c-2.68,0.92-5.41,1.48-8.09,2.2c-2.69,0.65-5.34,1.43-8,1.97c-2.66,0.51-5.31,1.03-7.93,1.53c-1.31,0.24-2.61,0.54-3.91,0.73
				c-1.31,0.17-2.6,0.34-3.9,0.51c-2.59,0.34-5.16,0.68-7.69,1.01c-2.4,0.17-4.78,0.34-7.14,0.5c0.5,1.08,1.02,2.16,1.56,3.22
				c1.92-0.09,3.84-0.18,5.79-0.27c2.57-0.27,5.17-0.55,7.8-0.84c1.31-0.14,2.63-0.28,3.96-0.43c1.32-0.16,2.64-0.43,3.97-0.63
				c2.66-0.45,5.34-0.91,8.05-1.36c2.7-0.48,5.4-1.19,8.13-1.79c2.72-0.66,5.5-1.16,8.23-2.03c2.75-0.79,5.51-1.59,8.3-2.39l2.1-0.6
				l2.08-0.72c1.39-0.48,2.78-0.97,4.18-1.45c1.72-0.58,3.46-1.18,5.19-1.82c-0.52,2.11-1.02,4.21-1.49,6.32
				c-0.39,1.69-0.79,3.39-1.19,5.07l-0.59,2.53l-0.49,2.55c-0.66,3.39-1.32,6.74-1.97,10.08c-0.71,3.32-1.13,6.69-1.67,10
				c-0.49,3.32-1.08,6.6-1.48,9.89c-0.38,3.29-0.75,6.55-1.12,9.77c-0.17,1.62-0.39,3.22-0.52,4.82c-0.12,1.62-0.23,3.22-0.35,4.81
				c0,0.04-0.01,0.08-0.01,0.12c0.97,0.38,1.94,0.74,2.92,1.09c0.02-0.28,0.05-0.55,0.07-0.82c0.14-1.57,0.28-3.15,0.42-4.74
				c0.16-1.59,0.4-3.16,0.6-4.76c0.42-3.18,0.84-6.39,1.26-9.63c0.45-3.23,1.08-6.45,1.62-9.72c0.59-3.25,1.05-6.57,1.81-9.83
				C87.89,176.1,88.59,172.79,89.3,169.47z"/>
		</g>
		<g>
			<path class="st2" d="M101.65,76.94c-0.49-1.63-0.98-3.27-1.47-4.89l-0.73-2.44l-0.64-2.46c-0.84-3.28-1.69-6.53-2.53-9.76
				c-0.89-3.21-1.5-6.49-2.23-9.7c-0.68-3.23-1.45-6.4-2.03-9.6c-0.56-3.21-1.12-6.38-1.68-9.54c-0.27-1.58-0.58-3.14-0.8-4.71
				c-0.21-1.57-0.42-3.14-0.63-4.7c-0.23-1.71-0.45-3.38-0.67-5.07c-0.95,0.27-1.9,0.55-2.85,0.85c0.19,1.6,0.37,3.18,0.56,4.79
				c0.19,1.58,0.37,3.18,0.56,4.78c0.2,1.6,0.49,3.18,0.73,4.79c0.51,3.2,1.02,6.44,1.54,9.7c0.53,3.25,1.26,6.48,1.9,9.77
				c0.68,3.27,1.24,6.61,2.1,9.88c0.79,3.29,1.59,6.6,2.4,9.95l0.6,2.51l0.7,2.48c0.47,1.66,0.94,3.32,1.41,4.99
				c2.21,8.13,4.81,16.24,7.64,24.37c-6.69-3.45-13.36-6.6-20.05-9.29c-1.37-0.57-2.74-1.14-4.11-1.71l-2.04-0.85l-2.07-0.74
				c-2.75-0.98-5.47-1.95-8.18-2.92c-2.7-1.04-5.44-1.72-8.13-2.55c-2.71-0.77-5.37-1.66-8.04-2.31c-2.68-0.63-5.34-1.25-7.98-1.87
				c-1.32-0.3-2.62-0.64-3.94-0.89c-1.32-0.22-2.63-0.45-3.93-0.68c-2.61-0.45-5.2-0.89-7.75-1.33c-2.58-0.29-5.13-0.57-7.65-0.85
				c-1.18-0.16-2.35-0.28-3.52-0.38c-0.42,1.02-0.82,2.04-1.21,3.07c1.49,0.15,2.98,0.33,4.49,0.57c2.49,0.34,5,0.68,7.54,1.02
				c2.52,0.5,5.07,1,7.64,1.5c1.28,0.25,2.58,0.51,3.87,0.76c1.29,0.27,2.58,0.65,3.88,0.97c2.59,0.67,5.2,1.35,7.84,2.04
				c2.63,0.7,5.25,1.65,7.91,2.47c2.64,0.88,5.34,1.62,7.98,2.71c2.66,1.02,5.33,2.04,8.03,3.07l2.03,0.77l2,0.89
				c1.34,0.59,2.68,1.19,4.02,1.79c10.19,4.37,20.34,9.85,30.53,15.81C109.76,101.65,105.24,89.33,101.65,76.94z"/>
		</g>
		<g>
			<path class="st2" d="M149.19,215.42c-0.18-1.58-0.36-3.18-0.55-4.78c-0.2-1.6-0.49-3.19-0.73-4.79c-0.51-3.2-1.02-6.43-1.54-9.69
				c-0.53-3.26-1.26-6.49-1.9-9.78c-0.68-3.27-1.24-6.61-2.1-9.88c-0.79-3.29-1.59-6.6-2.4-9.95l-0.61-2.51l-0.7-2.48
				c-0.47-1.66-0.94-3.32-1.41-4.98c-2.22-8.13-4.81-16.25-7.64-24.38c6.68,3.45,13.36,6.6,20.05,9.29c1.37,0.57,2.74,1.14,4.1,1.71
				l2.04,0.84l2.07,0.74c2.74,0.98,5.47,1.95,8.18,2.91c2.69,1.04,5.44,1.72,8.14,2.55c2.71,0.77,5.37,1.65,8.04,2.3
				c2.68,0.63,5.34,1.26,7.98,1.87c1.32,0.3,2.62,0.64,3.94,0.89c1.32,0.23,2.62,0.45,3.93,0.68c2.61,0.44,5.19,0.89,7.75,1.33
				c2.58,0.29,5.12,0.57,7.64,0.85c1.18,0.16,2.35,0.28,3.52,0.38c0.42-1.02,0.82-2.04,1.21-3.07c-1.49-0.15-2.98-0.32-4.48-0.57
				c-2.49-0.34-5-0.68-7.54-1.02c-2.52-0.49-5.07-1-7.64-1.5c-1.29-0.25-2.58-0.51-3.88-0.76c-1.29-0.27-2.58-0.65-3.88-0.97
				c-2.59-0.68-5.21-1.35-7.84-2.04c-2.64-0.7-5.25-1.64-7.91-2.47c-2.64-0.88-5.34-1.62-7.98-2.7c-2.66-1.02-5.34-2.04-8.03-3.08
				l-2.02-0.77l-2-0.89c-1.34-0.59-2.68-1.19-4.03-1.79c-10.19-4.37-20.34-9.86-30.53-15.82c4.9,12.38,9.42,24.7,13.01,37.09
				c0.49,1.64,0.98,3.27,1.47,4.89l0.73,2.44l0.64,2.46c0.85,3.28,1.69,6.53,2.53,9.76c0.9,3.21,1.51,6.49,2.23,9.7
				c0.68,3.23,1.45,6.4,2.03,9.6c0.56,3.21,1.12,6.39,1.67,9.54c0.27,1.58,0.58,3.14,0.81,4.71c0.21,1.57,0.42,3.15,0.63,4.7
				c0.23,1.71,0.45,3.38,0.67,5.07c0.95-0.27,1.9-0.55,2.84-0.85C149.56,218.61,149.38,217.03,149.19,215.42z"/>
		</g>
		<g>
			<path class="st2" d="M138.86,57.41c-0.83,3.23-1.68,6.48-2.53,9.76l-0.64,2.46l-0.73,2.44c-0.49,1.62-0.98,3.25-1.47,4.89
				c-3.6,12.39-8.11,24.71-13.01,37.09c10.19-5.96,20.33-11.45,30.53-15.81c1.34-0.6,2.68-1.2,4.03-1.79l2-0.89l2.02-0.77
				c2.7-1.03,5.38-2.06,8.03-3.07c2.64-1.09,5.34-1.83,7.98-2.71c2.66-0.82,5.27-1.77,7.91-2.47c2.64-0.69,5.25-1.36,7.84-2.04
				c1.3-0.32,2.59-0.7,3.88-0.97c1.3-0.25,2.59-0.51,3.88-0.76c2.57-0.51,5.12-1.01,7.64-1.5c2.54-0.34,5.05-0.68,7.54-1.02
				c1.5-0.24,3-0.42,4.48-0.57c-0.39-1.03-0.79-2.06-1.21-3.07c-1.17,0.1-2.35,0.22-3.52,0.38c-2.52,0.28-5.07,0.56-7.64,0.85
				c-2.56,0.44-5.14,0.88-7.75,1.33c-1.31,0.23-2.61,0.45-3.93,0.68c-1.32,0.25-2.62,0.59-3.94,0.89c-2.64,0.62-5.3,1.24-7.98,1.87
				c-2.68,0.65-5.34,1.54-8.04,2.31c-2.69,0.83-5.44,1.51-8.14,2.55c-2.71,0.96-5.44,1.94-8.18,2.92l-2.07,0.74l-2.04,0.85
				c-1.36,0.57-2.73,1.14-4.1,1.71c-6.69,2.69-13.37,5.84-20.05,9.29c2.83-8.13,5.43-16.24,7.64-24.37
				c0.47-1.67,0.93-3.33,1.41-4.99l0.7-2.48l0.61-2.51c0.8-3.34,1.6-6.65,2.4-9.95c0.85-3.27,1.42-6.61,2.1-9.88
				c0.63-3.29,1.36-6.52,1.9-9.77c0.52-3.26,1.03-6.49,1.54-9.7c0.25-1.61,0.54-3.19,0.73-4.79c0.19-1.6,0.37-3.2,0.55-4.78
				c0.19-1.61,0.37-3.2,0.56-4.79c-0.94-0.3-1.89-0.58-2.84-0.85c-0.22,1.69-0.45,3.36-0.67,5.07c-0.21,1.56-0.42,3.13-0.63,4.7
				c-0.23,1.58-0.54,3.14-0.81,4.71c-0.55,3.15-1.11,6.33-1.67,9.54c-0.58,3.2-1.36,6.38-2.03,9.6
				C140.37,50.92,139.76,54.2,138.86,57.41z"/>
		</g>
		<g>
			<path class="st2" d="M96.28,177.73c0.84-3.23,1.68-6.48,2.53-9.76l0.64-2.46l0.73-2.44c0.49-1.62,0.98-3.25,1.47-4.89
				c3.6-12.39,8.11-24.71,13.02-37.09c-10.19,5.96-20.33,11.45-30.53,15.82c-1.35,0.6-2.69,1.19-4.02,1.79l-2,0.89l-2.03,0.77
				c-2.7,1.03-5.37,2.06-8.03,3.08c-2.64,1.09-5.34,1.82-7.98,2.7c-2.66,0.83-5.27,1.77-7.91,2.47c-2.64,0.69-5.26,1.37-7.84,2.04
				c-1.3,0.32-2.59,0.7-3.88,0.97c-1.29,0.25-2.59,0.51-3.87,0.76c-2.57,0.5-5.12,1.01-7.64,1.5c-2.53,0.35-5.05,0.68-7.54,1.02
				c-1.5,0.24-3,0.42-4.49,0.57c0.39,1.03,0.79,2.06,1.21,3.07c1.17-0.1,2.34-0.22,3.52-0.38c2.53-0.28,5.07-0.56,7.65-0.85
				c2.55-0.44,5.14-0.88,7.75-1.33c1.3-0.23,2.61-0.45,3.93-0.68c1.32-0.25,2.62-0.59,3.94-0.89c2.64-0.62,5.3-1.24,7.98-1.87
				c2.68-0.65,5.34-1.53,8.04-2.3c2.69-0.83,5.44-1.51,8.13-2.55c2.71-0.97,5.43-1.94,8.18-2.91l2.07-0.74l2.04-0.84
				c1.36-0.57,2.73-1.14,4.11-1.71c6.69-2.69,13.37-5.84,20.05-9.29c-2.84,8.13-5.43,16.24-7.64,24.38
				c-0.47,1.66-0.94,3.33-1.41,4.98l-0.7,2.48l-0.6,2.51c-0.81,3.34-1.61,6.65-2.4,9.95c-0.85,3.27-1.42,6.61-2.1,9.88
				c-0.64,3.29-1.36,6.52-1.9,9.78c-0.52,3.26-1.03,6.49-1.54,9.69c-0.24,1.6-0.53,3.19-0.73,4.79c-0.19,1.6-0.37,3.2-0.56,4.78
				c-0.19,1.61-0.37,3.2-0.56,4.79c0.94,0.3,1.89,0.58,2.85,0.85c0.22-1.69,0.45-3.37,0.68-5.07c0.21-1.55,0.42-3.13,0.63-4.7
				c0.23-1.58,0.54-3.13,0.8-4.71c0.55-3.15,1.11-6.33,1.68-9.54c0.58-3.2,1.36-6.37,2.03-9.6
				C94.77,184.22,95.38,180.94,96.28,177.73z"/>
		</g>
		<g>
			<path class="st2" d="M30.82,148.66c2.54-0.6,5.1-1.21,7.68-1.82c1.29-0.31,2.59-0.62,3.9-0.93c1.3-0.33,2.59-0.76,3.9-1.14
				c2.6-0.78,5.24-1.57,7.89-2.37c2.65-0.82,5.27-1.87,7.93-2.81c2.65-1,5.37-1.86,8.01-3.06c2.66-1.14,5.35-2.28,8.05-3.43
				l2.03-0.87l2-0.98c1.33-0.65,2.68-1.31,4.03-1.97c7.22-3.42,14.38-7.39,21.56-11.71c-7.18-4.31-14.35-8.29-21.56-11.71
				c-1.35-0.66-2.69-1.32-4.03-1.97l-2-0.98l-2.03-0.87c-2.7-1.15-5.38-2.3-8.05-3.43c-2.64-1.21-5.36-2.06-8.01-3.06
				c-2.67-0.94-5.28-1.99-7.93-2.81c-2.65-0.8-5.28-1.59-7.89-2.37c-1.3-0.38-2.59-0.81-3.9-1.14c-1.31-0.31-2.61-0.62-3.9-0.93
				c-2.58-0.61-5.15-1.22-7.68-1.82c-2.56-0.45-5.09-0.89-7.6-1.33c-2.63-0.53-5.24-0.87-7.84-1.17c-0.32,0.98-0.63,1.98-0.93,2.97
				c2.77,0.37,5.56,0.79,8.37,1.43c2.47,0.49,4.97,0.99,7.48,1.5c2.5,0.66,5.02,1.32,7.57,1.99c1.27,0.33,2.55,0.67,3.83,1.01
				c1.28,0.36,2.55,0.82,3.83,1.22c2.56,0.84,5.14,1.68,7.75,2.53c2.6,0.87,5.17,1.98,7.78,2.97c2.61,1.05,5.27,1.96,7.86,3.21
				c2.6,1.19,5.23,2.38,7.88,3.58l1.99,0.9l1.96,1.01c1.32,0.68,2.62,1.36,3.95,2.04c4.4,2.21,8.78,4.63,13.16,7.22
				c-4.37,2.59-8.76,5.01-13.16,7.22c-1.33,0.68-2.63,1.36-3.95,2.04l-1.96,1.02l-1.99,0.9c-2.65,1.2-5.28,2.4-7.88,3.58
				c-2.6,1.25-5.26,2.16-7.86,3.21c-2.61,0.99-5.18,2.1-7.78,2.97c-2.61,0.85-5.19,1.69-7.75,2.53c-1.28,0.4-2.55,0.87-3.83,1.22
				c-1.29,0.34-2.56,0.67-3.83,1.01c-2.55,0.67-5.07,1.34-7.57,1.99c-2.52,0.5-5.01,1-7.48,1.5c-2.81,0.64-5.6,1.06-8.37,1.43
				c0.3,1,0.6,1.99,0.93,2.97c2.59-0.29,5.21-0.64,7.84-1.16C25.73,149.55,28.26,149.11,30.82,148.66z"/>
		</g>
		<g>
			<path class="st2" d="M204.32,86.48c-2.54,0.6-5.1,1.21-7.69,1.82c-1.29,0.31-2.6,0.62-3.9,0.93c-1.3,0.33-2.59,0.76-3.9,1.14
				c-2.61,0.79-5.24,1.57-7.89,2.37c-2.65,0.82-5.27,1.87-7.93,2.81c-2.65,1-5.37,1.86-8.01,3.06c-2.67,1.13-5.34,2.28-8.05,3.43
				l-2.03,0.87l-2,0.98c-1.34,0.66-2.68,1.31-4.03,1.97c-7.21,3.41-14.38,7.39-21.56,11.71c7.18,4.32,14.35,8.29,21.56,11.71
				c1.35,0.66,2.69,1.32,4.03,1.97l2,0.98l2.03,0.87c2.7,1.15,5.38,2.3,8.05,3.43c2.65,1.21,5.36,2.06,8.01,3.06
				c2.67,0.94,5.28,1.99,7.93,2.81c2.65,0.8,5.28,1.59,7.89,2.37c1.3,0.39,2.59,0.82,3.9,1.14c1.3,0.31,2.6,0.62,3.9,0.93
				c2.58,0.61,5.15,1.22,7.69,1.82c2.56,0.45,5.09,0.89,7.6,1.34c2.63,0.53,5.24,0.87,7.83,1.16c0.32-0.98,0.63-1.98,0.93-2.97
				c-2.77-0.37-5.56-0.79-8.37-1.43c-2.47-0.5-4.97-0.99-7.48-1.5c-2.5-0.65-5.02-1.32-7.57-1.99c-1.27-0.33-2.55-0.67-3.83-1.01
				c-1.28-0.35-2.55-0.81-3.83-1.22c-2.56-0.84-5.15-1.68-7.75-2.53c-2.6-0.87-5.17-1.98-7.78-2.97c-2.61-1.05-5.27-1.96-7.86-3.21
				c-2.61-1.19-5.23-2.38-7.88-3.58l-1.99-0.9l-1.96-1.02c-1.31-0.68-2.62-1.36-3.94-2.04c-4.4-2.21-8.79-4.63-13.16-7.22
				c4.37-2.59,8.76-5.01,13.16-7.22c1.33-0.68,2.63-1.37,3.94-2.04l1.96-1.01l1.99-0.9c2.65-1.21,5.28-2.4,7.88-3.58
				c2.59-1.25,5.26-2.16,7.86-3.21c2.61-0.99,5.18-2.1,7.78-2.97c2.61-0.85,5.19-1.7,7.75-2.53c1.28-0.4,2.55-0.87,3.83-1.22
				c1.28-0.34,2.56-0.67,3.83-1.01c2.55-0.67,5.07-1.33,7.57-1.99c2.52-0.5,5.02-1,7.48-1.5c2.81-0.64,5.6-1.06,8.37-1.43
				c-0.3-1-0.6-1.99-0.93-2.97c-2.59,0.29-5.21,0.64-7.83,1.17C209.41,85.58,206.88,86.03,204.32,86.48z"/>
		</g>
		<g>
			<path class="st2" d="M93.49,21.49c0.25,1.57,0.5,3.15,0.76,4.74c0.27,1.58,0.63,3.15,0.94,4.73c0.64,3.16,1.3,6.36,1.95,9.58
				c0.67,3.22,1.54,6.39,2.31,9.64c0.83,3.22,1.53,6.53,2.52,9.73c0.93,3.24,1.87,6.5,2.82,9.78l0.71,2.47l0.8,2.43
				c0.54,1.63,1.08,3.26,1.62,4.89c2.81,8.77,6.08,17.48,9.63,26.2c3.55-8.72,6.82-17.43,9.63-26.2c0.54-1.64,1.08-3.27,1.63-4.89
				l0.8-2.43l0.71-2.47c0.95-3.29,1.89-6.55,2.83-9.78c0.99-3.21,1.69-6.51,2.52-9.73c0.77-3.24,1.64-6.42,2.31-9.64
				c0.65-3.23,1.31-6.42,1.95-9.58c0.31-1.59,0.67-3.15,0.94-4.73c0.26-1.59,0.51-3.17,0.76-4.74c0.46-2.84,0.91-5.64,1.35-8.43
				c-0.93-0.23-1.87-0.44-2.81-0.64c-0.49,2.75-0.98,5.51-1.48,8.31c-0.28,1.55-0.55,3.1-0.83,4.66c-0.3,1.55-0.67,3.1-1,4.65
				c-0.69,3.11-1.38,6.25-2.08,9.42c-0.72,3.16-1.63,6.28-2.45,9.46c-0.86,3.16-1.61,6.4-2.64,9.55c-0.98,3.17-1.96,6.37-2.95,9.58
				l-0.74,2.42l-0.83,2.38c-0.56,1.59-1.12,3.19-1.68,4.79c-1.81,5.35-3.81,10.68-5.94,15.99c-2.13-5.32-4.12-10.64-5.94-15.99
				c-0.56-1.6-1.12-3.2-1.68-4.79l-0.83-2.38l-0.74-2.42c-0.99-3.22-1.97-6.41-2.95-9.58c-1.03-3.15-1.78-6.38-2.64-9.55
				c-0.82-3.18-1.73-6.3-2.44-9.46c-0.7-3.17-1.4-6.3-2.09-9.42c-0.34-1.56-0.71-3.1-1.01-4.65c-0.27-1.56-0.55-3.11-0.83-4.66
				c-0.5-2.8-0.99-5.56-1.48-8.31c-0.94,0.2-1.88,0.42-2.81,0.64C92.58,15.85,93.03,18.65,93.49,21.49z"/>
		</g>
		<g>
			<path class="st2" d="M141.66,213.64c-0.26-1.57-0.5-3.15-0.76-4.74c-0.27-1.58-0.63-3.14-0.94-4.73
				c-0.64-3.17-1.3-6.36-1.95-9.59c-0.68-3.21-1.54-6.4-2.31-9.64c-0.83-3.22-1.53-6.52-2.52-9.73c-0.94-3.24-1.88-6.5-2.83-9.78
				l-0.71-2.47l-0.8-2.43c-0.54-1.62-1.08-3.26-1.63-4.89c-2.81-8.77-6.08-17.48-9.63-26.2c-3.55,8.72-6.82,17.44-9.63,26.2
				c-0.54,1.63-1.08,3.27-1.62,4.89l-0.8,2.43l-0.71,2.47c-0.95,3.28-1.89,6.54-2.82,9.78c-0.99,3.21-1.7,6.51-2.52,9.73
				c-0.77,3.25-1.64,6.43-2.31,9.64c-0.65,3.22-1.31,6.42-1.95,9.59c-0.31,1.59-0.67,3.15-0.94,4.73c-0.25,1.59-0.51,3.17-0.76,4.74
				c-0.46,2.84-0.91,5.64-1.36,8.43c0.93,0.23,1.87,0.44,2.81,0.64c0.49-2.75,0.98-5.51,1.48-8.31c0.27-1.55,0.55-3.1,0.83-4.66
				c0.29-1.56,0.67-3.1,1.01-4.65c0.69-3.11,1.38-6.26,2.09-9.41c0.71-3.16,1.62-6.28,2.44-9.47c0.86-3.16,1.61-6.4,2.64-9.54
				c0.98-3.17,1.96-6.36,2.95-9.59l0.74-2.41l0.83-2.38c0.56-1.6,1.12-3.19,1.68-4.79c1.82-5.35,3.81-10.68,5.94-16
				c2.12,5.32,4.12,10.65,5.94,16c0.56,1.61,1.13,3.19,1.68,4.79l0.83,2.38l0.74,2.41c0.99,3.22,1.98,6.42,2.95,9.59
				c1.04,3.14,1.78,6.38,2.64,9.54c0.82,3.19,1.72,6.31,2.45,9.47c0.7,3.16,1.39,6.3,2.08,9.41c0.33,1.56,0.71,3.1,1,4.65
				c0.28,1.56,0.55,3.11,0.83,4.66c0.5,2.8,0.99,5.56,1.48,8.31c0.94-0.2,1.88-0.42,2.81-0.64
				C142.56,219.28,142.11,216.48,141.66,213.64z"/>
		</g>
		<g>
			<path class="st2" d="M31.97,139.91c2.5-0.76,5.04-1.53,7.59-2.31c1.28-0.39,2.56-0.78,3.85-1.18c1.29-0.41,2.55-0.92,3.84-1.39
				c2.57-0.95,5.16-1.9,7.77-2.87c2.61-0.98,5.17-2.21,7.8-3.31c2.6-1.16,5.28-2.19,7.87-3.56c2.61-1.3,5.24-2.62,7.89-3.94l1.99-1
				l1.96-1.1c0.99-0.56,1.98-1.12,2.98-1.68c-0.99-0.56-1.98-1.12-2.98-1.68l-1.96-1.1l-1.99-0.99c-2.65-1.32-5.28-2.64-7.89-3.94
				c-2.58-1.37-5.26-2.4-7.87-3.56c-2.63-1.11-5.19-2.33-7.8-3.32c-2.61-0.96-5.21-1.92-7.77-2.87c-1.29-0.46-2.55-0.98-3.84-1.39
				c-1.29-0.39-2.57-0.78-3.85-1.17c-2.56-0.78-5.09-1.55-7.59-2.31c-2.54-0.61-5.05-1.21-7.53-1.81c-3.74-1-7.47-1.62-11.14-2.24
				c-0.24,0.96-0.47,1.93-0.69,2.9c3.72,0.72,7.51,1.43,11.3,2.54c2.44,0.65,4.91,1.31,7.41,1.97c2.46,0.81,4.96,1.64,7.47,2.46
				c1.25,0.42,2.51,0.83,3.79,1.25c1.26,0.44,2.5,0.98,3.77,1.46c2.52,1,5.06,2.01,7.63,3.02c2.56,1.04,5.07,2.31,7.64,3.46
				c2.55,1.22,5.17,2.29,7.71,3.71c2.26,1.19,4.54,2.39,6.83,3.6c-2.29,1.21-4.57,2.41-6.83,3.6c-2.53,1.42-5.15,2.5-7.71,3.71
				c-2.57,1.15-5.09,2.42-7.64,3.46c-2.57,1.02-5.11,2.02-7.63,3.02c-1.27,0.49-2.51,1.03-3.77,1.46c-1.27,0.42-2.53,0.84-3.79,1.25
				c-2.52,0.83-5.01,1.65-7.47,2.46c-2.5,0.66-4.97,1.32-7.41,1.97c-3.79,1.12-7.58,1.83-11.3,2.55c0.22,0.97,0.44,1.94,0.69,2.9
				c3.67-0.61,7.4-1.24,11.14-2.24C26.92,141.12,29.43,140.52,31.97,139.91z"/>
		</g>
		<g>
			<path class="st2" d="M203.17,95.23c-2.5,0.76-5.04,1.53-7.6,2.31c-1.28,0.39-2.56,0.78-3.85,1.17c-1.29,0.41-2.55,0.92-3.84,1.39
				c-2.57,0.95-5.17,1.9-7.78,2.87c-2.6,0.99-5.17,2.21-7.8,3.32c-2.6,1.17-5.28,2.2-7.87,3.56c-2.61,1.31-5.24,2.62-7.89,3.94
				l-1.99,0.99l-1.96,1.1c-0.99,0.56-1.98,1.12-2.97,1.68c0.99,0.56,1.99,1.12,2.97,1.68l1.96,1.1l1.99,1
				c2.65,1.32,5.28,2.64,7.89,3.94c2.58,1.37,5.26,2.4,7.87,3.56c2.62,1.11,5.19,2.33,7.8,3.31c2.61,0.97,5.21,1.92,7.78,2.87
				c1.29,0.46,2.55,0.98,3.84,1.39c1.29,0.4,2.57,0.79,3.85,1.18c2.56,0.78,5.09,1.55,7.6,2.31c2.54,0.61,5.05,1.21,7.54,1.81
				c3.74,1,7.47,1.62,11.14,2.24c0.24-0.96,0.47-1.93,0.69-2.9c-3.72-0.71-7.51-1.43-11.3-2.55c-2.44-0.65-4.92-1.31-7.41-1.97
				c-2.47-0.82-4.96-1.63-7.47-2.46c-1.25-0.41-2.52-0.83-3.78-1.25c-1.26-0.44-2.51-0.98-3.77-1.46c-2.52-1-5.07-2.01-7.63-3.02
				c-2.56-1.04-5.08-2.31-7.65-3.46c-2.55-1.22-5.17-2.29-7.71-3.71c-2.25-1.19-4.53-2.39-6.83-3.6c2.29-1.21,4.57-2.41,6.83-3.6
				c2.53-1.42,5.16-2.49,7.71-3.71c2.57-1.15,5.09-2.42,7.65-3.46c2.56-1.01,5.11-2.03,7.63-3.02c1.26-0.49,2.51-1.03,3.77-1.46
				c1.27-0.42,2.53-0.83,3.78-1.25c2.52-0.83,5-1.65,7.47-2.46c2.49-0.66,4.97-1.32,7.41-1.97c3.79-1.11,7.58-1.83,11.3-2.54
				c-0.22-0.97-0.44-1.94-0.69-2.91c-3.67,0.61-7.4,1.24-11.14,2.24C208.22,94.01,205.71,94.62,203.17,95.23z"/>
		</g>
		<g>
			<path class="st2" d="M99.19,13.55c0.63,3.05,1.26,6.13,1.9,9.23c0.32,1.55,0.64,3.12,0.96,4.69c0.34,1.56,0.76,3.1,1.14,4.67
				c0.78,3.12,1.57,6.27,2.37,9.45c0.81,3.17,1.82,6.29,2.72,9.48c0.96,3.16,1.81,6.42,2.94,9.56c1.07,3.17,2.15,6.37,3.24,9.59
				l0.82,2.42l0.91,2.38c0.45,1.2,0.92,2.41,1.38,3.62c0.46-1.21,0.93-2.42,1.38-3.62l0.91-2.38l0.82-2.42
				c1.09-3.22,2.17-6.42,3.24-9.59c1.13-3.14,1.97-6.4,2.93-9.56c0.91-3.19,1.92-6.31,2.73-9.48c0.79-3.17,1.58-6.32,2.36-9.45
				c0.38-1.56,0.8-3.1,1.14-4.67c0.32-1.57,0.64-3.13,0.97-4.69c0.63-3.1,1.27-6.18,1.9-9.23c0.1-0.64,0.21-1.26,0.31-1.9
				c-0.93-0.16-1.86-0.31-2.8-0.45c-0.09,0.52-0.19,1.04-0.28,1.56c-0.67,3-1.35,6.02-2.03,9.08c-0.34,1.53-0.68,3.06-1.03,4.6
				c-0.35,1.53-0.8,3.05-1.2,4.58c-0.83,3.06-1.65,6.15-2.49,9.27c-0.85,3.11-1.9,6.17-2.85,9.29c-1,3.1-1.89,6.29-3.05,9.36
				c-0.98,2.75-1.98,5.51-2.97,8.3c-1-2.78-1.99-5.55-2.97-8.3c-1.17-3.08-2.05-6.26-3.05-9.36c-0.95-3.12-2-6.18-2.85-9.29
				c-0.83-3.12-1.66-6.21-2.49-9.27c-0.4-1.54-0.84-3.05-1.2-4.58c-0.34-1.54-0.69-3.07-1.03-4.6c-0.68-3.06-1.36-6.08-2.03-9.08
				c-0.09-0.53-0.19-1.04-0.28-1.56c-0.94,0.14-1.87,0.29-2.8,0.45C98.98,12.29,99.08,12.91,99.19,13.55z"/>
		</g>
		<g>
			<path class="st2" d="M135.95,221.59c-0.63-3.05-1.26-6.13-1.9-9.23c-0.32-1.55-0.64-3.11-0.97-4.68
				c-0.34-1.56-0.76-3.1-1.14-4.67c-0.78-3.12-1.57-6.27-2.36-9.45c-0.81-3.17-1.82-6.29-2.73-9.48c-0.96-3.17-1.81-6.41-2.93-9.56
				c-1.07-3.17-2.16-6.36-3.24-9.59l-0.82-2.42l-0.91-2.38c-0.45-1.2-0.92-2.41-1.38-3.62c-0.46,1.21-0.93,2.41-1.38,3.62
				l-0.91,2.38l-0.82,2.42c-1.09,3.22-2.17,6.42-3.24,9.59c-1.13,3.15-1.97,6.39-2.94,9.56c-0.91,3.19-1.91,6.31-2.72,9.48
				c-0.79,3.18-1.58,6.33-2.37,9.45c-0.38,1.56-0.8,3.1-1.14,4.67c-0.32,1.57-0.64,3.13-0.96,4.68c-0.64,3.1-1.27,6.19-1.9,9.23
				c-0.1,0.64-0.21,1.26-0.31,1.9c0.93,0.16,1.86,0.31,2.8,0.45c0.09-0.52,0.19-1.04,0.28-1.56c0.67-3,1.34-6.02,2.03-9.08
				c0.34-1.53,0.68-3.06,1.03-4.6c0.36-1.54,0.8-3.05,1.2-4.59c0.83-3.06,1.65-6.15,2.49-9.27c0.85-3.11,1.9-6.17,2.85-9.29
				c1-3.1,1.88-6.29,3.05-9.36c0.98-2.75,1.97-5.51,2.97-8.3c0.99,2.79,1.98,5.55,2.97,8.3c1.17,3.08,2.05,6.26,3.05,9.36
				c0.95,3.12,2,6.18,2.85,9.29c0.84,3.12,1.66,6.21,2.49,9.27c0.4,1.54,0.84,3.05,1.2,4.59c0.34,1.54,0.69,3.07,1.03,4.6
				c0.68,3.05,1.36,6.08,2.03,9.08c0.09,0.53,0.19,1.04,0.28,1.56c0.94-0.14,1.87-0.29,2.8-0.45
				C136.16,222.85,136.06,222.23,135.95,221.59z"/>
		</g>
		<g>
			<path class="st2" d="M32.74,131.09c2.47-0.92,4.97-1.85,7.49-2.79c1.26-0.47,2.53-0.94,3.8-1.42c1.27-0.49,2.51-1.09,3.78-1.63
				c2.52-1.12,5.07-2.24,7.64-3.37c2.56-1.15,5.07-2.53,7.64-3.8c0.34-0.18,0.68-0.36,1.02-0.53c-0.34-0.17-0.68-0.35-1.02-0.53
				c-2.57-1.27-5.08-2.65-7.64-3.81c-2.57-1.13-5.12-2.25-7.64-3.36c-1.27-0.55-2.5-1.14-3.78-1.63c-1.27-0.47-2.54-0.95-3.8-1.42
				c-2.52-0.94-5.02-1.87-7.49-2.79c-2.5-0.77-4.99-1.53-7.44-2.29c-4.54-1.52-9.1-2.48-13.53-3.53c-0.17,0.95-0.34,1.91-0.48,2.88
				c4.38,1.16,8.87,2.21,13.35,3.83c2.41,0.8,4.85,1.62,7.32,2.44c2.43,0.97,4.88,1.95,7.35,2.94c1.24,0.49,2.48,0.99,3.73,1.49
				c1.24,0.52,2.46,1.14,3.7,1.7c2.47,1.16,4.97,2.32,7.49,3.5c0.39,0.19,0.78,0.38,1.18,0.58c-0.39,0.2-0.78,0.39-1.18,0.58
				c-2.52,1.18-5.02,2.35-7.49,3.5c-1.24,0.57-2.46,1.19-3.7,1.7c-1.25,0.5-2.49,0.99-3.73,1.49c-2.47,0.98-4.92,1.97-7.35,2.94
				c-2.47,0.82-4.91,1.63-7.32,2.44c-4.48,1.62-8.97,2.67-13.35,3.83c0.15,0.96,0.31,1.92,0.48,2.87c4.43-1.06,8.99-2.01,13.53-3.53
				C27.75,132.63,30.24,131.87,32.74,131.09z"/>
		</g>
		<g>
			<path class="st2" d="M202.4,104.04c-2.47,0.92-4.97,1.85-7.49,2.79c-1.26,0.47-2.52,0.94-3.8,1.42
				c-1.27,0.49-2.51,1.08-3.78,1.63c-2.52,1.11-5.08,2.23-7.64,3.36c-2.56,1.15-5.07,2.53-7.64,3.81c-0.34,0.18-0.68,0.35-1.03,0.53
				c0.34,0.17,0.68,0.35,1.03,0.53c2.57,1.27,5.08,2.65,7.64,3.8c2.57,1.13,5.12,2.25,7.64,3.37c1.26,0.54,2.51,1.14,3.78,1.63
				c1.27,0.47,2.54,0.94,3.8,1.42c2.52,0.94,5.02,1.87,7.49,2.79c2.5,0.77,4.98,1.54,7.44,2.29c4.54,1.52,9.1,2.48,13.53,3.53
				c0.17-0.95,0.34-1.91,0.48-2.87c-4.38-1.16-8.87-2.21-13.35-3.83c-2.41-0.8-4.85-1.62-7.32-2.44c-2.43-0.97-4.88-1.95-7.35-2.94
				c-1.24-0.49-2.48-0.99-3.73-1.49c-1.24-0.52-2.46-1.13-3.7-1.7c-2.47-1.16-4.97-2.32-7.49-3.5c-0.39-0.19-0.79-0.38-1.18-0.58
				c0.39-0.2,0.79-0.39,1.18-0.58c2.52-1.18,5.02-2.35,7.49-3.5c1.24-0.57,2.46-1.19,3.7-1.7c1.25-0.5,2.49-0.99,3.73-1.49
				c2.47-0.99,4.93-1.97,7.35-2.94c2.46-0.82,4.9-1.64,7.32-2.44c4.48-1.62,8.97-2.67,13.35-3.83c-0.15-0.96-0.31-1.92-0.48-2.88
				c-4.43,1.06-8.99,2.01-13.53,3.53C207.38,102.51,204.9,103.27,202.4,104.04z"/>
		</g>
		<g>
			<path class="st2" d="M106.44,14.49c0.75,3,1.52,6.03,2.29,9.1c0.39,1.53,0.78,3.07,1.17,4.61c0.4,1.54,0.89,3.05,1.34,4.59
				c0.91,3.07,1.84,6.16,2.76,9.28c0.95,3.11,2.09,6.16,3.13,9.29c0.14,0.41,0.29,0.83,0.43,1.24c0.14-0.42,0.29-0.83,0.44-1.24
				c1.04-3.13,2.18-6.18,3.13-9.29c0.93-3.12,1.85-6.22,2.77-9.28c0.45-1.54,0.94-3.05,1.34-4.59c0.39-1.55,0.78-3.08,1.16-4.61
				c0.77-3.06,1.54-6.1,2.3-9.1c0.27-1.28,0.53-2.53,0.79-3.8c-0.94-0.1-1.88-0.2-2.82-0.27c-0.23,1.04-0.46,2.06-0.7,3.11
				c-0.8,2.95-1.6,5.93-2.41,8.93c-0.41,1.5-0.82,3.01-1.23,4.53c-0.43,1.51-0.93,2.99-1.4,4.5c-0.95,3.01-1.92,6.04-2.88,9.1
				c-0.15,0.48-0.31,0.96-0.48,1.43c-0.16-0.48-0.32-0.95-0.48-1.43c-0.97-3.06-1.93-6.09-2.88-9.1c-0.46-1.51-0.98-2.99-1.4-4.5
				c-0.41-1.52-0.82-3.03-1.23-4.53c-0.82-3-1.62-5.98-2.41-8.93c-0.24-1.05-0.47-2.07-0.7-3.11c-0.94,0.08-1.89,0.17-2.82,0.27
				C105.91,11.96,106.17,13.21,106.44,14.49z"/>
		</g>
		<g>
			<path class="st2" d="M128.7,220.64c-0.76-3-1.53-6.03-2.3-9.1c-0.38-1.53-0.77-3.07-1.16-4.61c-0.4-1.54-0.89-3.05-1.34-4.59
				c-0.92-3.07-1.84-6.16-2.77-9.28c-0.95-3.11-2.08-6.16-3.13-9.29c-0.15-0.41-0.3-0.83-0.44-1.24c-0.15,0.42-0.29,0.83-0.43,1.24
				c-1.04,3.13-2.18,6.18-3.13,9.29c-0.92,3.12-1.85,6.21-2.76,9.28c-0.45,1.54-0.93,3.05-1.34,4.59c-0.39,1.54-0.78,3.08-1.17,4.61
				c-0.77,3.07-1.54,6.1-2.29,9.1c-0.27,1.28-0.53,2.54-0.79,3.81c0.94,0.1,1.88,0.2,2.82,0.27c0.24-1.04,0.46-2.06,0.7-3.11
				c0.79-2.95,1.6-5.93,2.41-8.94c0.41-1.5,0.81-3.01,1.23-4.53c0.42-1.51,0.93-2.99,1.4-4.5c0.95-3.01,1.91-6.04,2.88-9.11
				c0.15-0.48,0.31-0.95,0.48-1.43c0.16,0.47,0.32,0.95,0.48,1.43c0.97,3.06,1.93,6.09,2.88,9.11c0.46,1.51,0.97,2.99,1.4,4.5
				c0.41,1.52,0.82,3.03,1.23,4.53c0.81,3.01,1.62,5.99,2.41,8.94c0.24,1.04,0.47,2.07,0.7,3.11c0.95-0.08,1.89-0.17,2.82-0.27
				C129.23,223.18,128.97,221.92,128.7,220.64z"/>
		</g>
		<g>
			<path class="st2" d="M25.8,125c2.42-0.91,4.87-1.83,7.34-2.76c2.43-1.08,4.88-2.16,7.35-3.26c1.06-0.47,2.13-0.94,3.2-1.42
				c-1.07-0.47-2.13-0.95-3.2-1.41c-2.47-1.1-4.92-2.19-7.35-3.26c-2.47-0.93-4.91-1.85-7.34-2.76c-4.81-1.95-9.66-3.24-14.35-4.69
				c-0.24-0.08-0.47-0.14-0.71-0.21c-0.11,0.96-0.21,1.93-0.29,2.9c0.15,0.05,0.29,0.09,0.44,0.14c4.62,1.56,9.39,2.94,14.12,4.98
				c2.38,0.96,4.77,1.92,7.2,2.9c0.99,0.47,1.99,0.94,3,1.41c-1,0.47-2,0.94-3,1.41c-2.43,0.98-4.83,1.95-7.2,2.9
				c-4.73,2.04-9.5,3.43-14.12,4.98c-0.15,0.05-0.29,0.09-0.44,0.14c0.08,0.97,0.18,1.94,0.29,2.9c0.24-0.07,0.47-0.14,0.71-0.21
				C16.14,128.23,20.99,126.94,25.8,125z"/>
		</g>
		<g>
			<path class="st2" d="M209.34,110.13c-2.42,0.91-4.87,1.83-7.34,2.76c-2.43,1.08-4.88,2.16-7.36,3.26
				c-1.06,0.47-2.12,0.94-3.19,1.41c1.07,0.47,2.13,0.95,3.19,1.42c2.47,1.1,4.92,2.18,7.36,3.26c2.47,0.93,4.91,1.85,7.34,2.76
				c4.81,1.94,9.66,3.23,14.35,4.69c0.23,0.08,0.47,0.14,0.71,0.21c0.11-0.96,0.21-1.93,0.29-2.9c-0.14-0.05-0.29-0.09-0.43-0.14
				c-4.62-1.55-9.39-2.94-14.12-4.98c-2.37-0.95-4.77-1.92-7.2-2.9c-0.99-0.47-2-0.94-3-1.41c1-0.47,2-0.94,3-1.41
				c2.42-0.98,4.83-1.94,7.2-2.9c4.72-2.04,9.5-3.43,14.12-4.98c0.14-0.05,0.29-0.09,0.43-0.14c-0.08-0.97-0.18-1.94-0.29-2.9
				c-0.24,0.07-0.47,0.14-0.71,0.21C219,106.9,214.15,108.19,209.34,110.13z"/>
		</g>
		<g>
			<path class="st2" d="M113.72,14.97c0.89,2.95,1.78,5.93,2.68,8.94c0.39,1.29,0.78,2.58,1.17,3.88c0.39-1.3,0.78-2.59,1.17-3.88
				c0.9-3.01,1.79-5.99,2.68-8.94c0.41-1.62,0.82-3.21,1.23-4.82c-0.96-0.04-1.92-0.08-2.88-0.09c-0.34,1.26-0.68,2.5-1.03,3.78
				c-0.38,1.21-0.77,2.42-1.16,3.64c-0.39-1.22-0.78-2.43-1.16-3.64c-0.35-1.27-0.69-2.52-1.03-3.78c-0.96,0.02-1.93,0.05-2.88,0.09
				C112.9,11.75,113.31,13.34,113.72,14.97z"/>
		</g>
		<g>
			<path class="st2" d="M121.42,220.17c-0.89-2.96-1.78-5.94-2.68-8.94c-0.38-1.28-0.78-2.58-1.17-3.88
				c-0.39,1.3-0.78,2.59-1.17,3.88c-0.9,3-1.79,5.99-2.68,8.94c-0.41,1.61-0.82,3.22-1.23,4.82c0.96,0.04,1.92,0.08,2.88,0.09
				c0.34-1.26,0.68-2.5,1.03-3.78c0.38-1.21,0.77-2.42,1.16-3.64c0.39,1.22,0.78,2.43,1.16,3.64c0.35,1.27,0.69,2.52,1.03,3.78
				c0.96-0.02,1.93-0.05,2.88-0.09C122.24,223.39,121.83,221.78,121.42,220.17z"/>
		</g>
		<g>
			<path class="st2" d="M23.83,117.57c-4.03-1.76-8.09-3.14-12.02-4.64c-0.55-0.22-1.1-0.42-1.65-0.61
				c-0.05,0.99-0.08,1.98-0.1,2.98c0.35,0.14,0.71,0.27,1.06,0.42c1.54,0.62,3.09,1.23,4.64,1.85c-1.56,0.62-3.11,1.22-4.64,1.85
				c-0.35,0.15-0.71,0.29-1.06,0.42c0.02,1,0.05,1.99,0.1,2.98c0.55-0.19,1.1-0.39,1.65-0.62C15.74,120.71,19.8,119.33,23.83,117.57
				z"/>
		</g>
		<g>
			<path class="st2" d="M211.31,117.57c4.03,1.76,8.09,3.14,12.02,4.63c0.55,0.22,1.1,0.42,1.65,0.61c0.05-0.99,0.08-1.98,0.1-2.98
				c-0.35-0.14-0.71-0.27-1.06-0.42c-1.53-0.62-3.09-1.23-4.64-1.85c1.56-0.62,3.11-1.22,4.64-1.85c0.35-0.15,0.71-0.28,1.06-0.42
				c-0.02-1-0.05-1.99-0.1-2.98c-0.55,0.19-1.1,0.39-1.65,0.61C219.4,114.43,215.34,115.81,211.31,117.57z"/>
		</g>
	</g>
</g>
<path d="M114.55,168.42l-27.3-52.19l-1.86,10.25c-2.76,15.3-5.19,28.69-5.22,40.16H56.11c2.81-6.95,5.26-15.95,7.02-25.89
	l15.2-81.51h5.1l34.76,71.48l37.06-71.48h4.15l11.5,81.57c1.18,8.74,3.5,17.91,6.5,25.83h-27.32c0.29-7.37-1.51-18.64-3.4-30.47
	c-0.57-3.59-1.14-7.21-1.67-10.74l-1.37-9.25l-27.69,52.25H114.55z"/>
</svg>
