<?xml version="1.0" encoding="utf-8"?>
<!-- Generator: Adobe Illustrator 24.0.0, SVG Export Plug-In . SVG Version: 6.00 Build 0)  -->
<svg version="1.1" id="Layer_1" xmlns="http://www.w3.org/2000/svg" xmlns:xlink="http://www.w3.org/1999/xlink" x="0px" y="0px"
	 viewBox="0 0 233.41 233.41" style="enable-background:new 0 0 233.41 233.41;" xml:space="preserve">
<style type="text/css">
	.st0{fill:#1D1D1B;}
	.st1{fill:url(#SVGID_1_);}
</style>
<g>
	<circle class="st0" cx="116.7" cy="116.7" r="116.7"/>
	<linearGradient id="SVGID_1_" gradientUnits="userSpaceOnUse" x1="51.2814" y1="156.2666" x2="174.3473" y2="85.2145">
		<stop  offset="0" style="stop-color:#A9996E"/>
		<stop  offset="0.386" style="stop-color:#E4D4B0"/>
		<stop  offset="1" style="stop-color:#A9996E"/>
	</linearGradient>
	<path class="st1" d="M114.58,167.18l-27.1-51.81l-1.85,10.17c-2.74,15.19-5.15,28.48-5.18,39.86H56.56
		c2.79-6.9,5.22-15.83,6.97-25.7l15.09-80.91h5.06l34.51,70.95l36.79-70.95h4.12l11.41,80.97c1.17,8.68,3.48,17.78,6.46,25.64
		h-27.12c0.28-7.31-1.5-18.5-3.38-30.24c-0.57-3.56-1.13-7.16-1.65-10.66l-1.36-9.18l-27.49,51.86H114.58z"/>
</g>
</svg>
