<?xml version="1.0" encoding="utf-8"?>
<!-- Generator: Adobe Illustrator 24.0.0, SVG Export Plug-In . SVG Version: 6.00 Build 0)  -->
<svg version="1.1" id="Layer_1" xmlns="http://www.w3.org/2000/svg" xmlns:xlink="http://www.w3.org/1999/xlink" x="0px" y="0px"
	 viewBox="0 0 101.29 19.6" style="enable-background:new 0 0 101.29 19.6;" xml:space="preserve">
<style type="text/css">
	.st0{fill:#231F20;}
	.st1{fill:#FFFFFF;}
</style>
<path class="st0" d="M91.67,19.6c-1.72-0.13-3.46-0.26-5.19-0.38c0.4-1.33,0.4-2.37,0.4-4.78l0-9.28c0-1.75-0.22-3.74-0.43-4.82
	l5.25,0.01c-0.19,0.96-0.43,3.08-0.43,4.91v9.42C91.28,16.92,91.34,18.39,91.67,19.6"/>
<path class="st0" d="M0,19.6c0.52-1.3,0.97-3.06,1.27-4.99C2.09,9.8,2.94,4.89,3.79,0h1.18c1.7,3.74,3.47,7.58,5.27,11.42l0.22,0.47
	l0.23-0.47C12.51,7.68,14.36,3.95,16.34,0h1.04c0.63,4.63,1.26,9.23,1.89,13.82c0.2,1.57,0.63,3.22,1.18,4.56
	c-1.68,0.07-3.39,0.15-5.08,0.24c0.11-1.18-0.2-3.19-0.52-5.3l-0.01-0.03c-0.09-0.6-0.18-1.21-0.27-1.8l-0.11-0.79l-0.36,0.71
	c-1.32,2.63-2.62,5.25-3.87,7.8l-0.52,0.03c-1.3-2.54-2.58-5.08-3.82-7.57l-0.34-0.68l-0.18,1.05c-0.47,2.79-0.87,5.21-0.84,7.23
	C3.04,19.37,1.51,19.48,0,19.6"/>
<path class="st0" d="M36.6,18.14c-0.79,0-1.42-0.09-2.04-0.18c-0.58-0.08-1.14-0.16-1.77-0.16c-0.1,0-0.19,0-0.29,0.01l-0.25-4.61
	c1.22,0.98,3.1,1.51,4.33,1.51l0.09,0c1.02-0.02,1.62-0.56,1.62-1.44c0-1.41-1.2-2.27-2.46-3.18c-1.45-1.04-3.09-2.22-3.22-4.46
	c-0.1-1.56,0.32-2.89,1.2-3.83c1.02-1.1,2.66-1.68,4.73-1.7h0.04c0.5,0,0.98,0.07,1.44,0.14c0.47,0.07,0.91,0.14,1.38,0.14
	c0.23,0,0.45-0.02,0.66-0.05l0.22,4.22c-0.89-0.8-1.98-1.2-3.32-1.2c-0.06,0-0.11,0-0.17,0c-0.54,0.01-0.98,0.18-1.26,0.49
	c-0.23,0.25-0.34,0.58-0.32,0.95c0.05,0.86,0.9,1.44,1.99,2.17c1.66,1.11,3.71,2.49,3.88,5.53c0.08,1.45-0.35,2.72-1.26,3.7
	c-1.12,1.21-2.89,1.9-4.98,1.95C36.76,18.14,36.68,18.14,36.6,18.14"/>
<path class="st0" d="M55.45,17.92c-1.67-0.03-3.35-0.05-4.99-0.06c0.18-1.11,0.27-2.58,0.27-4.46l0-5.72c0-1.2-0.03-2.47-0.08-3.38
	l-0.01-0.23l-0.84,0c-1.26,0-2.72,0.15-3.68,0.24c-0.21,0.02-0.41,0.04-0.57,0.06V0.23c0.15,0.01,0.33,0.03,0.54,0.05
	c1.53,0.14,4.67,0.42,6.71,0.42c0,0,0.16,0,0.24,0c1.97-0.02,5.24-0.3,6.82-0.43l0.48-0.04l0,4.17c-0.15-0.02-0.34-0.03-0.54-0.06
	c-0.99-0.11-2.48-0.26-3.78-0.27l-0.82,0L55.2,4.32c-0.02,1-0.02,2.32-0.02,3.39l0,5.73C55.18,14.81,55.23,16.68,55.45,17.92"/>
<path class="st0" d="M77.39,18.68c-1.67-0.09-3.32-0.17-4.91-0.24c0.21-1.34,0.24-3.45,0.24-4.61l-0.01-8.88
	c0-1.86-0.08-3.21-0.26-4.6c1.7,0.06,3.4,0.13,5.09,0.19h0.1c1.38,0,3.97-0.05,5.19-0.25l0,4.13c-1.07-0.19-2.52-0.3-4.12-0.32
	l-1.55-0.02L77.14,4.3l0,4.04l1.12,0.03c0.3,0.01,0.59,0.01,0.87,0.01c1.15,0,2.15-0.06,2.98-0.18l0,4.1
	c-0.94-0.24-2.22-0.33-3.83-0.39l-1.14-0.04l0,2.13C77.14,15.57,77.16,17.35,77.39,18.68"/>
<path class="st0" d="M68.73,18.28c-1.72-0.07-3.46-0.12-5.19-0.18c0.39-1.25,0.39-2.24,0.39-4.5l-0.01-8.76
	c0-1.63-0.22-3.51-0.43-4.53l5.25,0c-0.18,0.87-0.42,2.81-0.42,4.57l0.01,8.81C68.34,15.79,68.4,17.16,68.73,18.28"/>
<path class="st0" d="M23.52,18.26c0.39-1.28,0.39-2.27,0.39-4.54l0.01-8.83c0-1.64-0.21-3.54-0.42-4.57l5.25,0
	c-0.18,0.86-0.42,2.78-0.42,4.52l-0.01,8.72c0,2.07,0.06,3.43,0.39,4.52C26.97,18.14,25.23,18.19,23.52,18.26"/>
<path class="st1" d="M4.34,1.74c-0.92,6.51-0.89,6.51-1.36,9.09c-0.3,1.66-1.13,5.55-1.38,6.35c-0.25,0.8-0.63,1.51-0.63,1.51
	s1.68-1.19,2.52-7.57c0.4-3.02,0.84-7.58,0.84-7.58V1.74z"/>
<path class="st1" d="M16.14,2.58c0,0-1.67,3.31-2.18,4.32c-0.5,1.01-2.58,5.13-2.58,5.13s0.96-0.72,2.07-2.7
	c1.27-2.27,1.72-3.75,2.06-4.5C15.87,4.07,16.14,2.58,16.14,2.58"/>
<path class="st1" d="M39.16,1.28c0,0-1.21-0.13-2.29,0.07c-0.98,0.18-1.78,0.47-2.32,1.15c-0.34,0.44-0.61,0.85-0.7,1.41
	c-0.07,0.45,0.06,1.21,0.06,1.21s0.15-0.61,0.52-1.46c0.21-0.48,0.51-0.93,1.14-1.38c0.56-0.4,1.78-0.64,1.78-0.64L39.16,1.28z"/>
<path class="st1" d="M36.67,6.72c0,0,1.62,0.91,2.56,1.61c0.95,0.71,2.19,1.66,2.44,2.39c0.25,0.73,0.32,1.11,0.32,1.11
	s-0.64-1.41-2.32-2.72C38.82,8.44,36.67,6.72,36.67,6.72"/>
<path class="st1" d="M39.16,14.09c-0.3,0.76-0.65,1.2-1.2,1.45c-0.63,0.28-1.67,0.31-2.11,0.28c-0.6-0.03-1.91-0.41-1.91-0.41
	s0.98,0.62,1.53,0.76c0.72,0.17,1.83,0.16,2.69-0.38C39.16,15.17,39.16,14.09,39.16,14.09"/>
<path class="st1" d="M46.34,3.32V1.11c0,0,3.53,0.56,5.93,0.44c2.4-0.12,6.37-0.44,6.37-0.44s-0.44,0.6-1.95,0.71
	c-1.51,0.11-4.1,0.02-5.99,0c-1.89-0.02-4.1-0.27-4.1-0.27L46.34,3.32z"/>
<path class="st1" d="M51.72,9.55c0,1.78,0.06,3.98,0,5.34c-0.06,1.36-0.44,2.05-0.44,2.05s0.69-1.54,0.76-3.7
	c0.06-2.16,0.32-6.14,0-7.33l-0.31-1.2V9.55z"/>
<path class="st1" d="M67.16,1.43h-2.34c0,0-0.06,4.67,0,6.5c0.06,1.84,0.38,6.41,0.38,7.22c0,0.79-0.41,1.8-0.41,1.8
	s1.16-1.26,0.97-2.9c-0.19-1.64-0.32-5.61-0.5-7c-0.19-1.39-0.13-5.34-0.13-5.34"/>
<path class="st1" d="M81.59,1.43c0,0-1.89,0.06-3.09,0c-1.2-0.06-4.79-0.31-4.79-0.31s0.38,5.61,0.38,7.38
	c0,0.75-0.06,2.13-0.13,3.54c-0.1,1.92-0.22,3.85-0.25,4.22c-0.06,0.63-0.38,1.29-0.38,1.29s0.82-0.54,0.88-1.29
	c0.06-0.76,0.31-3.59,0.31-4.54c0-0.95-0.12-4.29-0.12-5.8s-0.25-3.69-0.25-3.69l0.06-0.52c0,0,1.07-0.05,2.77,0
	c1.7,0.04,3.15,0,3.15,0L81.59,1.43z"/>
<path class="st1" d="M81.28,9.09c0,0-1.51,0.22-2.65,0.25c-1.14,0.03-1.52-0.12-1.52-0.12s0.58,0.39,1.59,0.4
	C79.71,9.63,81.28,9.09,81.28,9.09"/>
<path class="st1" d="M90.05,1.61h-2.34c0,0-0.06,5.02,0,6.98c0.06,1.96,0.38,6.91,0.38,7.75c0,0.85-0.41,1.93-0.41,1.93
	s1.16-1.35,0.97-3.11c-0.19-1.76-0.32-6.03-0.5-7.52c-0.19-1.49-0.12-5.74-0.12-5.74"/>
<path class="st1" d="M26.97,1.34h-2.34c0,0-0.06,4.67,0,6.5c0.06,1.83,0.38,6.43,0.38,7.22c0,0.79-0.41,1.8-0.41,1.8
	s1.16-1.26,0.97-2.9c-0.19-1.64-0.32-5.61-0.51-7c-0.19-1.39-0.12-5.34-0.12-5.34"/>
<path class="st1" d="M5.32,3.97c2.85,5.81,2.84,5.81,3.27,6.62c0.33,0.61,0.97,1.91,0.97,1.91s-1.44-2.09-2.12-3.46
	C6.75,7.67,5.32,3.97,5.32,3.97"/>
<path class="st1" d="M16.57,17.58c0,0,0.29-0.43,0.22-1.3c-0.01-0.1-0.03-0.26-0.05-0.46c-0.22-1.63-0.95-6.24-0.95-6.24
	s0.52,1.9,0.83,3.17c0.3,1.25,0.38,1.88,0.48,2.72C17.28,17.13,16.57,17.58,16.57,17.58"/>
<polygon class="st0" points="97.61,0.11 97.61,0.58 96.47,0.58 96.47,3.38 96,3.38 96,0.58 94.86,0.58 94.86,0.11 "/>
<polygon class="st0" points="98.6,1.09 98.59,1.09 98.59,3.38 98.12,3.38 98.12,0.11 98.59,0.11 99.7,2.14 100.82,0.11 101.29,0.11 
	101.29,3.38 100.82,3.38 100.82,1.09 100.81,1.09 99.7,3.1 "/>
</svg>
