<?xml version="1.0" encoding="utf-8"?>
<!-- Generator: Adobe Illustrator 24.0.0, SVG Export Plug-In . SVG Version: 6.00 Build 0)  -->
<svg version="1.1" id="Layer_1" xmlns="http://www.w3.org/2000/svg" xmlns:xlink="http://www.w3.org/1999/xlink" x="0px" y="0px"
	 viewBox="0 0 289.49 75.05" style="enable-background:new 0 0 289.49 75.05;" xml:space="preserve">
<style type="text/css">
	.st0{fill:#231F20;}
</style>
<path class="st0" d="M0,58.69c1.55-3.89,2.9-9.17,3.82-14.94C6.27,29.35,8.8,14.63,11.35,0h3.54c5.08,11.19,10.4,22.69,15.8,34.2
	l0.66,1.41l0.68-1.4C37.47,23.01,43,11.82,48.93,0h3.11c1.88,13.86,3.77,27.65,5.65,41.38c0.61,4.69,1.89,9.64,3.53,13.67
	c-5.03,0.21-10.14,0.45-15.21,0.71c0.33-3.53-0.59-9.54-1.56-15.88l-0.01-0.09c-0.27-1.8-0.55-3.61-0.8-5.38l-0.33-2.36l-1.07,2.13
	c-3.95,7.87-7.84,15.72-11.58,23.35l-1.57,0.1c-3.88-7.6-7.73-15.22-11.44-22.66l-1.02-2.05l-0.53,3.14
	c-1.4,8.36-2.62,15.6-2.51,21.65C9.1,58.01,4.53,58.35,0,58.69"/>
<path class="st0" d="M109.6,54.33c-2.35,0-4.26-0.27-6.11-0.53c-1.75-0.25-3.4-0.48-5.31-0.48c-0.29,0-0.58,0.01-0.87,0.02
	l-0.75-13.81c3.65,2.94,9.3,4.53,12.97,4.53l0.27,0c3.04-0.06,4.85-1.67,4.84-4.31c-0.01-4.23-3.58-6.8-7.37-9.52
	c-4.33-3.11-9.24-6.64-9.65-13.34c-0.29-4.68,0.96-8.64,3.6-11.47c3.06-3.28,7.96-5.04,14.16-5.08h0.13c1.51,0,2.94,0.21,4.32,0.42
	c1.41,0.21,2.73,0.41,4.15,0.41c0.69,0,1.35-0.05,1.99-0.15l0.67,12.63c-2.68-2.41-5.93-3.58-9.93-3.58c-0.17,0-0.35,0-0.52,0.01
	c-1.63,0.04-2.93,0.54-3.77,1.45c-0.69,0.75-1.02,1.73-0.96,2.84c0.14,2.58,2.71,4.3,5.95,6.49c4.95,3.33,11.12,7.47,11.62,16.55
	c0.24,4.33-1.06,8.16-3.76,11.08c-3.34,3.62-8.64,5.69-14.92,5.84C110.1,54.33,109.85,54.33,109.6,54.33"/>
<path class="st0" d="M166.06,53.67c-5.01-0.08-10.03-0.14-14.94-0.18c0.55-3.33,0.81-7.71,0.81-13.38l0-17.12
	c0-3.6-0.09-7.39-0.23-10.13l-0.04-0.7l-2.52-0.01c-3.78,0-8.13,0.44-11.01,0.72c-0.64,0.06-1.22,0.12-1.7,0.17V0.69
	c0.43,0.04,0.98,0.09,1.62,0.15c4.59,0.41,14,1.26,20.1,1.26c0,0,0.49,0,0.72,0c5.89-0.07,15.7-0.88,20.42-1.27l1.45-0.12
	l0.01,12.49c-0.46-0.05-1.01-0.1-1.62-0.17c-2.96-0.32-7.42-0.79-11.32-0.81l-2.46-0.01l-0.02,0.73c-0.08,2.98-0.07,6.96-0.07,10.15
	l0.01,17.17C165.26,44.35,165.4,49.94,166.06,53.67"/>
<path class="st0" d="M231.77,55.93c-5-0.26-9.95-0.5-14.71-0.71c0.64-4.01,0.73-10.34,0.73-13.82l-0.02-26.6
	c0-5.57-0.23-9.6-0.78-13.79c5.08,0.19,10.16,0.38,15.25,0.58l0.3,0c4.13,0,11.88-0.16,15.54-0.76l0.01,12.36
	c-3.2-0.56-7.55-0.91-12.33-0.97l-4.66-0.06l-0.08,0.72l0.01,12.09l3.36,0.08c0.91,0.02,1.78,0.03,2.61,0.03
	c3.44,0,6.44-0.18,8.92-0.54l0.01,12.27c-2.82-0.72-6.65-0.98-11.48-1.15l-3.4-0.12l0.01,6.39
	C231.04,46.63,231.1,51.96,231.77,55.93"/>
<path class="st0" d="M274.56,58.71c-5.15-0.4-10.37-0.77-15.54-1.13c1.2-3.97,1.2-7.1,1.2-14.33l-0.01-27.8
	c0-5.24-0.65-11.21-1.29-14.43l15.73,0.02c-0.56,2.86-1.28,9.23-1.28,14.71l0,28.22C273.38,50.67,273.57,55.08,274.56,58.71"/>
<path class="st0" d="M205.84,54.75c-5.15-0.2-10.37-0.38-15.53-0.53c1.18-3.75,1.18-6.7,1.17-13.48l-0.02-26.22
	c0-4.9-0.65-10.51-1.28-13.57l15.71,0.01c-0.54,2.61-1.26,8.41-1.25,13.7l0.02,26.38C204.67,47.29,204.86,51.39,205.84,54.75"/>
<path class="st0" d="M70.45,54.68c1.17-3.84,1.17-6.8,1.18-13.6l0.02-26.43c0.01-4.92-0.63-10.59-1.26-13.68L86.1,0.96
	c-0.54,2.59-1.27,8.32-1.27,13.55l-0.02,26.12c0,6.21,0.19,10.27,1.17,13.54C80.79,54.32,75.57,54.49,70.45,54.68"/>
<polygon class="st0" points="283.98,1.02 283.98,1.72 282.27,1.72 282.27,5.91 281.56,5.91 281.56,1.72 279.85,1.72 279.85,1.02 "/>
<polygon class="st0" points="285.46,2.48 285.45,2.48 285.45,5.91 284.74,5.91 284.74,1.02 285.45,1.02 287.12,4.06 288.79,1.02 
	289.49,1.02 289.49,5.91 288.79,5.91 288.79,2.48 288.77,2.48 287.12,5.49 "/>
<path class="st0" d="M29.73,68.49c0.02,0.42,0.05,0.83,0.07,1.25c-0.76,0.05-1.53,0.09-2.3,0.14c0.1,1.65,0.2,3.31,0.3,4.96
	c-0.42,0.03-0.83,0.05-1.25,0.08c-0.1-1.65-0.2-3.31-0.31-4.96c-0.77,0.05-1.53,0.1-2.3,0.14c-0.03-0.41-0.05-0.83-0.08-1.25
	C25.84,68.73,27.78,68.61,29.73,68.49"/>
<path class="st0" d="M33.61,68.26c0.04,0.78,0.09,1.57,0.13,2.35c1.12-0.06,2.23-0.13,3.34-0.19c-0.04-0.78-0.09-1.57-0.13-2.35
	c0.42-0.02,0.84-0.05,1.25-0.07c0.11,2.07,0.23,4.14,0.34,6.21c-0.42,0.02-0.83,0.05-1.25,0.07c-0.05-0.87-0.1-1.74-0.15-2.61
	c-1.11,0.06-2.23,0.12-3.34,0.19c0.05,0.87,0.1,1.74,0.15,2.61c-0.42,0.02-0.83,0.05-1.25,0.07c-0.12-2.07-0.24-4.14-0.36-6.21
	C32.77,68.31,33.19,68.29,33.61,68.26"/>
<path class="st0" d="M47.19,67.53c0.02,0.42,0.04,0.83,0.06,1.25c-1.43,0.07-2.86,0.15-4.28,0.22c0.02,0.38,0.04,0.75,0.06,1.13
	c0.75-0.04,1.51-0.08,2.26-0.12c0.02,0.42,0.04,0.83,0.06,1.25c-0.75,0.04-1.51,0.08-2.26,0.12c0.02,0.45,0.05,0.89,0.07,1.34
	c1.47-0.08,2.95-0.15,4.42-0.23c0.02,0.42,0.04,0.83,0.06,1.25c-1.89,0.1-3.78,0.19-5.66,0.29c-0.11-2.07-0.22-4.14-0.33-6.21
	C43.5,67.72,45.35,67.62,47.19,67.53"/>
<path class="st0" d="M54.28,67.19c0.54,1.5,1.07,3,1.6,4.49c0.01,0,0.02,0,0.02,0c0.35-1.54,0.7-3.08,1.06-4.61
	c0.54-0.02,1.08-0.05,1.61-0.07c0.48,1.5,0.95,3,1.43,4.5c0.01,0,0.02,0,0.02,0c0.41-1.54,0.82-3.08,1.23-4.62
	c0.43-0.02,0.87-0.04,1.3-0.06c-0.56,2.1-1.12,4.2-1.67,6.3c-0.56,0.02-1.11,0.05-1.67,0.07c-0.46-1.5-0.93-3-1.39-4.5
	c-0.01,0-0.01,0-0.02,0c-0.33,1.54-0.66,3.07-0.99,4.61l-1.65,0.08c-0.73-2.04-1.46-4.08-2.2-6.12
	C53.41,67.23,53.85,67.21,54.28,67.19"/>
<path class="st0" d="M64.1,69.87c-0.07-1.74,1.24-3.36,3.7-3.45c2.47-0.1,3.89,1.4,3.95,3.15c0.06,1.74-1.26,3.35-3.69,3.44
	C65.62,73.11,64.17,71.61,64.1,69.87 M70.5,69.62c-0.04-1.08-1.1-2.01-2.65-1.95c-1.55,0.06-2.54,1.09-2.49,2.15
	c0.04,1.08,1.1,2.01,2.65,1.95C69.55,71.71,70.54,70.7,70.5,69.62"/>
<path class="st0" d="M74.65,66.36c0.42-0.01,0.83-0.03,1.25-0.04c1.19,1.36,2.38,2.72,3.56,4.08h0.02c-0.05-1.4-0.09-2.8-0.14-4.2
	c0.42-0.01,0.84-0.03,1.25-0.04c0.07,2.07,0.13,4.14,0.2,6.21c-0.42,0.01-0.83,0.03-1.25,0.04c-1.18-1.36-2.37-2.72-3.56-4.08
	c-0.01,0-0.02,0-0.02,0c0.05,1.4,0.1,2.8,0.15,4.2c-0.42,0.01-0.83,0.03-1.25,0.04C74.8,70.5,74.72,68.43,74.65,66.36"/>
<path class="st0" d="M87.37,65.95c1.43-0.04,3.18,0.61,3.24,2.93c0.05,2.05-1.2,3.24-3.06,3.29c-1.12,0.03-2.25,0.07-3.37,0.1
	c-0.06-2.07-0.13-4.14-0.19-6.21C85.11,66.02,86.24,65.98,87.37,65.95 M85.38,70.98c0.71-0.02,1.42-0.04,2.13-0.06
	c1.09-0.03,1.88-0.68,1.85-1.94c-0.04-1.46-0.98-1.81-1.95-1.78c-0.71,0.02-1.42,0.04-2.13,0.06C85.31,68.5,85.35,69.74,85.38,70.98
	"/>
<path class="st0" d="M97.37,65.7c1.16-0.03,2.26,0.38,2.29,1.79c0.03,1.19-0.77,1.64-1.36,1.87c0.54,0.84,1.09,1.67,1.63,2.51
	c-0.52,0.01-1.05,0.02-1.57,0.03c-0.54-0.83-1.09-1.66-1.63-2.5c-0.67,0.02-1.33,0.03-2,0.05c0.02,0.84,0.04,1.69,0.06,2.53
	c-0.42,0.01-0.83,0.02-1.25,0.03c-0.05-2.07-0.1-4.14-0.16-6.22C94.72,65.76,96.04,65.73,97.37,65.7 M94.67,67.01
	c0.01,0.4,0.02,0.79,0.03,1.19c0.91-0.02,1.81-0.04,2.72-0.07c0.37-0.01,1-0.07,0.98-0.62c-0.01-0.58-0.58-0.57-1.01-0.56
	C96.49,66.97,95.58,66.99,94.67,67.01"/>
<path class="st0" d="M102,68.71c-0.04-1.74,1.3-3.33,3.76-3.38c2.47-0.05,3.86,1.48,3.89,3.23c0.03,1.74-1.33,3.32-3.76,3.37
	C103.45,71.99,102.04,70.45,102,68.71 M108.4,68.59c-0.02-1.08-1.06-2.04-2.61-2.01c-1.55,0.03-2.56,1.03-2.54,2.1
	c0.02,1.08,1.06,2.03,2.61,2C107.41,70.66,108.42,69.67,108.4,68.59"/>
<path class="st0" d="M113.31,65.4l0.05,3.78c0.01,0.74,0.21,1.38,1.77,1.36c1.66-0.02,1.75-0.73,1.74-1.4
	c-0.02-1.26-0.03-2.52-0.05-3.78c0.42,0,0.84-0.01,1.25-0.01c0.02,1.26,0.03,2.52,0.05,3.78c0.01,1.31-0.59,2.63-2.98,2.67
	c-2.16,0.03-3.01-1.11-3.03-2.59c-0.02-1.26-0.04-2.52-0.06-3.78C112.47,65.41,112.89,65.4,113.31,65.4"/>
<path class="st0" d="M121.22,69.51c1.09,0.69,2.12,0.93,3.22,0.92c0.62-0.01,1.68-0.17,1.68-0.87c-0.01-0.5-0.56-0.63-0.94-0.64
	c-0.62-0.02-1.24-0.03-1.86-0.05c-1.53-0.02-2.28-0.9-2.29-1.86c-0.01-0.92,0.67-1.92,2.91-1.94c1.64-0.01,2.65,0.6,3.02,0.79
	c-0.19,0.37-0.37,0.74-0.56,1.11c-0.5-0.25-1.4-0.66-2.64-0.65c-0.66,0.01-1.48,0.16-1.48,0.71c0.01,0.48,0.69,0.59,1.11,0.59
	c0.54,0.02,1.08,0.03,1.63,0.05c1.43,0.02,2.35,0.63,2.36,1.94c0.01,1.12-0.86,2.05-2.92,2.06c-1.68,0.01-2.92-0.39-3.8-1.05
	C120.84,70.26,121.03,69.89,121.22,69.51"/>
<path class="st0" d="M138.1,65.21c1.22,0,2.26,0.53,2.25,1.97c0,1.39-0.96,2-2.25,2.01c-0.83,0-1.66,0-2.49,0
	c0,0.75,0,1.5,0.01,2.24c-0.42,0-0.83,0-1.25,0c-0.01-2.07-0.01-4.15-0.02-6.22C135.6,65.21,136.85,65.21,138.1,65.21 M135.61,67.94
	c0.83,0,1.66,0,2.49,0c0.48,0,1-0.06,1-0.76c0-0.66-0.55-0.72-1-0.72c-0.83,0-1.66,0-2.49,0C135.61,66.95,135.61,67.44,135.61,67.94
	"/>
<path class="st0" d="M142.23,68.32c0-1.74,1.38-3.3,3.84-3.29c2.47,0.01,3.83,1.57,3.82,3.32c-0.01,1.74-1.4,3.29-3.84,3.29
	C143.61,71.62,142.23,70.06,142.23,68.32 M148.63,68.34c0-1.08-1.01-2.06-2.57-2.06c-1.55-0.01-2.58,0.98-2.58,2.05
	c0,1.08,1.02,2.05,2.57,2.06C147.6,70.38,148.62,69.42,148.63,68.34"/>
<path class="st0" d="M152.6,65.25c0.46,1.52,0.91,3.05,1.36,4.57h0.02c0.43-1.52,0.87-3.03,1.3-4.55c0.54,0,1.08,0.01,1.61,0.01
	c0.4,1.52,0.79,3.05,1.19,4.57h0.02c0.49-1.51,0.99-3.03,1.48-4.55c0.43,0,0.87,0.01,1.3,0.01c-0.67,2.07-1.34,4.13-2.01,6.2
	c-0.56-0.01-1.11-0.01-1.67-0.02c-0.38-1.52-0.77-3.05-1.15-4.57c-0.01,0-0.01,0-0.02,0c-0.41,1.52-0.82,3.04-1.23,4.55
	c-0.55-0.01-1.1-0.01-1.65-0.01c-0.62-2.08-1.24-4.15-1.87-6.23C151.74,65.24,152.17,65.25,152.6,65.25"/>
<path class="st0" d="M168.25,65.42c-0.01,0.42-0.01,0.83-0.02,1.25c-1.43-0.02-2.86-0.04-4.29-0.06c-0.01,0.38-0.01,0.75-0.01,1.13
	c0.75,0.01,1.51,0.02,2.26,0.03c-0.01,0.42-0.01,0.83-0.02,1.25c-0.75-0.01-1.51-0.02-2.26-0.03c-0.01,0.45-0.01,0.9-0.02,1.34
	c1.47,0.02,2.95,0.04,4.42,0.06c-0.01,0.42-0.01,0.83-0.02,1.25c-1.89-0.03-3.78-0.05-5.67-0.08c0.03-2.07,0.05-4.15,0.08-6.22
	C164.56,65.37,166.41,65.4,168.25,65.42"/>
<path class="st0" d="M174.85,65.54c1.16,0.02,2.24,0.48,2.22,1.88c-0.02,1.19-0.84,1.6-1.43,1.81c0.51,0.86,1.02,1.72,1.52,2.58
	c-0.52-0.01-1.05-0.02-1.57-0.03c-0.51-0.85-1.02-1.71-1.52-2.56c-0.67-0.01-1.33-0.02-2-0.04c-0.01,0.84-0.03,1.69-0.04,2.53
	c-0.42-0.01-0.83-0.01-1.25-0.02c0.04-2.07,0.07-4.15,0.11-6.22C172.2,65.49,173.53,65.51,174.85,65.54 M172.11,66.74
	c-0.01,0.4-0.01,0.79-0.02,1.19c0.91,0.02,1.81,0.03,2.72,0.05c0.38,0.01,1-0.03,1.01-0.58c0.01-0.58-0.55-0.6-0.99-0.61
	C173.92,66.77,173.01,66.75,172.11,66.74"/>
<path class="st0" d="M183.63,68.84c0.04-1.74,1.45-3.27,3.91-3.21c2.47,0.06,3.79,1.65,3.74,3.4c-0.05,1.74-1.48,3.26-3.91,3.2
	C184.94,72.17,183.59,70.58,183.63,68.84 M190.03,69c0.03-1.08-0.97-2.08-2.52-2.12c-1.55-0.04-2.6,0.92-2.63,1.99
	c-0.03,1.08,0.97,2.08,2.52,2.12C188.95,71.02,190,70.08,190.03,69"/>
<path class="st0" d="M195.45,72.26c-0.42-0.01-0.83-0.02-1.25-0.04c0.06-2.07,0.12-4.14,0.18-6.21c1.85,0.05,3.69,0.11,5.54,0.17
	l-0.04,1.25c-1.43-0.05-2.86-0.09-4.29-0.14c-0.01,0.38-0.02,0.75-0.03,1.13c0.75,0.02,1.51,0.05,2.26,0.07l-0.04,1.25
	c-0.75-0.02-1.51-0.05-2.26-0.07C195.5,70.54,195.48,71.4,195.45,72.26"/>
<path class="st0" d="M206.87,66.42c0.42,0.02,0.83,0.03,1.25,0.05c1.09,1.44,2.17,2.88,3.26,4.33c0.01,0,0.02,0,0.02,0
	c0.05-1.4,0.11-2.8,0.16-4.2c0.42,0.02,0.84,0.03,1.25,0.05c-0.08,2.07-0.16,4.14-0.25,6.21c-0.42-0.02-0.83-0.03-1.25-0.05
	c-1.08-1.44-2.17-2.89-3.25-4.33c-0.01,0-0.02,0-0.02,0c-0.05,1.4-0.1,2.8-0.15,4.2c-0.42-0.01-0.83-0.03-1.25-0.05
	C206.72,70.57,206.8,68.49,206.87,66.42"/>
<path class="st0" d="M217.9,66.86c0.55,0.02,1.11,0.05,1.66,0.07c0.93,2.12,1.86,4.23,2.78,6.35c-0.47-0.02-0.94-0.04-1.42-0.06
	c-0.19-0.44-0.38-0.89-0.57-1.33c-1.21-0.05-2.43-0.11-3.64-0.16c-0.23,0.43-0.45,0.85-0.68,1.28c-0.47-0.02-0.94-0.04-1.42-0.06
	C215.72,70.91,216.81,68.88,217.9,66.86 M217.39,70.5c0.8,0.03,1.6,0.07,2.4,0.1c-0.36-0.83-0.73-1.67-1.1-2.5
	C218.26,68.9,217.82,69.7,217.39,70.5"/>
<path class="st0" d="M229.47,67.38c-0.02,0.42-0.04,0.83-0.06,1.25c-0.77-0.04-1.53-0.07-2.3-0.11c-0.08,1.65-0.16,3.31-0.24,4.96
	c-0.42-0.02-0.83-0.04-1.25-0.06c0.08-1.65,0.15-3.31,0.23-4.96c-0.77-0.04-1.53-0.07-2.3-0.11c0.02-0.42,0.04-0.83,0.06-1.25
	C225.57,67.2,227.52,67.29,229.47,67.38"/>
<path class="st0" d="M233.26,67.57c-0.06,1.26-0.13,2.52-0.19,3.78c-0.04,0.74,0.12,1.39,1.68,1.47c1.66,0.09,1.79-0.62,1.83-1.29
	c0.07-1.26,0.13-2.52,0.2-3.78c0.42,0.02,0.83,0.04,1.25,0.07c-0.07,1.26-0.13,2.52-0.2,3.77c-0.07,1.31-0.76,2.59-3.15,2.47
	c-2.16-0.11-2.93-1.3-2.86-2.78c0.06-1.26,0.13-2.52,0.19-3.78L233.26,67.57z"/>
<path class="st0" d="M245.28,68.22c1.16,0.07,2.23,0.56,2.14,1.96c-0.07,1.19-0.9,1.57-1.5,1.75c0.48,0.88,0.95,1.75,1.42,2.63
	c-0.52-0.03-1.05-0.06-1.57-0.09c-0.48-0.87-0.95-1.75-1.43-2.62c-0.67-0.04-1.33-0.07-2-0.11c-0.05,0.84-0.09,1.69-0.14,2.53
	c-0.42-0.02-0.83-0.05-1.25-0.07c0.11-2.07,0.23-4.14,0.34-6.21C242.64,68.07,243.96,68.14,245.28,68.22 M242.49,69.31l-0.07,1.19
	c0.91,0.05,1.81,0.1,2.72,0.15c0.37,0.02,1,0.01,1.03-0.54c0.03-0.58-0.53-0.62-0.96-0.64C244.31,69.41,243.4,69.36,242.49,69.31"/>
<path class="st0" d="M255.62,68.84c-0.03,0.42-0.05,0.83-0.08,1.25c-1.43-0.09-2.86-0.18-4.28-0.26c-0.02,0.38-0.05,0.75-0.07,1.13
	c0.75,0.05,1.51,0.09,2.26,0.14c-0.03,0.42-0.05,0.83-0.08,1.25c-0.75-0.05-1.51-0.09-2.26-0.14c-0.03,0.45-0.05,0.89-0.08,1.34
	c1.47,0.09,2.94,0.18,4.42,0.27c-0.03,0.42-0.05,0.83-0.08,1.25c-1.89-0.12-3.78-0.23-5.66-0.35c0.12-2.07,0.25-4.14,0.37-6.21
	C251.93,68.61,253.77,68.72,255.62,68.84"/>
</svg>
