<?xml version="1.0" encoding="utf-8"?>
<!-- Generator: Adobe Illustrator 24.0.0, SVG Export Plug-In . SVG Version: 6.00 Build 0)  -->
<svg version="1.1" id="Layer_1" xmlns="http://www.w3.org/2000/svg" xmlns:xlink="http://www.w3.org/1999/xlink" x="0px" y="0px"
	 viewBox="0 0 144.75 37.53" style="enable-background:new 0 0 144.75 37.53;" xml:space="preserve">
<style type="text/css">
	.st0{fill:#231F20;}
</style>
<path class="st0" d="M0,29.35c0.77-1.95,1.45-4.58,1.91-7.47C3.13,14.68,4.4,7.32,5.67,0h1.77c2.54,5.6,5.2,11.35,7.9,17.1l0.33,0.7
	l0.34-0.7C18.74,11.5,21.5,5.91,24.47,0h1.55c0.94,6.93,1.88,13.83,2.83,20.69c0.3,2.34,0.95,4.82,1.76,6.83
	c-2.51,0.11-5.07,0.23-7.6,0.35c0.16-1.77-0.3-4.77-0.78-7.94l-0.01-0.05c-0.14-0.9-0.28-1.8-0.4-2.69l-0.17-1.18l-0.53,1.07
	c-1.97,3.93-3.92,7.86-5.79,11.67l-0.79,0.05c-1.94-3.8-3.86-7.61-5.72-11.33l-0.51-1.02l-0.26,1.57c-0.7,4.18-1.31,7.8-1.26,10.83
	C4.55,29.01,2.27,29.17,0,29.35"/>
<path class="st0" d="M54.8,27.17c-1.18,0-2.13-0.13-3.05-0.27c-0.88-0.12-1.7-0.24-2.66-0.24c-0.15,0-0.29,0-0.43,0.01l-0.38-6.9
	c1.83,1.47,4.65,2.26,6.49,2.26l0.14,0c1.52-0.03,2.42-0.84,2.42-2.15c0-2.11-1.79-3.4-3.68-4.76c-2.17-1.56-4.62-3.32-4.83-6.67
	c-0.14-2.34,0.48-4.32,1.8-5.74c1.53-1.64,3.98-2.52,7.08-2.54h0.06c0.75,0,1.47,0.11,2.16,0.21c0.7,0.11,1.37,0.21,2.07,0.21
	c0.35,0,0.67-0.02,0.99-0.07l0.34,6.32c-1.34-1.2-2.97-1.79-4.97-1.79c-0.09,0-0.17,0-0.26,0c-0.82,0.02-1.47,0.27-1.89,0.73
	c-0.34,0.37-0.51,0.86-0.48,1.42c0.07,1.29,1.35,2.15,2.98,3.24c2.48,1.66,5.56,3.74,5.81,8.28c0.12,2.17-0.53,4.08-1.88,5.54
	c-1.67,1.81-4.32,2.85-7.46,2.92C55.05,27.16,54.92,27.17,54.8,27.17"/>
<path class="st0" d="M83.03,26.83c-2.51-0.04-5.02-0.07-7.47-0.09c0.27-1.67,0.41-3.86,0.41-6.69l0-8.56c0-1.8-0.04-3.7-0.12-5.07
	l-0.02-0.35l-1.26,0c-1.89,0-4.07,0.22-5.51,0.36c-0.32,0.03-0.61,0.06-0.85,0.08V0.35c0.22,0.02,0.49,0.04,0.81,0.07
	c2.3,0.21,7,0.63,10.05,0.63c0,0,0.24,0,0.36,0c2.95-0.03,7.85-0.44,10.21-0.64l0.73-0.06l0,6.24c-0.23-0.02-0.51-0.05-0.81-0.08
	c-1.48-0.16-3.71-0.4-5.66-0.4L82.67,6.1l-0.01,0.36c-0.04,1.49-0.04,3.48-0.04,5.08l0,8.58C82.63,22.18,82.7,24.97,83.03,26.83"/>
<path class="st0" d="M115.88,27.97c-2.5-0.13-4.98-0.25-7.36-0.36c0.32-2.01,0.37-5.17,0.36-6.91l-0.01-13.3
	c0-2.79-0.11-4.8-0.39-6.89c2.54,0.09,5.08,0.19,7.62,0.29h0.15c2.07,0,5.94-0.08,7.77-0.38l0,6.18c-1.6-0.28-3.78-0.45-6.17-0.48
	l-2.33-0.03l-0.04,0.36l0,6.04l1.68,0.04c0.45,0.01,0.89,0.02,1.31,0.02c1.72,0,3.22-0.09,4.46-0.27l0,6.14
	c-1.41-0.36-3.33-0.49-5.74-0.58l-1.7-0.06l0,3.19C115.52,23.32,115.55,25.98,115.88,27.97"/>
<path class="st0" d="M137.28,29.35c-2.58-0.2-5.19-0.39-7.77-0.56c0.6-1.98,0.6-3.55,0.6-7.16l-0.01-13.9
	c0-2.62-0.32-5.61-0.64-7.22l7.87,0.01c-0.28,1.43-0.64,4.61-0.64,7.35v14.11C136.69,25.34,136.79,27.54,137.28,29.35"/>
<path class="st0" d="M102.92,27.38c-2.58-0.1-5.19-0.19-7.77-0.26c0.59-1.88,0.59-3.35,0.59-6.74L95.73,7.26
	c0-2.45-0.32-5.26-0.64-6.78l7.85,0c-0.27,1.31-0.63,4.2-0.63,6.85l0.01,13.19C102.33,23.64,102.43,25.7,102.92,27.38"/>
<path class="st0" d="M35.23,27.34c0.58-1.92,0.59-3.4,0.59-6.8l0.01-13.22c0-2.46-0.32-5.29-0.63-6.84l7.85,0
	c-0.27,1.3-0.63,4.16-0.63,6.78l-0.01,13.06c0,3.1,0.09,5.14,0.59,6.77C40.39,27.16,37.78,27.24,35.23,27.34"/>
<polygon class="st0" points="141.99,0.51 141.99,0.86 141.13,0.86 141.13,2.95 140.78,2.95 140.78,0.86 139.92,0.86 139.92,0.51 "/>
<polygon class="st0" points="142.73,1.24 142.72,1.24 142.72,2.95 142.37,2.95 142.37,0.51 142.72,0.51 143.56,2.03 144.39,0.51 
	144.75,0.51 144.75,2.95 144.39,2.95 144.39,1.24 144.39,1.24 143.56,2.75 "/>
<path class="st0" d="M14.87,34.25c0.01,0.21,0.02,0.42,0.04,0.62c-0.38,0.02-0.77,0.05-1.15,0.07c0.05,0.83,0.1,1.65,0.15,2.48
	l-0.62,0.04l-0.15-2.48c-0.38,0.02-0.77,0.05-1.15,0.07c-0.01-0.21-0.03-0.41-0.04-0.62C12.92,34.36,13.89,34.3,14.87,34.25"/>
<path class="st0" d="M16.8,34.13c0.02,0.39,0.04,0.78,0.07,1.17c0.56-0.03,1.11-0.06,1.67-0.09c-0.02-0.39-0.04-0.78-0.07-1.17
	c0.21-0.01,0.42-0.02,0.63-0.03c0.06,1.03,0.11,2.07,0.17,3.1c-0.21,0.01-0.42,0.02-0.62,0.04l-0.07-1.31
	c-0.56,0.03-1.11,0.06-1.67,0.1c0.03,0.43,0.05,0.87,0.08,1.31c-0.21,0.01-0.42,0.02-0.62,0.04c-0.06-1.03-0.12-2.07-0.18-3.1
	C16.39,34.16,16.6,34.14,16.8,34.13"/>
<path class="st0" d="M23.6,33.77c0.01,0.21,0.02,0.42,0.03,0.62c-0.71,0.04-1.43,0.07-2.14,0.11c0.01,0.19,0.02,0.38,0.03,0.56
	c0.38-0.02,0.75-0.04,1.13-0.06c0.01,0.21,0.02,0.42,0.03,0.62c-0.38,0.02-0.75,0.04-1.13,0.06c0.01,0.22,0.02,0.45,0.04,0.67
	c0.74-0.04,1.47-0.08,2.21-0.11c0.01,0.21,0.02,0.42,0.03,0.62c-0.94,0.05-1.89,0.1-2.83,0.15c-0.06-1.04-0.11-2.07-0.17-3.11
	C21.75,33.86,22.67,33.81,23.6,33.77"/>
<path class="st0" d="M27.14,33.59c0.27,0.75,0.53,1.5,0.8,2.25h0.01c0.17-0.77,0.35-1.54,0.53-2.31c0.27-0.01,0.54-0.02,0.81-0.04
	c0.24,0.75,0.48,1.5,0.71,2.25c0,0,0.01,0,0.01,0c0.2-0.77,0.41-1.54,0.62-2.31c0.22-0.01,0.43-0.02,0.65-0.03
	c-0.28,1.05-0.56,2.1-0.84,3.15c-0.28,0.01-0.56,0.02-0.83,0.04c-0.23-0.75-0.46-1.5-0.7-2.25c0,0-0.01,0-0.01,0
	c-0.16,0.77-0.33,1.54-0.49,2.3c-0.27,0.01-0.55,0.02-0.82,0.04c-0.36-1.02-0.73-2.04-1.1-3.06C26.71,33.61,26.92,33.6,27.14,33.59"
	/>
<path class="st0" d="M32.05,34.94c-0.04-0.87,0.62-1.68,1.85-1.73c1.24-0.05,1.95,0.7,1.98,1.58c0.03,0.87-0.63,1.67-1.85,1.72
	C32.81,36.56,32.08,35.81,32.05,34.94 M35.25,34.81c-0.02-0.54-0.55-1.01-1.33-0.98c-0.78,0.03-1.27,0.54-1.25,1.08
	c0.02,0.54,0.55,1.01,1.33,0.98C34.78,35.85,35.27,35.35,35.25,34.81"/>
<path class="st0" d="M37.33,33.18c0.21-0.01,0.42-0.01,0.63-0.02c0.59,0.68,1.19,1.36,1.78,2.04h0.01c-0.02-0.7-0.05-1.4-0.07-2.1
	c0.21-0.01,0.42-0.01,0.63-0.02c0.03,1.04,0.07,2.07,0.1,3.11l-0.62,0.02c-0.59-0.68-1.18-1.36-1.78-2.04h-0.01l0.07,2.1
	c-0.21,0.01-0.42,0.01-0.62,0.02C37.4,35.25,37.36,34.21,37.33,33.18"/>
<path class="st0" d="M43.68,32.98c0.72-0.02,1.59,0.3,1.62,1.46c0.03,1.03-0.6,1.62-1.53,1.64c-0.56,0.02-1.12,0.03-1.69,0.05
	c-0.03-1.04-0.06-2.07-0.09-3.11C42.56,33.01,43.12,32.99,43.68,32.98 M42.69,35.49c0.35-0.01,0.71-0.02,1.06-0.03
	c0.55-0.02,0.94-0.34,0.92-0.97c-0.02-0.73-0.49-0.9-0.98-0.89c-0.36,0.01-0.71,0.02-1.07,0.03C42.65,34.25,42.67,34.87,42.69,35.49
	"/>
<path class="st0" d="M48.68,32.85c0.58-0.01,1.13,0.19,1.15,0.89c0.01,0.6-0.39,0.82-0.68,0.93c0.27,0.42,0.54,0.84,0.82,1.25
	c-0.26,0.01-0.52,0.01-0.79,0.02c-0.27-0.42-0.54-0.83-0.82-1.25c-0.33,0.01-0.67,0.02-1,0.02c0.01,0.42,0.02,0.84,0.03,1.27
	C47.19,36,46.98,36,46.77,36.01c-0.03-1.04-0.05-2.07-0.08-3.11C47.36,32.88,48.02,32.87,48.68,32.85 M47.34,33.51
	c0,0.2,0.01,0.4,0.01,0.59c0.45-0.01,0.91-0.02,1.36-0.03c0.19-0.01,0.5-0.04,0.49-0.31c-0.01-0.29-0.29-0.29-0.51-0.28
	C48.24,33.49,47.79,33.5,47.34,33.51"/>
<path class="st0" d="M51,34.36c-0.02-0.87,0.65-1.66,1.88-1.69c1.23-0.02,1.93,0.74,1.94,1.62c0.02,0.87-0.66,1.66-1.88,1.68
	C51.73,35.99,51.02,35.23,51,34.36 M54.2,34.3c-0.01-0.54-0.53-1.02-1.31-1c-0.78,0.01-1.28,0.52-1.27,1.05
	c0.01,0.54,0.53,1.02,1.31,1C53.71,35.33,54.21,34.84,54.2,34.3"/>
<path class="st0" d="M56.65,32.7c0.01,0.63,0.02,1.26,0.03,1.89c0.01,0.37,0.11,0.69,0.89,0.68c0.83-0.01,0.87-0.37,0.87-0.7
	c-0.01-0.63-0.02-1.26-0.02-1.89c0.21,0,0.42-0.01,0.63-0.01c0.01,0.63,0.01,1.26,0.02,1.89c0.01,0.65-0.3,1.32-1.49,1.33
	c-1.08,0.01-1.5-0.56-1.52-1.29c-0.01-0.63-0.02-1.26-0.03-1.89C56.24,32.7,56.45,32.7,56.65,32.7"/>
<path class="st0" d="M60.61,34.76c0.54,0.34,1.06,0.46,1.61,0.46c0.31,0,0.84-0.08,0.84-0.43c0-0.25-0.28-0.32-0.47-0.32
	c-0.31-0.01-0.62-0.02-0.93-0.02c-0.76-0.01-1.14-0.45-1.15-0.93c0-0.46,0.33-0.96,1.46-0.97c0.82-0.01,1.32,0.3,1.51,0.4
	c-0.09,0.18-0.19,0.37-0.28,0.55c-0.25-0.12-0.7-0.33-1.32-0.32c-0.33,0-0.74,0.08-0.74,0.35c0,0.24,0.35,0.3,0.56,0.3
	c0.27,0.01,0.54,0.01,0.81,0.02c0.72,0.01,1.18,0.32,1.18,0.97c0,0.56-0.43,1.02-1.46,1.03c-0.84,0.01-1.46-0.2-1.9-0.52
	C60.42,35.13,60.51,34.94,60.61,34.76"/>
<path class="st0" d="M69.05,32.6c0.61,0,1.13,0.26,1.13,0.98c0,0.7-0.48,1-1.12,1c-0.41,0-0.83,0-1.24,0c0,0.38,0,0.75,0,1.12
	c-0.21,0-0.42,0-0.62,0c0-1.04-0.01-2.07-0.01-3.11C67.8,32.61,68.43,32.6,69.05,32.6 M67.81,33.97c0.41,0,0.83,0,1.25,0
	c0.24,0,0.5-0.03,0.5-0.38c0-0.33-0.28-0.36-0.5-0.36c-0.42,0-0.83,0-1.25,0C67.81,33.48,67.81,33.72,67.81,33.97"/>
<path class="st0" d="M71.11,34.16c0-0.87,0.69-1.65,1.92-1.65c1.24,0,1.91,0.78,1.91,1.66c0,0.87-0.7,1.65-1.92,1.64
	C71.8,35.81,71.11,35.03,71.11,34.16 M74.31,34.17c0-0.54-0.51-1.03-1.28-1.03c-0.78,0-1.29,0.49-1.29,1.02
	c0,0.54,0.51,1.03,1.28,1.03C73.8,35.19,74.31,34.71,74.31,34.17"/>
<path class="st0" d="M76.3,32.63c0.23,0.76,0.45,1.52,0.68,2.29h0.01c0.22-0.76,0.43-1.52,0.65-2.28c0.27,0,0.54,0.01,0.81,0.01
	c0.2,0.76,0.4,1.52,0.59,2.29h0.01c0.25-0.76,0.49-1.52,0.74-2.27c0.22,0,0.43,0,0.65,0.01c-0.34,1.03-0.67,2.07-1,3.1
	c-0.28,0-0.56-0.01-0.84-0.01c-0.19-0.76-0.38-1.52-0.58-2.29c0,0-0.01,0-0.01,0c-0.21,0.76-0.41,1.52-0.62,2.28
	c-0.27,0-0.55,0-0.82-0.01c-0.31-1.04-0.62-2.08-0.93-3.12C75.87,32.62,76.08,32.62,76.3,32.63"/>
<path class="st0" d="M84.13,32.71c0,0.21-0.01,0.42-0.01,0.62c-0.72-0.01-1.43-0.02-2.14-0.03c0,0.19-0.01,0.38-0.01,0.56
	c0.38,0.01,0.75,0.01,1.13,0.01c0,0.21-0.01,0.42-0.01,0.62c-0.38-0.01-0.75-0.01-1.13-0.02l-0.01,0.67
	c0.74,0.01,1.47,0.02,2.21,0.03c0,0.21-0.01,0.42-0.01,0.62c-0.94-0.01-1.89-0.03-2.84-0.04c0.01-1.04,0.03-2.07,0.04-3.11
	C82.28,32.69,83.2,32.7,84.13,32.71"/>
<path class="st0" d="M87.43,32.77c0.58,0.01,1.12,0.24,1.11,0.94c-0.01,0.59-0.42,0.8-0.72,0.9c0.26,0.43,0.51,0.86,0.76,1.29
	c-0.26-0.01-0.52-0.01-0.79-0.02c-0.25-0.43-0.51-0.85-0.76-1.28c-0.33-0.01-0.67-0.01-1-0.02c-0.01,0.42-0.01,0.85-0.02,1.27
	c-0.21,0-0.42-0.01-0.62-0.01l0.05-3.11C86.1,32.74,86.76,32.76,87.43,32.77 M86.05,33.37c0,0.2-0.01,0.4-0.01,0.59
	c0.45,0.01,0.91,0.02,1.36,0.02c0.19,0,0.5-0.02,0.51-0.29c0.01-0.29-0.28-0.3-0.49-0.3C86.96,33.38,86.51,33.38,86.05,33.37"/>
<path class="st0" d="M91.82,34.42c0.02-0.87,0.72-1.63,1.95-1.6c1.24,0.03,1.9,0.83,1.87,1.7c-0.02,0.87-0.74,1.63-1.96,1.6
	C92.47,36.08,91.79,35.29,91.82,34.42 M95.02,34.5c0.01-0.54-0.48-1.04-1.26-1.06c-0.78-0.02-1.3,0.46-1.31,0.99
	c-0.01,0.54,0.48,1.04,1.26,1.06C94.48,35.51,95,35.04,95.02,34.5"/>
<path class="st0" d="M97.73,36.13c-0.21-0.01-0.42-0.01-0.62-0.02c0.03-1.04,0.06-2.07,0.09-3.11c0.92,0.03,1.85,0.06,2.77,0.08
	l-0.02,0.62c-0.71-0.02-1.43-0.04-2.14-0.07l-0.02,0.56c0.38,0.01,0.75,0.02,1.13,0.04c-0.01,0.21-0.01,0.42-0.02,0.62
	c-0.38-0.01-0.75-0.02-1.13-0.04C97.75,35.27,97.74,35.7,97.73,36.13"/>
<path class="st0" d="M103.44,33.21c0.21,0.01,0.42,0.02,0.63,0.02c0.54,0.72,1.09,1.44,1.63,2.16c0,0,0.01,0,0.01,0
	c0.03-0.7,0.05-1.4,0.08-2.1l0.63,0.02c-0.04,1.04-0.08,2.07-0.12,3.11c-0.21-0.01-0.42-0.02-0.62-0.02
	c-0.54-0.72-1.08-1.44-1.63-2.16h-0.01c-0.03,0.7-0.05,1.4-0.08,2.1c-0.21-0.01-0.42-0.01-0.62-0.02
	C103.36,35.28,103.4,34.25,103.44,33.21"/>
<path class="st0" d="M108.95,33.43c0.28,0.01,0.55,0.02,0.83,0.04c0.46,1.06,0.93,2.11,1.39,3.17c-0.24-0.01-0.47-0.02-0.71-0.03
	c-0.09-0.22-0.19-0.45-0.28-0.67c-0.61-0.03-1.21-0.05-1.82-0.08c-0.11,0.21-0.23,0.43-0.34,0.64c-0.24-0.01-0.47-0.02-0.71-0.03
	C107.86,35.46,108.4,34.44,108.95,33.43 M108.69,35.25c0.4,0.02,0.8,0.03,1.2,0.05c-0.18-0.42-0.36-0.83-0.55-1.25
	C109.13,34.45,108.91,34.85,108.69,35.25"/>
<path class="st0" d="M114.74,33.69l-0.03,0.62c-0.38-0.02-0.77-0.04-1.15-0.06c-0.04,0.83-0.08,1.65-0.12,2.48
	c-0.21-0.01-0.42-0.02-0.62-0.03c0.04-0.83,0.08-1.65,0.11-2.48c-0.38-0.02-0.77-0.04-1.15-0.05c0.01-0.21,0.02-0.42,0.03-0.62
	C112.79,33.6,113.76,33.64,114.74,33.69"/>
<path class="st0" d="M116.63,33.79c-0.03,0.63-0.06,1.26-0.1,1.89c-0.02,0.37,0.06,0.7,0.84,0.74c0.83,0.04,0.9-0.31,0.91-0.64
	c0.03-0.63,0.07-1.26,0.1-1.89c0.21,0.01,0.42,0.02,0.63,0.03c-0.03,0.63-0.07,1.26-0.1,1.89c-0.04,0.65-0.38,1.3-1.58,1.23
	c-1.08-0.06-1.46-0.65-1.43-1.39l0.09-1.89C116.21,33.76,116.42,33.77,116.63,33.79"/>
<path class="st0" d="M122.64,34.11c0.58,0.03,1.11,0.28,1.07,0.98c-0.04,0.59-0.45,0.79-0.75,0.88c0.24,0.44,0.47,0.88,0.71,1.32
	c-0.26-0.02-0.53-0.03-0.79-0.05c-0.24-0.44-0.48-0.87-0.71-1.31c-0.33-0.02-0.67-0.04-1-0.06c-0.02,0.42-0.05,0.84-0.07,1.27
	c-0.21-0.01-0.42-0.02-0.62-0.04c0.06-1.03,0.11-2.07,0.17-3.1C121.32,34.03,121.98,34.07,122.64,34.11 M121.25,34.66
	c-0.01,0.2-0.02,0.4-0.03,0.59c0.45,0.03,0.9,0.05,1.36,0.08c0.19,0.01,0.5,0,0.52-0.27c0.02-0.29-0.27-0.31-0.48-0.32
	C122.15,34.71,121.7,34.68,121.25,34.66"/>
<path class="st0" d="M127.81,34.42c-0.01,0.21-0.03,0.42-0.04,0.62c-0.71-0.05-1.43-0.09-2.14-0.13c-0.01,0.19-0.02,0.38-0.03,0.56
	c0.38,0.02,0.75,0.05,1.13,0.07c-0.01,0.21-0.03,0.42-0.04,0.62c-0.38-0.02-0.75-0.05-1.13-0.07c-0.01,0.22-0.03,0.45-0.04,0.67
	c0.74,0.04,1.47,0.09,2.21,0.14c-0.01,0.21-0.03,0.42-0.04,0.62c-0.94-0.06-1.89-0.12-2.83-0.17c0.06-1.04,0.12-2.07,0.18-3.1
	C125.96,34.31,126.89,34.36,127.81,34.42"/>
</svg>
