<?xml version="1.0" encoding="utf-8"?>
<!-- Generator: Adobe Illustrator 24.0.0, SVG Export Plug-In . SVG Version: 6.00 Build 0)  -->
<svg version="1.1" id="Layer_1" xmlns="http://www.w3.org/2000/svg" xmlns:xlink="http://www.w3.org/1999/xlink" x="0px" y="0px"
	 viewBox="0 0 147.71 37.53" style="enable-background:new 0 0 147.71 37.53;" xml:space="preserve">
<style type="text/css">
	.st0{fill:#231F20;}
	.st1{fill:#FFFFFF;}
</style>
<path class="st0" d="M137.51,29.4c-2.58-0.2-5.2-0.39-7.78-0.56c0.6-1.99,0.6-3.55,0.6-7.17l0-13.92c0-2.62-0.33-5.62-0.64-7.23
	l7.88,0.01c-0.28,1.43-0.64,4.62-0.64,7.37l0,14.14C136.92,25.38,137.02,27.59,137.51,29.4"/>
<path class="st0" d="M0,29.4c0.77-1.95,1.45-4.59,1.91-7.48C3.14,14.7,4.41,7.33,5.68,0h1.77c2.55,5.6,5.21,11.37,7.91,17.13
	l0.33,0.71l0.34-0.7C18.77,11.52,21.54,5.92,24.51,0h1.55c0.95,6.94,1.89,13.85,2.83,20.73c0.31,2.35,0.95,4.83,1.77,6.84
	c-2.52,0.11-5.08,0.23-7.62,0.36c0.16-1.77-0.3-4.78-0.78-7.96l-0.01-0.05c-0.14-0.9-0.28-1.81-0.4-2.69l-0.17-1.18l-0.53,1.07
	c-1.98,3.94-3.93,7.87-5.8,11.69l-0.79,0.05c-1.94-3.81-3.87-7.62-5.73-11.35l-0.51-1.02l-0.26,1.57c-0.7,4.19-1.31,7.82-1.26,10.84
	C4.56,29.05,2.27,29.22,0,29.4"/>
<path class="st0" d="M54.89,27.21c-1.18,0-2.14-0.13-3.06-0.26c-0.88-0.12-1.7-0.24-2.66-0.24c-0.15,0-0.29,0-0.43,0.01l-0.38-6.91
	c1.83,1.47,4.66,2.27,6.5,2.27l0.14,0c1.52-0.03,2.43-0.84,2.42-2.16c-0.01-2.12-1.79-3.4-3.69-4.77c-2.17-1.56-4.63-3.33-4.83-6.68
	c-0.15-2.34,0.48-4.33,1.8-5.75c1.53-1.64,3.99-2.52,7.09-2.55h0.07c0.75,0,1.47,0.11,2.16,0.21c0.7,0.11,1.37,0.21,2.08,0.21
	c0.35,0,0.68-0.02,1-0.07l0.34,6.33c-1.34-1.21-2.97-1.8-4.98-1.8c-0.09,0-0.17,0-0.26,0c-0.82,0.02-1.47,0.27-1.89,0.73
	c-0.35,0.37-0.51,0.86-0.48,1.42c0.07,1.29,1.35,2.16,2.98,3.25c2.48,1.67,5.57,3.74,5.82,8.29c0.12,2.17-0.53,4.09-1.88,5.55
	c-1.67,1.81-4.33,2.85-7.47,2.93C55.14,27.21,55.02,27.21,54.89,27.21"/>
<path class="st0" d="M83.17,26.88c-2.51-0.04-5.02-0.07-7.48-0.09c0.27-1.67,0.41-3.86,0.41-6.7l0-8.57c0-1.8-0.04-3.7-0.11-5.08
	l-0.02-0.35l-1.26,0c-1.89,0-4.07,0.22-5.52,0.36c-0.32,0.03-0.61,0.06-0.85,0.08V0.35c0.22,0.02,0.49,0.04,0.81,0.07
	c2.3,0.21,7.01,0.63,10.07,0.63c0,0,0.24,0,0.36,0c2.95-0.04,7.86-0.44,10.23-0.64l0.73-0.06l0,6.25c-0.23-0.02-0.51-0.05-0.81-0.08
	c-1.48-0.16-3.72-0.4-5.67-0.4l-1.23-0.01L82.8,6.47c-0.04,1.49-0.04,3.48-0.04,5.08l0,8.6C82.77,22.21,82.84,25.01,83.17,26.88"/>
<path class="st0" d="M116.08,28.01c-2.51-0.13-4.98-0.25-7.37-0.36c0.32-2.01,0.37-5.18,0.37-6.92l-0.01-13.32
	c0-2.79-0.12-4.81-0.39-6.9c2.54,0.1,5.09,0.19,7.64,0.29l0.15,0c2.07,0,5.95-0.08,7.78-0.38l0,6.19c-1.6-0.28-3.78-0.45-6.18-0.49
	l-2.33-0.03l-0.04,0.36l0,6.05l1.68,0.04c0.45,0.01,0.89,0.02,1.31,0.02c1.72,0,3.23-0.09,4.47-0.27l0,6.15
	c-1.41-0.36-3.33-0.49-5.75-0.58l-1.7-0.06l0,3.2C115.71,23.36,115.75,26.02,116.08,28.01"/>
<path class="st0" d="M103.09,27.42c-2.58-0.1-5.19-0.19-7.78-0.26c0.59-1.88,0.59-3.35,0.59-6.75L95.89,7.27
	c0-2.45-0.32-5.26-0.64-6.79l7.87,0c-0.27,1.31-0.63,4.21-0.63,6.86l0.01,13.21C102.51,23.68,102.6,25.74,103.09,27.42"/>
<path class="st0" d="M35.29,27.39c0.59-1.92,0.59-3.4,0.59-6.81l0.01-13.24c0-2.47-0.32-5.3-0.63-6.85l7.87,0
	c-0.27,1.3-0.64,4.17-0.64,6.79l-0.01,13.08c0,3.11,0.09,5.14,0.59,6.78C40.46,27.2,37.85,27.29,35.29,27.39"/>
<path class="st1" d="M6.51,2.62c-1.39,9.76-1.33,9.77-2.03,13.63c-0.45,2.49-1.69,8.32-2.07,9.52c-0.38,1.21-0.94,2.27-0.94,2.27
	s2.52-1.79,3.79-11.35c0.6-4.53,1.26-11.37,1.26-11.37V2.62z"/>
<path class="st1" d="M24.21,3.88c0,0-2.51,4.97-3.26,6.48c-0.76,1.51-3.86,7.69-3.86,7.69s1.44-1.08,3.11-4.05
	c1.91-3.4,2.58-5.62,3.09-6.75C23.8,6.11,24.21,3.88,24.21,3.88"/>
<path class="st1" d="M58.74,1.93c0,0-1.82-0.19-3.44,0.11c-1.47,0.27-2.68,0.7-3.48,1.72c-0.52,0.66-0.92,1.27-1.05,2.12
	c-0.1,0.68,0.09,1.82,0.09,1.82s0.23-0.91,0.78-2.19c0.31-0.73,0.77-1.4,1.71-2.07c0.84-0.6,2.67-0.96,2.67-0.96L58.74,1.93z"/>
<path class="st1" d="M55,10.09c0,0,2.43,1.36,3.85,2.42c1.42,1.06,3.29,2.49,3.66,3.58c0.38,1.09,0.47,1.66,0.47,1.66
	s-0.96-2.12-3.48-4.09C58.24,12.67,55,10.09,55,10.09"/>
<path class="st1" d="M58.74,21.13c-0.45,1.14-0.98,1.81-1.8,2.18c-0.95,0.43-2.5,0.46-3.17,0.43c-0.9-0.05-2.86-0.62-2.86-0.62
	s1.47,0.94,2.29,1.13c1.09,0.26,2.74,0.24,4.04-0.57C58.74,22.75,58.74,21.13,58.74,21.13"/>
<path class="st1" d="M69.5,4.98V1.67c0,0,5.3,0.84,8.89,0.66c3.59-0.18,9.55-0.66,9.55-0.66s-0.66,0.9-2.93,1.07
	c-2.27,0.16-6.15,0.03-8.98,0c-2.84-0.03-6.15-0.41-6.15-0.41L69.5,4.98z"/>
<path class="st1" d="M77.59,14.32c0,2.67,0.09,5.98,0,8.01c-0.1,2.03-0.66,3.07-0.66,3.07s1.04-2.3,1.14-5.55
	c0.09-3.24,0.47-9.2,0-11l-0.47-1.8V14.32z"/>
<path class="st1" d="M100.74,2.14h-3.51c0,0-0.09,7,0,9.75c0.1,2.75,0.57,9.61,0.57,10.83c0,1.18-0.61,2.7-0.61,2.7
	s1.74-1.89,1.46-4.35c-0.28-2.46-0.47-8.41-0.76-10.5c-0.28-2.08-0.19-8.01-0.19-8.01"/>
<path class="st1" d="M122.39,2.14c0,0-2.84,0.09-4.63,0c-1.8-0.09-7.19-0.47-7.19-0.47s0.57,8.42,0.57,11.07
	c0,1.12-0.08,3.2-0.19,5.3c-0.14,2.87-0.33,5.78-0.38,6.33c-0.09,0.95-0.57,1.94-0.57,1.94s1.23-0.8,1.32-1.94
	c0.09-1.13,0.47-5.39,0.47-6.81c0-1.42-0.19-6.43-0.19-8.7c0-2.27-0.38-5.53-0.38-5.53l0.1-0.78c0,0,1.61-0.07,4.16,0
	c2.55,0.07,4.73,0,4.73,0L122.39,2.14z"/>
<path class="st1" d="M121.92,13.64c0,0-2.27,0.33-3.97,0.38c-1.7,0.04-2.28-0.19-2.28-0.19s0.87,0.58,2.39,0.6
	C119.56,14.45,121.92,13.64,121.92,13.64"/>
<path class="st1" d="M135.08,2.41h-3.51c0,0-0.1,7.52,0,10.47c0.09,2.95,0.57,10.36,0.57,11.63c0,1.27-0.61,2.9-0.61,2.9
	s1.74-2.03,1.46-4.67c-0.28-2.64-0.47-9.04-0.76-11.28c-0.28-2.24-0.19-8.61-0.19-8.61"/>
<path class="st1" d="M40.46,2.01h-3.51c0,0-0.09,7,0,9.75c0.1,2.74,0.57,9.65,0.57,10.83c0,1.18-0.61,2.7-0.61,2.7
	s1.74-1.89,1.46-4.35c-0.28-2.46-0.47-8.42-0.76-10.5c-0.28-2.08-0.19-8.01-0.19-8.01"/>
<path class="st1" d="M7.97,5.95c4.28,8.72,4.27,8.71,4.91,9.94c0.49,0.92,1.45,2.86,1.45,2.86s-2.16-3.13-3.18-5.18
	C10.13,11.51,7.97,5.95,7.97,5.95"/>
<path class="st1" d="M24.85,26.36c0,0,0.43-0.65,0.32-1.94c-0.01-0.15-0.04-0.38-0.08-0.69c-0.32-2.45-1.43-9.36-1.43-9.36
	s0.78,2.84,1.24,4.75c0.45,1.87,0.57,2.82,0.72,4.08C25.92,25.69,24.85,26.36,24.85,26.36"/>
<path class="st0" d="M15.28,34.24c0.01,0.21,0.02,0.42,0.04,0.62c-0.38,0.02-0.77,0.05-1.15,0.07c0.05,0.83,0.1,1.65,0.15,2.48
	l-0.62,0.04c-0.05-0.83-0.1-1.65-0.15-2.48c-0.38,0.02-0.77,0.05-1.15,0.07c-0.01-0.21-0.03-0.42-0.04-0.62
	C13.33,34.36,14.3,34.3,15.28,34.24"/>
<path class="st0" d="M17.22,34.13c0.02,0.39,0.04,0.78,0.07,1.17c0.56-0.03,1.11-0.06,1.67-0.1c-0.02-0.39-0.04-0.78-0.07-1.18
	c0.21-0.01,0.42-0.02,0.63-0.03c0.06,1.03,0.11,2.07,0.17,3.1c-0.21,0.01-0.42,0.02-0.62,0.03l-0.07-1.31
	c-0.55,0.03-1.11,0.06-1.67,0.1c0.03,0.43,0.05,0.87,0.08,1.31c-0.21,0.01-0.42,0.02-0.62,0.04c-0.06-1.04-0.12-2.07-0.18-3.1
	C16.8,34.15,17.01,34.14,17.22,34.13"/>
<path class="st0" d="M24.01,33.76c0.01,0.21,0.02,0.42,0.03,0.62c-0.71,0.04-1.43,0.07-2.14,0.11l0.03,0.56L23.06,35
	c0.01,0.21,0.02,0.42,0.03,0.62c-0.38,0.02-0.75,0.04-1.13,0.06L22,36.36c0.74-0.04,1.47-0.08,2.21-0.11l0.03,0.62
	c-0.94,0.05-1.89,0.1-2.83,0.14c-0.06-1.03-0.11-2.07-0.17-3.1C22.16,33.86,23.09,33.81,24.01,33.76"/>
<path class="st0" d="M27.55,33.59c0.27,0.75,0.54,1.5,0.8,2.25c0,0,0.01,0,0.01,0c0.18-0.77,0.35-1.54,0.53-2.31
	c0.27-0.01,0.54-0.02,0.81-0.03c0.24,0.75,0.48,1.5,0.71,2.25c0,0,0.01,0,0.01,0c0.2-0.77,0.41-1.54,0.62-2.31
	c0.22-0.01,0.43-0.02,0.65-0.03c-0.28,1.05-0.56,2.1-0.84,3.15c-0.28,0.01-0.56,0.02-0.83,0.04c-0.23-0.75-0.46-1.5-0.7-2.25
	c0,0-0.01,0-0.01,0c-0.16,0.77-0.33,1.54-0.49,2.31c-0.27,0.01-0.55,0.02-0.82,0.04c-0.36-1.02-0.73-2.04-1.1-3.06
	C27.12,33.61,27.34,33.6,27.55,33.59"/>
<path class="st0" d="M32.46,34.94c-0.04-0.87,0.62-1.68,1.85-1.73c1.24-0.05,1.95,0.7,1.98,1.58c0.03,0.87-0.63,1.67-1.85,1.72
	C33.22,36.56,32.5,35.8,32.46,34.94 M35.66,34.81c-0.02-0.54-0.55-1.01-1.33-0.98c-0.78,0.03-1.27,0.54-1.25,1.08
	c0.02,0.54,0.55,1,1.33,0.97C35.19,35.85,35.68,35.35,35.66,34.81"/>
<path class="st0" d="M37.74,33.18c0.21-0.01,0.42-0.01,0.63-0.02c0.59,0.68,1.19,1.36,1.78,2.04c0,0,0.01,0,0.01,0
	c-0.02-0.7-0.05-1.4-0.07-2.1c0.21-0.01,0.42-0.01,0.63-0.02c0.03,1.04,0.07,2.07,0.1,3.11c-0.21,0.01-0.42,0.01-0.62,0.02
	c-0.59-0.68-1.18-1.36-1.78-2.04c0,0-0.01,0-0.01,0c0.03,0.7,0.05,1.4,0.07,2.1c-0.21,0.01-0.42,0.01-0.62,0.02
	C37.81,35.25,37.77,34.21,37.74,33.18"/>
<path class="st0" d="M44.1,32.97c0.72-0.02,1.59,0.3,1.62,1.46c0.03,1.03-0.6,1.62-1.53,1.65c-0.56,0.02-1.12,0.03-1.69,0.05
	l-0.09-3.11C42.97,33.01,43.53,32.99,44.1,32.97 M43.1,35.49c0.35-0.01,0.71-0.02,1.06-0.03c0.55-0.02,0.94-0.34,0.92-0.97
	c-0.02-0.73-0.49-0.9-0.98-0.89c-0.36,0.01-0.71,0.02-1.07,0.03C43.07,34.25,43.08,34.87,43.1,35.49"/>
<path class="st0" d="M49.1,32.85c0.58-0.01,1.13,0.19,1.15,0.89c0.01,0.6-0.38,0.82-0.68,0.93c0.27,0.42,0.54,0.84,0.82,1.26
	c-0.26,0.01-0.52,0.01-0.79,0.02c-0.27-0.42-0.54-0.83-0.82-1.25c-0.33,0.01-0.67,0.02-1,0.02c0.01,0.42,0.02,0.84,0.03,1.26
	C47.6,36,47.4,36,47.19,36.01l-0.08-3.11C47.77,32.88,48.43,32.87,49.1,32.85 M47.75,33.51c0,0.2,0.01,0.4,0.01,0.59
	c0.45-0.01,0.91-0.02,1.36-0.03c0.19-0.01,0.5-0.04,0.49-0.31c-0.01-0.29-0.29-0.29-0.51-0.28C48.66,33.49,48.2,33.5,47.75,33.51"/>
<path class="st0" d="M51.41,34.36c-0.02-0.87,0.65-1.66,1.88-1.69c1.24-0.02,1.93,0.74,1.94,1.62c0.02,0.87-0.66,1.66-1.88,1.68
	C52.14,35.99,51.43,35.23,51.41,34.36 M54.61,34.3c-0.01-0.54-0.53-1.02-1.31-1c-0.78,0.01-1.28,0.52-1.27,1.05
	c0.01,0.54,0.53,1.01,1.31,1C54.12,35.33,54.62,34.84,54.61,34.3"/>
<path class="st0" d="M57.07,32.7c0.01,0.63,0.02,1.26,0.03,1.89c0.01,0.37,0.11,0.69,0.89,0.68c0.83-0.01,0.87-0.37,0.87-0.7
	c-0.01-0.63-0.02-1.26-0.02-1.89c0.21,0,0.42-0.01,0.63-0.01c0.01,0.63,0.01,1.26,0.02,1.89c0.01,0.66-0.3,1.32-1.49,1.33
	c-1.08,0.01-1.5-0.55-1.52-1.29c-0.01-0.63-0.02-1.26-0.03-1.89C56.65,32.7,56.86,32.7,57.07,32.7"/>
<path class="st0" d="M61.02,34.76c0.54,0.34,1.06,0.46,1.61,0.46c0.31,0,0.84-0.09,0.84-0.43c0-0.25-0.28-0.32-0.47-0.32
	c-0.31-0.01-0.62-0.02-0.93-0.02c-0.76-0.01-1.14-0.45-1.15-0.93c0-0.46,0.33-0.96,1.46-0.97c0.82-0.01,1.32,0.3,1.51,0.4
	c-0.09,0.18-0.19,0.37-0.28,0.55c-0.25-0.12-0.7-0.33-1.32-0.32c-0.33,0-0.74,0.08-0.74,0.35c0,0.24,0.35,0.3,0.56,0.29
	c0.27,0.01,0.54,0.01,0.81,0.02c0.72,0.01,1.18,0.32,1.18,0.97c0,0.56-0.43,1.02-1.46,1.03c-0.84,0.01-1.46-0.2-1.9-0.52
	C60.83,35.13,60.93,34.94,61.02,34.76"/>
<path class="st0" d="M69.46,32.6c0.61,0,1.13,0.26,1.13,0.98c0,0.7-0.48,1-1.12,1c-0.41,0-0.83,0-1.24,0l0,1.12
	c-0.21,0-0.42,0-0.62,0c0-1.04-0.01-2.07-0.01-3.11C68.21,32.6,68.84,32.6,69.46,32.6 M68.22,33.97c0.41,0,0.83,0,1.25,0
	c0.24,0,0.5-0.03,0.5-0.38c0-0.33-0.28-0.36-0.5-0.36c-0.42,0-0.83,0-1.25,0C68.22,33.48,68.22,33.72,68.22,33.97"/>
<path class="st0" d="M71.53,34.16c0-0.87,0.69-1.65,1.92-1.65c1.24,0,1.91,0.78,1.91,1.66c-0.01,0.87-0.7,1.65-1.92,1.64
	C72.21,35.81,71.53,35.03,71.53,34.16 M74.73,34.17c0-0.54-0.51-1.03-1.28-1.03c-0.78,0-1.29,0.49-1.29,1.02
	c0,0.54,0.51,1.03,1.28,1.03C74.21,35.19,74.72,34.71,74.73,34.17"/>
<path class="st0" d="M76.71,32.62c0.23,0.76,0.45,1.52,0.68,2.29h0.01l0.65-2.28c0.27,0,0.54,0.01,0.81,0.01
	c0.2,0.76,0.4,1.52,0.59,2.29h0.01c0.25-0.76,0.49-1.52,0.74-2.27c0.22,0,0.43,0,0.65,0.01c-0.34,1.03-0.67,2.07-1,3.1
	c-0.28,0-0.56,0-0.84-0.01c-0.19-0.76-0.38-1.52-0.58-2.29h-0.01c-0.21,0.76-0.41,1.52-0.62,2.27L77,35.74
	c-0.31-1.04-0.62-2.08-0.93-3.12C76.28,32.62,76.5,32.62,76.71,32.62"/>
<path class="st0" d="M84.54,32.71c0,0.21-0.01,0.42-0.01,0.62c-0.72-0.01-1.43-0.02-2.14-0.03c0,0.19-0.01,0.38-0.01,0.56
	c0.38,0.01,0.75,0.01,1.13,0.02l-0.01,0.62c-0.38-0.01-0.75-0.01-1.13-0.02c0,0.22-0.01,0.45-0.01,0.67
	c0.74,0.01,1.47,0.02,2.21,0.03c0,0.21-0.01,0.42-0.01,0.62c-0.94-0.01-1.89-0.03-2.83-0.04l0.04-3.11
	C82.69,32.68,83.62,32.7,84.54,32.71"/>
<path class="st0" d="M87.84,32.77c0.58,0.01,1.12,0.24,1.11,0.94c-0.01,0.6-0.42,0.8-0.71,0.9c0.25,0.43,0.51,0.86,0.76,1.29
	c-0.26-0.01-0.52-0.01-0.79-0.01c-0.25-0.43-0.51-0.85-0.76-1.28c-0.33-0.01-0.67-0.01-1-0.02c-0.01,0.42-0.01,0.85-0.02,1.27
	c-0.21,0-0.42-0.01-0.62-0.01l0.05-3.11C86.51,32.74,87.18,32.76,87.84,32.77 M86.47,33.37c0,0.2-0.01,0.4-0.01,0.59
	c0.45,0.01,0.91,0.02,1.36,0.02c0.19,0,0.5-0.01,0.51-0.29c0.01-0.29-0.28-0.3-0.49-0.3C87.37,33.38,86.92,33.38,86.47,33.37"/>
<path class="st0" d="M92.23,34.42c0.02-0.87,0.72-1.63,1.95-1.6c1.24,0.03,1.9,0.83,1.87,1.7c-0.02,0.87-0.74,1.63-1.96,1.6
	C92.88,36.08,92.21,35.29,92.23,34.42 M95.43,34.5c0.01-0.54-0.48-1.04-1.26-1.06c-0.78-0.02-1.3,0.46-1.31,0.99
	c-0.01,0.54,0.48,1.04,1.26,1.06C94.89,35.51,95.41,35.04,95.43,34.5"/>
<path class="st0" d="M98.14,36.13c-0.21-0.01-0.42-0.01-0.62-0.02c0.03-1.03,0.06-2.07,0.09-3.11c0.92,0.03,1.85,0.06,2.77,0.09
	l-0.02,0.62c-0.71-0.02-1.43-0.05-2.14-0.07c-0.01,0.19-0.01,0.38-0.02,0.56c0.38,0.01,0.75,0.02,1.13,0.04
	c-0.01,0.21-0.01,0.42-0.02,0.62c-0.38-0.01-0.75-0.02-1.13-0.03C98.16,35.27,98.15,35.7,98.14,36.13"/>
<path class="st0" d="M103.85,33.21c0.21,0.01,0.42,0.02,0.63,0.02c0.54,0.72,1.09,1.44,1.63,2.17c0,0,0.01,0,0.01,0
	c0.03-0.7,0.05-1.4,0.08-2.1c0.21,0.01,0.42,0.02,0.63,0.02c-0.04,1.04-0.08,2.07-0.12,3.11c-0.21-0.01-0.42-0.02-0.62-0.03
	c-0.54-0.72-1.08-1.44-1.63-2.16c0,0-0.01,0-0.01,0c-0.03,0.7-0.05,1.4-0.08,2.1c-0.21-0.01-0.42-0.02-0.62-0.02
	C103.77,35.28,103.81,34.25,103.85,33.21"/>
<path class="st0" d="M109.36,33.43c0.28,0.01,0.55,0.02,0.83,0.04c0.47,1.06,0.93,2.12,1.39,3.17c-0.24-0.01-0.47-0.02-0.71-0.03
	c-0.1-0.22-0.19-0.44-0.29-0.67c-0.61-0.03-1.21-0.05-1.82-0.08c-0.11,0.21-0.23,0.43-0.34,0.64c-0.24-0.01-0.47-0.02-0.71-0.03
	C108.27,35.46,108.82,34.44,109.36,33.43 M109.11,35.25c0.4,0.02,0.8,0.03,1.2,0.05c-0.18-0.42-0.36-0.83-0.55-1.25
	C109.54,34.45,109.32,34.85,109.11,35.25"/>
<path class="st0" d="M115.15,33.69c-0.01,0.21-0.02,0.42-0.03,0.62c-0.38-0.02-0.77-0.04-1.15-0.05c-0.04,0.83-0.08,1.65-0.12,2.48
	l-0.62-0.03c0.04-0.83,0.08-1.65,0.11-2.48c-0.38-0.02-0.77-0.04-1.15-0.05c0.01-0.21,0.02-0.42,0.03-0.62
	C113.2,33.6,114.17,33.64,115.15,33.69"/>
<path class="st0" d="M117.04,33.78c-0.03,0.63-0.06,1.26-0.1,1.89c-0.02,0.37,0.06,0.69,0.84,0.73c0.83,0.04,0.9-0.31,0.91-0.64
	c0.03-0.63,0.07-1.26,0.1-1.89c0.21,0.01,0.42,0.02,0.63,0.03c-0.03,0.63-0.07,1.26-0.1,1.89c-0.03,0.65-0.38,1.3-1.58,1.23
	c-1.08-0.06-1.47-0.65-1.43-1.39c0.03-0.63,0.06-1.26,0.09-1.89C116.62,33.76,116.83,33.77,117.04,33.78"/>
<path class="st0" d="M123.06,34.11c0.58,0.03,1.11,0.28,1.07,0.98c-0.04,0.59-0.45,0.79-0.75,0.88c0.24,0.44,0.47,0.88,0.71,1.32
	c-0.26-0.02-0.53-0.03-0.79-0.05c-0.24-0.44-0.48-0.87-0.71-1.31c-0.33-0.02-0.67-0.04-1-0.06c-0.02,0.42-0.05,0.84-0.07,1.26
	c-0.21-0.01-0.42-0.02-0.62-0.03c0.06-1.04,0.11-2.07,0.17-3.1C121.73,34.03,122.39,34.07,123.06,34.11 M121.66,34.66
	c-0.01,0.2-0.02,0.4-0.03,0.59c0.45,0.03,0.91,0.05,1.36,0.08c0.19,0.01,0.5,0,0.52-0.27c0.02-0.29-0.27-0.31-0.48-0.32
	C122.57,34.71,122.11,34.68,121.66,34.66"/>
<path class="st0" d="M128.22,34.42c-0.01,0.21-0.03,0.42-0.04,0.62c-0.71-0.04-1.43-0.09-2.14-0.13c-0.01,0.19-0.02,0.38-0.03,0.56
	c0.38,0.02,0.75,0.05,1.13,0.07c-0.01,0.21-0.03,0.42-0.04,0.62c-0.38-0.02-0.75-0.05-1.13-0.07c-0.01,0.22-0.03,0.45-0.04,0.67
	c0.74,0.04,1.47,0.09,2.21,0.14c-0.01,0.21-0.03,0.41-0.04,0.62c-0.94-0.06-1.89-0.12-2.83-0.17c0.06-1.04,0.12-2.07,0.18-3.1
	C126.38,34.31,127.3,34.36,128.22,34.42"/>
<polygon class="st0" points="144.04,0.51 144.04,0.98 142.89,0.98 142.89,3.77 142.42,3.77 142.42,0.98 141.28,0.98 141.28,0.51 "/>
<polygon class="st0" points="145.02,1.48 145.01,1.48 145.01,3.77 144.54,3.77 144.54,0.51 145.01,0.51 146.13,2.53 147.24,0.51 
	147.71,0.51 147.71,3.77 147.24,3.77 147.24,1.48 147.23,1.48 146.13,3.49 "/>
</svg>
