<?xml version="1.0" encoding="utf-8"?>
<!-- Generator: Adobe Illustrator 24.0.0, SVG Export Plug-In . SVG Version: 6.00 Build 0)  -->
<svg version="1.1" id="Layer_1" xmlns="http://www.w3.org/2000/svg" xmlns:xlink="http://www.w3.org/1999/xlink" x="0px" y="0px"
	 viewBox="0 0 34.33 7.34" style="enable-background:new 0 0 34.33 7.34;" xml:space="preserve">
<style type="text/css">
	.st0{fill:#231F20;}
</style>
<path class="st0" d="M0,7.34c0.19-0.49,0.36-1.15,0.48-1.87C0.78,3.67,1.1,1.83,1.42,0h0.44c0.64,1.4,1.3,2.84,1.98,4.27l0.08,0.18
	L4,4.28C4.68,2.88,5.38,1.48,6.12,0H6.5c0.24,1.73,0.47,3.46,0.71,5.17c0.08,0.59,0.24,1.21,0.44,1.71
	c-0.63,0.03-1.27,0.06-1.9,0.09c0.04-0.44-0.07-1.19-0.2-1.99l0-0.01C5.52,4.75,5.49,4.52,5.45,4.3L5.41,4.01L5.28,4.27
	C4.79,5.26,4.3,6.24,3.83,7.19L3.64,7.2C3.15,6.25,2.67,5.3,2.2,4.37L2.08,4.11L2.01,4.51C1.84,5.55,1.68,6.46,1.7,7.21
	C1.14,7.25,0.57,7.29,0,7.34"/>
<path class="st0" d="M13.7,6.79c-0.29,0-0.53-0.03-0.76-0.07c-0.22-0.03-0.43-0.06-0.66-0.06c-0.04,0-0.07,0-0.11,0l-0.09-1.73
	c0.46,0.37,1.16,0.57,1.62,0.57l0.03,0c0.38-0.01,0.61-0.21,0.61-0.54c0-0.53-0.45-0.85-0.92-1.19c-0.54-0.39-1.15-0.83-1.21-1.67
	c-0.04-0.58,0.12-1.08,0.45-1.43c0.38-0.41,1-0.63,1.77-0.64h0.02c0.19,0,0.37,0.03,0.54,0.05c0.18,0.03,0.34,0.05,0.52,0.05
	c0.09,0,0.17-0.01,0.25-0.02l0.08,1.58c-0.34-0.3-0.74-0.45-1.24-0.45c-0.02,0-0.04,0-0.07,0c-0.2,0.01-0.37,0.07-0.47,0.18
	c-0.09,0.09-0.13,0.22-0.12,0.35c0.02,0.32,0.34,0.54,0.75,0.81c0.62,0.42,1.39,0.93,1.45,2.07c0.03,0.54-0.13,1.02-0.47,1.39
	c-0.42,0.45-1.08,0.71-1.86,0.73C13.76,6.79,13.73,6.79,13.7,6.79"/>
<path class="st0" d="M20.76,6.71c-0.63-0.01-1.26-0.02-1.87-0.02c0.07-0.42,0.1-0.97,0.1-1.67l0-2.14c0-0.45-0.01-0.92-0.03-1.27
	l-0.01-0.09l-0.31,0c-0.47,0-1.02,0.05-1.38,0.09c-0.08,0.01-0.15,0.02-0.21,0.02V0.09c0.05,0.01,0.12,0.01,0.2,0.02
	c0.57,0.05,1.75,0.16,2.51,0.16c0,0,0.06,0,0.09,0c0.74-0.01,1.96-0.11,2.55-0.16l0.18-0.01l0,1.56c-0.06-0.01-0.13-0.01-0.2-0.02
	c-0.37-0.04-0.93-0.1-1.41-0.1l-0.31,0l0,0.09c-0.01,0.37-0.01,0.87-0.01,1.27l0,2.15C20.66,5.54,20.68,6.24,20.76,6.71"/>
<path class="st0" d="M28.97,6.99c-0.62-0.03-1.24-0.06-1.84-0.09c0.08-0.5,0.09-1.29,0.09-1.73l0-3.33c0-0.7-0.03-1.2-0.1-1.72
	c0.64,0.02,1.27,0.05,1.91,0.07h0.04c0.52,0,1.48-0.02,1.94-0.09l0,1.54c-0.4-0.07-0.94-0.11-1.54-0.12l-0.58-0.01l-0.01,0.09
	l0,1.51l0.42,0.01c0.11,0,0.22,0,0.33,0c0.43,0,0.8-0.02,1.11-0.07l0,1.53c-0.35-0.09-0.83-0.12-1.44-0.14l-0.43-0.01l0,0.8
	C28.88,5.83,28.89,6.49,28.97,6.99"/>
<path class="st0" d="M34.32,7.34c-0.64-0.05-1.3-0.1-1.94-0.14c0.15-0.5,0.15-0.89,0.15-1.79l0-3.48c0-0.65-0.08-1.4-0.16-1.8
	l1.97,0c-0.07,0.36-0.16,1.15-0.16,1.84V5.5C34.17,6.33,34.2,6.88,34.32,7.34"/>
<path class="st0" d="M25.73,6.84c-0.64-0.02-1.3-0.05-1.94-0.07c0.15-0.47,0.15-0.84,0.15-1.68l0-3.28c0-0.61-0.08-1.31-0.16-1.7
	l1.96,0c-0.07,0.33-0.16,1.05-0.16,1.71l0,3.3C25.58,5.91,25.61,6.42,25.73,6.84"/>
<path class="st0" d="M8.81,6.83c0.15-0.48,0.15-0.85,0.15-1.7l0-3.3c0-0.62-0.08-1.32-0.16-1.71l1.96,0
	c-0.07,0.32-0.16,1.04-0.16,1.69l0,3.27c0,0.78,0.02,1.28,0.15,1.69C10.1,6.79,9.45,6.81,8.81,6.83"/>
</svg>
