<?xml version="1.0" encoding="utf-8"?>
<!-- Generator: Adobe Illustrator 24.0.0, SVG Export Plug-In . SVG Version: 6.00 Build 0)  -->
<svg version="1.1" id="Layer_1" xmlns="http://www.w3.org/2000/svg" xmlns:xlink="http://www.w3.org/1999/xlink" x="0px" y="0px"
	 viewBox="0 0 288.84 75.06" style="enable-background:new 0 0 288.84 75.06;" xml:space="preserve">
<style type="text/css">
	.st0{fill:#231F20;}
	.st1{fill:#FFFFFF;}
</style>
<path class="st0" d="M275.02,58.8c-5.16-0.4-10.39-0.78-15.57-1.13c1.2-3.98,1.2-7.11,1.2-14.35l-0.01-27.85
	c0-5.25-0.65-11.23-1.29-14.46l15.76,0.02c-0.56,2.87-1.28,9.24-1.28,14.73l0,28.27C273.84,50.76,274.03,55.17,275.02,58.8"/>
<path class="st0" d="M0,58.79c1.55-3.9,2.9-9.19,3.82-14.97C6.28,29.4,8.82,14.66,11.36,0h3.55c5.09,11.21,10.42,22.73,15.83,34.26
	l0.66,1.41l0.68-1.41C37.53,23.05,43.07,11.84,49.01,0h3.11c1.89,13.88,3.77,27.7,5.66,41.45c0.61,4.7,1.9,9.65,3.54,13.69
	c-5.04,0.21-10.16,0.45-15.23,0.71c0.33-3.54-0.59-9.56-1.56-15.91l-0.01-0.09c-0.27-1.8-0.55-3.61-0.8-5.39l-0.33-2.36l-1.07,2.13
	c-3.96,7.88-7.86,15.75-11.6,23.39l-1.57,0.1c-3.89-7.61-7.74-15.25-11.46-22.7l-1.02-2.05l-0.53,3.14
	c-1.41,8.38-2.62,15.63-2.52,21.69C9.11,58.11,4.54,58.45,0,58.79"/>
<path class="st0" d="M109.79,54.42c-2.36,0-4.27-0.27-6.12-0.53c-1.75-0.25-3.41-0.48-5.32-0.48c-0.29,0-0.58,0.01-0.87,0.02
	L96.72,39.6c3.66,2.95,9.32,4.53,13,4.53l0.27,0c3.05-0.06,4.86-1.68,4.85-4.31c-0.01-4.23-3.59-6.81-7.38-9.53
	c-4.34-3.12-9.26-6.65-9.67-13.37c-0.29-4.69,0.96-8.66,3.6-11.49c3.07-3.29,7.97-5.05,14.19-5.09h0.13c1.51,0,2.94,0.21,4.32,0.42
	c1.41,0.21,2.74,0.41,4.15,0.41c0.7,0,1.35-0.05,1.99-0.15l0.67,12.65c-2.68-2.41-5.94-3.59-9.95-3.59c-0.17,0-0.35,0-0.52,0.01
	c-1.63,0.04-2.94,0.54-3.78,1.45c-0.69,0.75-1.02,1.73-0.96,2.84c0.14,2.59,2.71,4.31,5.96,6.5c4.96,3.33,11.14,7.48,11.64,16.58
	c0.24,4.34-1.06,8.17-3.77,11.1c-3.35,3.62-8.66,5.7-14.95,5.85C110.28,54.42,110.03,54.42,109.79,54.42"/>
<path class="st0" d="M166.34,53.76c-5.02-0.08-10.05-0.14-14.97-0.18c0.55-3.34,0.82-7.73,0.81-13.4l0-17.15
	c0-3.61-0.09-7.4-0.23-10.15l-0.04-0.7l-2.52-0.01c-3.79,0-8.15,0.44-11.03,0.73c-0.64,0.07-1.22,0.12-1.7,0.17l0-12.37
	c0.43,0.04,0.99,0.09,1.63,0.14c4.6,0.41,14.02,1.26,20.13,1.26c0,0,0.49,0,0.72,0c5.9-0.07,15.73-0.89,20.45-1.28l1.46-0.12
	l0.01,12.51c-0.46-0.05-1.01-0.1-1.63-0.17c-2.96-0.32-7.44-0.79-11.34-0.81l-2.46-0.01l-0.02,0.73c-0.08,2.99-0.07,6.97-0.07,10.17
	l0.01,17.2C165.54,44.42,165.68,50.03,166.34,53.76"/>
<path class="st0" d="M232.16,56.02c-5.01-0.26-9.97-0.5-14.74-0.72c0.64-4.02,0.74-10.36,0.73-13.84l-0.02-26.65
	c0-5.58-0.23-9.62-0.78-13.81c5.09,0.19,10.18,0.38,15.27,0.58l0.3,0c4.14,0,11.9-0.16,15.57-0.76l0.01,12.38
	c-3.2-0.57-7.57-0.91-12.35-0.97l-4.66-0.06l-0.08,0.72l0.01,12.11l3.36,0.08c0.91,0.02,1.78,0.03,2.62,0.03
	c3.45,0,6.45-0.18,8.93-0.54l0.01,12.29c-2.83-0.72-6.66-0.99-11.5-1.15l-3.41-0.12l0,6.4C231.43,46.71,231.49,52.04,232.16,56.02"
	/>
<path class="st0" d="M206.19,54.84c-5.16-0.2-10.39-0.38-15.56-0.53c1.18-3.76,1.18-6.71,1.17-13.5l-0.02-26.26
	c0-4.91-0.65-10.53-1.28-13.59l15.74,0.01c-0.54,2.62-1.26,8.42-1.26,13.72l0.02,26.42C205.01,47.37,205.21,51.48,206.19,54.84"/>
<path class="st0" d="M70.57,54.77c1.17-3.85,1.17-6.81,1.18-13.63l0.02-26.48c0-4.93-0.63-10.61-1.26-13.7l15.74-0.01
	c-0.54,2.59-1.27,8.33-1.27,13.58l-0.02,26.16c0,6.22,0.19,10.29,1.17,13.56C80.92,54.41,75.69,54.58,70.57,54.77"/>
<path class="st1" d="M13.01,5.23c-2.77,19.52-2.66,19.54-4.07,27.27c-0.9,4.97-3.39,16.64-4.15,19.05
	c-0.75,2.41-1.88,4.54-1.88,4.54s5.05-3.57,7.57-22.69c1.2-9.06,2.52-22.74,2.52-22.74V5.23z"/>
<path class="st1" d="M48.42,7.75c0,0-5.01,9.93-6.53,12.96c-1.51,3.02-7.73,15.38-7.73,15.38s2.89-2.15,6.21-8.09
	c3.81-6.81,5.15-11.23,6.19-13.51C47.61,12.22,48.42,7.75,48.42,7.75"/>
<path class="st1" d="M117.49,3.85c0,0-3.63-0.38-6.88,0.22c-2.93,0.55-5.35,1.41-6.95,3.43c-1.03,1.31-1.84,2.54-2.1,4.24
	c-0.21,1.35,0.18,3.63,0.18,3.63s0.46-1.82,1.56-4.38c0.62-1.45,1.54-2.79,3.42-4.14c1.68-1.2,5.34-1.92,5.34-1.92L117.49,3.85z"/>
<path class="st1" d="M110.01,20.17c0,0,4.86,2.71,7.7,4.83s6.57,4.98,7.33,7.17c0.76,2.19,0.95,3.32,0.95,3.32s-1.92-4.24-6.96-8.17
	C116.47,25.33,110.01,20.17,110.01,20.17"/>
<path class="st1" d="M117.47,42.25c-0.9,2.27-1.96,3.61-3.6,4.35c-1.89,0.85-5,0.92-6.34,0.85c-1.8-0.1-5.72-1.23-5.72-1.23
	s2.93,1.87,4.59,2.27c2.17,0.52,5.49,0.48,8.08-1.14C117.47,45.5,117.47,42.25,117.47,42.25"/>
<path class="st1" d="M139.01,9.96V3.34c0,0,10.59,1.68,17.78,1.31s19.1-1.31,19.1-1.31s-1.32,1.81-5.86,2.13
	c-4.54,0.33-12.29,0.05-17.97,0c-5.67-0.05-12.29-0.82-12.29-0.82L139.01,9.96z"/>
<path class="st1" d="M155.17,28.65c0,5.33,0.19,11.95,0,16.01c-0.19,4.07-1.32,6.15-1.32,6.15s2.08-4.61,2.27-11.1
	c0.19-6.49,0.95-18.4,0-22l-0.95-3.59V28.65z"/>
<path class="st1" d="M201.48,4.28h-7.01c0,0-0.19,14.01,0,19.49c0.19,5.51,1.14,19.23,1.14,21.65c0,2.37-1.22,5.39-1.22,5.39
	s3.49-3.78,2.92-8.7c-0.57-4.92-0.95-16.83-1.51-20.99c-0.57-4.16-0.38-16.02-0.38-16.02"/>
<path class="st1" d="M244.78,4.28c0,0-5.67,0.18-9.27,0c-3.59-0.18-14.37-0.93-14.37-0.93s1.13,16.83,1.13,22.13
	c0,2.24-0.17,6.4-0.38,10.61c-0.29,5.74-0.65,11.56-0.76,12.65c-0.19,1.89-1.13,3.88-1.13,3.88s2.46-1.6,2.65-3.88
	c0.19-2.27,0.95-10.78,0.95-13.62c0-2.84-0.38-12.86-0.38-17.4s-0.76-11.06-0.76-11.06l0.19-1.55c0,0,3.21-0.14,8.32,0
	c5.11,0.14,9.46,0,9.46,0L244.78,4.28z"/>
<path class="st1" d="M243.83,27.28c0,0-4.54,0.67-7.94,0.75c-3.4,0.08-4.57-0.38-4.57-0.38s1.74,1.17,4.77,1.2
	C239.12,28.89,243.83,27.28,243.83,27.28"/>
<path class="st1" d="M270.16,4.82h-7.01c0,0-0.19,15.05,0,20.94c0.19,5.89,1.13,20.72,1.13,23.26c0,2.54-1.22,5.79-1.22,5.79
	s3.49-4.06,2.92-9.35c-0.57-5.28-0.95-18.08-1.51-22.55c-0.57-4.47-0.38-17.21-0.38-17.21"/>
<path class="st1" d="M80.92,4.01H73.9c0,0-0.19,14.01,0,19.49c0.19,5.49,1.14,19.29,1.14,21.65s-1.22,5.39-1.22,5.39
	s3.49-3.78,2.92-8.7c-0.57-4.92-0.95-16.83-1.51-20.99c-0.57-4.16-0.38-16.02-0.38-16.02"/>
<path class="st1" d="M15.94,11.9c8.56,17.43,8.53,17.43,9.83,19.88c0.97,1.84,2.9,5.73,2.9,5.73s-4.32-6.27-6.36-10.37
	C20.26,23.02,15.94,11.9,15.94,11.9"/>
<path class="st1" d="M49.7,52.73c0,0,0.86-1.3,0.65-3.89c-0.02-0.29-0.08-0.76-0.16-1.38c-0.65-4.9-2.86-18.71-2.86-18.71
	s1.57,5.69,2.49,9.51c0.9,3.74,1.13,5.65,1.44,8.16C51.84,51.38,49.7,52.73,49.7,52.73"/>
<path class="st0" d="M30.56,68.49c0.02,0.42,0.05,0.83,0.07,1.25c-0.76,0.05-1.53,0.09-2.3,0.14c0.1,1.65,0.2,3.31,0.3,4.96
	c-0.42,0.02-0.83,0.05-1.25,0.08c-0.1-1.65-0.2-3.31-0.31-4.96c-0.77,0.05-1.53,0.1-2.3,0.14c-0.03-0.42-0.05-0.83-0.08-1.25
	C26.66,68.73,28.61,68.61,30.56,68.49"/>
<path class="st0" d="M34.43,68.26c0.04,0.78,0.09,1.57,0.13,2.35c1.12-0.07,2.23-0.13,3.34-0.19c-0.04-0.78-0.09-1.57-0.13-2.35
	c0.42-0.02,0.84-0.05,1.25-0.07c0.11,2.07,0.23,4.14,0.34,6.21c-0.42,0.02-0.83,0.05-1.25,0.07c-0.05-0.87-0.1-1.74-0.15-2.61
	c-1.11,0.06-2.23,0.13-3.34,0.19c0.05,0.87,0.1,1.74,0.15,2.61c-0.42,0.02-0.83,0.05-1.25,0.07c-0.12-2.07-0.24-4.14-0.36-6.21
	C33.6,68.31,34.02,68.29,34.43,68.26"/>
<path class="st0" d="M48.02,67.53c0.02,0.42,0.04,0.83,0.06,1.25c-1.43,0.07-2.86,0.15-4.28,0.22c0.02,0.38,0.04,0.75,0.06,1.13
	l2.26-0.12c0.02,0.42,0.04,0.83,0.06,1.25c-0.75,0.04-1.51,0.08-2.26,0.12c0.02,0.45,0.05,0.9,0.07,1.34
	c1.47-0.08,2.95-0.15,4.42-0.23c0.02,0.42,0.04,0.83,0.06,1.25c-1.89,0.1-3.78,0.19-5.66,0.29c-0.11-2.07-0.22-4.14-0.33-6.21
	C44.33,67.72,46.17,67.62,48.02,67.53"/>
<path class="st0" d="M55.11,67.19c0.54,1.5,1.07,3,1.6,4.49c0.01,0,0.02,0,0.02,0c0.35-1.54,0.7-3.08,1.06-4.61
	c0.54-0.02,1.08-0.05,1.61-0.07c0.48,1.5,0.95,3,1.43,4.5c0.01,0,0.02,0,0.02,0c0.41-1.54,0.82-3.08,1.23-4.62
	c0.43-0.02,0.87-0.04,1.3-0.06c-0.56,2.1-1.12,4.2-1.67,6.29l-1.67,0.07c-0.46-1.5-0.93-3-1.39-4.51c-0.01,0-0.01,0-0.02,0
	c-0.33,1.54-0.66,3.07-0.99,4.61c-0.55,0.03-1.1,0.05-1.65,0.08c-0.73-2.04-1.46-4.08-2.2-6.12C54.24,67.23,54.67,67.21,55.11,67.19
	"/>
<path class="st0" d="M64.92,69.87c-0.07-1.74,1.24-3.36,3.7-3.45c2.47-0.1,3.89,1.4,3.95,3.15c0.06,1.74-1.26,3.35-3.69,3.44
	C66.44,73.11,64.99,71.61,64.92,69.87 M71.32,69.62c-0.04-1.08-1.1-2.01-2.65-1.95c-1.55,0.06-2.54,1.09-2.49,2.15
	c0.04,1.08,1.1,2.01,2.65,1.95C70.38,71.71,71.36,70.7,71.32,69.62"/>
<path class="st0" d="M75.47,66.36c0.42-0.01,0.83-0.03,1.25-0.04c1.19,1.36,2.38,2.72,3.56,4.08c0.01,0,0.02,0,0.02,0
	c-0.05-1.4-0.09-2.8-0.14-4.2c0.42-0.01,0.84-0.03,1.25-0.04c0.07,2.07,0.13,4.14,0.2,6.22c-0.42,0.01-0.83,0.03-1.25,0.04
	c-1.18-1.36-2.37-2.72-3.56-4.08c-0.01,0-0.02,0-0.02,0c0.05,1.4,0.1,2.8,0.15,4.2c-0.42,0.01-0.83,0.03-1.25,0.04
	C75.62,70.5,75.55,68.43,75.47,66.36"/>
<path class="st0" d="M88.19,65.95c1.43-0.04,3.18,0.61,3.24,2.93c0.05,2.05-1.2,3.24-3.06,3.29c-1.12,0.03-2.25,0.06-3.37,0.1
	c-0.06-2.07-0.13-4.14-0.19-6.21C85.94,66.02,87.07,65.98,88.19,65.95 M86.21,70.98c0.71-0.02,1.42-0.04,2.13-0.06
	c1.09-0.03,1.88-0.68,1.85-1.94c-0.04-1.46-0.98-1.81-1.95-1.78c-0.71,0.02-1.42,0.04-2.13,0.06C86.13,68.5,86.17,69.74,86.21,70.98
	"/>
<path class="st0" d="M98.19,65.7c1.16-0.03,2.26,0.38,2.29,1.78c0.03,1.19-0.77,1.64-1.36,1.87c0.54,0.84,1.09,1.67,1.63,2.51
	c-0.52,0.01-1.05,0.02-1.57,0.03c-0.54-0.83-1.09-1.66-1.63-2.5c-0.67,0.01-1.33,0.03-2,0.05c0.02,0.84,0.04,1.69,0.06,2.53
	c-0.42,0.01-0.83,0.02-1.25,0.03c-0.05-2.07-0.1-4.15-0.16-6.22C95.54,65.76,96.87,65.73,98.19,65.7 M95.5,67.02
	c0.01,0.4,0.02,0.79,0.03,1.19c0.91-0.02,1.81-0.04,2.72-0.06c0.37-0.01,1-0.07,0.98-0.62c-0.01-0.58-0.58-0.57-1.01-0.56
	C97.31,66.97,96.41,66.99,95.5,67.02"/>
<path class="st0" d="M102.83,68.71c-0.04-1.74,1.3-3.33,3.76-3.38c2.47-0.05,3.86,1.48,3.89,3.23c0.03,1.74-1.33,3.32-3.76,3.37
	C104.28,71.99,102.86,70.45,102.83,68.71 M109.23,68.59c-0.02-1.08-1.06-2.03-2.61-2.01c-1.55,0.03-2.56,1.03-2.54,2.1
	c0.02,1.08,1.06,2.03,2.61,2C108.24,70.66,109.24,69.67,109.23,68.59"/>
<path class="st0" d="M114.13,65.4c0.02,1.26,0.04,2.52,0.05,3.78c0.01,0.74,0.21,1.38,1.77,1.36c1.66-0.02,1.75-0.73,1.74-1.4
	c-0.02-1.26-0.03-2.52-0.05-3.78c0.42-0.01,0.84-0.01,1.25-0.01c0.02,1.26,0.03,2.52,0.05,3.78c0.01,1.31-0.59,2.64-2.98,2.67
	c-2.16,0.03-3.01-1.11-3.03-2.59c-0.02-1.26-0.04-2.52-0.06-3.78C113.3,65.41,113.72,65.4,114.13,65.4"/>
<path class="st0" d="M122.04,69.51c1.09,0.69,2.12,0.93,3.22,0.92c0.62-0.01,1.68-0.17,1.68-0.87c-0.01-0.5-0.56-0.63-0.94-0.64
	c-0.62-0.02-1.24-0.03-1.86-0.04c-1.53-0.02-2.28-0.9-2.29-1.86c-0.01-0.92,0.67-1.92,2.91-1.94c1.64-0.01,2.65,0.6,3.02,0.79
	c-0.19,0.37-0.37,0.74-0.56,1.11c-0.5-0.25-1.4-0.66-2.64-0.65c-0.66,0.01-1.48,0.16-1.48,0.71c0.01,0.48,0.69,0.59,1.11,0.59
	c0.54,0.02,1.08,0.03,1.63,0.05c1.43,0.03,2.35,0.63,2.36,1.94c0.01,1.12-0.86,2.05-2.92,2.06c-1.68,0.01-2.92-0.4-3.8-1.04
	C121.66,70.26,121.85,69.89,122.04,69.51"/>
<path class="st0" d="M138.93,65.21c1.22,0,2.26,0.53,2.25,1.97c0,1.39-0.96,2.01-2.25,2.01c-0.83,0-1.66,0-2.49,0
	c0,0.75,0,1.5,0.01,2.24c-0.42,0-0.83,0-1.25,0c-0.01-2.07-0.01-4.15-0.02-6.22C136.43,65.21,137.68,65.21,138.93,65.21
	 M136.44,67.94c0.83,0,1.66,0,2.49,0c0.48,0,1-0.06,1-0.76c0-0.66-0.55-0.72-1-0.72c-0.83,0-1.66,0-2.49,0
	C136.44,66.95,136.44,67.44,136.44,67.94"/>
<path class="st0" d="M143.05,68.32c0-1.74,1.38-3.3,3.84-3.29c2.47,0.01,3.83,1.57,3.82,3.32c-0.01,1.74-1.4,3.29-3.84,3.28
	C144.43,71.62,143.05,70.06,143.05,68.32 M149.45,68.34c0-1.08-1.01-2.06-2.57-2.06c-1.55-0.01-2.58,0.98-2.58,2.04
	c0,1.08,1.02,2.05,2.57,2.06C148.42,70.38,149.45,69.42,149.45,68.34"/>
<path class="st0" d="M153.43,65.25c0.46,1.52,0.91,3.05,1.36,4.57h0.02c0.43-1.52,0.87-3.04,1.3-4.55c0.54,0,1.08,0.01,1.61,0.01
	c0.4,1.53,0.79,3.05,1.19,4.57h0.02c0.49-1.51,0.99-3.03,1.48-4.55l1.3,0.01c-0.67,2.07-1.34,4.13-2.01,6.2
	c-0.56,0-1.11-0.01-1.67-0.02c-0.38-1.53-0.77-3.05-1.15-4.57h-0.02c-0.41,1.52-0.82,3.03-1.23,4.55c-0.55,0-1.1-0.01-1.65-0.01
	c-0.62-2.08-1.24-4.15-1.87-6.23C152.56,65.24,152.99,65.25,153.43,65.25"/>
<path class="st0" d="M169.08,65.42c-0.01,0.42-0.01,0.83-0.02,1.25c-1.43-0.02-2.86-0.04-4.29-0.06l-0.01,1.13
	c0.75,0.01,1.51,0.02,2.26,0.03L167,69.02c-0.75-0.01-1.51-0.02-2.26-0.03c-0.01,0.45-0.01,0.9-0.02,1.35
	c1.47,0.02,2.95,0.04,4.42,0.06c-0.01,0.42-0.01,0.83-0.02,1.25c-1.89-0.03-3.78-0.06-5.67-0.08c0.03-2.07,0.05-4.15,0.08-6.22
	C165.38,65.37,167.23,65.4,169.08,65.42"/>
<path class="st0" d="M175.68,65.54c1.16,0.02,2.24,0.47,2.22,1.88c-0.02,1.19-0.84,1.6-1.43,1.81c0.51,0.86,1.02,1.72,1.52,2.57
	c-0.52-0.01-1.05-0.02-1.57-0.03c-0.51-0.85-1.02-1.71-1.52-2.56c-0.67-0.01-1.33-0.02-2-0.04c-0.01,0.84-0.03,1.69-0.04,2.53
	c-0.42-0.01-0.83-0.01-1.25-0.02c0.04-2.07,0.07-4.15,0.11-6.22C173.03,65.49,174.35,65.51,175.68,65.54 M172.93,66.74
	c-0.01,0.4-0.01,0.79-0.02,1.19c0.91,0.02,1.81,0.03,2.72,0.05c0.38,0.01,1-0.03,1.01-0.58c0.01-0.58-0.55-0.6-0.99-0.61
	C174.75,66.77,173.84,66.75,172.93,66.74"/>
<path class="st0" d="M184.46,68.84c0.04-1.74,1.45-3.27,3.91-3.21c2.47,0.06,3.79,1.65,3.74,3.4c-0.05,1.74-1.48,3.26-3.91,3.2
	C185.76,72.17,184.41,70.58,184.46,68.84 M190.85,69c0.03-1.08-0.97-2.08-2.52-2.12c-1.55-0.04-2.6,0.92-2.63,1.99
	c-0.03,1.08,0.97,2.08,2.52,2.12C189.78,71.02,190.82,70.08,190.85,69"/>
<path class="st0" d="M196.28,72.26c-0.42-0.01-0.83-0.02-1.25-0.04c0.06-2.07,0.12-4.14,0.18-6.22c1.85,0.05,3.69,0.11,5.54,0.17
	l-0.04,1.25c-1.43-0.05-2.86-0.09-4.29-0.14c-0.01,0.38-0.02,0.75-0.03,1.13c0.75,0.02,1.51,0.05,2.26,0.07l-0.04,1.25
	c-0.75-0.02-1.51-0.05-2.26-0.07C196.33,70.54,196.3,71.4,196.28,72.26"/>
<path class="st0" d="M207.7,66.42c0.42,0.02,0.83,0.03,1.25,0.05c1.09,1.44,2.17,2.88,3.26,4.33c0.01,0,0.02,0,0.02,0
	c0.05-1.4,0.11-2.8,0.16-4.2c0.42,0.01,0.84,0.03,1.25,0.05c-0.08,2.07-0.16,4.14-0.25,6.21c-0.42-0.02-0.83-0.03-1.25-0.05
	c-1.08-1.44-2.17-2.89-3.25-4.33c-0.01,0-0.02,0-0.02,0l-0.15,4.2c-0.42-0.02-0.83-0.03-1.25-0.05
	C207.55,70.57,207.62,68.49,207.7,66.42"/>
<path class="st0" d="M218.73,66.86c0.55,0.02,1.11,0.05,1.66,0.07c0.93,2.11,1.86,4.23,2.78,6.35c-0.47-0.02-0.94-0.04-1.42-0.06
	c-0.19-0.44-0.38-0.89-0.57-1.33c-1.21-0.05-2.43-0.11-3.64-0.16c-0.23,0.43-0.45,0.85-0.68,1.28c-0.47-0.02-0.94-0.04-1.42-0.06
	C216.54,70.92,217.63,68.89,218.73,66.86 M218.21,70.5c0.8,0.03,1.6,0.07,2.4,0.1c-0.36-0.83-0.73-1.67-1.1-2.5
	C219.08,68.9,218.65,69.7,218.21,70.5"/>
<path class="st0" d="M230.3,67.38c-0.02,0.42-0.04,0.83-0.06,1.25c-0.77-0.04-1.53-0.07-2.3-0.11c-0.08,1.65-0.16,3.31-0.24,4.96
	c-0.42-0.02-0.83-0.04-1.25-0.06c0.08-1.66,0.15-3.31,0.23-4.97c-0.77-0.03-1.53-0.07-2.3-0.1c0.02-0.42,0.04-0.83,0.06-1.25
	C226.39,67.2,228.35,67.29,230.3,67.38"/>
<path class="st0" d="M234.09,67.57c-0.06,1.26-0.13,2.52-0.19,3.78c-0.04,0.75,0.12,1.39,1.68,1.47c1.66,0.09,1.79-0.62,1.83-1.29
	c0.07-1.26,0.13-2.52,0.2-3.78c0.42,0.02,0.83,0.04,1.25,0.07c-0.07,1.26-0.13,2.52-0.2,3.78c-0.07,1.31-0.76,2.59-3.15,2.47
	c-2.16-0.11-2.93-1.3-2.86-2.78c0.06-1.26,0.13-2.52,0.19-3.78C233.25,67.53,233.67,67.55,234.09,67.57"/>
<path class="st0" d="M246.11,68.22c1.16,0.07,2.23,0.56,2.14,1.96c-0.07,1.19-0.9,1.57-1.5,1.75c0.48,0.88,0.95,1.75,1.42,2.63
	c-0.52-0.03-1.05-0.06-1.57-0.09c-0.48-0.87-0.95-1.75-1.43-2.62c-0.67-0.04-1.33-0.08-2-0.11c-0.05,0.84-0.09,1.69-0.14,2.53
	c-0.42-0.02-0.83-0.05-1.25-0.07c0.11-2.07,0.23-4.14,0.34-6.21C243.46,68.07,244.78,68.14,246.11,68.22 M243.32,69.31l-0.07,1.19
	c0.91,0.05,1.81,0.1,2.72,0.15c0.37,0.02,1,0.01,1.03-0.54c0.03-0.58-0.53-0.62-0.96-0.65C245.13,69.42,244.22,69.36,243.32,69.31"
	/>
<path class="st0" d="M256.44,68.84c-0.03,0.42-0.05,0.83-0.08,1.25c-1.43-0.09-2.85-0.18-4.28-0.26c-0.02,0.38-0.05,0.75-0.07,1.13
	c0.75,0.05,1.51,0.09,2.26,0.14c-0.03,0.41-0.05,0.83-0.08,1.25c-0.75-0.05-1.51-0.09-2.26-0.14c-0.03,0.45-0.05,0.89-0.08,1.34
	c1.47,0.09,2.94,0.18,4.42,0.27c-0.03,0.42-0.05,0.83-0.08,1.25c-1.89-0.12-3.78-0.24-5.66-0.35c0.12-2.07,0.25-4.14,0.37-6.21
	C252.75,68.61,254.6,68.72,256.44,68.84"/>
<polygon class="st0" points="283.33,1.08 283.33,1.78 281.62,1.78 281.62,5.97 280.91,5.97 280.91,1.78 279.2,1.78 279.2,1.08 "/>
<polygon class="st0" points="284.81,2.55 284.8,2.55 284.8,5.97 284.09,5.97 284.09,1.08 284.8,1.08 286.47,4.12 288.14,1.08 
	288.84,1.08 288.84,5.97 288.14,5.97 288.14,2.55 288.13,2.55 286.47,5.55 "/>
</svg>
