<?xml version="1.0" encoding="utf-8"?>
<!-- Generator: Adobe Illustrator 24.0.0, SVG Export Plug-In . SVG Version: 6.00 Build 0)  -->
<svg version="1.1" id="Layer_1" xmlns="http://www.w3.org/2000/svg" xmlns:xlink="http://www.w3.org/1999/xlink" x="0px" y="0px"
	 viewBox="0 0 54.43 9.78" style="enable-background:new 0 0 54.43 9.78;" xml:space="preserve">
<style type="text/css">
	.st0{fill:#231F20;}
</style>
<path class="st0" d="M0,9.78c0.26-0.65,0.48-1.53,0.64-2.49C1.04,4.89,1.47,2.44,1.89,0h0.59c0.85,1.86,1.73,3.78,2.63,5.7
	l0.11,0.24L5.34,5.7C6.24,3.83,7.17,1.97,8.15,0h0.52C8.99,2.31,9.3,4.61,9.61,6.9c0.1,0.78,0.32,1.61,0.59,2.28
	C9.37,9.21,8.51,9.25,7.67,9.29C7.72,8.7,7.57,7.7,7.41,6.65l0-0.01c-0.05-0.3-0.09-0.6-0.13-0.9L7.22,5.34L7.04,5.7
	C6.38,7.01,5.73,8.32,5.11,9.59L4.85,9.6C4.2,8.34,3.56,7.07,2.94,5.83L2.77,5.49L2.68,6.01C2.45,7.4,2.25,8.61,2.26,9.62
	C1.52,9.67,0.76,9.73,0,9.78"/>
<path class="st0" d="M18.27,9.06c-0.39,0-0.71-0.04-1.02-0.09c-0.29-0.04-0.57-0.08-0.88-0.08c-0.05,0-0.1,0-0.15,0l-0.13-2.3
	c0.61,0.49,1.55,0.76,2.16,0.76l0.05,0c0.51-0.01,0.81-0.28,0.81-0.72c0-0.7-0.6-1.13-1.23-1.59c-0.72-0.52-1.54-1.11-1.61-2.22
	c-0.05-0.78,0.16-1.44,0.6-1.91c0.51-0.55,1.33-0.84,2.36-0.85h0.02c0.25,0,0.49,0.04,0.72,0.07c0.23,0.04,0.46,0.07,0.69,0.07
	c0.12,0,0.22-0.01,0.33-0.02l0.11,2.11c-0.45-0.4-0.99-0.6-1.65-0.6c-0.03,0-0.06,0-0.09,0c-0.27,0.01-0.49,0.09-0.63,0.24
	c-0.12,0.12-0.17,0.29-0.16,0.47c0.02,0.43,0.45,0.72,0.99,1.08c0.83,0.56,1.85,1.24,1.94,2.76c0.04,0.72-0.18,1.36-0.63,1.85
	c-0.56,0.6-1.44,0.95-2.49,0.97C18.35,9.06,18.31,9.06,18.27,9.06"/>
<path class="st0" d="M27.68,8.94C26.84,8.93,26,8.92,25.19,8.91c0.09-0.55,0.14-1.28,0.14-2.23l0-2.85c0-0.6-0.02-1.23-0.04-1.69
	l-0.01-0.12l-0.42,0c-0.63,0-1.36,0.07-1.84,0.12c-0.11,0.01-0.2,0.02-0.28,0.03V0.12c0.07,0.01,0.16,0.01,0.27,0.02
	c0.77,0.07,2.33,0.21,3.35,0.21c0,0,0.08,0,0.12,0c0.98-0.01,2.62-0.15,3.4-0.21l0.24-0.02l0,2.08c-0.08-0.01-0.17-0.02-0.27-0.03
	c-0.49-0.05-1.24-0.13-1.89-0.13l-0.41,0l0,0.12c-0.01,0.5-0.01,1.16-0.01,1.69l0,2.86C27.54,7.39,27.57,8.32,27.68,8.94"/>
<path class="st0" d="M38.63,9.32c-0.83-0.04-1.66-0.08-2.45-0.12c0.11-0.67,0.12-1.72,0.12-2.3l0-4.43c0-0.93-0.04-1.6-0.13-2.3
	c0.85,0.03,1.69,0.06,2.54,0.1h0.05c0.69,0,1.98-0.03,2.59-0.13l0,2.06c-0.53-0.09-1.26-0.15-2.05-0.16l-0.78-0.01L38.5,2.15l0,2.02
	l0.56,0.01c0.15,0,0.3,0.01,0.43,0.01c0.57,0,1.07-0.03,1.49-0.09l0,2.05c-0.47-0.12-1.11-0.16-1.91-0.19l-0.57-0.02l0,1.07
	C38.51,7.77,38.52,8.66,38.63,9.32"/>
<path class="st0" d="M45.76,9.78c-0.86-0.07-1.73-0.13-2.59-0.19c0.2-0.66,0.2-1.18,0.2-2.39l0-4.63c0-0.87-0.11-1.87-0.21-2.41
	l2.62,0c-0.09,0.48-0.21,1.54-0.21,2.45v4.7C45.56,8.45,45.6,9.18,45.76,9.78"/>
<path class="st0" d="M34.31,9.13c-0.86-0.03-1.73-0.06-2.59-0.09c0.2-0.62,0.2-1.12,0.2-2.25l0-4.37c0-0.82-0.11-1.75-0.21-2.26
	l2.62,0c-0.09,0.44-0.21,1.4-0.21,2.28l0,4.4C34.11,7.88,34.14,8.57,34.31,9.13"/>
<path class="st0" d="M11.74,9.11c0.19-0.64,0.19-1.13,0.2-2.27l0-4.4c0-0.82-0.1-1.77-0.21-2.28l2.62,0
	c-0.09,0.43-0.21,1.39-0.21,2.26l0,4.35c0,1.04,0.03,1.71,0.2,2.26C13.46,9.05,12.6,9.08,11.74,9.11"/>
<polygon class="st0" points="50.76,0.17 50.76,0.64 49.61,0.64 49.61,3.43 49.14,3.43 49.14,0.64 48,0.64 48,0.17 "/>
<polygon class="st0" points="51.74,1.15 51.73,1.15 51.73,3.43 51.26,3.43 51.26,0.17 51.73,0.17 52.85,2.2 53.96,0.17 54.43,0.17 
	54.43,3.43 53.96,3.43 53.96,1.15 53.95,1.15 52.85,3.15 "/>
</svg>
