<?xml version="1.0" encoding="utf-8"?>
<!-- Generator: Adobe Illustrator 24.0.0, SVG Export Plug-In . SVG Version: 6.00 Build 0)  -->
<svg version="1.1" id="real" xmlns="http://www.w3.org/2000/svg" xmlns:xlink="http://www.w3.org/1999/xlink" x="0px" y="0px"
	 viewBox="0 0 668.8 262.3" style="enable-background:new 0 0 668.8 262.3;" xml:space="preserve">
<style type="text/css">
	.st0{fill:#231F20;}
	.st1{fill:url(#SVGID_1_);}
	.st2{fill:url(#SVGID_2_);}
	.st3{fill:url(#SVGID_3_);}
	.st4{fill:url(#SVGID_4_);}
	.st5{fill:url(#SVGID_5_);}
	.st6{fill:url(#SVGID_6_);}
	.st7{fill:url(#SVGID_7_);}
	.st8{fill:#FFFFFF;}
	.st9{fill:url(#SVGID_8_);}
	.st10{clip-path:url(#SVGID_10_);fill:none;stroke:#BBBDBF;}
	.st11{clip-path:url(#SVGID_12_);fill:#BBBDBF;}
	.st12{clip-path:url(#SVGID_14_);fill:none;stroke:#BBBDBF;}
	.st13{clip-path:url(#SVGID_16_);fill:#BBBDBF;}
	.st14{clip-path:url(#SVGID_18_);fill:none;stroke:#BBBDBF;}
	.st15{clip-path:url(#SVGID_20_);fill:#BBBDBF;}
	.st16{enable-background:new    ;}
</style>
<g>
	<g>
		<path class="st0" d="M528.6,123.2v1.3h-3.2v7.8h-1.3v-7.8h-3.2v-1.3H528.6z"/>
		<path class="st0" d="M531.4,126L531.4,126l0,6.4H530v-9.1h1.3l3.1,5.7l3.1-5.7h1.3v9.1h-1.3V126h0l-3.1,5.6L531.4,126z"/>
	</g>
</g>
<g>
	<path class="st0" d="M57.6,248.1c0,0.8,0.1,1.6,0.1,2.3c-1.4,0.1-2.9,0.2-4.3,0.3c0.2,3.1,0.4,6.2,0.6,9.3c-0.8,0-1.5,0.1-2.3,0.1
		c-0.2-3.1-0.4-6.2-0.6-9.3c-1.4,0.1-2.9,0.2-4.3,0.3c0-0.8-0.1-1.6-0.2-2.3C50.3,248.6,53.9,248.4,57.6,248.1z"/>
	<path class="st0" d="M64.8,247.7c0.1,1.5,0.2,2.9,0.2,4.4c2.1-0.1,4.2-0.2,6.2-0.4c-0.1-1.5-0.2-2.9-0.2-4.4c0.8,0,1.6-0.1,2.3-0.1
		c0.2,3.9,0.4,7.7,0.6,11.6c-0.8,0-1.6,0.1-2.3,0.1c-0.1-1.6-0.2-3.2-0.3-4.9c-2.1,0.1-4.2,0.2-6.2,0.4c0.1,1.6,0.2,3.2,0.3,4.9
		c-0.8,0-1.5,0.1-2.3,0.1c-0.2-3.9-0.5-7.7-0.7-11.6C63.2,247.8,64,247.8,64.8,247.7z"/>
	<path class="st0" d="M90.2,246.4c0,0.8,0.1,1.6,0.1,2.3c-2.7,0.1-5.3,0.3-8,0.4c0,0.7,0.1,1.4,0.1,2.1c1.4-0.1,2.8-0.1,4.2-0.2
		c0,0.8,0.1,1.6,0.1,2.3c-1.4,0.1-2.8,0.1-4.2,0.2c0,0.8,0.1,1.7,0.1,2.5c2.8-0.1,5.5-0.3,8.2-0.4c0,0.8,0.1,1.6,0.1,2.3
		c-3.5,0.2-7.1,0.4-10.6,0.5c-0.2-3.9-0.4-7.7-0.6-11.6C83.3,246.7,86.7,246.5,90.2,246.4z"/>
	<path class="st0" d="M103.4,245.7c1,2.8,2,5.6,3,8.4c0,0,0,0,0,0c0.7-2.9,1.3-5.7,2-8.6c1-0.1,2-0.1,3-0.1c0.9,2.8,1.8,5.6,2.7,8.4
		c0,0,0,0,0,0c0.8-2.9,1.5-5.8,2.3-8.6c0.8,0,1.6-0.1,2.4-0.1c-1.1,3.9-2.1,7.8-3.1,11.8c-1,0-2.1,0.1-3.1,0.1
		c-0.9-2.8-1.7-5.6-2.6-8.4c0,0,0,0,0,0c-0.6,2.9-1.2,5.7-1.8,8.6c-1,0-2.1,0.1-3.1,0.1c-1.4-3.8-2.7-7.6-4.1-11.4
		C101.8,245.8,102.6,245.8,103.4,245.7z"/>
	<path class="st0" d="M121.7,250.7c-0.1-3.2,2.3-6.3,6.9-6.4c4.6-0.2,7.3,2.6,7.4,5.9c0.1,3.2-2.4,6.2-6.9,6.4
		C124.5,256.8,121.8,254,121.7,250.7z M133.6,250.3c-0.1-2-2.1-3.8-4.9-3.6c-2.9,0.1-4.7,2-4.7,4c0.1,2,2.1,3.8,5,3.6
		C131.9,254.2,133.7,252.3,133.6,250.3z"/>
	<path class="st0" d="M141.4,244.2c0.8,0,1.6-0.1,2.3-0.1c2.2,2.5,4.4,5.1,6.6,7.6c0,0,0,0,0,0c-0.1-2.6-0.2-5.2-0.3-7.8
		c0.8,0,1.6-0.1,2.3-0.1c0.1,3.9,0.2,7.7,0.4,11.6c-0.8,0-1.6,0.1-2.3,0.1c-2.2-2.5-4.4-5.1-6.6-7.6c0,0,0,0,0,0
		c0.1,2.6,0.2,5.2,0.3,7.8c-0.8,0-1.6,0.1-2.3,0.1C141.7,251.9,141.5,248,141.4,244.2z"/>
	<path class="st0" d="M165.1,243.4c2.7-0.1,5.9,1.1,6,5.5c0.1,3.8-2.2,6-5.7,6.1c-2.1,0.1-4.2,0.1-6.3,0.2
		c-0.1-3.9-0.2-7.7-0.4-11.6C160.9,243.5,163,243.5,165.1,243.4z M161.4,252.8c1.3,0,2.6-0.1,4-0.1c2-0.1,3.5-1.3,3.4-3.6
		c-0.1-2.7-1.8-3.4-3.6-3.3c-1.3,0-2.6,0.1-4,0.1C161.3,248.2,161.4,250.5,161.4,252.8z"/>
	<path class="st0" d="M183.8,242.9c2.2-0.1,4.2,0.7,4.3,3.3c0.1,2.2-1.4,3.1-2.5,3.5c1,1.6,2,3.1,3.1,4.7c-1,0-2,0-2.9,0.1
		c-1-1.6-2-3.1-3.1-4.7c-1.2,0-2.5,0.1-3.7,0.1c0,1.6,0.1,3.1,0.1,4.7c-0.8,0-1.6,0-2.3,0.1c-0.1-3.9-0.2-7.7-0.3-11.6
		C178.9,243.1,181.3,243,183.8,242.9z M178.8,245.4c0,0.7,0,1.5,0.1,2.2c1.7,0,3.4-0.1,5.1-0.1c0.7,0,1.9-0.1,1.8-1.2
		c0-1.1-1.1-1.1-1.9-1.1C182.2,245.3,180.5,245.4,178.8,245.4z"/>
	<path class="st0" d="M192.5,248.6c-0.1-3.2,2.4-6.2,7-6.3c4.6-0.1,7.2,2.8,7.3,6c0.1,3.2-2.5,6.2-7,6.3
		C195.2,254.7,192.5,251.8,192.5,248.6z M204.4,248.3c0-2-2-3.8-4.9-3.7c-2.9,0.1-4.8,1.9-4.7,3.9c0,2,2,3.8,4.9,3.7
		C202.6,252.2,204.4,250.4,204.4,248.3z"/>
	<path class="st0" d="M213.6,242.4c0,2.4,0.1,4.7,0.1,7.1c0,1.4,0.4,2.6,3.3,2.5c3.1,0,3.3-1.4,3.2-2.6c0-2.4-0.1-4.7-0.1-7.1
		c0.8,0,1.6,0,2.3,0c0,2.4,0.1,4.7,0.1,7.1c0,2.4-1.1,4.9-5.6,5c-4,0.1-5.6-2.1-5.7-4.8c0-2.4-0.1-4.7-0.1-7.1
		C212,242.4,212.8,242.4,213.6,242.4z"/>
	<path class="st0" d="M228.3,250.1c2,1.3,4,1.7,6,1.7c1.2,0,3.1-0.3,3.1-1.6c0-0.9-1-1.2-1.8-1.2c-1.2,0-2.3-0.1-3.5-0.1
		c-2.9,0-4.3-1.7-4.3-3.5c0-1.7,1.2-3.6,5.4-3.6c3.1,0,4.9,1.1,5.6,1.5c-0.4,0.7-0.7,1.4-1,2.1c-0.9-0.5-2.6-1.2-4.9-1.2
		c-1.2,0-2.8,0.3-2.8,1.3c0,0.9,1.3,1.1,2.1,1.1c1,0,2,0.1,3,0.1c2.7,0.1,4.4,1.2,4.4,3.6c0,2.1-1.6,3.8-5.4,3.9
		c-3.1,0-5.5-0.7-7.1-1.9C227.6,251.5,228,250.8,228.3,250.1z"/>
	<path class="st0" d="M259.8,242c2.3,0,4.2,1,4.2,3.7c0,2.6-1.8,3.7-4.2,3.7c-1.5,0-3.1,0-4.6,0c0,1.4,0,2.8,0,4.2
		c-0.8,0-1.6,0-2.3,0c0-3.9,0-7.7,0-11.6C255.2,242,257.5,242,259.8,242z M255.2,247.1c1.6,0,3.1,0,4.7,0c0.9,0,1.9-0.1,1.9-1.4
		c0-1.2-1-1.3-1.9-1.3c-1.5,0-3.1,0-4.7,0C255.2,245.3,255.2,246.2,255.2,247.1z"/>
	<path class="st0" d="M267.5,247.8c0-3.2,2.6-6.2,7.2-6.1c4.6,0,7.1,2.9,7.1,6.2c0,3.2-2.6,6.1-7.2,6.1
		C270.1,254,267.5,251.1,267.5,247.8z M279.5,247.9c0-2-1.9-3.8-4.8-3.9c-2.9,0-4.8,1.8-4.8,3.8c0,2,1.9,3.8,4.8,3.9
		C277.6,251.7,279.5,249.9,279.5,247.9z"/>
	<path class="st0" d="M286.9,242.1c0.9,2.8,1.7,5.7,2.5,8.5c0,0,0,0,0,0c0.8-2.8,1.6-5.7,2.4-8.5c1,0,2,0,3,0
		c0.7,2.9,1.5,5.7,2.2,8.5c0,0,0,0,0,0c0.9-2.8,1.8-5.7,2.8-8.5c0.8,0,1.6,0,2.4,0c-1.2,3.9-2.5,7.7-3.7,11.6c-1,0-2.1,0-3.1,0
		c-0.7-2.9-1.4-5.7-2.1-8.5c0,0,0,0,0,0c-0.8,2.8-1.5,5.7-2.3,8.5c-1,0-2,0-3.1,0c-1.2-3.9-2.3-7.8-3.5-11.6
		C285.3,242.1,286.1,242.1,286.9,242.1z"/>
	<path class="st0" d="M316.1,242.4c0,0.8,0,1.6,0,2.3c-2.7,0-5.3-0.1-8-0.1c0,0.7,0,1.4,0,2.1c1.4,0,2.8,0,4.2,0.1
		c0,0.8,0,1.6,0,2.3c-1.4,0-2.8,0-4.2-0.1c0,0.8,0,1.7,0,2.5c2.8,0,5.5,0.1,8.3,0.1c0,0.8,0,1.6,0,2.3c-3.5-0.1-7-0.1-10.6-0.1
		c0-3.9,0.1-7.7,0.1-11.6C309.2,242.3,312.7,242.4,316.1,242.4z"/>
	<path class="st0" d="M328.5,242.6c2.2,0,4.2,0.9,4.1,3.5c0,2.2-1.6,3-2.7,3.4c1,1.6,1.9,3.2,2.9,4.8c-1,0-2,0-2.9-0.1
		c-1-1.6-1.9-3.2-2.9-4.8c-1.2,0-2.5-0.1-3.7-0.1c0,1.6-0.1,3.1-0.1,4.7c-0.8,0-1.6,0-2.3,0c0.1-3.9,0.1-7.7,0.2-11.6
		C323.5,242.6,326,242.6,328.5,242.6z M323.3,244.9c0,0.7,0,1.5,0,2.2c1.7,0,3.4,0.1,5.1,0.1c0.7,0,1.9-0.1,1.9-1.1
		c0-1.1-1-1.1-1.8-1.1C326.7,244.9,325,244.9,323.3,244.9z"/>
	<path class="st0" d="M344.8,248.8c0.1-3.2,2.7-6.1,7.3-6c4.6,0.1,7.1,3.1,7,6.4c-0.1,3.2-2.8,6.1-7.3,6
		C347.3,255,344.8,252,344.8,248.8z M356.8,249.1c0.1-2-1.8-3.9-4.7-4c-2.9-0.1-4.9,1.7-4.9,3.7c0,2,1.8,3.9,4.7,3.9
		C354.8,252.9,356.7,251.1,356.8,249.1z"/>
	<path class="st0" d="M366.9,255.2c-0.8,0-1.5-0.1-2.3-0.1c0.1-3.9,0.2-7.7,0.3-11.6c3.5,0.1,6.9,0.2,10.4,0.3c0,0.8,0,1.6-0.1,2.3
		c-2.7-0.1-5.3-0.2-8-0.2c0,0.7,0,1.4-0.1,2.1c1.4,0,2.8,0.1,4.2,0.1c0,0.8,0,1.6-0.1,2.3c-1.4,0-2.8-0.1-4.2-0.1
		C367,252,367,253.6,366.9,255.2z"/>
	<path class="st0" d="M388.2,244.3c0.8,0,1.6,0.1,2.3,0.1c2,2.7,4.1,5.4,6.1,8.1c0,0,0,0,0,0c0.1-2.6,0.2-5.2,0.3-7.8
		c0.8,0,1.6,0.1,2.3,0.1c-0.1,3.9-0.3,7.7-0.5,11.6c-0.8,0-1.5-0.1-2.3-0.1c-2-2.7-4-5.4-6.1-8.1c0,0,0,0,0,0
		c-0.1,2.6-0.2,5.2-0.3,7.8c-0.8,0-1.5-0.1-2.3-0.1C387.9,252,388.1,248.2,388.2,244.3z"/>
	<path class="st0" d="M408.8,245.1c1,0,2.1,0.1,3.1,0.1c1.7,3.9,3.5,7.9,5.2,11.9c-0.9,0-1.8-0.1-2.6-0.1c-0.4-0.8-0.7-1.7-1.1-2.5
		c-2.3-0.1-4.5-0.2-6.8-0.3c-0.4,0.8-0.9,1.6-1.3,2.4c-0.9,0-1.8-0.1-2.6-0.1C404.7,252.7,406.8,248.9,408.8,245.1z M407.8,251.9
		c1.5,0.1,3,0.1,4.5,0.2c-0.7-1.6-1.4-3.1-2-4.7C409.5,248.9,408.7,250.4,407.8,251.9z"/>
	<path class="st0" d="M430.4,246.1c0,0.8-0.1,1.6-0.1,2.3c-1.4-0.1-2.9-0.1-4.3-0.2c-0.1,3.1-0.3,6.2-0.4,9.3
		c-0.8,0-1.5-0.1-2.3-0.1c0.1-3.1,0.3-6.2,0.4-9.3c-1.4-0.1-2.9-0.1-4.3-0.2c0-0.8,0.1-1.6,0.1-2.3
		C423.1,245.7,426.8,245.9,430.4,246.1z"/>
	<path class="st0" d="M437.5,246.4c-0.1,2.4-0.2,4.7-0.4,7.1c-0.1,1.4,0.2,2.6,3.1,2.7c3.1,0.2,3.3-1.1,3.4-2.4
		c0.1-2.4,0.2-4.7,0.4-7.1c0.8,0,1.6,0.1,2.3,0.1c-0.1,2.4-0.2,4.7-0.4,7.1c-0.1,2.4-1.4,4.8-5.9,4.6c-4-0.2-5.5-2.4-5.3-5.2
		c0.1-2.4,0.2-4.7,0.4-7.1C435.9,246.4,436.7,246.4,437.5,246.4z"/>
	<path class="st0" d="M459.9,247.6c2.2,0.1,4.2,1.1,4,3.7c-0.1,2.2-1.7,2.9-2.8,3.3c0.9,1.6,1.8,3.3,2.7,4.9c-1-0.1-2-0.1-2.9-0.2
		c-0.9-1.6-1.8-3.3-2.7-4.9c-1.2-0.1-2.5-0.1-3.7-0.2c-0.1,1.6-0.2,3.1-0.3,4.7c-0.8,0-1.5-0.1-2.3-0.1c0.2-3.9,0.4-7.7,0.6-11.6
		C455,247.4,457.5,247.5,459.9,247.6z M454.7,249.7c0,0.7-0.1,1.5-0.1,2.2c1.7,0.1,3.4,0.2,5.1,0.3c0.7,0,1.9,0,1.9-1
		c0.1-1.1-1-1.2-1.8-1.2C458.1,249.9,456.4,249.8,454.7,249.7z"/>
	<path class="st0" d="M479.2,248.8c0,0.8-0.1,1.6-0.1,2.3c-2.7-0.2-5.3-0.3-8-0.5c0,0.7-0.1,1.4-0.1,2.1c1.4,0.1,2.8,0.2,4.2,0.3
		c0,0.8-0.1,1.6-0.1,2.3c-1.4-0.1-2.8-0.2-4.2-0.3c0,0.8-0.1,1.7-0.1,2.5c2.8,0.2,5.5,0.3,8.2,0.5c0,0.8-0.1,1.5-0.1,2.3
		c-3.5-0.2-7-0.4-10.6-0.6c0.2-3.9,0.5-7.7,0.7-11.6C472.3,248.4,475.8,248.6,479.2,248.8z"/>
</g>
<path class="st0" d="M112.2,198.1c1.3,9.7,4.1,19,7.2,25.9c-10.5,0.4-21.1,0.9-31.6,1.4c1.4-7.3-1.9-24.2-4.2-39.4
	c-7.2,14-14.4,28.1-21.7,42.4c-1.5,0.1-3.1,0.2-4.6,0.3c-7.2-13.6-14.3-27.4-21.5-41.3c-2.8,16-5.3,30-4.9,41.3
	c-9.5,0.6-19,1.3-28.5,2c3.2-7.1,6-17.2,7.8-28.4c4.7-26.7,9.4-53.2,14.1-79.4h8.6c9.8,21,19.6,41.6,29.4,61.9
	c10.5-21,21-41.6,31.5-61.9h7.8C105.2,148.1,108.7,173.2,112.2,198.1"/>
<path class="st0" d="M243.5,191.1c1.1,19.2-14.4,31.2-35.7,31.7c-10.5,0.2-16.2-2.3-25.3-1.7c-0.6-9.8-1.1-19.5-1.6-29.3
	c5.9,6.3,17.9,10.1,25.9,10c5.2-0.1,7.6-2.8,7.6-6.4c0-15.2-29.9-17.7-31.3-40.8c-1.2-18.9,11.3-30.9,34-31
	c7.5-0.1,13.6,2.6,20.8,0.9c0.5,9.2,1,18.4,1.5,27.7c-4.8-5.5-11.5-8.8-20.8-8.5c-4.9,0.1-7.6,2.7-7.4,6.3
	C211.7,160.3,241.9,163.8,243.5,191.1"/>
<path class="st0" d="M338.7,124.1c0,8.4,0,16.8,0,25.2c-4.1-0.3-15.6-1.8-25.2-1.9c-1.1,0-2.1,0-3.2,0c-0.1,5.2-0.1,12.2-0.1,18.1
	c0,10.2,0,20.5,0,30.7c0,9.6,0.5,19.5,1.8,25.4c-10.3-0.2-20.5-0.3-30.8-0.4c1.3-6.7,1.8-15.6,1.8-25.2c0-10.2,0-20.4,0-30.6
	c0-5.9-0.1-12.8-0.4-18.1c-1,0-2.1,0-3.2,0c-9.4,0-20.8,1.4-24.9,1.7v-25c4.2,0.3,28.8,2.8,42.7,2.6
	C310.2,126.6,334.5,124.4,338.7,124.1"/>
<path class="st0" d="M404.1,198.4c0-15.9,0-31.7,0-47.6c0-10-0.4-17.8-1.6-26.1c9.9,0.4,19.8,0.7,29.7,1.1c9.4,0,25-0.4,30.5-1.6
	c0,8.4,0,16.9,0,25.3c-6.1-1.2-14.7-1.9-24.1-2c-2.4,0-4.9-0.1-7.3-0.1c0,6.8,0,13.5,0,20.3c1.6,0,3.2,0.1,4.8,0.1
	c9.5,0.2,16.9-0.2,22.5-1.1c0,8.4,0,16.8,0,25.3c-5.2-1.6-13-2.2-22.5-2.5c-1.6-0.1-3.2-0.1-4.9-0.2c0,3.3,0,6.7,0,10.1
	c0,10,0.2,19.6,1.6,26.5c-10.1-0.5-20.2-1-30.4-1.4C403.7,218.5,404.1,208.2,404.1,198.4"/>
<path class="st0" d="M509.1,202.9c0,12.9,0.4,21,2.7,27.8c-10.8-0.8-21.5-1.6-32.3-2.3c2.7-7.8,2.7-12.9,2.7-27
	c0-16.5,0-33.1,0-49.6c0-10.3-1.5-22.4-2.7-27.1c10.8,0,21.6,0,32.4,0c-1.1,4.3-2.7,17.1-2.7,27.6L509.1,202.9L509.1,202.9z"/>
<path class="st0" d="M382.7,197.7c0,12.1,0.4,19.6,2.7,25.9c-10.8-0.4-21.6-0.8-32.4-1.1c2.7-7.4,2.7-12.3,2.7-25.5
	c0-15.6,0-31.2,0-46.8c0-9.7-1.5-21.1-2.7-25.6c10.8,0,21.6,0,32.4,0c-1.1,4-2.7,16-2.7,25.8C382.7,166.3,382.7,182,382.7,197.7"/>
<path class="st0" d="M162.1,197c0,12,0.4,19.4,2.7,25.5c-10.8,0.3-21.6,0.6-32.4,1c2.7-7.7,2.7-12.5,2.7-25.9c0-15.7,0-31.4,0-47.1
	c0-9.8-1.5-21.3-2.7-25.8c10.8,0,21.6,0,32.4,0c-1.1,3.9-2.7,15.8-2.7,25.6C162.1,165.8,162.1,181.4,162.1,197"/>
<g>
	
		<linearGradient id="SVGID_1_" gradientUnits="userSpaceOnUse" x1="-9.9205" y1="66.4936" x2="113.9642" y2="99.6884" gradientTransform="matrix(1 0 0 -1 0 262)">
		<stop  offset="0" style="stop-color:#9E926D"/>
		<stop  offset="0.386" style="stop-color:#DDCDAA"/>
		<stop  offset="1" style="stop-color:#9E926D"/>
	</linearGradient>
	<path class="st1" d="M25.7,124.5c-4.7,26.1-9.3,52.4-13.8,78.1C10.2,212.8,7.8,222.1,5,229c8.1-0.6,16.3-1.2,24.4-1.7
		c-0.2-10.8,2.1-23.7,4.6-38.6l1.1-6.3l2.2,4.3c6.8,13.2,13.9,26.8,21,40.4l2.6-0.1c6.9-13.6,14-27.6,21.2-41.7l2.3-4.4l0.7,4.9
		c0.5,3.2,1,6.5,1.5,9.8c1.8,11.2,3.4,21.8,2.9,28.2c9.1-0.4,18.3-0.9,27.4-1.2c-3-7.2-5.3-15.9-6.4-24.2
		c-3.5-24.5-6.9-49.1-10.4-73.8h-5.4c-10.9,21.1-21,41.1-31,61.1l-1.5,2.9l-1.4-2.9c-9.9-20.6-19.7-41.1-29-61L25.7,124.5
		L25.7,124.5z M0,232.5l1.1-2.4c3.1-6.9,5.8-16.9,7.7-28c4.6-26.2,9.3-52.9,14.1-79.4l0.2-1.3H34l0.4,0.9c9,19.2,18.4,39.1,28,59
		c9.7-19.3,19.5-38.6,30-59l0.4-0.9H103l0.2,1.3c3.5,25.2,7,50.2,10.6,75.2c1.2,8.9,3.8,18.2,7.1,25.4l0.9,2.1l-2.3,0.1
		c-10.5,0.4-21.1,0.9-31.6,1.4l-2,0.1l0.4-1.9c1.1-5.5-0.8-17.5-2.7-29.1c-0.3-1.6-0.5-3.3-0.8-4.9c-6.6,12.8-13.1,25.6-19.4,38
		L63,230l-6.6,0.4l-0.5-0.9c-6.5-12.4-13-24.9-19.3-37.1c-2.4,14.1-4.4,26.3-4,36.3l0.1,1.5l-1.5,0.1c-9.5,0.6-19,1.3-28.5,2
		L0,232.5z"/>
	
		<linearGradient id="SVGID_2_" gradientUnits="userSpaceOnUse" x1="170.6352" y1="77.7526" x2="250.1054" y2="99.0465" gradientTransform="matrix(1 0 0 -1 0 262)">
		<stop  offset="0" style="stop-color:#9E926D"/>
		<stop  offset="0.386" style="stop-color:#DDCDAA"/>
		<stop  offset="1" style="stop-color:#9E926D"/>
	</linearGradient>
	<path class="st2" d="M185.4,219.4c3.5,0,6.6,0.4,9.8,0.9c3.7,0.5,7.6,1,12.6,0.9c11.5-0.3,21.2-3.9,27.3-10.4
		c4.9-5.2,7.3-12,6.9-19.7c-0.9-16.1-12.2-23.5-21.3-29.4c-5.8-3.8-10.8-7.1-11.1-11.8c-0.1-2.1,0.5-3.9,1.8-5.2
		c1.6-1.7,4-2.6,7.1-2.7c0.3,0,0.6,0,1,0c7.1,0,13.1,2.1,18,6.1l-1.2-21.8c-1.1,0.2-2.2,0.2-3.4,0.2c-2.6,0-5.2-0.4-7.7-0.7
		c-2.5-0.4-5.2-0.8-7.9-0.8H217c-11.4,0.1-20.3,3.2-25.9,9c-4.8,5-7.1,12.1-6.6,20.4c0.8,11.9,9.4,17.9,17.7,23.7
		c7,4.9,13.6,9.5,13.7,17.2c0,4.9-3.4,7.8-9.1,7.9l-0.5,0c-7.1,0-17-2.9-23.6-7.8l1.4,24C184.4,219.5,184.9,219.4,185.4,219.4
		 M206.4,224.4c-4.5,0-8.2-0.5-11.6-1c-3.1-0.4-6.1-0.8-9.4-0.8c-0.9,0-1.8,0-2.8,0.1l-1.6,0.1l-2-35.2l3,3.2
		c5.5,5.9,16.9,9.5,24.2,9.5l0.4,0c2.7-0.1,6-0.9,6-4.8c0-6.1-5.7-10.1-12.3-14.7c-8.5-5.9-18.1-12.7-19-26c-0.6-9.2,2-17,7.4-22.7
		c6.2-6.5,16-9.9,28.2-10l0.3,0c3,0,5.7,0.4,8.4,0.8c2.5,0.4,4.8,0.7,7.2,0.7c1.6,0,3.1-0.2,4.6-0.5l1.9-0.4l1.9,34.1l-3.1-3.5
		c-4.9-5.6-11.3-8.2-19.5-8c-2.2,0.1-3.9,0.6-4.8,1.7c-0.7,0.8-1.1,1.8-1,3c0.2,3.2,4.4,5.9,9.6,9.4c9.2,6,21.7,14.2,22.7,31.9
		c0.5,8.5-2.2,16.1-7.7,21.9c-6.7,7.1-17.2,11.1-29.6,11.4C207.3,224.4,206.8,224.4,206.4,224.4"/>
	
		<linearGradient id="SVGID_3_" gradientUnits="userSpaceOnUse" x1="260.3404" y1="82.9969" x2="349.0565" y2="106.7683" gradientTransform="matrix(1 0 0 -1 0 262)">
		<stop  offset="0" style="stop-color:#9E926D"/>
		<stop  offset="0.386" style="stop-color:#DDCDAA"/>
		<stop  offset="1" style="stop-color:#9E926D"/>
	</linearGradient>
	<path class="st3" d="M283,219.8c9,0.1,18,0.2,27,0.3c-1.2-6.6-1.4-16.4-1.4-23.8l0-30.7c0-5.7,0-12.8,0.1-18.1l0-1.5l4.8,0
		c7.2,0,15.4,0.9,20.8,1.4c1,0.1,1.9,0.2,2.8,0.3l0-21.8c-0.7,0.1-1.5,0.1-2.5,0.2c-8.7,0.7-26.7,2.2-37.6,2.3
		c-11.2,0.1-29.6-1.5-38.2-2.2c-1.1-0.1-2.1-0.2-2.8-0.2v21.6c0.8-0.1,1.8-0.2,2.9-0.3c5.3-0.5,13.3-1.3,20.3-1.3l4.9,0l0.1,1.5
		c0.3,4.9,0.4,11.7,0.4,18.1l0,30.6C284.5,206,284,213.8,283,219.8 M313.9,223.2l-2,0c-10.2-0.2-20.6-0.3-30.8-0.4l-1.9,0l0.4-1.8
		c1.2-5.9,1.7-14.1,1.7-24.9l0-30.6c0-5.8-0.1-11.8-0.3-16.5h-1.8c-6.8,0-14.7,0.8-20,1.3c-2,0.2-3.6,0.4-4.7,0.4l-1.7,0.1l0-28.3
		l1.7,0.1c0.8,0.1,2.4,0.2,4.6,0.4c8.6,0.8,26.9,2.4,37.9,2.2c10.7-0.1,28.7-1.6,37.3-2.3c2-0.2,3.4-0.3,4.2-0.3l1.7-0.1l0,28.6
		l-1.7-0.1c-1.1-0.1-2.7-0.2-4.6-0.4c-5.4-0.6-13.5-1.4-20.5-1.4l-1.6,0c-0.1,5.1-0.1,11.4-0.1,16.6l0,30.7c0,7.9,0.3,18.7,1.7,25
		L313.9,223.2z"/>
	
		<linearGradient id="SVGID_4_" gradientUnits="userSpaceOnUse" x1="389.0966" y1="79.0568" x2="474.3355" y2="101.8964" gradientTransform="matrix(1 0 0 -1 0 262)">
		<stop  offset="0" style="stop-color:#9E926D"/>
		<stop  offset="0.386" style="stop-color:#DDCDAA"/>
		<stop  offset="1" style="stop-color:#9E926D"/>
	</linearGradient>
	<path class="st4" d="M404.4,222.9c8.8,0.4,17.7,0.8,26.5,1.2c-1.2-7.1-1.3-16.4-1.3-24.8l0-11.7l6.5,0.2c8.7,0.3,15.7,0.8,20.9,2
		l0-21.4c-4.5,0.6-10,0.9-16.2,0.9c-1.5,0-3.2,0-4.8-0.1l-6.4-0.1l0-23.4l9,0.1c8.7,0.1,16.6,0.7,22.5,1.7l0-21.6
		c-6.8,1-20.7,1.3-28.4,1.3h-0.5c-9.3-0.3-18.6-0.7-27.8-1c1,7.4,1.4,14.6,1.4,24.4l0,47.6C405.7,204.6,405.5,215.7,404.4,222.9
		 M434.9,227.4l-2.1-0.1c-10.1-0.5-20.3-1-30.4-1.4l-1.9-0.1l0.4-1.8c1-5,1.6-14.1,1.6-25.7l0-47.6c0-10.4-0.5-17.9-1.6-25.8
		l-0.3-1.8l1.9,0.1c9.9,0.4,19.8,0.7,29.7,1.1h0.4c11,0,24.9-0.5,29.6-1.6l2-0.4l0,29.2l-1.9-0.4c-5.8-1.1-14.3-1.9-23.8-2l-5.7-0.1
		l0,17.2l3.3,0.1c1.6,0.1,3.2,0.1,4.8,0.1c6.9,0,12.8-0.4,17.5-1.2l1.9-0.3l0,29.2l-2.1-0.6c-5-1.6-12.4-2.1-22.1-2.4l-3.2-0.1v8.4
		c0,9,0.1,19.2,1.6,26.1L434.9,227.4z"/>
	
		<linearGradient id="SVGID_5_" gradientUnits="userSpaceOnUse" x1="465.5536" y1="76.0299" x2="526.322" y2="92.3127" gradientTransform="matrix(1 0 0 -1 0 262)">
		<stop  offset="0" style="stop-color:#9E926D"/>
		<stop  offset="0.386" style="stop-color:#DDCDAA"/>
		<stop  offset="1" style="stop-color:#9E926D"/>
	</linearGradient>
	<path class="st5" d="M481.7,227.1c9.3,0.6,18.7,1.3,28,2c-1.8-6.4-2.1-14.1-2.1-26.1v-50.5c0-9.7,1.2-20.6,2.3-26.1l-28.4,0
		c1.1,5.5,2.3,16,2.3,25.6l0,49.7C483.8,214.6,483.8,220.1,481.7,227.1 M514.1,232.5l-2.4-0.2c-10.7-0.8-21.6-1.6-32.3-2.3l-2.1-0.1
		l0.7-1.9c2.6-7.5,2.6-12.6,2.6-26.3l0-49.7c0-10.5-1.6-22.5-2.6-26.8l-0.5-1.9l36.5,0.1l-0.5,1.9c-1.1,4-2.6,16.6-2.6,27.2v50.5
		c0,13,0.4,20.9,2.6,27.4L514.1,232.5z"/>
	
		<linearGradient id="SVGID_6_" gradientUnits="userSpaceOnUse" x1="339.5594" y1="79.816" x2="398.9768" y2="95.7369" gradientTransform="matrix(1 0 0 -1 0 262)">
		<stop  offset="0" style="stop-color:#9E926D"/>
		<stop  offset="0.386" style="stop-color:#DDCDAA"/>
		<stop  offset="1" style="stop-color:#9E926D"/>
	</linearGradient>
	<path class="st6" d="M355.2,221.1c9.2,0.3,18.6,0.6,28,0.9c-1.7-6-2.1-13.1-2.1-24.3l0-47.2c0-9,1.2-19.1,2.2-24.3l-28.4,0
		c1.1,5.2,2.3,15.1,2.3,24l0,46.9C357.3,209.3,357.3,214.5,355.2,221.1 M387.7,225.3l-2.4-0.1c-10.8-0.4-21.7-0.8-32.4-1.1l-2.2-0.1
		l0.7-2c2.6-7.1,2.6-12,2.6-24.9l0-46.9c0-9.9-1.6-21.2-2.6-25.2l-0.5-1.9l36.5,0l-0.6,2c-1,3.7-2.6,15.5-2.6,25.4l0,47.2
		c0,12.2,0.4,19.4,2.6,25.4L387.7,225.3z"/>
	
		<linearGradient id="SVGID_7_" gradientUnits="userSpaceOnUse" x1="118.4915" y1="80.3226" x2="178.3332" y2="96.3572" gradientTransform="matrix(1 0 0 -1 0 262)">
		<stop  offset="0" style="stop-color:#9E926D"/>
		<stop  offset="0.386" style="stop-color:#DDCDAA"/>
		<stop  offset="1" style="stop-color:#9E926D"/>
	</linearGradient>
	<path class="st7" d="M134.5,126.3c1.1,5.3,2.3,15.2,2.3,24.2l0,47.3c0,12.1,0,17.4-2.1,24.1c9.3-0.3,18.7-0.6,28-0.9
		c-1.7-5.8-2.1-12.9-2.1-24l0-46.7c0-8.9,1.2-18.9,2.3-24L134.5,126.3z M130.1,225.1l0.8-2.1c2.6-7.4,2.6-12.2,2.6-25.2l0-47.3
		c0-10-1.5-21.2-2.6-25.4l-0.5-1.9l36.5,0l-0.6,2c-1.1,3.7-2.6,15.3-2.6,25.1l0,46.7c0,12,0.4,19.2,2.6,25l0.8,2l-2.2,0.1
		c-10.7,0.3-21.6,0.6-32.3,1L130.1,225.1z"/>
</g>
<g>
	<path class="st8" d="M236.9,98.3c0.2-0.9,0.5-1.8,0.8-2.9l0-0.1l0.5-1.3c0.5-1.3,1.1-2.7,1.8-4.1c0.3-0.6,0.5-1,0.8-1.4l2.3,1.2
		l-2.2-1.3c0.2-0.4,0.4-0.8,0.7-1.2c-0.7,0-1.3,0.1-2,0.1c-12.3,0-22.2-5.1-24.9-6.7l-0.1-0.1l-6.8-4.1l6.8-4.1
		c1.1-0.7,5-2.8,10.6-4.5c1.3-0.4,2.6-0.7,3.9-1l0,0l0.3-0.1c-4.8-4.4-9.1-9.8-12.6-16.1c-2.7-4.8-4.1-8.4-4.4-9.4l-2.5-7.4l7.6,1.1
		l0,0c1,0.1,4.9,0.8,10.2,2.6c7.8,2.7,14.6,6.4,20.3,11.1c0.5,0.4,1.1,0.9,1.6,1.4c-0.4-2.9-0.6-5.8-0.6-8.7c0-17.6,7.5-31.6,9-34.2
		L262,0l4.1,7.1l0,0.1c1.5,2.6,8.9,16.6,9,34.2c0,2.9-0.2,5.8-0.6,8.7c0.5-0.5,1.1-0.9,1.6-1.4c5.7-4.7,12.5-8.4,20.3-11.1
		c5.2-1.8,9.3-2.5,10.2-2.6l7.7-1.1l-2.5,7.3h0c-0.4,1.3-1.9,5-4.4,9.5c-3.6,6.3-7.8,11.7-12.6,16.1l0.1,0l0,0
		c7.6,1.7,13.1,4.7,14.7,5.6l6.8,4.1l-6.9,4.2l0,0c-2.9,1.6-12.7,6.7-24.9,6.7c-0.6,0-1.3,0-2-0.1c0.2,0.3,0.4,0.7,0.6,1.1
		c0.5,0.8,0.8,1.4,1.1,2v0c1.7,3.5,2.6,6.4,2.9,7.8l0,0.1v0l1.8,8l-8-2.4l0,0c-2.3-0.8-9.6-3.6-15.6-10.1c-1.2-1.3-2.3-2.8-3.3-4.3
		c-1,1.5-2.1,2.9-3.3,4.2c-6,6.5-13.4,9.3-15.6,10.1l0,0l-7.9,2.4L236.9,98.3z"/>
	
		<linearGradient id="SVGID_8_" gradientUnits="userSpaceOnUse" x1="218.1339" y1="175.8481" x2="308.4861" y2="228.013" gradientTransform="matrix(1 0 0 -1 0 262)">
		<stop  offset="0" style="stop-color:#9E926D"/>
		<stop  offset="0.386" style="stop-color:#DDCDAA"/>
		<stop  offset="1" style="stop-color:#9E926D"/>
	</linearGradient>
	<path class="st9" d="M308.2,78.6l3.1-1.9l-3.1-1.9c-0.1-0.1-6.5-3.9-15.6-5.6c-1.9,1.5-4,2.7-6.2,3.6c2.6,0.1,5.1,0.6,7.4,1.1
		c-0.7,0-1.5-0.1-2.2,0c-5.1,0.2-9.5,2.1-11.8,3.3c0.6,0.3,1.4,0.6,2.3,0.9c2.5,0.8,6,1.6,9.7,1.5c1.1,0,2.2-0.2,3.2-0.4
		c-3.1,0.8-6.7,1.4-10.5,1.4c-5.6,0-10.7-1.3-14.6-2.7c0.5-0.2,1.1-0.3,1.6-0.5c5.6-1.9,12.9-5.2,19.5-10.6
		c6.6-5.5,11.1-12,14.1-17.1c2.9-5.2,4.2-9,4.2-9l1.1-3.4l-3.5,0.5c-0.1,0-4.1,0.6-9.7,2.5c-5.6,1.9-12.9,5.2-19.5,10.6
		c-0.8,0.6-1.5,1.3-2.2,2c-0.5,1.3-1.9,5.1-1.9,5.1s2-1.7,3.4-2.6c1.4-0.9,4.9-3.1,4.9-3.1s-4.1,3.7-6,6.7c-1.9,3-4.3,7.1-4.9,9.5
		c0,0,4.3-0.7,11.2-5c6.7-4.2,12.6-10.1,12.6-10.1s-3.2,7.9-10,13.2c-7.3,5.7-13.4,7.4-16.7,7.8c-2.9,0.4-4.1,0.4-4.1,0.4
		s1.1-2.2,3-7.3c1-2.8,2.2-6.2,3.2-9.3c1.3-4.8,2.2-10.5,2.2-16.6c0-18.3-8.6-32.8-8.7-33L262,5.3l-1.9,3.2
		c-0.1,0.2-8.6,14.7-8.6,33c0,5.3,0.7,10.2,1.7,14.6c1,3.5,2.5,7.9,3.7,11.2c2,5.2,3,7.3,3,7.3s-1.3,0-4.1-0.4
		c-3.3-0.5-9.4-2.1-16.7-7.8c-6.8-5.3-10-13.2-10-13.2s5.9,5.9,12.6,10.1c6.9,4.3,11.2,5,11.2,5c-0.6-2.5-3-6.5-4.9-9.5
		s-6-6.7-6-6.7s3.6,2.2,4.9,3.1s3.4,2.6,3.4,2.6s-1.3-3.5-1.8-5c-0.8-0.7-1.5-1.4-2.4-2.1c-6.6-5.5-13.8-8.7-19.4-10.6
		c-5.6-1.9-9.6-2.5-9.7-2.5l-3.5-0.5l1.1,3.4c0,0.1,1.3,3.9,4.3,9c2.9,5.2,7.5,11.7,14.1,17.1c6.6,5.5,13.8,8.7,19.4,10.6
		c0.6,0.2,1.1,0.4,1.6,0.5c-3.9,1.4-9,2.7-14.6,2.7c-3.8,0-7.4-0.6-10.5-1.4c1,0.2,2.1,0.3,3.2,0.3c3.7,0.2,7.2-0.7,9.7-1.5
		c0.9-0.3,1.7-0.6,2.3-0.9c-2.3-1.2-6.7-3.1-11.7-3.3c-0.8,0-1.6,0-2.3,0c2.3-0.6,4.8-1,7.5-1.1c-2.2-1-4.3-2.1-6.2-3.6
		c-9.1,1.7-15.5,5.6-15.6,5.6l-3.1,1.9l3.1,1.9c0.2,0.1,10.5,6.4,23.7,6.4c8.1,0,15.2-2.4,19.5-4.3c-1.1,2.6-2.9,5.8-5.5,8.6
		c-2.7,2.9-5.9,5-8.4,6.3c1.1-2.6,2.9-6,5.6-8.9c0.3-0.3,0.5-0.6,0.8-0.8c-1.8,0.5-4.1,0.9-6.7,1.3c-4.1,5.9-5.4,11.8-5.4,11.9
		l-0.8,3.7l3.6-1.1c0.2-0.1,8.3-2.5,14.6-9.4c2.3-2.5,4-5.2,5.2-7.6c1.2,2.4,2.9,5.1,5.2,7.6c6.3,6.9,14.4,9.3,14.6,9.4l3.6,1.1
		l-0.8-3.7c0-0.2-1.3-6-5.4-11.9c-2.7-0.3-5-0.8-6.7-1.3c0.3,0.3,0.5,0.5,0.8,0.8c2.7,2.9,4.5,6.3,5.6,8.9c-2.5-1.3-5.7-3.4-8.4-6.3
		c-2.6-2.8-4.4-6-5.5-8.6c4.2,1.9,11.3,4.3,19.5,4.3C297.6,85,308,78.7,308.2,78.6z M262,64.9c-2-4.5-5.3-13.4-5.3-23.3
		c0-6.2,1.3-11.9,2.7-16.5c-0.6,2.7-1,5.6-1,8.8c0,7.3,2.2,13.8,3.6,17.2c0.4-0.9,0.8-2,1.2-3.3c1.2-3.6,2.4-8.5,2.4-13.9
		c0-3.1-0.4-6.1-1-8.7c1.4,4.5,2.7,10.2,2.7,16.4c0,7.3-1.7,14-3.5,18.8C263.2,62.2,262.5,63.7,262,64.9z"/>
</g>
<g>
	<g>
		<defs>
			<rect id="SVGID_9_" x="314.2" y="63.3" width="276.6" height="9.8"/>
		</defs>
		<clipPath id="SVGID_10_">
			<use xlink:href="#SVGID_9_"  style="overflow:visible;"/>
		</clipPath>
		<line class="st10" x1="589.4" y1="68.2" x2="323.2" y2="68.2"/>
	</g>
	<g>
		<defs>
			<rect id="SVGID_11_" x="314.2" y="63.3" width="276.6" height="9.8"/>
		</defs>
		<clipPath id="SVGID_12_">
			<use xlink:href="#SVGID_11_"  style="overflow:visible;"/>
		</clipPath>
		<path class="st11" d="M315.6,68.2l9.7,3.5c0,0-2.1-3.5,0-7.1L315.6,68.2"/>
	</g>
</g>
<g>
	<g>
		<defs>
			<rect id="SVGID_13_" x="528.9" y="167.1" width="62" height="9.8"/>
		</defs>
		<clipPath id="SVGID_14_">
			<use xlink:href="#SVGID_13_"  style="overflow:visible;"/>
		</clipPath>
		<line class="st12" x1="589.4" y1="172" x2="537.8" y2="172"/>
	</g>
	<g>
		<defs>
			<rect id="SVGID_15_" x="528.9" y="167.1" width="62" height="9.8"/>
		</defs>
		<clipPath id="SVGID_16_">
			<use xlink:href="#SVGID_15_"  style="overflow:visible;"/>
		</clipPath>
		<polygon class="st13" points="530.2,172 539.9,175.6 537.8,172 539.9,168.5 		"/>
	</g>
</g>
<g>
	<g>
		<defs>
			<rect id="SVGID_17_" x="488.5" y="250.2" width="102.3" height="9.8"/>
		</defs>
		<clipPath id="SVGID_18_">
			<use xlink:href="#SVGID_17_"  style="overflow:visible;"/>
		</clipPath>
		<line class="st14" x1="589.4" y1="255.1" x2="497.4" y2="255.1"/>
	</g>
	<g>
		<defs>
			<rect id="SVGID_19_" x="488.5" y="250.2" width="102.3" height="9.8"/>
		</defs>
		<clipPath id="SVGID_20_">
			<use xlink:href="#SVGID_19_"  style="overflow:visible;"/>
		</clipPath>
		<path class="st15" d="M489.9,255.1l9.7,3.5c0,0-2.1-3.5,0-7.1L489.9,255.1"/>
	</g>
</g>
<g class="st16">
	<path class="st0" d="M603.1,72.1c-1.7,0-2.8-0.4-3.9-1.5l0.8-0.8c0.9,0.9,1.8,1.2,3.1,1.2c1.7,0,2.7-0.8,2.7-2.1
		c0-0.6-0.2-1.1-0.5-1.4c-0.4-0.3-0.7-0.4-1.5-0.5l-1.3-0.2c-0.9-0.1-1.6-0.4-2.1-0.9c-0.6-0.5-0.9-1.2-0.9-2.1
		c0-1.9,1.4-3.2,3.6-3.2c1.5,0,2.4,0.4,3.4,1.2l-0.8,0.8c-0.7-0.6-1.5-1-2.7-1c-1.5,0-2.4,0.8-2.4,2.1c0,0.6,0.2,1,0.5,1.3
		c0.4,0.3,0.9,0.5,1.5,0.6l1.2,0.2c1.1,0.2,1.6,0.4,2.1,0.8c0.6,0.5,1,1.3,1,2.3C607,70.8,605.5,72.1,603.1,72.1z"/>
	<path class="st0" d="M609.3,61.9v-1.3h1.3v1.3H609.3z M609.4,72v-7.9h1.2V72H609.4z"/>
	<path class="st0" d="M615.9,75.6c-1.2,0-1.8-0.3-2.7-1.1l0.8-0.7c0.6,0.5,1,0.8,1.9,0.8c1.5,0,2.2-1.1,2.2-2.4v-1.2
		c-0.6,0.8-1.4,1-2.2,1c-0.8,0-1.5-0.3-1.9-0.7c-0.8-0.8-1-2-1-3.3c0-1.3,0.2-2.5,1-3.3c0.4-0.4,1.1-0.7,1.9-0.7
		c0.9,0,1.6,0.2,2.2,1v-0.9h1.1v8.1C619.2,74.2,618,75.6,615.9,75.6z M616.1,65c-1.7,0-2,1.5-2,2.9s0.3,2.9,2,2.9s2-1.5,2-2.9
		S617.8,65,616.1,65z"/>
	<path class="st0" d="M627.1,72v-4.8c0-1.4-0.8-2.1-1.9-2.1s-2,0.7-2,2.1V72h-1.2v-7.9h1.2V65c0.6-0.6,1.3-1,2.2-1
		c0.8,0,1.5,0.3,2,0.7c0.6,0.5,0.8,1.3,0.8,2.2v5H627.1z"/>
	<path class="st0" d="M631,61.9v-1.3h1.3v1.3H631z M631.1,72v-7.9h1.2V72H631.1z"/>
	<path class="st0" d="M636.6,65V72h-1.2V65h-1v-0.9h1v-1.5c0-1.2,0.7-2.1,2-2.1h0.8v1h-0.6c-0.7,0-1.1,0.4-1.1,1.2v1.5h1.7V65H636.6
		z"/>
	<path class="st0" d="M640.1,61.9v-1.3h1.3v1.3H640.1z M640.2,72v-7.9h1.2V72H640.2z"/>
	<path class="st0" d="M644.9,68.3c0,1.7,0.8,2.7,2.3,2.7c0.9,0,1.4-0.3,2.1-0.9l0.8,0.7c-0.8,0.8-1.5,1.2-2.9,1.2
		c-2.1,0-3.4-1.2-3.4-4c0-2.5,1.2-4,3.2-4c2,0,3.2,1.5,3.2,3.8v0.5H644.9z M648.9,66.2c-0.3-0.7-1-1.2-1.8-1.2
		c-0.8,0-1.5,0.5-1.8,1.2c-0.2,0.4-0.2,0.7-0.2,1.3h4.2C649.1,66.8,649,66.6,648.9,66.2z"/>
	<path class="st0" d="M657.1,65.6c-0.4-0.4-0.8-0.6-1.4-0.6c-1.2,0-1.9,0.9-1.9,2.1V72h-1.2v-7.9h1.2v1c0.4-0.7,1.3-1.1,2.2-1.1
		c0.8,0,1.3,0.2,1.9,0.7L657.1,65.6z"/>
</g>
<g class="st16">
	<path class="st0" d="M608.5,177.7h-1.1l-2.4-8.5l-2.4,8.5h-1.1l-2.7-10.7h1.2l2.1,8.6l2.4-8.6h1l2.4,8.6l2.1-8.6h1.2L608.5,177.7z"
		/>
	<path class="st0" d="M617,177c-0.5,0.5-1.2,0.8-2.1,0.8s-1.6-0.3-2.1-0.8c-0.8-0.8-0.9-1.8-0.9-2.9c0-1.1,0.1-2.2,0.9-2.9
		c0.5-0.5,1.2-0.8,2.1-0.8s1.6,0.3,2.1,0.8c0.8,0.8,0.9,1.8,0.9,2.9C617.9,175.2,617.7,176.2,617,177z M616.2,171.8
		c-0.3-0.3-0.8-0.5-1.3-0.5s-1,0.2-1.3,0.5c-0.5,0.5-0.6,1.5-0.6,2.3c0,0.8,0.1,1.7,0.6,2.3c0.3,0.3,0.8,0.5,1.3,0.5s1-0.2,1.3-0.5
		c0.5-0.5,0.6-1.5,0.6-2.3C616.8,173.2,616.8,172.3,616.2,171.8z"/>
	<path class="st0" d="M624.3,171.8c-0.4-0.4-0.7-0.5-1.3-0.5c-1.1,0-1.8,0.9-1.8,2v4.5h-1.1v-7.4h1.1v0.9c0.4-0.6,1.2-1,2.1-1
		c0.7,0,1.2,0.2,1.8,0.7L624.3,171.8z"/>
	<path class="st0" d="M630.4,177.7v-0.9c-0.6,0.8-1.3,1-2.1,1c-0.8,0-1.4-0.3-1.8-0.6c-0.8-0.8-0.9-2-0.9-3.1c0-1.2,0.1-2.4,0.9-3.1
		c0.4-0.4,1-0.6,1.8-0.6c0.8,0,1.5,0.2,2.1,0.9v-4.2h1.1v10.7H630.4z M628.5,171.2c-1.6,0-1.9,1.4-1.9,2.8c0,1.4,0.3,2.8,1.9,2.8
		c1.6,0,1.8-1.4,1.8-2.8C630.4,172.6,630.1,171.2,628.5,171.2z"/>
	<path class="st0" d="M643.6,177.7v-4.5c0-1.3-0.7-2-1.8-2c-1.1,0-1.8,0.7-1.8,1.8v4.7h-1.1v-4.5c0-1.3-0.7-2-1.8-2
		c-1.1,0-1.8,0.7-1.8,2v4.5h-1.1v-7.4h1.1v0.8c0.5-0.6,1.3-0.9,2.1-0.9c1,0,1.8,0.4,2.3,1.2c0.6-0.8,1.4-1.2,2.4-1.2
		c0.8,0,1.5,0.3,1.9,0.7c0.5,0.5,0.8,1.2,0.8,2.1v4.7H643.6z"/>
	<path class="st0" d="M651.5,177.7V177c-0.6,0.6-1.1,0.8-2.1,0.8c-1,0-1.6-0.2-2.1-0.7c-0.4-0.4-0.6-0.9-0.6-1.5
		c0-1.3,0.9-2.1,2.5-2.1h2.2v-0.7c0-1.1-0.5-1.6-1.9-1.6c-0.9,0-1.4,0.2-1.9,0.8l-0.7-0.7c0.7-0.9,1.4-1.1,2.6-1.1c2,0,3,0.9,3,2.5
		v5H651.5z M651.5,174.3h-2.1c-1.1,0-1.6,0.5-1.6,1.3c0,0.9,0.5,1.3,1.7,1.3c0.6,0,1.2,0,1.7-0.5c0.3-0.2,0.4-0.7,0.4-1.3V174.3z"/>
	<path class="st0" d="M659.4,171.8c-0.4-0.4-0.7-0.5-1.3-0.5c-1.1,0-1.8,0.9-1.8,2v4.5h-1.1v-7.4h1.1v0.9c0.4-0.6,1.2-1,2.1-1
		c0.7,0,1.2,0.2,1.8,0.7L659.4,171.8z"/>
	<path class="st0" d="M666.4,177.7l-2.3-3.8l-1.4,1.7v2.1h-1.1v-10.7h1.1v7.1l3.3-3.8h1.3l-2.5,2.8l2.9,4.6H666.4z"/>
</g>
<g class="st16">
	<path class="st0" d="M603,259c-1.6,0-2.7-0.4-3.7-1.4l0.8-0.8c0.9,0.9,1.7,1.2,2.9,1.2c1.6,0,2.5-0.7,2.5-2c0-0.6-0.2-1-0.5-1.3
		s-0.6-0.4-1.4-0.5l-1.2-0.2c-0.8-0.1-1.5-0.4-2-0.8c-0.5-0.5-0.8-1.1-0.8-2c0-1.8,1.3-3,3.4-3c1.4,0,2.3,0.3,3.2,1.2l-0.7,0.7
		c-0.7-0.6-1.4-0.9-2.5-0.9c-1.4,0-2.2,0.8-2.2,2c0,0.5,0.2,0.9,0.5,1.2c0.3,0.3,0.9,0.5,1.4,0.6l1.2,0.2c1,0.2,1.5,0.4,2,0.8
		c0.6,0.5,0.9,1.2,0.9,2.1C606.7,257.9,605.2,259,603,259z"/>
	<path class="st0" d="M610.9,259c-1.3,0-1.9-0.9-1.9-2v-4.5h-0.9v-0.8h0.9v-2.3h1.1v2.3h1.6v0.8h-1.6v4.5c0,0.7,0.3,1.1,1,1.1h0.6
		v0.9H610.9z"/>
	<path class="st0" d="M618,253c-0.4-0.4-0.7-0.5-1.3-0.5c-1.1,0-1.8,0.9-1.8,2v4.5h-1.1v-7.4h1.1v0.9c0.4-0.6,1.2-1,2.1-1
		c0.7,0,1.2,0.2,1.8,0.7L618,253z"/>
	<path class="st0" d="M624.2,259v-0.7c-0.6,0.6-1.1,0.8-2.1,0.8c-1,0-1.6-0.2-2.1-0.7c-0.4-0.4-0.6-0.9-0.6-1.5
		c0-1.3,0.9-2.1,2.5-2.1h2.2V254c0-1.1-0.5-1.6-1.9-1.6c-0.9,0-1.4,0.2-1.9,0.8l-0.7-0.7c0.7-0.9,1.4-1.1,2.6-1.1c2,0,3,0.9,3,2.5v5
		H624.2z M624.2,255.5h-2.1c-1.1,0-1.7,0.5-1.7,1.3c0,0.9,0.5,1.3,1.7,1.3c0.6,0,1.2,0,1.6-0.5c0.3-0.2,0.4-0.7,0.4-1.3V255.5z"/>
	<path class="st0" d="M632.9,258.4c-0.4,0.4-1,0.6-1.8,0.6c-0.8,0-1.5-0.2-2.1-1v4.2h-1.1v-10.7h1.1v0.9c0.6-0.8,1.3-1,2.1-1
		c0.8,0,1.4,0.3,1.8,0.6c0.8,0.8,0.9,2,0.9,3.1C633.8,256.4,633.6,257.7,632.9,258.4z M630.8,252.4c-1.6,0-1.9,1.4-1.9,2.8
		c0,1.4,0.3,2.8,1.9,2.8c1.6,0,1.8-1.4,1.8-2.8C632.7,253.8,632.4,252.4,630.8,252.4z"/>
	<path class="st0" d="M637.9,259c-1.3,0-1.9-0.8-1.9-2v-8.7h1.1v8.7c0,0.7,0.2,1.1,1,1.1h0.6v0.9H637.9z"/>
	<path class="st0" d="M640.5,249.5v-1.2h1.2v1.2H640.5z M640.5,259v-7.4h1.1v7.4H640.5z"/>
	<path class="st0" d="M649,259v-4.5c0-1.3-0.7-2-1.8-2c-1.1,0-1.8,0.7-1.8,2v4.5h-1.1v-7.4h1.1v0.8c0.5-0.6,1.2-0.9,2.1-0.9
		c0.8,0,1.4,0.2,1.9,0.7c0.5,0.5,0.8,1.2,0.8,2.1v4.7H649z"/>
	<path class="st0" d="M653.4,255.5c0,1.6,0.8,2.6,2.2,2.6c0.9,0,1.3-0.3,1.9-0.8l0.7,0.6c-0.8,0.8-1.4,1.1-2.7,1.1
		c-2,0-3.2-1.2-3.2-3.8c0-2.4,1.2-3.8,3-3.8c1.9,0,3,1.4,3,3.6v0.5H653.4z M657.1,253.5c-0.3-0.7-0.9-1.1-1.7-1.1
		c-0.8,0-1.4,0.4-1.7,1.1c-0.2,0.4-0.2,0.6-0.2,1.2h3.9C657.3,254.1,657.3,253.9,657.1,253.5z"/>
</g>
</svg>
