<?xml version="1.0" encoding="utf-8"?>
<!-- Generator: Adobe Illustrator 24.0.0, SVG Export Plug-In . SVG Version: 6.00 Build 0)  -->
<svg version="1.1" id="Layer_1" xmlns="http://www.w3.org/2000/svg" xmlns:xlink="http://www.w3.org/1999/xlink" x="0px" y="0px"
	 viewBox="0 0 230.51 60.85" style="enable-background:new 0 0 230.51 60.85;" xml:space="preserve">
<style type="text/css">
	.st0{fill:#1D1C1A;}
	.st1{fill:url(#SVGID_1_);}
	.st2{fill:url(#SVGID_2_);}
	.st3{fill:url(#SVGID_3_);}
	.st4{fill:url(#SVGID_4_);}
	.st5{fill:url(#SVGID_5_);}
	.st6{fill:url(#SVGID_6_);}
	.st7{fill:url(#SVGID_7_);}
	.st8{opacity:0.5;}
	.st9{fill:#FFFFFF;}
</style>
<g>
	<g>
		<g>
			<path class="st0" d="M226.11,0.56v0.56h-1.37v3.35h-0.56V1.12h-1.37V0.56H226.11z"/>
			<path class="st0" d="M227.29,1.73h-0.01v2.74h-0.56V0.56h0.56l1.34,2.43l1.34-2.43h0.56v3.91h-0.56V1.73h-0.01l-1.33,2.41
				L227.29,1.73z"/>
		</g>
	</g>
	<g>
		<path class="st0" d="M24.67,55.6c0.02,0.33,0.04,0.66,0.06,1c-0.61,0.04-1.23,0.07-1.84,0.11c0.08,1.32,0.16,2.65,0.24,3.97
			c-0.33,0.02-0.67,0.04-1,0.06c-0.08-1.32-0.16-2.65-0.24-3.97c-0.61,0.04-1.22,0.08-1.84,0.11c-0.02-0.33-0.04-0.66-0.06-1
			C21.55,55.79,23.11,55.7,24.67,55.6z"/>
		<path class="st0" d="M27.77,55.42c0.04,0.63,0.07,1.25,0.11,1.88c0.89-0.05,1.78-0.1,2.67-0.15c-0.03-0.63-0.07-1.25-0.1-1.88
			c0.33-0.02,0.67-0.04,1-0.06c0.09,1.66,0.18,3.31,0.27,4.97c-0.33,0.02-0.67,0.04-1,0.06c-0.04-0.7-0.08-1.39-0.12-2.09
			c-0.89,0.05-1.78,0.1-2.67,0.15c0.04,0.7,0.08,1.39,0.12,2.09c-0.33,0.02-0.67,0.04-1,0.06c-0.1-1.66-0.19-3.31-0.29-4.97
			C27.1,55.46,27.44,55.44,27.77,55.42z"/>
		<path class="st0" d="M38.64,54.83c0.02,0.33,0.03,0.67,0.05,1c-1.14,0.06-2.28,0.12-3.43,0.18c0.02,0.3,0.03,0.6,0.05,0.9
			c0.6-0.03,1.21-0.06,1.81-0.09c0.02,0.33,0.03,0.67,0.05,1c-0.6,0.03-1.2,0.06-1.81,0.09c0.02,0.36,0.04,0.72,0.06,1.07
			c1.18-0.06,2.36-0.12,3.53-0.18c0.02,0.33,0.03,0.67,0.05,1c-1.51,0.08-3.02,0.15-4.53,0.23c-0.09-1.66-0.18-3.31-0.26-4.97
			C35.69,54.98,37.16,54.91,38.64,54.83z"/>
		<path class="st0" d="M44.31,54.56c0.43,1.2,0.86,2.4,1.28,3.59c0.01,0,0.01,0,0.02,0c0.28-1.23,0.56-2.46,0.85-3.69
			c0.43-0.02,0.86-0.04,1.29-0.06c0.38,1.2,0.76,2.4,1.14,3.6c0.01,0,0.01,0,0.02,0c0.33-1.23,0.66-2.46,0.99-3.7
			c0.35-0.01,0.69-0.03,1.04-0.04c-0.45,1.68-0.89,3.36-1.34,5.04c-0.45,0.02-0.89,0.04-1.33,0.06c-0.37-1.2-0.74-2.4-1.11-3.6
			c-0.01,0-0.01,0-0.02,0c-0.26,1.23-0.53,2.46-0.79,3.69c-0.44,0.02-0.88,0.04-1.32,0.06c-0.59-1.63-1.17-3.27-1.76-4.9
			C43.62,54.59,43.96,54.58,44.31,54.56z"/>
		<path class="st0" d="M52.16,56.71c-0.06-1.39,0.99-2.68,2.96-2.76c1.98-0.08,3.11,1.12,3.16,2.52c0.05,1.39-1.01,2.68-2.96,2.76
			C53.38,59.3,52.22,58.1,52.16,56.71z M57.28,56.5c-0.03-0.86-0.88-1.61-2.12-1.56c-1.24,0.05-2.03,0.87-1.99,1.72
			c0.04,0.86,0.88,1.61,2.12,1.56C56.53,58.18,57.31,57.37,57.28,56.5z"/>
		<path class="st0" d="M60.6,53.89c0.33-0.01,0.67-0.02,1-0.04c0.95,1.09,1.9,2.18,2.85,3.27c0.01,0,0.01,0,0.02,0
			c-0.04-1.12-0.07-2.24-0.11-3.36c0.33-0.01,0.67-0.02,1-0.03c0.05,1.66,0.11,3.31,0.16,4.97c-0.33,0.01-0.67,0.02-1,0.03
			c-0.95-1.09-1.89-2.18-2.84-3.27c-0.01,0-0.01,0-0.02,0c0.04,1.12,0.08,2.24,0.12,3.36c-0.33,0.01-0.67,0.02-1,0.03
			C60.72,57.21,60.66,55.55,60.6,53.89z"/>
		<path class="st0" d="M70.78,53.57c1.15-0.03,2.54,0.49,2.59,2.34c0.04,1.64-0.96,2.59-2.45,2.63c-0.9,0.03-1.8,0.05-2.7,0.08
			c-0.05-1.66-0.1-3.31-0.15-4.97C68.97,53.62,69.88,53.6,70.78,53.57z M69.19,57.59c0.57-0.02,1.13-0.03,1.7-0.05
			c0.87-0.02,1.51-0.54,1.48-1.55c-0.03-1.17-0.78-1.45-1.56-1.43c-0.57,0.02-1.14,0.03-1.71,0.05
			C69.13,55.61,69.16,56.6,69.19,57.59z"/>
		<path class="st0" d="M78.78,53.37c0.93-0.02,1.81,0.3,1.83,1.43c0.02,0.95-0.62,1.31-1.08,1.49c0.44,0.67,0.87,1.34,1.31,2.01
			c-0.42,0.01-0.84,0.02-1.26,0.03c-0.43-0.67-0.87-1.33-1.31-2c-0.53,0.01-1.06,0.03-1.6,0.04c0.02,0.68,0.03,1.35,0.05,2.03
			c-0.33,0.01-0.67,0.02-1,0.03c-0.04-1.66-0.08-3.32-0.13-4.97C76.66,53.42,77.72,53.4,78.78,53.37z M76.62,54.42
			c0.01,0.32,0.02,0.63,0.02,0.95c0.73-0.02,1.45-0.04,2.18-0.05c0.3-0.01,0.8-0.06,0.79-0.5c-0.01-0.46-0.46-0.46-0.81-0.45
			C78.08,54.39,77.35,54.4,76.62,54.42z"/>
		<path class="st0" d="M82.49,55.78c-0.03-1.39,1.04-2.66,3.01-2.7c1.98-0.04,3.09,1.19,3.11,2.59c0.02,1.39-1.06,2.66-3.01,2.7
			C83.65,58.4,82.51,57.17,82.49,55.78z M87.61,55.68c-0.01-0.86-0.85-1.63-2.09-1.6c-1.24,0.02-2.05,0.83-2.03,1.68
			c0.02,0.86,0.85,1.63,2.09,1.6C86.82,57.34,87.62,56.55,87.61,55.68z"/>
		<path class="st0" d="M91.53,53.13c0.01,1.01,0.03,2.02,0.04,3.02c0.01,0.6,0.17,1.1,1.42,1.09c1.33-0.02,1.4-0.59,1.39-1.12
			c-0.01-1.01-0.03-2.02-0.04-3.02c0.33,0,0.67-0.01,1-0.01c0.01,1.01,0.02,2.02,0.04,3.02c0.01,1.05-0.48,2.11-2.39,2.13
			c-1.73,0.02-2.41-0.89-2.42-2.07c-0.02-1.01-0.03-2.02-0.05-3.02C90.86,53.14,91.2,53.13,91.53,53.13z"/>
		<path class="st0" d="M97.86,56.42c0.87,0.55,1.7,0.74,2.58,0.73c0.5,0,1.35-0.14,1.34-0.69c0-0.4-0.45-0.51-0.76-0.51
			c-0.5-0.01-0.99-0.02-1.49-0.04c-1.22-0.02-1.83-0.72-1.83-1.49c-0.01-0.74,0.53-1.53,2.33-1.55c1.31-0.01,2.12,0.48,2.42,0.63
			c-0.15,0.3-0.3,0.59-0.45,0.89c-0.4-0.2-1.12-0.53-2.11-0.52c-0.53,0-1.18,0.13-1.18,0.57c0,0.38,0.55,0.47,0.89,0.47
			c0.43,0.01,0.87,0.02,1.3,0.04c1.15,0.02,1.88,0.51,1.89,1.55c0.01,0.89-0.69,1.64-2.33,1.65c-1.35,0.01-2.34-0.32-3.04-0.84
			C97.56,57.02,97.71,56.72,97.86,56.42z"/>
		<path class="st0" d="M111.37,52.97c0.97,0,1.8,0.42,1.8,1.57c0,1.11-0.77,1.6-1.8,1.6c-0.66,0-1.33,0-1.99,0c0,0.6,0,1.2,0,1.8
			c-0.33,0-0.67,0-1,0c0-1.66-0.01-3.32-0.01-4.97C109.37,52.98,110.37,52.98,111.37,52.97z M109.37,55.16c0.66,0,1.33,0,1.99,0
			c0.39,0,0.8-0.05,0.8-0.61c0-0.53-0.44-0.58-0.8-0.58c-0.67,0-1.33,0-2,0C109.37,54.37,109.37,54.76,109.37,55.16z"/>
		<path class="st0" d="M114.67,55.46c0-1.39,1.1-2.64,3.07-2.63c1.98,0.01,3.06,1.25,3.05,2.65c-0.01,1.39-1.12,2.63-3.07,2.63
			C115.77,58.1,114.67,56.86,114.67,55.46z M119.79,55.48c0-0.86-0.81-1.65-2.05-1.65c-1.24,0-2.06,0.78-2.06,1.64
			c0,0.86,0.81,1.64,2.05,1.65C118.96,57.12,119.78,56.34,119.79,55.48z"/>
		<path class="st0" d="M122.97,53.01c0.36,1.22,0.73,2.44,1.09,3.66c0.01,0,0.01,0,0.02,0c0.35-1.21,0.69-2.43,1.04-3.64
			c0.43,0,0.86,0.01,1.29,0.01c0.32,1.22,0.63,2.44,0.95,3.66c0.01,0,0.01,0,0.02,0c0.39-1.21,0.79-2.43,1.18-3.64
			c0.35,0,0.69,0.01,1.04,0.01c-0.54,1.65-1.07,3.3-1.6,4.96c-0.45,0-0.89-0.01-1.34-0.01c-0.31-1.22-0.61-2.44-0.92-3.66
			c-0.01,0-0.01,0-0.02,0c-0.33,1.21-0.66,2.43-0.98,3.64c-0.44,0-0.88-0.01-1.32-0.01c-0.5-1.66-1-3.32-1.5-4.98
			C122.27,53,122.62,53.01,122.97,53.01z"/>
		<path class="st0" d="M135.49,53.15c-0.01,0.33-0.01,0.67-0.02,1c-1.14-0.02-2.29-0.03-3.43-0.05c0,0.3-0.01,0.6-0.01,0.9
			c0.6,0.01,1.21,0.02,1.81,0.02c0,0.33-0.01,0.67-0.01,1c-0.6-0.01-1.21-0.02-1.81-0.02c0,0.36-0.01,0.72-0.01,1.08
			c1.18,0.02,2.36,0.03,3.54,0.05c-0.01,0.33-0.01,0.67-0.02,1c-1.51-0.02-3.02-0.04-4.54-0.06c0.02-1.66,0.04-3.32,0.06-4.97
			C132.53,53.11,134.01,53.13,135.49,53.15z"/>
		<path class="st0" d="M140.77,53.24c0.93,0.02,1.8,0.38,1.77,1.5c-0.02,0.95-0.67,1.28-1.15,1.45c0.41,0.69,0.81,1.37,1.22,2.06
			c-0.42-0.01-0.84-0.02-1.26-0.02c-0.41-0.68-0.81-1.37-1.22-2.05c-0.53-0.01-1.07-0.02-1.6-0.03c-0.01,0.68-0.02,1.35-0.04,2.03
			c-0.33-0.01-0.67-0.01-1-0.02c0.03-1.66,0.06-3.32,0.08-4.97C138.65,53.2,139.71,53.22,140.77,53.24z M138.57,54.2
			c-0.01,0.32-0.01,0.63-0.02,0.95c0.73,0.01,1.45,0.03,2.18,0.04c0.3,0.01,0.8-0.02,0.81-0.46c0.01-0.46-0.44-0.48-0.79-0.49
			C140.02,54.22,139.3,54.21,138.57,54.2z"/>
		<path class="st0" d="M147.79,55.88c0.03-1.39,1.16-2.62,3.13-2.56c1.98,0.05,3.03,1.32,2.99,2.72c-0.04,1.39-1.18,2.61-3.13,2.56
			C148.83,58.54,147.76,57.27,147.79,55.88z M152.91,56.01c0.02-0.86-0.77-1.66-2.02-1.7c-1.24-0.03-2.08,0.74-2.1,1.59
			c-0.02,0.86,0.78,1.66,2.02,1.69C152.05,57.63,152.89,56.87,152.91,56.01z"/>
		<path class="st0" d="M157.25,58.62c-0.33-0.01-0.67-0.02-1-0.03c0.05-1.66,0.1-3.32,0.15-4.97c1.48,0.04,2.96,0.09,4.43,0.14
			c-0.01,0.33-0.02,0.67-0.03,1c-1.14-0.04-2.29-0.07-3.43-0.11c-0.01,0.3-0.02,0.6-0.03,0.9c0.6,0.02,1.21,0.04,1.81,0.06
			c-0.01,0.33-0.02,0.67-0.03,1c-0.6-0.02-1.21-0.04-1.81-0.06C157.29,57.24,157.27,57.93,157.25,58.62z"/>
		<path class="st0" d="M166.38,53.95c0.33,0.01,0.67,0.02,1,0.04c0.87,1.15,1.74,2.31,2.61,3.46c0.01,0,0.01,0,0.02,0
			c0.04-1.12,0.09-2.24,0.13-3.36c0.33,0.01,0.67,0.03,1,0.04c-0.07,1.66-0.13,3.31-0.2,4.97c-0.33-0.01-0.67-0.03-1-0.04
			c-0.87-1.15-1.73-2.31-2.6-3.46c-0.01,0-0.01,0-0.02,0c-0.04,1.12-0.08,2.24-0.12,3.36c-0.33-0.01-0.67-0.02-1-0.04
			C166.26,57.26,166.32,55.61,166.38,53.95z"/>
		<path class="st0" d="M175.21,54.3c0.44,0.02,0.89,0.04,1.33,0.06c0.74,1.69,1.49,3.38,2.22,5.08c-0.38-0.02-0.76-0.03-1.13-0.05
			c-0.15-0.36-0.3-0.71-0.45-1.07c-0.97-0.04-1.94-0.08-2.91-0.12c-0.18,0.34-0.36,0.68-0.54,1.02c-0.38-0.02-0.76-0.03-1.13-0.05
			C173.46,57.54,174.33,55.92,175.21,54.3z M174.79,57.21c0.64,0.03,1.28,0.05,1.92,0.08c-0.29-0.67-0.58-1.33-0.88-2
			C175.49,55.93,175.14,56.57,174.79,57.21z"/>
		<path class="st0" d="M184.46,54.72c-0.02,0.33-0.03,0.67-0.05,1c-0.61-0.03-1.23-0.06-1.84-0.09c-0.06,1.32-0.13,2.65-0.19,3.97
			c-0.33-0.02-0.67-0.03-1-0.05c0.06-1.32,0.12-2.65,0.19-3.97c-0.61-0.03-1.23-0.06-1.84-0.08c0.02-0.33,0.03-0.67,0.05-1
			C181.34,54.57,182.9,54.64,184.46,54.72z"/>
		<path class="st0" d="M187.49,54.87c-0.05,1.01-0.1,2.01-0.15,3.02c-0.03,0.6,0.1,1.11,1.35,1.18c1.33,0.07,1.43-0.49,1.46-1.03
			c0.05-1.01,0.11-2.01,0.16-3.02c0.33,0.02,0.67,0.04,1,0.05c-0.05,1.01-0.11,2.01-0.16,3.02c-0.06,1.05-0.61,2.07-2.52,1.97
			c-1.73-0.09-2.34-1.04-2.29-2.22c0.05-1.01,0.1-2.01,0.15-3.02C186.83,54.83,187.16,54.85,187.49,54.87z"/>
		<path class="st0" d="M197.11,55.39c0.93,0.05,1.78,0.45,1.71,1.57c-0.06,0.95-0.72,1.26-1.2,1.4c0.38,0.7,0.76,1.4,1.14,2.11
			c-0.42-0.02-0.84-0.05-1.26-0.07c-0.38-0.7-0.76-1.4-1.14-2.1c-0.53-0.03-1.06-0.06-1.6-0.09c-0.04,0.67-0.08,1.35-0.11,2.02
			c-0.33-0.02-0.67-0.04-1-0.06c0.09-1.66,0.18-3.31,0.27-4.97C194.99,55.27,196.05,55.32,197.11,55.39z M194.88,56.26
			c-0.02,0.32-0.04,0.63-0.05,0.95c0.72,0.04,1.45,0.08,2.17,0.12c0.3,0.02,0.8,0.01,0.83-0.43c0.03-0.46-0.43-0.5-0.77-0.52
			C196.33,56.34,195.6,56.3,194.88,56.26z"/>
		<path class="st0" d="M205.38,55.88c-0.02,0.33-0.04,0.66-0.06,1c-1.14-0.07-2.28-0.14-3.43-0.21c-0.02,0.3-0.04,0.6-0.05,0.9
			c0.6,0.04,1.2,0.07,1.81,0.11c-0.02,0.33-0.04,0.66-0.06,1c-0.6-0.04-1.2-0.07-1.81-0.11c-0.02,0.36-0.04,0.72-0.06,1.07
			c1.18,0.07,2.36,0.14,3.53,0.22c-0.02,0.33-0.04,0.66-0.06,1c-1.51-0.1-3.02-0.19-4.53-0.28c0.1-1.66,0.2-3.31,0.3-4.97
			C202.43,55.7,203.9,55.79,205.38,55.88z"/>
	</g>
	<path class="st0" d="M0.86,47.87c1.3-2.97,2.45-7.27,3.22-12.1c1.95-11.44,3.96-23.11,5.97-34.7L10.24,0h5.53l0.34,0.75
		c3.65,8.03,7.46,16.3,11.35,24.61c3.92-8.05,7.93-16.15,12.2-24.66L40.02,0h5.2l0.15,1.11c1.5,10.99,2.99,21.94,4.49,32.83
		c0.5,3.84,1.57,7.83,2.95,10.96l0.75,1.72l-1.87,0.08c-4.46,0.19-8.97,0.4-13.4,0.62l-1.63,0.09l0.3-1.6
		c0.43-2.3-0.36-7.49-1.13-12.51c-0.02-0.09-0.03-0.18-0.04-0.27c-2.51,5.02-4.98,10.02-7.37,14.9l-0.33,0.67l-3.53,0.22l-0.38-0.75
		c-2.49-4.87-4.95-9.74-7.36-14.53c-0.88,5.34-1.53,10.02-1.39,13.91l0.04,1.24l-1.24,0.09c-4.02,0.27-8.09,0.58-12.1,0.89L0,49.82
		L0.86,47.87z"/>
	<path class="st0" d="M88.57,46.18c-1.97,0-3.52-0.22-5.03-0.43c-1.3-0.18-2.52-0.36-3.89-0.36c-0.38,0-0.75,0.01-1.14,0.04
		l-1.3,0.09l-0.97-17.71l2.43,2.66c2.22,2.44,6.84,3.95,9.85,3.95l0.18,0c1.96-0.04,1.96-1.1,1.96-1.5
		c-0.01-2.24-1.9-3.71-4.99-5.93c-3.54-2.54-7.93-5.71-8.31-11.83c-0.26-4.18,0.89-7.76,3.3-10.35c2.75-2.95,7.05-4.53,12.42-4.57
		h0.12c1.31,0,2.5,0.18,3.65,0.35c1.02,0.16,2,0.3,2.96,0.3c0.64,0,1.23-0.06,1.81-0.2l1.49-0.35l0.93,17.37l-2.45-2.86
		c-1.9-2.21-4.33-3.28-7.45-3.28c-0.12,0-0.24,0-0.36,0c-0.75,0.02-1.33,0.21-1.63,0.53c-0.19,0.21-0.28,0.49-0.26,0.85
		c0.06,1.09,1.81,2.27,3.83,3.63c3.99,2.68,9.46,6.36,9.9,14.38c0.22,3.9-0.97,7.36-3.43,10.03c-2.96,3.2-7.57,5.03-12.99,5.16
		C88.99,46.18,88.78,46.18,88.57,46.18z"/>
	<path class="st0" d="M133.38,45.67c-4.34-0.07-8.73-0.12-13.07-0.15l-1.54-0.01l0.29-1.51c0.49-2.56,0.72-6.09,0.72-10.79l0-13.38
		c0-2.28-0.04-4.66-0.12-6.61h-0.19c-2.86,0-6.2,0.33-8.42,0.56c-0.84,0.08-1.53,0.15-2,0.19l-1.37,0.1V0.4l1.37,0.1
		c0.35,0.03,1.04,0.09,1.97,0.17c3.51,0.31,10.8,0.97,15.49,0.97c0.19,0,0.36,0,0.54,0c4.53-0.05,12.15-0.68,15.81-0.99
		c0.84-0.07,1.46-0.12,1.79-0.14l1.38-0.1l0,13.78l-1.38-0.11c-0.46-0.04-1.14-0.11-1.95-0.19c-2.27-0.24-5.7-0.61-8.65-0.62h-0.09
		c-0.03,2.09-0.03,4.57-0.03,6.63l0.01,13.42c0,4.87,0.26,8.7,0.72,10.8L135,45.7L133.38,45.67z"/>
	<path class="st0" d="M184.67,47.47c-4.28-0.23-8.61-0.44-12.88-0.63l-1.49-0.07l0.29-1.47c0.43-2.14,0.66-6.08,0.65-11.1
		l-0.01-20.78c0-4.54-0.2-7.78-0.68-11.2l-0.21-1.52l1.53,0.06c4.19,0.16,8.39,0.31,12.58,0.48h0.17c4.62,0,10.48-0.21,12.45-0.68
		l1.58-0.38l0.01,14.26l-1.54-0.31c-2.44-0.5-5.98-0.8-9.98-0.85l-1.81-0.03l0,6.3l0.8,0.02c0.69,0.02,1.36,0.03,2,0.03
		c2.91,0,5.37-0.17,7.33-0.5l1.49-0.25l0.01,14.31l-1.68-0.54c-2.03-0.66-5.16-0.89-9.22-1.03l-0.73-0.02l0,3.06
		c0,3.91,0.06,8.32,0.67,11.3l0.33,1.63L184.67,47.47z"/>
	<path class="st0" d="M218.17,49.66c-4.55-0.35-9.16-0.69-13.71-1l-1.66-0.11l0.53-1.58c1.07-3.18,1.07-5.23,1.07-11.31l-0.01-21.73
		c0-4.53-0.66-9.71-1.11-11.56l-0.39-1.59l17.03,0.02l-0.42,1.6c-0.44,1.72-1.1,7.15-1.1,11.75l0,22.05c0,5.63,0.16,9,1.08,11.76
		l0.6,1.83L218.17,49.66z"/>
	<path class="st0" d="M164.53,46.54c-4.58-0.18-9.21-0.33-13.73-0.47l-1.76-0.05l0.59-1.66c1.07-3.02,1.07-4.95,1.06-10.67
		l-0.01-20.48c0-4.26-0.66-9.12-1.11-10.86l-0.42-1.6l17.08,0.01l-0.45,1.62c-0.44,1.59-1.08,6.65-1.08,10.94l0.02,20.61
		c0,5.24,0.17,8.37,1.07,10.9l0.64,1.79L164.53,46.54z"/>
	<path class="st0" d="M55.96,44.78c1.07-3.13,1.07-5.07,1.08-10.83l0.01-20.65c0.01-4.27-0.64-9.19-1.09-10.95l-0.41-1.6l17.08-0.01
		l-0.46,1.63c-0.43,1.53-1.09,6.63-1.1,10.82l-0.01,20.41c0,5.19,0.16,8.27,1.06,10.7l0.62,1.68l-1.79,0.05
		c-4.54,0.13-9.16,0.28-13.73,0.45l-1.87,0.07L55.96,44.78z"/>
	<g>
		<linearGradient id="SVGID_1_" gradientUnits="userSpaceOnUse" x1="-0.9013" y1="41.9915" x2="50.1096" y2="12.5403">
			<stop  offset="0" style="stop-color:#A8986E"/>
			<stop  offset="0.386" style="stop-color:#E3D3AF"/>
			<stop  offset="1" style="stop-color:#A8986E"/>
		</linearGradient>
		<path class="st1" d="M2.57,48c1.26-3.06,2.36-7.28,3.12-11.98c1.91-11.23,3.9-22.8,5.92-34.4h3.13
			c3.95,8.69,8.12,17.72,12.41,26.86l0.3,0.65l0.31-0.64c4.24-8.73,8.7-17.77,13.28-26.87h2.78c1.48,10.9,2.96,21.74,4.45,32.54
			c0.5,3.8,1.54,7.75,2.88,10.94c-4.19,0.18-8.4,0.37-12.51,0.58c0.33-2.68-0.41-7.54-1.19-12.66c-0.22-1.42-0.44-2.85-0.63-4.25
			l-0.15-1.08l-0.49,0.97c-3.1,6.18-6.16,12.36-9.11,18.37l-1.53,0.09c-2.97-5.81-6-11.81-9.01-17.85l-0.47-0.94l-0.28,1.67
			c-1.12,6.64-2.08,12.39-1.96,17.15C9.95,47.44,6.17,47.72,2.57,48z"/>
		<linearGradient id="SVGID_2_" gradientUnits="userSpaceOnUse" x1="72.9032" y1="33.6677" x2="107.9735" y2="13.4198">
			<stop  offset="0" style="stop-color:#A8986E"/>
			<stop  offset="0.386" style="stop-color:#E3D3AF"/>
			<stop  offset="1" style="stop-color:#A8986E"/>
		</linearGradient>
		<path class="st2" d="M88.58,44.56c-1.86,0-3.36-0.21-4.81-0.42c-1.36-0.19-2.64-0.37-4.12-0.37c-0.3,0-0.6,0.01-0.9,0.02
			c-0.15-2.62-0.63-11.59-0.63-11.59c2.69,2.42,7.25,3.84,10.41,3.84l0.21,0c2.23-0.05,3.55-1.21,3.55-3.12
			c-0.01-3.18-2.75-5.15-5.66-7.24c-3.43-2.46-7.31-5.26-7.64-10.61c-0.23-3.72,0.77-6.89,2.88-9.15c2.44-2.61,6.32-4.01,11.24-4.05
			l0.1,0c1.2,0,2.32,0.17,3.41,0.33c1.09,0.16,2.12,0.32,3.21,0.32c0.62,0,1.21-0.05,1.78-0.16c0.14,2.67,0.57,10.74,0.57,10.74
			c-2.12-2.12-4.76-3.15-8.04-3.15c-0.13,0-0.26,0-0.4,0.01c-1.21,0.03-2.17,0.4-2.78,1.05c-0.49,0.53-0.73,1.24-0.69,2.04
			c0.1,1.9,2.06,3.21,4.55,4.88c3.91,2.63,8.79,5.91,9.19,13.12c0.19,3.45-0.85,6.51-3,8.84c-2.66,2.88-6.86,4.52-11.83,4.64
			C88.97,44.56,88.77,44.56,88.58,44.56z"/>
		<linearGradient id="SVGID_3_" gradientUnits="userSpaceOnUse" x1="111.8178" y1="28.4738" x2="147.6541" y2="7.7837">
			<stop  offset="0" style="stop-color:#A8986E"/>
			<stop  offset="0.386" style="stop-color:#E3D3AF"/>
			<stop  offset="1" style="stop-color:#A8986E"/>
		</linearGradient>
		<path class="st3" d="M132.98,44.05c-3.96-0.07-8.08-0.11-12.25-0.15c0.46-2.61,0.68-6.11,0.68-10.69V19.83
			c0-2.82-0.07-5.77-0.18-7.91l-0.02-0.32l-0.32,0c-0.45,0-0.9,0-1.35,0h-0.06c-2.95,0-6.35,0.34-8.6,0.57
			c-0.62,0.06-1.15,0.12-1.58,0.15V2.14c0.39,0.03,0.94,0.08,1.62,0.14c3.53,0.32,10.87,0.98,15.61,0.98c0,0,0.37,0,0.54,0
			c4.64-0.06,12.34-0.7,16.04-1c0.53-0.04,0.97-0.08,1.29-0.11c0,3.43,0,6.86,0.01,10.29c-0.42-0.04-0.95-0.1-1.57-0.16
			c-2.3-0.24-5.77-0.61-8.79-0.63c-0.39,0-1.69-0.01-1.69-0.01l-0.01,0.33c-0.06,2.29-0.06,5.28-0.06,7.91l0,13.43
			C132.3,36.66,132.42,41.16,132.98,44.05z"/>
		<linearGradient id="SVGID_4_" gradientUnits="userSpaceOnUse" x1="164.6058" y1="31.9982" x2="201.8092" y2="10.5188">
			<stop  offset="0" style="stop-color:#A8986E"/>
			<stop  offset="0.386" style="stop-color:#E3D3AF"/>
			<stop  offset="1" style="stop-color:#A8986E"/>
		</linearGradient>
		<path class="st4" d="M184.32,45.82c-4.03-0.21-8.08-0.41-12.07-0.58c0.54-3.07,0.62-8.18,0.62-11.03
			c-0.01-6.94-0.01-13.86-0.02-20.79c0-4.44-0.19-7.67-0.64-11.02c4.06,0.15,8.13,0.31,12.2,0.46l0.23,0
			c3.43,0,9.69-0.14,12.38-0.64l0,10.23c-2.52-0.47-6-0.75-9.88-0.8l-3.46-0.05l0,0.35c0.01,2.95,0.01,5.9,0.01,8.85v0.33l2.39,0.06
			c0.71,0.02,1.39,0.03,2.05,0.03c2.79,0,5.21-0.15,7.19-0.46c0,3.39,0,6.79,0,10.18c-2.2-0.61-5.3-0.84-9.22-0.97l-2.41-0.08
			l0,0.35c0,1.46,0,2.93,0,4.39C183.71,38.43,183.76,42.71,184.32,45.82z"/>
		<linearGradient id="SVGID_5_" gradientUnits="userSpaceOnUse" x1="197.128" y1="33.4333" x2="226.0823" y2="16.7165">
			<stop  offset="0" style="stop-color:#A8986E"/>
			<stop  offset="0.386" style="stop-color:#E3D3AF"/>
			<stop  offset="1" style="stop-color:#A8986E"/>
		</linearGradient>
		<path class="st5" d="M217.79,48c-4.32-0.33-8.61-0.64-12.79-0.93c1.02-3.23,1.02-5.58,1.01-11.47l-0.01-21.66
			c0-4.41-0.59-9.29-1.06-11.52l12.88,0.02c-0.46,2.15-1.05,7.34-1.05,11.73v22.05C216.79,41.71,216.95,45.13,217.79,48z"/>
		<linearGradient id="SVGID_6_" gradientUnits="userSpaceOnUse" x1="143.885" y1="31.5971" x2="171.711" y2="15.5317">
			<stop  offset="0" style="stop-color:#A8986E"/>
			<stop  offset="0.386" style="stop-color:#E3D3AF"/>
			<stop  offset="1" style="stop-color:#A8986E"/>
		</linearGradient>
		<path class="st6" d="M164.1,44.9c-4.3-0.17-8.6-0.31-12.79-0.43c1.01-3.05,1.01-5.27,1-10.77c0-6.86-0.01-13.67-0.01-20.48
			c0-4.13-0.58-8.72-1.05-10.84l12.87,0.01c-0.46,2.03-1.04,6.84-1.04,10.94c0,0,0.01,16.17,0.02,20.61
			C163.1,39.05,163.26,42.24,164.1,44.9z"/>
		<linearGradient id="SVGID_7_" gradientUnits="userSpaceOnUse" x1="49.9654" y1="31.5251" x2="77.9958" y2="15.3417">
			<stop  offset="0" style="stop-color:#A8986E"/>
			<stop  offset="0.386" style="stop-color:#E3D3AF"/>
			<stop  offset="1" style="stop-color:#A8986E"/>
		</linearGradient>
		<path class="st7" d="M57.65,44.84c1-3.12,1-5.33,1.01-10.82v-0.13c0.01-6.86,0.01-13.72,0.01-20.59
			c0.01-4.16-0.57-8.79-1.04-10.93c4.29,0,8.58,0,12.87-0.01c-0.46,2.01-1.05,6.77-1.05,10.83l-0.01,20.41c0,5.09,0.15,8.24,1,10.81
			C66.21,44.54,61.91,44.68,57.65,44.84z"/>
	</g>
	<path class="st0" d="M214.99,45.82c-2.4-0.18-4.8-0.36-7.2-0.52l-0.28-0.02l0.05-0.28c0.44-2.44,0.44-5.03,0.44-9.33l-0.01-21.73
		c0-2.78-0.25-6.24-0.66-9.26l-0.04-0.29l8.22,0.01l-0.04,0.29c-0.4,3.03-0.65,6.67-0.65,9.48v22.05c0,3.77,0.07,6.8,0.44,9.31
		l0.05,0.32L214.99,45.82z"/>
	<path class="st0" d="M5.3,45.13c0.82-2.65,1.53-5.79,2.06-9.08C9.08,25.94,10.95,15.1,12.9,3.81l0.28-1.63l0.68,1.5
		c3.69,8.12,7.63,16.63,11.7,25.3l1.83,3.9L29.27,29c3.97-8.17,7.97-16.28,12.23-24.79l0.74-1.48l0.22,1.63
		c1.36,9.97,2.71,19.9,4.07,29.79c0.37,2.82,1.03,5.75,1.91,8.45l0.21,0.64l-0.67,0.03c-2.36,0.11-4.72,0.21-7.07,0.33l-0.52,0.03
		l-0.02-0.52c-0.09-2.79-0.65-6.48-1.25-10.39l-0.03-0.17c-0.22-1.42-0.44-2.85-0.63-4.26l-0.92-6.51l-2.95,5.88
		c-2.66,5.3-5.33,10.67-7.93,15.96l-0.45,0.92l-0.46-0.91c-2.67-5.25-5.27-10.41-7.74-15.35l-2.82-5.65l-1.16,6.92
		c-0.98,5.84-1.83,10.88-1.97,15.33l-0.01,0.46l-0.46,0.03c-1.92,0.13-3.85,0.28-5.77,0.42l-0.75,0.06L5.3,45.13z"/>
	<path class="st0" d="M88.56,42.61c-1.74,0-3.11-0.19-4.56-0.4c-1.03-0.14-2.07-0.29-3.19-0.36l-0.45-0.03L80,35.33l0.77,0.36
		c2.49,1.15,5.39,1.84,7.74,1.84l0.25,0c3.62-0.08,5.23-2.49,5.22-4.84c-0.01-4.05-3.38-6.48-6.36-8.62
		c-3.43-2.47-6.66-4.79-6.94-9.33c-0.2-3.28,0.61-5.93,2.41-7.87c2.1-2.26,5.56-3.47,10-3.51h0.09c1.08,0,2.13,0.16,3.15,0.32
		l0.06,0.01c0.99,0.15,2.01,0.3,3.09,0.32l0.47,0.01l0.29,5.35L99.5,9.05c-1.61-0.68-3.42-1.03-5.38-1.03
		c-0.12,0-0.45,0.01-0.45,0.01c-2.12,0.06-3.34,0.91-3.99,1.61c-0.8,0.87-1.21,2.04-1.14,3.3c0.15,2.74,2.65,4.42,5.29,6.2
		c3.79,2.55,8.09,5.44,8.44,11.8c0.17,3.02-0.69,5.57-2.55,7.58c-2.34,2.53-6.11,3.99-10.61,4.09
		C88.93,42.61,88.74,42.61,88.56,42.61z"/>
	<path class="st0" d="M130.4,42.05c-2.2-0.03-4.42-0.06-6.62-0.08l-1.09-0.01l0.06-0.56c0.24-2.3,0.36-5.06,0.36-8.43l0-13.38
		c0-2.92-0.07-5.91-0.18-7.99l-0.1-1.94l-3.37-0.01c-2.58,0-5.44,0.25-7.89,0.49l-0.56,0.06V3.78l0.56,0.05
		c4.36,0.39,10.65,0.91,14.94,0.91l0.58,0c4.01-0.05,10.14-0.51,15.05-0.92l0.55-0.05l0,6.52l-0.56-0.06
		c-2.35-0.24-5.38-0.53-8.07-0.54l-3.35-0.01l-0.07,2.01c-0.05,2.21-0.05,5.17-0.05,7.55l0,13.83c0,2.28,0.06,5.6,0.34,8.42
		l0.06,0.57L130.4,42.05z"/>
	<path class="st0" d="M181.73,43.74c-2.33-0.12-4.67-0.23-7-0.34l-0.53-0.02l0.05-0.53c0.22-2.32,0.32-5.31,0.32-8.87l-0.01-20.79
		c0-3.41-0.11-6.08-0.36-8.65l-0.06-0.58l0.58,0.02c3.2,0.12,6.4,0.24,9.61,0.36h0.27c1.44,0,6.41-0.02,10.14-0.35l0.55-0.05v6.27
		l-0.57-0.07c-2.18-0.26-4.73-0.41-7.57-0.45l-5.19-0.06l0.01,12.94l4.06,0.09c0.72,0.02,1.41,0.03,2.08,0.03
		c1.78,0,3.44-0.06,4.94-0.19l0.55-0.05l0,6.13l-0.58-0.08c-1.7-0.23-3.82-0.39-6.87-0.49l-4.19-0.14l0.01,6.52
		c0,2.78,0.03,5.99,0.29,8.79l0.05,0.59L181.73,43.74z"/>
	<path class="st0" d="M161.27,42.84c-2.39-0.09-4.78-0.17-7.15-0.24l-0.59-0.02l0.1-0.58c0.39-2.23,0.39-4.6,0.38-8.54L154,12.98
		c0-2.59-0.24-5.78-0.63-8.54l-0.08-0.58l8.76,0.01l-0.08,0.58c-0.39,2.85-0.62,6.09-0.62,8.65l0.02,20.61
		c0,3.46,0.07,6.23,0.42,8.56l0.09,0.61L161.27,42.84z"/>
	<path class="st0" d="M59.99,42.19c0.37-2.22,0.37-4.57,0.37-8.47l0.01-20.65c0-2.6-0.23-5.83-0.62-8.64l-0.08-0.58l8.76-0.01
		l-0.08,0.58c-0.39,2.8-0.62,5.99-0.63,8.53l-0.01,20.41c0,3.49,0.07,6.29,0.43,8.59l0.09,0.57l-0.58,0.02
		c-2.37,0.07-4.76,0.15-7.15,0.24l-0.62,0.02L59.99,42.19z"/>
	<g class="st8">
		<path class="st9" d="M14.02,6.62c-2.09,14.7-2.01,14.72-3.06,20.54C10.27,30.9,8.4,39.69,7.83,41.5
			c-0.57,1.82-1.42,3.42-1.42,3.42s3.8-2.69,5.7-17.09c0.9-6.83,1.9-17.13,1.9-17.13V6.62z"/>
		<path class="st9" d="M40.41,9.28c0,0-2.87,5.69-3.74,7.42c-0.87,1.73-5.47,10.89-5.47,10.89s2.7-3.31,4.61-6.72
			c2.18-3.9,2.95-6.44,3.55-7.74C39.94,11.84,40.41,9.28,40.41,9.28z"/>
		<path class="st9" d="M95.7,4.98c0,0-2.74-0.29-5.18,0.17c-2.21,0.41-4.03,1.06-5.24,2.59c-0.78,0.99-1.39,1.91-1.58,3.19
			c-0.15,1.02,0.13,2.74,0.13,2.74s0.35-1.37,1.18-3.3c0.47-1.09,1.16-2.1,2.57-3.12c1.26-0.9,4.02-1.44,4.02-1.44L95.7,4.98z"/>
		<path class="st9" d="M88.27,17.28c0,0,3.66,2.04,5.8,3.64c2.14,1.59,4.95,3.75,5.52,5.4c0.57,1.65,0.71,2.5,0.71,2.5
			s-1.44-3.19-5.24-6.16C93.14,21.16,88.27,17.28,88.27,17.28z"/>
		<path class="st9" d="M95.1,35.11c-0.68,1.71-1.48,2.72-2.71,3.28c-1.42,0.64-3.77,0.69-4.77,0.64c-1.35-0.07-4.31-0.93-4.31-0.93
			s2.21,1.41,3.45,1.71c1.64,0.39,4.13,0.36,6.09-0.85C95.1,37.55,95.1,35.11,95.1,35.11z"/>
		<path class="st9" d="M112.51,8.98V5.2c0,0,7.98,1.26,13.39,0.99c5.41-0.28,14.39-0.99,14.39-0.99s-1,1.36-4.42,1.61
			c-3.42,0.24-9.26,0.04-13.53,0c-4.27-0.04-9.26-0.62-9.26-0.62L112.51,8.98z"/>
		<path class="st9" d="M124.72,23.66c0,4.01,0.14,9,0,12.06c-0.14,3.06-1,4.63-1,4.63s1.57-3.47,1.71-8.36
			c0.14-4.89,0.71-13.86,0-16.57c-0.71-2.71-0.71-2.71-0.71-2.71S124.72,19.65,124.72,23.66z"/>
		<path class="st9" d="M159.5,5.3h-4.01c0,0-0.14,10.55,0,14.68c0.14,4.15,0.85,14.48,0.85,16.31c0,1.78-0.92,4.06-0.92,4.06
			s2.63-2.85,2.2-6.55c-0.43-3.7-0.71-12.68-1.14-15.81c-0.43-3.13-0.28-12.07-0.28-12.07"/>
		<path class="st9" d="M193.38,5.9c0,0-4.27,0.13-6.98,0c-2.71-0.13-10.83-0.7-10.83-0.7s0.85,12.68,0.85,16.67
			c0,1.69-0.13,4.82-0.28,7.99c-0.22,4.33-0.49,8.71-0.57,9.53c-0.14,1.43-0.85,2.92-0.85,2.92s1.85-1.21,1.99-2.92
			c0.14-1.71,0.71-8.12,0.71-10.26c0-2.14-0.29-9.69-0.29-13.11s-0.57-8.33-0.57-8.33l0.14-1.17c0,0,2.42-0.1,6.27,0
			c3.85,0.1,7.12,0,7.12,0L193.38,5.9z"/>
		<path class="st9" d="M192.06,23.83c0,0-2.22,0.5-4.78,0.57c-2.56,0.06-5.1-0.28-5.1-0.28s2.91,0.93,5.19,0.95
			C189.65,25.09,192.06,23.83,192.06,23.83z"/>
		<path class="st9" d="M213.63,5.71h-4.61c0,0-0.14,11.33,0,15.77c0.14,4.44,0.85,15.61,0.85,17.52c0,1.91-0.92,4.36-0.92,4.36
			s2.63-3.06,2.2-7.04c-0.43-3.98-0.71-13.62-1.14-16.99c-0.43-3.37-0.28-12.96-0.28-12.96"/>
		<path class="st9" d="M66.29,5.7h-4.61c0,0-0.14,10.55,0,14.68c0.14,4.13,0.86,14.53,0.86,16.31c0,1.78-0.92,4.06-0.92,4.06
			s2.63-2.85,2.2-6.55c-0.43-3.7-0.71-12.68-1.14-15.81c-0.43-3.13-0.29-12.07-0.29-12.07"/>
		<path class="st9" d="M16.25,12.24c6.03,13.13,6.01,13.13,6.92,14.97c0.69,1.38,2.04,4.31,2.04,4.31s-3.04-4.72-4.48-7.81
			C19.29,20.62,16.25,12.24,16.25,12.24z"/>
		<path class="st9" d="M41.65,41.79c0,0,0.65-0.98,0.49-2.93c-0.02-0.22-0.06-0.58-0.12-1.04c-0.49-3.69-2.16-14.09-2.16-14.09
			s1.18,4.28,1.87,7.16c0.68,2.82,0.85,4.25,1.08,6.15C43.26,40.78,41.65,41.79,41.65,41.79z"/>
	</g>
</g>
</svg>
