<?xml version="1.0" encoding="utf-8"?>
<!-- Generator: Adobe Illustrator 24.0.0, SVG Export Plug-In . SVG Version: 6.00 Build 0)  -->
<svg version="1.1" id="Layer_1" xmlns="http://www.w3.org/2000/svg" xmlns:xlink="http://www.w3.org/1999/xlink" x="0px" y="0px"
	 viewBox="0 0 223.13 57.98" style="enable-background:new 0 0 223.13 57.98;" xml:space="preserve">
<style type="text/css">
	.st0{fill:#1D1D1B;}
	.st1{fill:#FFFFFF;}
	.st2{fill:none;}
</style>
<g>
	<g>
		<g>
			<path class="st0" d="M218.88,0.83v0.54h-1.33v3.24h-0.54V1.38h-1.33V0.83H218.88z"/>
			<path class="st0" d="M220.02,1.97L220.02,1.97l-0.01,2.65h-0.54V0.83h0.54l1.29,2.35l1.29-2.35h0.54v3.78h-0.54V1.97h-0.01
				l-1.28,2.32L220.02,1.97z"/>
		</g>
	</g>
	<g>
		<path class="st0" d="M212.45,45.43c-3.98-0.31-8.03-0.6-12.02-0.87c0.93-3.07,0.93-5.49,0.93-11.08l-0.01-21.51
			c0-4.05-0.5-8.68-0.99-11.17l12.17,0.02c-0.43,2.22-0.99,7.14-0.99,11.38l0,21.84C211.54,39.21,211.69,42.62,212.45,45.43z"/>
		<path class="st0" d="M0,45.42c1.2-3.01,2.24-7.1,2.95-11.56C4.85,22.71,6.81,11.32,8.78,0h2.74c3.93,8.66,8.05,17.56,12.23,26.46
			l0.51,1.09l0.53-1.09C29,17.8,33.27,9.14,37.86,0h2.4c1.46,10.72,2.92,21.4,4.38,32.02c0.47,3.63,1.47,7.46,2.73,10.57
			c-3.89,0.17-7.85,0.35-11.77,0.55c0.25-2.73-0.46-7.38-1.21-12.29l-0.01-0.07c-0.21-1.39-0.43-2.79-0.62-4.16l-0.26-1.82
			l-0.83,1.65c-3.06,6.09-6.07,12.17-8.96,18.07l-1.22,0.07c-3-5.88-5.98-11.78-8.85-17.53l-0.79-1.58l-0.41,2.43
			c-1.09,6.47-2.03,12.07-1.94,16.75C7.04,44.89,3.51,45.15,0,45.42z"/>
		<path class="st0" d="M84.81,42.04c-1.82,0-3.3-0.21-4.73-0.41c-1.35-0.19-2.63-0.37-4.11-0.37c-0.23,0-0.45,0-0.67,0.01
			l-0.58-10.68c2.83,2.28,7.2,3.5,10.04,3.5l0.21,0c2.35-0.05,3.75-1.29,3.75-3.33c-0.01-3.27-2.77-5.26-5.7-7.36
			c-3.35-2.41-7.15-5.14-7.47-10.33c-0.22-3.62,0.74-6.69,2.78-8.88c2.37-2.54,6.16-3.9,10.96-3.93h0.1c1.17,0,2.27,0.17,3.34,0.33
			c1.09,0.16,2.12,0.32,3.21,0.32c0.54,0,1.04-0.04,1.54-0.12L98,10.56c-2.07-1.86-4.59-2.77-7.69-2.77c-0.13,0-0.27,0-0.4,0.01
			c-1.26,0.03-2.27,0.42-2.92,1.12c-0.53,0.58-0.79,1.34-0.74,2.19c0.11,2,2.09,3.33,4.61,5.02c3.83,2.58,8.6,5.78,8.99,12.81
			c0.19,3.35-0.82,6.31-2.91,8.58c-2.59,2.8-6.69,4.41-11.55,4.52C85.19,42.04,85,42.04,84.81,42.04z"/>
		<path class="st0" d="M128.49,41.53c-3.88-0.06-7.76-0.11-11.56-0.14c0.42-2.58,0.63-5.97,0.63-10.35l0-13.24
			c0-2.79-0.07-5.72-0.18-7.84l-0.03-0.54l-1.95,0c-2.93,0-6.29,0.34-8.52,0.56c-0.5,0.05-0.94,0.09-1.32,0.13l0-9.56
			c0.34,0.03,0.76,0.07,1.26,0.11c3.55,0.32,10.83,0.97,15.55,0.97c0,0,0.38,0,0.56,0c4.56-0.05,12.15-0.68,15.8-0.99l1.13-0.09
			l0.01,9.66c-0.36-0.04-0.78-0.08-1.26-0.13c-2.29-0.24-5.74-0.61-8.76-0.62l-1.9-0.01L127.93,10c-0.06,2.31-0.06,5.38-0.06,7.85
			l0.01,13.29C127.88,34.32,127.99,38.65,128.49,41.53z"/>
		<path class="st0" d="M179.34,43.28c-3.87-0.2-7.7-0.39-11.38-0.55c0.5-3.11,0.57-8,0.57-10.69l-0.01-20.59
			c0-4.31-0.18-7.43-0.6-10.67c3.93,0.15,7.87,0.3,11.8,0.45l0.23,0c3.2,0,9.19-0.13,12.03-0.59l0.01,9.56
			c-2.47-0.44-5.85-0.7-9.54-0.75l-3.6-0.05l-0.06,0.55l0,9.35l2.6,0.06c0.7,0.02,1.37,0.02,2.02,0.02c2.66,0,4.98-0.14,6.9-0.42
			l0,9.5c-2.18-0.56-5.15-0.76-8.89-0.89l-2.63-0.09l0,4.95C178.78,36.09,178.83,40.2,179.34,43.28z"/>
		<path class="st0" d="M159.28,42.37c-3.99-0.15-8.03-0.29-12.02-0.41c0.91-2.9,0.91-5.18,0.91-10.43l-0.01-20.29
			c0-3.79-0.5-8.13-0.99-10.5l12.16,0.01c-0.42,2.02-0.97,6.5-0.97,10.6l0.01,20.41C158.37,36.59,158.52,39.77,159.28,42.37z"/>
		<path class="st0" d="M54.52,42.31c0.91-2.97,0.91-5.26,0.91-10.53l0.01-20.45c0-3.81-0.49-8.19-0.98-10.58l12.16-0.01
			c-0.42,2-0.98,6.44-0.98,10.49l-0.01,20.21c0,4.81,0.14,7.95,0.91,10.48C62.51,42.03,58.47,42.16,54.52,42.31z"/>
		<g>
			<path class="st1" d="M10.05,4.04c-2.14,15.08-2.06,15.1-3.14,21.06c-0.7,3.84-2.62,12.85-3.2,14.71
				c-0.58,1.86-1.45,3.51-1.45,3.51s3.9-2.76,5.85-17.53c0.93-7,1.95-17.57,1.95-17.57V4.04z"/>
			<path class="st1" d="M37.4,5.99c0,0-3.87,7.67-5.04,10.01c-1.17,2.34-5.97,11.88-5.97,11.88s2.23-1.66,4.8-6.25
				c2.95-5.26,3.98-8.68,4.78-10.43C36.78,9.44,37.4,5.99,37.4,5.99z"/>
			<path class="st1" d="M90.76,2.98c0,0-2.81-0.3-5.31,0.17c-2.27,0.42-4.14,1.09-5.37,2.65c-0.8,1.01-1.42,1.96-1.62,3.27
				c-0.16,1.04,0.14,2.81,0.14,2.81s0.36-1.4,1.21-3.38c0.48-1.12,1.19-2.16,2.64-3.2c1.3-0.93,4.12-1.48,4.12-1.48L90.76,2.98z"/>
			<path class="st1" d="M84.98,15.58c0,0,3.75,2.1,5.95,3.73c2.19,1.63,5.08,3.85,5.66,5.54c0.58,1.69,0.73,2.57,0.73,2.57
				s-1.48-3.27-5.37-6.31C89.98,19.57,84.98,15.58,84.98,15.58z"/>
			<path class="st1" d="M90.75,32.64c-0.7,1.75-1.52,2.79-2.78,3.36c-1.46,0.66-3.86,0.71-4.89,0.66c-1.39-0.07-4.42-0.95-4.42-0.95
				s2.26,1.45,3.54,1.75c1.68,0.4,4.24,0.37,6.25-0.88C90.75,35.15,90.75,32.64,90.75,32.64z"/>
			<path class="st1" d="M107.38,7.69V2.58c0,0,8.18,1.3,13.73,1.01c5.55-0.28,14.76-1.01,14.76-1.01s-1.02,1.4-4.53,1.65
				c-3.51,0.25-9.5,0.04-13.88,0c-4.38-0.04-9.5-0.63-9.5-0.63L107.38,7.69z"/>
			<path class="st1" d="M119.87,22.13c0,4.12,0.15,9.23,0,12.37c-0.15,3.14-1.02,4.75-1.02,4.75s1.61-3.56,1.75-8.57
				c0.15-5.01,0.73-14.22,0-16.99c-0.73-2.78-0.73-2.78-0.73-2.78S119.87,18.02,119.87,22.13z"/>
			<path class="st1" d="M155.64,3.3h-5.42c0,0-0.15,10.82,0,15.06c0.15,4.26,0.88,14.86,0.88,16.73c0,1.83-0.94,4.16-0.94,4.16
				s2.69-2.92,2.26-6.72c-0.44-3.8-0.73-13-1.17-16.22c-0.44-3.21-0.29-12.38-0.29-12.38"/>
			<path class="st1" d="M189.09,3.3c0,0-4.38,0.14-7.16,0c-2.78-0.14-11.1-0.72-11.1-0.72s0.88,13,0.88,17.09
				c0,1.73-0.13,4.95-0.29,8.19c-0.22,4.44-0.5,8.93-0.58,9.78c-0.15,1.46-0.88,2.99-0.88,2.99s1.9-1.24,2.05-2.99
				c0.15-1.75,0.73-8.33,0.73-10.52c0-2.19-0.29-9.93-0.29-13.44s-0.58-8.55-0.58-8.55l0.15-1.2c0,0,2.48-0.1,6.43,0
				c3.94,0.1,7.3,0,7.3,0L189.09,3.3z"/>
			<path class="st1" d="M188.36,21.08c0,0-3.51,0.51-6.14,0.58c-2.63,0.07-3.53-0.29-3.53-0.29s1.35,0.9,3.69,0.93
				C184.72,22.32,188.36,21.08,188.36,21.08z"/>
			<path class="st1" d="M208.7,3.72h-5.42c0,0-0.15,11.62,0,16.18c0.15,4.55,0.88,16.01,0.88,17.97c0,1.96-0.94,4.47-0.94,4.47
				s2.69-3.14,2.26-7.22c-0.44-4.08-0.73-13.97-1.17-17.42c-0.44-3.45-0.29-13.3-0.29-13.3"/>
			<path class="st1" d="M62.51,3.1h-5.42c0,0-0.15,10.82,0,15.06c0.15,4.24,0.88,14.9,0.88,16.73c0,1.83-0.94,4.16-0.94,4.16
				s2.69-2.92,2.26-6.72c-0.44-3.8-0.73-13-1.17-16.22c-0.44-3.21-0.29-12.38-0.29-12.38"/>
			<path class="st1" d="M12.32,9.19c6.61,13.47,6.59,13.46,7.59,15.35c0.75,1.42,2.24,4.42,2.24,4.42s-3.34-4.84-4.92-8.01
				C15.65,17.78,12.32,9.19,12.32,9.19z"/>
			<path class="st1" d="M38.39,40.73c0,0,0.67-1,0.5-3c-0.02-0.22-0.06-0.59-0.12-1.06c-0.5-3.78-2.21-14.46-2.21-14.46
				s1.21,4.39,1.92,7.34c0.69,2.89,0.87,4.36,1.11,6.31C40.05,39.69,38.39,40.73,38.39,40.73z"/>
		</g>
	</g>
	<g>
		<path class="st0" d="M23.61,52.91c0.02,0.32,0.04,0.64,0.06,0.96c-0.59,0.04-1.18,0.07-1.78,0.11c0.08,1.28,0.16,2.55,0.23,3.83
			c-0.32,0.02-0.64,0.04-0.96,0.06c-0.08-1.28-0.16-2.55-0.24-3.83c-0.59,0.04-1.18,0.07-1.77,0.11c-0.02-0.32-0.04-0.64-0.06-0.96
			C20.59,53.09,22.1,53,23.61,52.91z"/>
		<path class="st0" d="M26.6,52.73c0.03,0.6,0.07,1.21,0.1,1.81c0.86-0.05,1.72-0.1,2.58-0.15c-0.03-0.6-0.07-1.21-0.1-1.81
			c0.32-0.02,0.64-0.04,0.97-0.05c0.09,1.6,0.18,3.2,0.26,4.8c-0.32,0.02-0.64,0.04-0.96,0.05c-0.04-0.67-0.08-1.35-0.11-2.02
			c-0.86,0.05-1.72,0.1-2.58,0.15c0.04,0.67,0.08,1.35,0.12,2.02c-0.32,0.02-0.64,0.04-0.96,0.06c-0.09-1.6-0.19-3.2-0.28-4.8
			C25.95,52.77,26.28,52.75,26.6,52.73z"/>
		<path class="st0" d="M37.09,52.17c0.02,0.32,0.03,0.64,0.05,0.96c-1.1,0.06-2.21,0.11-3.31,0.17c0.02,0.29,0.03,0.58,0.05,0.87
			c0.58-0.03,1.16-0.06,1.75-0.09c0.02,0.32,0.03,0.64,0.05,0.96c-0.58,0.03-1.16,0.06-1.74,0.09c0.02,0.35,0.04,0.69,0.05,1.04
			c1.14-0.06,2.28-0.12,3.41-0.18c0.02,0.32,0.03,0.64,0.05,0.96c-1.46,0.07-2.92,0.15-4.38,0.23c-0.09-1.6-0.17-3.2-0.26-4.8
			C34.24,52.31,35.67,52.24,37.09,52.17z"/>
		<path class="st0" d="M42.57,51.9c0.41,1.16,0.83,2.31,1.24,3.47c0.01,0,0.01,0,0.02,0c0.27-1.19,0.54-2.38,0.82-3.56
			c0.42-0.02,0.83-0.04,1.25-0.06c0.37,1.16,0.74,2.32,1.1,3.48c0.01,0,0.01,0,0.02,0c0.32-1.19,0.64-2.38,0.95-3.57
			c0.34-0.01,0.67-0.03,1.01-0.04c-0.43,1.62-0.86,3.24-1.29,4.86c-0.43,0.02-0.86,0.04-1.29,0.06c-0.36-1.16-0.72-2.32-1.07-3.48
			c-0.01,0-0.01,0-0.02,0c-0.25,1.19-0.51,2.37-0.76,3.56c-0.42,0.02-0.85,0.04-1.27,0.06c-0.57-1.58-1.13-3.15-1.7-4.73
			C41.9,51.93,42.23,51.92,42.57,51.9z"/>
		<path class="st0" d="M50.15,53.98c-0.06-1.34,0.95-2.59,2.85-2.67c1.91-0.07,3,1.08,3.05,2.44c0.05,1.34-0.97,2.59-2.85,2.66
			C51.32,56.48,50.21,55.32,50.15,53.98z M55.09,53.78c-0.03-0.83-0.85-1.56-2.05-1.51c-1.2,0.05-1.96,0.84-1.93,1.66
			c0.03,0.83,0.85,1.55,2.05,1.51C54.37,55.4,55.13,54.61,55.09,53.78z"/>
		<path class="st0" d="M58.3,51.26c0.32-0.01,0.65-0.02,0.97-0.03c0.92,1.05,1.84,2.1,2.75,3.15c0.01,0,0.01,0,0.02,0
			c-0.04-1.08-0.07-2.16-0.11-3.24c0.32-0.01,0.65-0.02,0.97-0.03c0.05,1.6,0.1,3.2,0.15,4.8c-0.32,0.01-0.64,0.02-0.96,0.03
			c-0.91-1.05-1.83-2.1-2.75-3.15c-0.01,0-0.01,0-0.02,0c0.04,1.08,0.07,2.16,0.11,3.24c-0.32,0.01-0.64,0.02-0.96,0.03
			C58.42,54.46,58.36,52.86,58.3,51.26z"/>
		<path class="st0" d="M68.13,50.95c1.11-0.03,2.45,0.47,2.5,2.26c0.04,1.59-0.93,2.5-2.36,2.54c-0.87,0.02-1.74,0.05-2.61,0.08
			c-0.05-1.6-0.1-3.2-0.15-4.8C66.39,51,67.26,50.97,68.13,50.95z M66.59,54.83c0.55-0.02,1.1-0.03,1.64-0.05
			c0.84-0.02,1.45-0.52,1.43-1.5c-0.03-1.13-0.75-1.4-1.51-1.38c-0.55,0.02-1.1,0.03-1.65,0.05C66.54,52.92,66.57,53.87,66.59,54.83
			z"/>
		<path class="st0" d="M75.85,50.75c0.89-0.02,1.75,0.29,1.77,1.38c0.02,0.92-0.59,1.27-1.05,1.44c0.42,0.65,0.84,1.29,1.26,1.94
			c-0.41,0.01-0.81,0.02-1.22,0.03c-0.42-0.64-0.84-1.29-1.26-1.93c-0.51,0.01-1.03,0.02-1.54,0.04c0.02,0.65,0.03,1.3,0.05,1.96
			c-0.32,0.01-0.64,0.02-0.96,0.02c-0.04-1.6-0.08-3.2-0.12-4.8C73.8,50.8,74.83,50.78,75.85,50.75z M73.77,51.77
			c0.01,0.31,0.02,0.61,0.02,0.92c0.7-0.02,1.4-0.03,2.1-0.05c0.29-0.01,0.77-0.06,0.76-0.48c-0.01-0.45-0.45-0.44-0.78-0.44
			C75.17,51.74,74.47,51.75,73.77,51.77z"/>
		<path class="st0" d="M79.43,53.08c-0.03-1.34,1.01-2.57,2.91-2.61c1.91-0.04,2.98,1.14,3,2.5c0.02,1.34-1.03,2.57-2.91,2.6
			C80.55,55.61,79.46,54.43,79.43,53.08z M84.38,52.99c-0.01-0.83-0.82-1.57-2.02-1.55c-1.2,0.02-1.98,0.8-1.96,1.62
			c0.02,0.83,0.82,1.57,2.02,1.55C83.62,54.59,84.39,53.82,84.38,52.99z"/>
		<path class="st0" d="M88.17,50.52c0.01,0.97,0.03,1.95,0.04,2.92c0.01,0.58,0.16,1.06,1.37,1.05c1.28-0.02,1.35-0.57,1.34-1.08
			c-0.01-0.97-0.02-1.95-0.04-2.92c0.32,0,0.65-0.01,0.97-0.01c0.01,0.97,0.02,1.95,0.03,2.92c0.01,1.01-0.46,2.04-2.3,2.06
			c-1.67,0.02-2.32-0.86-2.34-2c-0.01-0.97-0.03-1.95-0.04-2.92C87.52,50.53,87.85,50.52,88.17,50.52z"/>
		<path class="st0" d="M94.28,53.7c0.84,0.53,1.64,0.72,2.49,0.71c0.48,0,1.3-0.13,1.29-0.67c0-0.39-0.43-0.49-0.73-0.49
			c-0.48-0.01-0.96-0.02-1.44-0.03c-1.18-0.02-1.76-0.7-1.77-1.44c-0.01-0.71,0.52-1.48,2.25-1.5c1.27-0.01,2.04,0.47,2.33,0.61
			c-0.14,0.29-0.29,0.57-0.43,0.86c-0.38-0.19-1.08-0.51-2.04-0.5c-0.51,0-1.14,0.12-1.14,0.55c0,0.37,0.53,0.46,0.86,0.46
			c0.42,0.01,0.84,0.02,1.26,0.04c1.11,0.02,1.82,0.49,1.82,1.5c0.01,0.86-0.67,1.58-2.25,1.59c-1.3,0.01-2.26-0.3-2.93-0.81
			C93.99,54.28,94.13,53.99,94.28,53.7z"/>
		<path class="st0" d="M107.32,50.37c0.94,0,1.74,0.41,1.74,1.52c0,1.08-0.74,1.55-1.74,1.55c-0.64,0-1.28,0-1.92,0
			c0,0.58,0,1.16,0,1.73c-0.32,0-0.64,0-0.97,0c0-1.6-0.01-3.2-0.01-4.8C105.39,50.37,106.36,50.37,107.32,50.37z M105.4,52.48
			c0.64,0,1.28,0,1.93,0c0.37,0,0.77-0.05,0.77-0.59c0-0.51-0.43-0.56-0.77-0.56c-0.64,0-1.28,0-1.93,0
			C105.4,51.72,105.4,52.1,105.4,52.48z"/>
		<path class="st0" d="M110.51,52.77c0-1.34,1.06-2.55,2.96-2.54c1.91,0.01,2.96,1.21,2.95,2.56c-0.01,1.35-1.08,2.54-2.96,2.54
			C111.57,55.33,110.51,54.12,110.51,52.77z M115.45,52.79c0-0.83-0.78-1.59-1.98-1.59c-1.2,0-1.99,0.75-1.99,1.58
			c0,0.83,0.79,1.59,1.98,1.59C114.66,54.37,115.45,53.62,115.45,52.79z"/>
		<path class="st0" d="M118.52,50.41c0.35,1.18,0.7,2.35,1.05,3.53c0.01,0,0.01,0,0.02,0c0.33-1.17,0.67-2.34,1-3.52
			c0.42,0,0.83,0.01,1.25,0.01c0.31,1.18,0.61,2.36,0.92,3.53c0.01,0,0.01,0,0.02,0c0.38-1.17,0.76-2.34,1.14-3.51
			c0.34,0,0.67,0.01,1.01,0.01c-0.52,1.6-1.03,3.19-1.55,4.79c-0.43,0-0.86-0.01-1.29-0.01c-0.3-1.18-0.59-2.36-0.89-3.53
			c-0.01,0-0.01,0-0.02,0c-0.32,1.17-0.63,2.34-0.95,3.52c-0.42,0-0.85-0.01-1.27-0.01c-0.48-1.6-0.96-3.21-1.45-4.81
			C117.85,50.4,118.19,50.4,118.52,50.41z"/>
		<path class="st0" d="M130.61,50.54c-0.01,0.32-0.01,0.64-0.01,0.96c-1.1-0.02-2.21-0.03-3.31-0.05c0,0.29-0.01,0.58-0.01,0.87
			c0.58,0.01,1.17,0.02,1.75,0.02c0,0.32-0.01,0.64-0.01,0.96c-0.58-0.01-1.16-0.02-1.75-0.02c0,0.35-0.01,0.69-0.01,1.04
			c1.14,0.01,2.28,0.03,3.42,0.05c0,0.32-0.01,0.64-0.01,0.96c-1.46-0.02-2.92-0.04-4.38-0.06c0.02-1.6,0.04-3.2,0.06-4.8
			C127.76,50.5,129.19,50.52,130.61,50.54z"/>
		<path class="st0" d="M135.71,50.63c0.89,0.02,1.73,0.37,1.71,1.45c-0.02,0.92-0.65,1.24-1.11,1.4c0.39,0.66,0.79,1.33,1.18,1.99
			c-0.41-0.01-0.81-0.02-1.22-0.02c-0.39-0.66-0.79-1.32-1.18-1.98c-0.51-0.01-1.03-0.02-1.54-0.03c-0.01,0.65-0.02,1.3-0.03,1.96
			c-0.32-0.01-0.64-0.01-0.97-0.02c0.03-1.6,0.05-3.2,0.08-4.8C133.66,50.59,134.69,50.61,135.71,50.63z M133.59,51.55
			c-0.01,0.31-0.01,0.61-0.02,0.92c0.7,0.01,1.4,0.03,2.1,0.04c0.29,0.01,0.77-0.02,0.78-0.45c0.01-0.45-0.43-0.46-0.76-0.47
			C134.99,51.58,134.29,51.57,133.59,51.55z"/>
		<path class="st0" d="M142.49,53.18c0.03-1.34,1.12-2.53,3.02-2.48c1.91,0.05,2.93,1.28,2.89,2.63c-0.04,1.34-1.14,2.52-3.02,2.47
			C143.5,55.75,142.46,54.52,142.49,53.18z M147.44,53.3c0.02-0.83-0.75-1.61-1.95-1.64c-1.2-0.03-2.01,0.71-2.03,1.54
			c-0.02,0.83,0.75,1.6,1.95,1.64C146.6,54.87,147.41,54.14,147.44,53.3z"/>
		<path class="st0" d="M151.62,55.82c-0.32-0.01-0.64-0.02-0.96-0.03c0.05-1.6,0.09-3.2,0.14-4.8c1.43,0.04,2.85,0.09,4.28,0.13
			c-0.01,0.32-0.02,0.64-0.03,0.96c-1.1-0.04-2.21-0.07-3.31-0.1c-0.01,0.29-0.02,0.58-0.03,0.87c0.58,0.02,1.16,0.04,1.75,0.05
			c-0.01,0.32-0.02,0.64-0.03,0.96c-0.58-0.02-1.16-0.04-1.75-0.05C151.66,54.49,151.64,55.16,151.62,55.82z"/>
		<path class="st0" d="M160.45,51.31c0.32,0.01,0.65,0.02,0.97,0.04c0.84,1.11,1.68,2.23,2.52,3.34c0.01,0,0.01,0,0.02,0
			c0.04-1.08,0.08-2.16,0.13-3.24c0.32,0.01,0.65,0.03,0.97,0.04c-0.06,1.6-0.13,3.2-0.19,4.8c-0.32-0.01-0.64-0.03-0.96-0.04
			c-0.84-1.12-1.67-2.23-2.51-3.34c-0.01,0-0.01,0-0.02,0c-0.04,1.08-0.08,2.16-0.12,3.24c-0.32-0.01-0.64-0.02-0.96-0.04
			C160.33,54.51,160.39,52.91,160.45,51.31z"/>
		<path class="st0" d="M168.97,51.65c0.43,0.02,0.86,0.04,1.28,0.05c0.72,1.63,1.44,3.27,2.15,4.9c-0.36-0.02-0.73-0.03-1.09-0.05
			c-0.15-0.34-0.29-0.69-0.44-1.03c-0.94-0.04-1.87-0.08-2.81-0.12c-0.17,0.33-0.35,0.66-0.52,0.99c-0.36-0.02-0.73-0.03-1.09-0.04
			C167.28,54.78,168.12,53.21,168.97,51.65z M168.57,54.46c0.62,0.03,1.24,0.05,1.86,0.08c-0.28-0.64-0.56-1.29-0.85-1.93
			C169.24,53.23,168.9,53.84,168.57,54.46z"/>
		<path class="st0" d="M177.9,52.05c-0.02,0.32-0.03,0.64-0.05,0.96c-0.59-0.03-1.18-0.06-1.78-0.09c-0.06,1.28-0.12,2.56-0.18,3.83
			c-0.32-0.02-0.64-0.03-0.96-0.05c0.06-1.28,0.12-2.56,0.18-3.83c-0.59-0.03-1.18-0.05-1.77-0.08c0.01-0.32,0.03-0.64,0.04-0.96
			C174.89,51.91,176.4,51.98,177.9,52.05z"/>
		<path class="st0" d="M180.83,52.2c-0.05,0.97-0.1,1.94-0.15,2.92c-0.03,0.57,0.09,1.07,1.3,1.13c1.28,0.07,1.38-0.48,1.41-0.99
			c0.05-0.97,0.1-1.94,0.15-2.92c0.32,0.02,0.64,0.03,0.97,0.05c-0.05,0.97-0.1,1.94-0.16,2.92c-0.05,1.01-0.59,2-2.43,1.91
			c-1.67-0.09-2.26-1.01-2.21-2.15c0.05-0.97,0.1-1.94,0.15-2.92C180.19,52.17,180.51,52.18,180.83,52.2z"/>
		<path class="st0" d="M190.12,52.7c0.89,0.05,1.72,0.43,1.66,1.52c-0.05,0.92-0.69,1.21-1.16,1.35c0.37,0.68,0.73,1.36,1.1,2.03
			c-0.4-0.02-0.81-0.05-1.21-0.07c-0.37-0.67-0.73-1.35-1.1-2.02c-0.51-0.03-1.03-0.06-1.54-0.09c-0.04,0.65-0.07,1.3-0.11,1.95
			c-0.32-0.02-0.64-0.04-0.96-0.05c0.09-1.6,0.18-3.2,0.26-4.8C188.07,52.58,189.1,52.64,190.12,52.7z M187.96,53.54
			c-0.02,0.31-0.03,0.61-0.05,0.92c0.7,0.04,1.4,0.08,2.1,0.12c0.29,0.02,0.77,0.01,0.8-0.42c0.03-0.44-0.41-0.48-0.74-0.5
			C189.36,53.62,188.66,53.58,187.96,53.54z"/>
		<path class="st0" d="M198.1,53.18c-0.02,0.32-0.04,0.64-0.06,0.96c-1.1-0.07-2.2-0.14-3.31-0.2c-0.02,0.29-0.04,0.58-0.05,0.87
			c0.58,0.04,1.16,0.07,1.75,0.11c-0.02,0.32-0.04,0.64-0.06,0.96c-0.58-0.04-1.16-0.07-1.74-0.11c-0.02,0.35-0.04,0.69-0.06,1.04
			c1.14,0.07,2.27,0.14,3.41,0.21c-0.02,0.32-0.04,0.64-0.06,0.96c-1.46-0.09-2.92-0.18-4.37-0.27c0.1-1.6,0.19-3.2,0.29-4.8
			C195.25,53,196.68,53.09,198.1,53.18z"/>
	</g>
	<rect x="139.85" y="0.54" class="st2" width="7.31" height="4.6"/>
</g>
</svg>
