<?xml version="1.0" encoding="utf-8"?>
<!-- Generator: Adobe Illustrator 24.0.0, SVG Export Plug-In . SVG Version: 6.00 Build 0)  -->
<svg version="1.1" id="Layer_1" xmlns="http://www.w3.org/2000/svg" xmlns:xlink="http://www.w3.org/1999/xlink" x="0px" y="0px"
	 viewBox="0 0 223.2 57.87" style="enable-background:new 0 0 223.2 57.87;" xml:space="preserve">
<style type="text/css">
	.st0{fill:#1D1C1A;}
</style>
<g>
	<path class="st0" d="M0,45.25c1.19-3,2.23-7.07,2.94-11.52C4.83,22.63,6.79,11.28,8.75,0h2.73c3.92,8.63,8.02,17.5,12.18,26.37
		l0.51,1.09l0.53-1.08C28.89,17.74,33.15,9.11,37.73,0h2.39c1.45,10.68,2.9,21.32,4.36,31.91c0.47,3.61,1.46,7.43,2.72,10.54
		c-3.88,0.16-7.82,0.35-11.73,0.55c0.25-2.72-0.46-7.35-1.2-12.25l-0.01-0.07c-0.21-1.39-0.43-2.78-0.62-4.15l-0.26-1.82l-0.82,1.64
		c-3.04,6.07-6.05,12.12-8.93,18l-1.21,0.07c-2.99-5.86-5.96-11.74-8.82-17.47l-0.79-1.58l-0.41,2.42
		c-1.08,6.45-2.02,12.03-1.94,16.69C7.01,44.73,3.5,44.99,0,45.25z"/>
	<path class="st0" d="M84.5,41.89c-1.81,0-3.29-0.21-4.71-0.41c-1.35-0.19-2.62-0.37-4.1-0.37c-0.22,0-0.45,0-0.67,0.01l-0.58-10.65
		c2.82,2.27,7.17,3.49,10,3.49l0.21,0c2.35-0.05,3.74-1.29,3.73-3.32c-0.01-3.26-2.76-5.24-5.68-7.34
		c-3.34-2.4-7.12-5.12-7.44-10.29c-0.22-3.61,0.74-6.67,2.77-8.85c2.36-2.53,6.14-3.88,10.92-3.92h0.1c1.16,0,2.26,0.17,3.33,0.33
		c1.09,0.16,2.11,0.32,3.2,0.32c0.54,0,1.04-0.04,1.53-0.11l0.52,9.74c-2.06-1.86-4.58-2.76-7.66-2.76c-0.13,0-0.27,0-0.4,0.01
		c-1.26,0.03-2.26,0.42-2.91,1.12c-0.53,0.58-0.79,1.33-0.74,2.19c0.11,1.99,2.09,3.32,4.59,5c3.82,2.57,8.57,5.76,8.96,12.76
		c0.19,3.34-0.82,6.29-2.9,8.54c-2.58,2.79-6.66,4.39-11.51,4.5C84.88,41.89,84.69,41.89,84.5,41.89z"/>
	<path class="st0" d="M128.03,41.38c-3.86-0.06-7.74-0.11-11.52-0.14c0.42-2.57,0.63-5.95,0.63-10.31l0-13.2
		c0-2.78-0.07-5.7-0.18-7.81l-0.03-0.54l-1.94,0c-2.91,0-6.27,0.34-8.49,0.56c-0.5,0.05-0.94,0.09-1.31,0.13V0.53
		c0.34,0.03,0.76,0.07,1.25,0.11c3.54,0.32,10.79,0.97,15.5,0.97c0,0,0.37,0,0.55,0c4.54-0.05,12.11-0.68,15.74-0.98l1.12-0.09
		l0,9.63c-0.36-0.04-0.78-0.08-1.25-0.13c-2.28-0.24-5.72-0.61-8.73-0.62l-1.9-0.01l-0.01,0.56c-0.06,2.3-0.06,5.36-0.06,7.83
		l0.01,13.24C127.42,34.19,127.53,38.51,128.03,41.38z"/>
	<path class="st0" d="M178.69,43.12c-3.86-0.2-7.67-0.39-11.34-0.55c0.49-3.1,0.57-7.97,0.56-10.65l-0.01-20.51
		c0-4.3-0.18-7.4-0.6-10.63c3.92,0.15,7.84,0.29,11.76,0.44l0.23,0c3.18,0,9.16-0.12,11.98-0.58l0.01,9.53
		c-2.47-0.43-5.82-0.7-9.51-0.75l-3.59-0.05l-0.06,0.55l0,9.32l2.59,0.06c0.7,0.02,1.37,0.02,2.01,0.02c2.65,0,4.96-0.14,6.87-0.41
		l0,9.46c-2.18-0.55-5.13-0.76-8.85-0.89l-2.62-0.09l0,4.93C178.13,35.95,178.18,40.06,178.69,43.12z"/>
	<path class="st0" d="M211.68,45.26c-3.97-0.3-8-0.6-11.98-0.87c0.93-3.06,0.93-5.47,0.92-11.04l-0.01-21.44
		c0-4.04-0.5-8.64-0.99-11.13l12.13,0.02c-0.43,2.21-0.98,7.11-0.98,11.34l0,21.76C210.78,39.07,210.92,42.47,211.68,45.26z"/>
	<path class="st0" d="M158.7,42.21c-3.97-0.15-8-0.29-11.97-0.41c0.91-2.89,0.91-5.16,0.9-10.39l-0.01-20.22
		c0-3.78-0.5-8.1-0.99-10.46l12.11,0.01c-0.41,2.02-0.97,6.48-0.97,10.56l0.01,20.34C157.8,36.46,157.95,39.62,158.7,42.21z"/>
	<path class="st0" d="M54.32,42.16c0.9-2.96,0.9-5.24,0.91-10.49l0.01-20.38c0-3.8-0.49-8.16-0.97-10.55l12.11-0.01
		c-0.42,2-0.98,6.41-0.98,10.45l-0.01,20.14c0,4.79,0.14,7.92,0.9,10.44C62.28,41.88,58.26,42.01,54.32,42.16z"/>
	<g>
		<g>
			<path class="st0" d="M218.95,0.78v0.54h-1.32v3.23h-0.54V1.33h-1.32V0.78H218.95z"/>
			<path class="st0" d="M220.09,1.92L220.09,1.92l-0.01,2.64h-0.54V0.78h0.54l1.29,2.34l1.29-2.34h0.54v3.77h-0.54V1.92h-0.01
				l-1.28,2.32L220.09,1.92z"/>
		</g>
	</g>
	<g>
		<path class="st0" d="M22.93,52.81c0.02,0.32,0.04,0.64,0.06,0.96c-0.59,0.04-1.18,0.07-1.77,0.11c0.08,1.27,0.16,2.55,0.23,3.82
			c-0.32,0.02-0.64,0.04-0.96,0.06c-0.08-1.27-0.16-2.55-0.24-3.82c-0.59,0.04-1.18,0.07-1.77,0.11c-0.02-0.32-0.04-0.64-0.06-0.96
			C19.92,52.99,21.42,52.9,22.93,52.81z"/>
		<path class="st0" d="M25.91,52.63c0.03,0.6,0.07,1.21,0.1,1.81c0.86-0.05,1.72-0.1,2.58-0.15c-0.03-0.6-0.07-1.21-0.1-1.81
			c0.32-0.02,0.64-0.04,0.97-0.05c0.09,1.6,0.18,3.19,0.26,4.79c-0.32,0.02-0.64,0.04-0.96,0.05c-0.04-0.67-0.07-1.34-0.11-2.01
			c-0.86,0.05-1.72,0.1-2.57,0.15c0.04,0.67,0.08,1.34,0.12,2.01c-0.32,0.02-0.64,0.04-0.96,0.06c-0.09-1.6-0.19-3.19-0.28-4.79
			C25.27,52.67,25.59,52.65,25.91,52.63z"/>
		<path class="st0" d="M36.39,52.07c0.02,0.32,0.03,0.64,0.05,0.96c-1.1,0.06-2.2,0.11-3.3,0.17c0.02,0.29,0.03,0.58,0.05,0.87
			c0.58-0.03,1.16-0.06,1.74-0.09c0.02,0.32,0.03,0.64,0.05,0.96c-0.58,0.03-1.16,0.06-1.74,0.09c0.02,0.34,0.04,0.69,0.05,1.03
			c1.14-0.06,2.27-0.12,3.41-0.17c0.02,0.32,0.03,0.64,0.05,0.96c-1.46,0.07-2.91,0.15-4.37,0.23c-0.08-1.6-0.17-3.19-0.25-4.79
			C33.54,52.21,34.96,52.14,36.39,52.07z"/>
		<path class="st0" d="M41.85,51.8c0.41,1.15,0.83,2.31,1.24,3.46c0.01,0,0.01,0,0.02,0c0.27-1.19,0.54-2.37,0.81-3.56
			c0.41-0.02,0.83-0.04,1.24-0.06c0.37,1.16,0.73,2.31,1.1,3.47c0.01,0,0.01,0,0.02,0c0.32-1.19,0.63-2.37,0.95-3.56
			c0.33-0.01,0.67-0.03,1-0.04c-0.43,1.62-0.86,3.24-1.29,4.85c-0.43,0.02-0.86,0.04-1.29,0.06c-0.36-1.16-0.71-2.32-1.07-3.47
			c-0.01,0-0.01,0-0.02,0c-0.25,1.19-0.51,2.37-0.76,3.55c-0.42,0.02-0.85,0.04-1.27,0.06c-0.56-1.57-1.13-3.15-1.7-4.72
			C41.18,51.83,41.52,51.82,41.85,51.8z"/>
		<path class="st0" d="M49.42,53.87c-0.06-1.34,0.95-2.59,2.85-2.66c1.9-0.07,3,1.08,3.05,2.43c0.05,1.34-0.97,2.58-2.85,2.66
			C50.59,56.37,49.48,55.21,49.42,53.87z M54.35,53.68c-0.03-0.83-0.85-1.55-2.04-1.51c-1.2,0.05-1.96,0.84-1.92,1.66
			c0.03,0.83,0.85,1.55,2.05,1.5C53.62,55.29,54.38,54.51,54.35,53.68z"/>
		<path class="st0" d="M57.56,51.16c0.32-0.01,0.64-0.02,0.97-0.03c0.92,1.05,1.83,2.1,2.74,3.15c0.01,0,0.01,0,0.02,0
			c-0.04-1.08-0.07-2.16-0.11-3.24c0.32-0.01,0.64-0.02,0.97-0.03c0.05,1.6,0.1,3.19,0.15,4.79c-0.32,0.01-0.64,0.02-0.96,0.03
			c-0.91-1.05-1.83-2.1-2.74-3.15c-0.01,0-0.01,0-0.02,0c0.04,1.08,0.07,2.16,0.11,3.24c-0.32,0.01-0.64,0.02-0.96,0.03
			C57.67,54.35,57.61,52.76,57.56,51.16z"/>
		<path class="st0" d="M67.36,50.85c1.1-0.03,2.45,0.47,2.5,2.26c0.04,1.58-0.93,2.5-2.36,2.54c-0.87,0.02-1.73,0.05-2.6,0.08
			c-0.05-1.6-0.1-3.19-0.15-4.79C65.62,50.9,66.49,50.87,67.36,50.85z M65.83,54.73c0.55-0.02,1.09-0.03,1.64-0.05
			c0.84-0.02,1.45-0.52,1.42-1.49c-0.03-1.13-0.75-1.4-1.51-1.37c-0.55,0.02-1.1,0.03-1.64,0.05C65.77,52.81,65.8,53.77,65.83,54.73
			z"/>
		<path class="st0" d="M75.07,50.66c0.89-0.02,1.74,0.29,1.77,1.38c0.02,0.92-0.59,1.26-1.04,1.44c0.42,0.64,0.84,1.29,1.26,1.93
			c-0.4,0.01-0.81,0.02-1.21,0.03c-0.42-0.64-0.84-1.28-1.26-1.92c-0.51,0.01-1.03,0.02-1.54,0.04c0.02,0.65,0.03,1.3,0.05,1.95
			c-0.32,0.01-0.64,0.02-0.96,0.02c-0.04-1.6-0.08-3.2-0.12-4.79C73.03,50.7,74.05,50.68,75.07,50.66z M72.99,51.67
			c0.01,0.31,0.02,0.61,0.02,0.92c0.7-0.02,1.4-0.03,2.1-0.05c0.29-0.01,0.77-0.06,0.76-0.48c-0.01-0.44-0.45-0.44-0.78-0.44
			C74.39,51.63,73.69,51.65,72.99,51.67z"/>
		<path class="st0" d="M78.64,52.98c-0.03-1.34,1-2.57,2.9-2.6c1.91-0.04,2.97,1.14,3,2.49c0.02,1.34-1.02,2.56-2.9,2.6
			C79.76,55.5,78.67,54.32,78.64,52.98z M83.58,52.88c-0.01-0.83-0.82-1.57-2.01-1.55c-1.2,0.02-1.97,0.8-1.96,1.62
			c0.02,0.83,0.82,1.57,2.01,1.54C82.82,54.48,83.59,53.72,83.58,52.88z"/>
		<path class="st0" d="M87.36,50.42c0.01,0.97,0.03,1.94,0.04,2.92c0.01,0.57,0.16,1.06,1.37,1.05c1.28-0.02,1.35-0.56,1.34-1.08
			c-0.01-0.97-0.02-1.94-0.04-2.92c0.32,0,0.64-0.01,0.97-0.01c0.01,0.97,0.02,1.94,0.03,2.92c0.01,1.01-0.46,2.03-2.3,2.06
			c-1.67,0.02-2.32-0.86-2.34-1.99c-0.01-0.97-0.03-1.94-0.04-2.92C86.72,50.43,87.04,50.42,87.36,50.42z"/>
		<path class="st0" d="M93.46,53.59c0.84,0.53,1.64,0.72,2.48,0.71c0.48,0,1.3-0.13,1.29-0.67c0-0.39-0.43-0.49-0.73-0.49
			c-0.48-0.01-0.96-0.02-1.44-0.03c-1.18-0.02-1.76-0.7-1.77-1.44c-0.01-0.71,0.51-1.48,2.24-1.49c1.26-0.01,2.04,0.47,2.33,0.61
			c-0.14,0.28-0.29,0.57-0.43,0.85c-0.38-0.19-1.08-0.51-2.04-0.5c-0.51,0-1.14,0.12-1.14,0.55c0,0.37,0.53,0.46,0.86,0.45
			c0.42,0.01,0.84,0.02,1.25,0.04c1.1,0.02,1.81,0.49,1.82,1.5c0.01,0.86-0.67,1.58-2.25,1.59c-1.3,0.01-2.25-0.3-2.93-0.81
			C93.17,54.17,93.31,53.88,93.46,53.59z"/>
		<path class="st0" d="M106.48,50.27c0.94,0,1.74,0.41,1.74,1.52c0,1.07-0.74,1.55-1.73,1.55c-0.64,0-1.28,0-1.92,0
			c0,0.58,0,1.15,0,1.73c-0.32,0-0.64,0-0.96,0c0-1.6-0.01-3.2-0.01-4.79C104.55,50.28,105.51,50.28,106.48,50.27z M104.56,52.38
			c0.64,0,1.28,0,1.92,0c0.37,0,0.77-0.05,0.77-0.58c0-0.51-0.43-0.55-0.77-0.55c-0.64,0-1.28,0-1.92,0
			C104.56,51.62,104.56,52,104.56,52.38z"/>
		<path class="st0" d="M109.66,52.67c0-1.34,1.06-2.54,2.96-2.54c1.91,0.01,2.95,1.21,2.94,2.56c-0.01,1.34-1.08,2.54-2.96,2.53
			C110.72,55.22,109.66,54.01,109.66,52.67z M114.59,52.69c0-0.83-0.78-1.59-1.98-1.59c-1.2,0-1.99,0.75-1.99,1.58
			c0,0.83,0.78,1.58,1.98,1.59C113.8,54.27,114.59,53.52,114.59,52.69z"/>
		<path class="st0" d="M117.66,50.31c0.35,1.17,0.7,2.35,1.05,3.53c0.01,0,0.01,0,0.02,0c0.33-1.17,0.67-2.34,1-3.51
			c0.41,0,0.83,0.01,1.25,0.01c0.31,1.18,0.61,2.35,0.91,3.53c0.01,0,0.01,0,0.02,0c0.38-1.17,0.76-2.34,1.14-3.51
			c0.33,0,0.67,0.01,1,0.01c-0.52,1.59-1.03,3.18-1.55,4.78c-0.43,0-0.86-0.01-1.29-0.01c-0.29-1.18-0.59-2.35-0.89-3.53
			c-0.01,0-0.01,0-0.02,0c-0.32,1.17-0.63,2.34-0.95,3.51c-0.42,0-0.85-0.01-1.27-0.01c-0.48-1.6-0.96-3.2-1.44-4.8
			C116.99,50.3,117.32,50.31,117.66,50.31z"/>
		<path class="st0" d="M129.72,50.44c-0.01,0.32-0.01,0.64-0.01,0.96c-1.1-0.02-2.2-0.03-3.31-0.05c0,0.29-0.01,0.58-0.01,0.87
			c0.58,0.01,1.16,0.02,1.74,0.02c0,0.32-0.01,0.64-0.01,0.96c-0.58-0.01-1.16-0.02-1.74-0.02c0,0.35-0.01,0.69-0.01,1.04
			c1.14,0.01,2.27,0.03,3.41,0.05c0,0.32-0.01,0.64-0.01,0.96c-1.46-0.02-2.91-0.04-4.37-0.06c0.02-1.6,0.04-3.2,0.06-4.79
			C126.87,50.4,128.3,50.42,129.72,50.44z"/>
		<path class="st0" d="M134.81,50.53c0.89,0.02,1.73,0.37,1.71,1.45c-0.02,0.92-0.65,1.24-1.1,1.39c0.39,0.66,0.78,1.32,1.18,1.99
			c-0.4-0.01-0.81-0.02-1.21-0.02c-0.39-0.66-0.78-1.32-1.18-1.98c-0.51-0.01-1.03-0.02-1.54-0.03c-0.01,0.65-0.02,1.3-0.03,1.95
			c-0.32-0.01-0.64-0.01-0.96-0.02c0.03-1.6,0.05-3.2,0.08-4.79C132.77,50.49,133.79,50.51,134.81,50.53z M132.69,51.45
			c-0.01,0.31-0.01,0.61-0.02,0.92c0.7,0.01,1.4,0.03,2.1,0.04c0.29,0.01,0.77-0.02,0.78-0.45c0.01-0.44-0.43-0.46-0.76-0.47
			C134.09,51.48,133.39,51.47,132.69,51.45z"/>
		<path class="st0" d="M141.58,53.07c0.03-1.34,1.12-2.52,3.01-2.47c1.91,0.05,2.92,1.27,2.88,2.62c-0.04,1.34-1.14,2.51-3.02,2.47
			C142.58,55.64,141.55,54.41,141.58,53.07z M146.51,53.2c0.02-0.83-0.74-1.6-1.94-1.64c-1.2-0.03-2,0.71-2.02,1.53
			c-0.02,0.83,0.75,1.6,1.94,1.63C145.68,54.76,146.49,54.03,146.51,53.2z"/>
		<path class="st0" d="M150.69,55.72c-0.32-0.01-0.64-0.02-0.96-0.03c0.05-1.6,0.09-3.19,0.14-4.79c1.42,0.04,2.85,0.09,4.27,0.13
			c-0.01,0.32-0.02,0.64-0.03,0.96c-1.1-0.04-2.2-0.07-3.3-0.1c-0.01,0.29-0.02,0.58-0.03,0.87c0.58,0.02,1.16,0.04,1.74,0.05
			c-0.01,0.32-0.02,0.64-0.03,0.96c-0.58-0.02-1.16-0.04-1.74-0.05C150.73,54.38,150.71,55.05,150.69,55.72z"/>
		<path class="st0" d="M159.5,51.21c0.32,0.01,0.64,0.02,0.97,0.04c0.84,1.11,1.68,2.22,2.51,3.34c0.01,0,0.01,0,0.02,0
			c0.04-1.08,0.08-2.16,0.13-3.24c0.32,0.01,0.64,0.03,0.97,0.04c-0.06,1.6-0.13,3.19-0.19,4.79c-0.32-0.01-0.64-0.03-0.96-0.04
			c-0.83-1.11-1.67-2.23-2.51-3.34c-0.01,0-0.01,0-0.02,0c-0.04,1.08-0.08,2.16-0.12,3.24c-0.32-0.01-0.64-0.02-0.96-0.04
			C159.38,54.41,159.44,52.81,159.5,51.21z"/>
		<path class="st0" d="M168,51.55c0.43,0.02,0.85,0.04,1.28,0.05c0.72,1.63,1.43,3.26,2.14,4.89c-0.36-0.02-0.73-0.03-1.09-0.05
			c-0.15-0.34-0.29-0.69-0.44-1.03c-0.94-0.04-1.87-0.08-2.81-0.12c-0.17,0.33-0.35,0.66-0.52,0.99c-0.36-0.02-0.73-0.03-1.09-0.04
			C166.32,54.68,167.16,53.11,168,51.55z M167.61,54.36c0.62,0.03,1.24,0.05,1.85,0.08c-0.28-0.64-0.56-1.28-0.85-1.93
			C168.28,53.12,167.94,53.74,167.61,54.36z"/>
		<path class="st0" d="M176.92,51.95c-0.02,0.32-0.03,0.64-0.05,0.96c-0.59-0.03-1.18-0.06-1.77-0.08
			c-0.06,1.28-0.12,2.55-0.18,3.83c-0.32-0.02-0.64-0.03-0.96-0.05c0.06-1.28,0.12-2.55,0.18-3.83c-0.59-0.03-1.18-0.05-1.77-0.08
			c0.01-0.32,0.03-0.64,0.04-0.96C173.91,51.81,175.42,51.88,176.92,51.95z"/>
		<path class="st0" d="M179.84,52.1c-0.05,0.97-0.1,1.94-0.15,2.91c-0.03,0.57,0.09,1.07,1.3,1.13c1.28,0.07,1.38-0.48,1.41-0.99
			c0.05-0.97,0.1-1.94,0.15-2.91c0.32,0.02,0.64,0.03,0.96,0.05c-0.05,0.97-0.1,1.94-0.16,2.91c-0.05,1.01-0.59,2-2.43,1.9
			c-1.67-0.09-2.26-1-2.2-2.14c0.05-0.97,0.1-1.94,0.15-2.91C179.2,52.06,179.52,52.08,179.84,52.1z"/>
		<path class="st0" d="M189.11,52.6c0.89,0.05,1.72,0.43,1.65,1.51c-0.05,0.91-0.69,1.21-1.16,1.35c0.37,0.68,0.73,1.35,1.1,2.03
			c-0.4-0.02-0.81-0.05-1.21-0.07c-0.37-0.67-0.73-1.35-1.1-2.02c-0.51-0.03-1.03-0.06-1.54-0.09c-0.04,0.65-0.07,1.3-0.11,1.95
			c-0.32-0.02-0.64-0.04-0.96-0.05c0.09-1.6,0.18-3.19,0.26-4.79C187.07,52.48,188.09,52.54,189.11,52.6z M186.96,53.44
			c-0.02,0.3-0.03,0.61-0.05,0.91c0.7,0.04,1.4,0.08,2.1,0.12c0.29,0.02,0.77,0.01,0.8-0.42c0.03-0.44-0.41-0.48-0.74-0.5
			C188.36,53.52,187.66,53.48,186.96,53.44z"/>
		<path class="st0" d="M197.08,53.08c-0.02,0.32-0.04,0.64-0.06,0.96c-1.1-0.07-2.2-0.14-3.3-0.2c-0.02,0.29-0.04,0.58-0.05,0.87
			c0.58,0.04,1.16,0.07,1.74,0.11c-0.02,0.32-0.04,0.64-0.06,0.96c-0.58-0.04-1.16-0.07-1.74-0.11c-0.02,0.34-0.04,0.69-0.06,1.03
			c1.14,0.07,2.27,0.14,3.41,0.21c-0.02,0.32-0.04,0.64-0.06,0.96c-1.45-0.09-2.91-0.18-4.36-0.27c0.1-1.6,0.19-3.19,0.29-4.79
			C194.24,52.9,195.66,52.99,197.08,53.08z"/>
	</g>
</g>
</svg>
