<?xml version="1.0" encoding="utf-8"?>
<!-- Generator: Adobe Illustrator 24.0.0, SVG Export Plug-In . SVG Version: 6.00 Build 0)  -->
<svg version="1.1" id="Layer_1" xmlns="http://www.w3.org/2000/svg" xmlns:xlink="http://www.w3.org/1999/xlink" x="0px" y="0px"
	 viewBox="0 0 230.96 59.56" style="enable-background:new 0 0 230.96 59.56;" xml:space="preserve">
<style type="text/css">
	.st0{fill:#1D1C1A;}
	.st1{fill:#A6976D;}
</style>
<g>
	<g>
		<path class="st0" d="M226.55,0.78v0.56h-1.37v3.35h-0.56V1.34h-1.37V0.78H226.55z"/>
		<path class="st0" d="M227.73,1.95h-0.01v2.74h-0.56V0.78h0.56l1.34,2.43l1.34-2.43h0.56v3.91h-0.56V1.95h-0.01l-1.33,2.41
			L227.73,1.95z"/>
	</g>
</g>
<g>
	<path class="st0" d="M24.67,54.31c0.02,0.33,0.04,0.66,0.06,1c-0.61,0.04-1.23,0.07-1.84,0.11c0.08,1.32,0.16,2.65,0.24,3.97
		c-0.33,0.02-0.67,0.04-1,0.06c-0.08-1.32-0.16-2.65-0.24-3.97c-0.61,0.04-1.22,0.08-1.84,0.11c-0.02-0.33-0.04-0.66-0.06-1
		C21.55,54.5,23.11,54.4,24.67,54.31z"/>
	<path class="st0" d="M27.77,54.13c0.04,0.63,0.07,1.25,0.11,1.88c0.89-0.05,1.78-0.1,2.67-0.15c-0.03-0.63-0.07-1.25-0.1-1.88
		c0.33-0.02,0.67-0.04,1-0.06c0.09,1.66,0.18,3.31,0.27,4.97c-0.33,0.02-0.67,0.04-1,0.06c-0.04-0.7-0.08-1.39-0.12-2.09
		c-0.89,0.05-1.78,0.1-2.67,0.15c0.04,0.7,0.08,1.39,0.12,2.09c-0.33,0.02-0.67,0.04-1,0.06c-0.1-1.66-0.19-3.31-0.29-4.97
		C27.1,54.17,27.43,54.15,27.77,54.13z"/>
	<path class="st0" d="M38.64,53.54c0.02,0.33,0.03,0.67,0.05,1c-1.14,0.06-2.28,0.12-3.43,0.18c0.02,0.3,0.03,0.6,0.05,0.9
		c0.6-0.03,1.21-0.06,1.81-0.09c0.02,0.33,0.03,0.67,0.05,1c-0.6,0.03-1.2,0.06-1.81,0.09c0.02,0.36,0.04,0.72,0.06,1.07
		c1.18-0.06,2.36-0.12,3.53-0.18c0.02,0.33,0.03,0.67,0.05,1c-1.51,0.08-3.02,0.15-4.53,0.23c-0.09-1.66-0.18-3.31-0.26-4.97
		C35.68,53.69,37.16,53.62,38.64,53.54z"/>
	<path class="st0" d="M44.3,53.27c0.43,1.2,0.86,2.4,1.28,3.59c0.01,0,0.01,0,0.02,0c0.28-1.23,0.56-2.46,0.85-3.69
		c0.43-0.02,0.86-0.04,1.29-0.06c0.38,1.2,0.76,2.4,1.14,3.6c0.01,0,0.01,0,0.02,0c0.33-1.23,0.66-2.46,0.99-3.7
		c0.35-0.01,0.69-0.03,1.04-0.04c-0.45,1.68-0.89,3.36-1.34,5.04c-0.45,0.02-0.89,0.04-1.33,0.06c-0.37-1.2-0.74-2.4-1.11-3.6
		c-0.01,0-0.01,0-0.02,0c-0.26,1.23-0.53,2.46-0.79,3.69c-0.44,0.02-0.88,0.04-1.32,0.06c-0.59-1.63-1.17-3.27-1.76-4.9
		C43.61,53.3,43.96,53.28,44.3,53.27z"/>
	<path class="st0" d="M52.16,55.41c-0.06-1.39,0.99-2.68,2.96-2.76c1.98-0.08,3.11,1.12,3.16,2.52c0.05,1.39-1.01,2.68-2.96,2.76
		C53.37,58.01,52.22,56.81,52.16,55.41z M57.28,55.21c-0.03-0.86-0.88-1.61-2.12-1.56c-1.24,0.05-2.03,0.87-1.99,1.72
		c0.04,0.86,0.88,1.61,2.12,1.56C56.52,56.88,57.31,56.08,57.28,55.21z"/>
	<path class="st0" d="M60.6,52.6c0.33-0.01,0.67-0.02,1-0.04c0.95,1.09,1.9,2.18,2.85,3.27c0.01,0,0.01,0,0.02,0
		c-0.04-1.12-0.07-2.24-0.11-3.36c0.33-0.01,0.67-0.02,1-0.03c0.05,1.66,0.11,3.31,0.16,4.97c-0.33,0.01-0.67,0.02-1,0.03
		c-0.95-1.09-1.89-2.18-2.84-3.27c-0.01,0-0.01,0-0.02,0c0.04,1.12,0.08,2.24,0.12,3.36c-0.33,0.01-0.67,0.02-1,0.03
		C60.72,55.92,60.66,54.26,60.6,52.6z"/>
	<path class="st0" d="M70.78,52.28c1.15-0.03,2.54,0.49,2.59,2.34c0.04,1.64-0.96,2.59-2.45,2.63c-0.9,0.03-1.8,0.05-2.7,0.08
		c-0.05-1.66-0.1-3.31-0.15-4.97C68.97,52.33,69.87,52.3,70.78,52.28z M69.19,56.3c0.57-0.02,1.13-0.03,1.7-0.05
		c0.87-0.02,1.51-0.54,1.48-1.55c-0.03-1.17-0.78-1.45-1.56-1.43c-0.57,0.02-1.14,0.03-1.71,0.05
		C69.13,54.32,69.16,55.31,69.19,56.3z"/>
	<path class="st0" d="M78.77,52.08c0.93-0.02,1.81,0.3,1.83,1.43c0.02,0.95-0.62,1.31-1.08,1.49c0.44,0.67,0.87,1.34,1.31,2.01
		c-0.42,0.01-0.84,0.02-1.26,0.03c-0.43-0.67-0.87-1.33-1.31-2c-0.53,0.01-1.06,0.03-1.6,0.04c0.02,0.68,0.03,1.35,0.05,2.03
		c-0.33,0.01-0.67,0.02-1,0.03c-0.04-1.66-0.08-3.32-0.13-4.97C76.65,52.13,77.71,52.1,78.77,52.08z M76.62,53.13
		c0.01,0.32,0.02,0.63,0.02,0.95c0.73-0.02,1.45-0.04,2.18-0.05c0.3-0.01,0.8-0.06,0.79-0.5c-0.01-0.46-0.46-0.46-0.81-0.45
		C78.07,53.09,77.35,53.11,76.62,53.13z"/>
	<path class="st0" d="M82.48,54.49c-0.03-1.39,1.04-2.66,3.01-2.7c1.98-0.04,3.09,1.19,3.11,2.59c0.02,1.39-1.06,2.66-3.01,2.7
		C83.64,57.11,82.51,55.88,82.48,54.49z M87.6,54.39c-0.01-0.86-0.85-1.63-2.09-1.6c-1.24,0.02-2.05,0.83-2.03,1.68
		c0.02,0.86,0.85,1.63,2.09,1.6C86.81,56.05,87.62,55.25,87.6,54.39z"/>
	<path class="st0" d="M91.53,51.83c0.01,1.01,0.03,2.02,0.04,3.02c0.01,0.6,0.17,1.1,1.42,1.09c1.33-0.02,1.4-0.59,1.39-1.12
		c-0.01-1.01-0.03-2.02-0.04-3.02c0.33,0,0.67-0.01,1-0.01c0.01,1.01,0.02,2.02,0.04,3.02c0.01,1.05-0.48,2.11-2.39,2.13
		c-1.73,0.02-2.41-0.89-2.42-2.07c-0.02-1.01-0.03-2.02-0.05-3.02C90.86,51.84,91.19,51.84,91.53,51.83z"/>
	<path class="st0" d="M97.85,55.13c0.87,0.55,1.7,0.74,2.58,0.73c0.5,0,1.35-0.14,1.34-0.69c0-0.4-0.45-0.51-0.76-0.51
		c-0.5-0.01-0.99-0.02-1.49-0.04c-1.22-0.02-1.83-0.72-1.83-1.49c-0.01-0.74,0.53-1.53,2.33-1.55c1.31-0.01,2.12,0.48,2.42,0.63
		c-0.15,0.3-0.3,0.59-0.45,0.89c-0.4-0.2-1.12-0.53-2.11-0.52c-0.53,0-1.18,0.13-1.18,0.57c0,0.38,0.55,0.47,0.89,0.47
		c0.43,0.01,0.87,0.02,1.3,0.04c1.15,0.02,1.88,0.51,1.89,1.55c0.01,0.89-0.69,1.64-2.33,1.65c-1.35,0.01-2.34-0.32-3.04-0.84
		C97.55,55.73,97.7,55.43,97.85,55.13z"/>
	<path class="st0" d="M111.36,51.68c0.97,0,1.8,0.42,1.8,1.57c0,1.11-0.77,1.6-1.8,1.6c-0.66,0-1.33,0-1.99,0c0,0.6,0,1.2,0,1.8
		c-0.33,0-0.67,0-1,0c0-1.66-0.01-3.32-0.01-4.97C109.36,51.69,110.36,51.68,111.36,51.68z M109.37,53.87c0.66,0,1.33,0,1.99,0
		c0.39,0,0.8-0.05,0.8-0.61c0-0.53-0.44-0.58-0.8-0.58c-0.67,0-1.33,0-2,0C109.37,53.08,109.37,53.47,109.37,53.87z"/>
	<path class="st0" d="M114.66,54.17c0-1.39,1.1-2.64,3.07-2.63c1.98,0.01,3.06,1.25,3.05,2.65c-0.01,1.39-1.12,2.63-3.07,2.63
		C115.76,56.81,114.66,55.56,114.66,54.17z M119.78,54.19c0-0.86-0.81-1.65-2.05-1.65c-1.24,0-2.06,0.78-2.06,1.64
		c0,0.86,0.81,1.64,2.05,1.65C118.96,55.82,119.78,55.05,119.78,54.19z"/>
	<path class="st0" d="M122.96,51.72c0.36,1.22,0.73,2.44,1.09,3.66c0.01,0,0.01,0,0.02,0c0.35-1.21,0.69-2.43,1.04-3.64
		c0.43,0,0.86,0.01,1.29,0.01c0.32,1.22,0.63,2.44,0.95,3.66c0.01,0,0.01,0,0.02,0c0.39-1.21,0.79-2.43,1.18-3.64
		c0.35,0,0.69,0.01,1.04,0.01c-0.54,1.65-1.07,3.3-1.6,4.96c-0.45,0-0.89-0.01-1.34-0.01c-0.31-1.22-0.61-2.44-0.92-3.66
		c-0.01,0-0.01,0-0.02,0c-0.33,1.21-0.66,2.43-0.98,3.64c-0.44,0-0.88-0.01-1.32-0.01c-0.5-1.66-1-3.32-1.5-4.98
		C122.27,51.71,122.62,51.71,122.96,51.72z"/>
	<path class="st0" d="M135.48,51.86c-0.01,0.33-0.01,0.67-0.02,1c-1.14-0.02-2.29-0.03-3.43-0.05c0,0.3-0.01,0.6-0.01,0.9
		c0.6,0.01,1.21,0.02,1.81,0.02c0,0.33-0.01,0.67-0.01,1c-0.6-0.01-1.21-0.02-1.81-0.02c0,0.36-0.01,0.72-0.01,1.08
		c1.18,0.02,2.36,0.03,3.54,0.05c-0.01,0.33-0.01,0.67-0.02,1c-1.51-0.02-3.02-0.04-4.54-0.06c0.02-1.66,0.04-3.32,0.06-4.97
		C132.53,51.81,134.01,51.83,135.48,51.86z"/>
	<path class="st0" d="M140.76,51.95c0.93,0.02,1.8,0.38,1.77,1.5c-0.02,0.95-0.67,1.28-1.15,1.45c0.41,0.69,0.81,1.37,1.22,2.06
		c-0.42-0.01-0.84-0.02-1.26-0.02c-0.41-0.68-0.81-1.37-1.22-2.05c-0.53-0.01-1.07-0.02-1.6-0.03c-0.01,0.68-0.02,1.35-0.04,2.03
		c-0.33-0.01-0.67-0.01-1-0.02c0.03-1.66,0.06-3.32,0.08-4.97C138.64,51.91,139.7,51.93,140.76,51.95z M138.57,52.91
		c-0.01,0.32-0.01,0.63-0.02,0.95c0.73,0.01,1.45,0.03,2.18,0.04c0.3,0.01,0.8-0.02,0.81-0.46c0.01-0.46-0.44-0.48-0.79-0.49
		C140.02,52.93,139.29,52.92,138.57,52.91z"/>
	<path class="st0" d="M147.79,54.59c0.03-1.39,1.16-2.62,3.13-2.56c1.98,0.05,3.03,1.32,2.99,2.72c-0.04,1.39-1.18,2.61-3.13,2.56
		C148.83,57.25,147.75,55.98,147.79,54.59z M152.9,54.72c0.02-0.86-0.77-1.66-2.02-1.7c-1.24-0.03-2.08,0.74-2.1,1.59
		c-0.02,0.86,0.78,1.66,2.02,1.69C152.04,56.34,152.88,55.58,152.9,54.72z"/>
	<path class="st0" d="M157.24,57.33c-0.33-0.01-0.67-0.02-1-0.03c0.05-1.66,0.1-3.32,0.15-4.97c1.48,0.04,2.96,0.09,4.43,0.14
		c-0.01,0.33-0.02,0.67-0.03,1c-1.14-0.04-2.29-0.07-3.43-0.11c-0.01,0.3-0.02,0.6-0.03,0.9c0.6,0.02,1.21,0.04,1.81,0.06
		c-0.01,0.33-0.02,0.67-0.03,1c-0.6-0.02-1.21-0.04-1.81-0.06C157.28,55.95,157.26,56.64,157.24,57.33z"/>
	<path class="st0" d="M166.38,52.66c0.33,0.01,0.67,0.02,1,0.04c0.87,1.15,1.74,2.31,2.61,3.46c0.01,0,0.01,0,0.02,0
		c0.04-1.12,0.09-2.24,0.13-3.36c0.33,0.01,0.67,0.03,1,0.04c-0.07,1.66-0.13,3.31-0.2,4.97c-0.33-0.01-0.67-0.03-1-0.04
		c-0.87-1.15-1.73-2.31-2.6-3.46c-0.01,0-0.01,0-0.02,0c-0.04,1.12-0.08,2.24-0.12,3.36c-0.33-0.01-0.67-0.02-1-0.04
		C166.26,55.97,166.32,54.31,166.38,52.66z"/>
	<path class="st0" d="M175.2,53c0.44,0.02,0.89,0.04,1.33,0.06c0.74,1.69,1.49,3.38,2.22,5.08c-0.38-0.02-0.76-0.03-1.13-0.05
		c-0.15-0.36-0.3-0.71-0.45-1.07c-0.97-0.04-1.94-0.08-2.91-0.12c-0.18,0.34-0.36,0.68-0.54,1.02c-0.38-0.02-0.76-0.03-1.13-0.05
		C173.45,56.25,174.33,54.63,175.2,53z M174.79,55.92c0.64,0.03,1.28,0.05,1.92,0.08c-0.29-0.67-0.58-1.33-0.88-2
		C175.49,54.64,175.14,55.28,174.79,55.92z"/>
	<path class="st0" d="M184.46,53.42c-0.02,0.33-0.03,0.67-0.05,1c-0.61-0.03-1.23-0.06-1.84-0.09c-0.06,1.32-0.13,2.65-0.19,3.97
		c-0.33-0.02-0.67-0.03-1-0.05c0.06-1.32,0.12-2.65,0.19-3.97c-0.61-0.03-1.23-0.06-1.84-0.08c0.02-0.33,0.03-0.67,0.05-1
		C181.34,53.27,182.9,53.35,184.46,53.42z"/>
	<path class="st0" d="M187.49,53.57c-0.05,1.01-0.1,2.01-0.15,3.02c-0.03,0.6,0.1,1.11,1.35,1.18c1.33,0.07,1.43-0.49,1.46-1.03
		c0.05-1.01,0.11-2.01,0.16-3.02c0.33,0.02,0.67,0.04,1,0.05c-0.05,1.01-0.11,2.01-0.16,3.02c-0.06,1.05-0.61,2.07-2.52,1.97
		c-1.73-0.09-2.34-1.04-2.29-2.22c0.05-1.01,0.1-2.01,0.15-3.02C186.82,53.54,187.15,53.56,187.49,53.57z"/>
	<path class="st0" d="M197.11,54.09c0.93,0.05,1.78,0.45,1.71,1.57c-0.06,0.95-0.72,1.26-1.2,1.4c0.38,0.7,0.76,1.4,1.14,2.11
		c-0.42-0.02-0.84-0.05-1.26-0.07c-0.38-0.7-0.76-1.4-1.14-2.1c-0.53-0.03-1.06-0.06-1.6-0.09c-0.04,0.67-0.08,1.35-0.11,2.02
		c-0.33-0.02-0.67-0.04-1-0.06c0.09-1.66,0.18-3.31,0.27-4.97C194.99,53.97,196.05,54.03,197.11,54.09z M194.88,54.97
		c-0.02,0.32-0.04,0.63-0.05,0.95c0.72,0.04,1.45,0.08,2.17,0.12c0.3,0.02,0.8,0.01,0.83-0.43c0.03-0.46-0.43-0.5-0.77-0.52
		C196.33,55.05,195.6,55.01,194.88,54.97z"/>
	<path class="st0" d="M205.38,54.59c-0.02,0.33-0.04,0.66-0.06,1c-1.14-0.07-2.28-0.14-3.43-0.21c-0.02,0.3-0.04,0.6-0.05,0.9
		c0.6,0.04,1.2,0.07,1.81,0.11c-0.02,0.33-0.04,0.66-0.06,1c-0.6-0.04-1.2-0.07-1.81-0.11c-0.02,0.36-0.04,0.72-0.06,1.07
		c1.18,0.07,2.36,0.14,3.53,0.22c-0.02,0.33-0.04,0.66-0.06,1c-1.51-0.1-3.02-0.19-4.53-0.28c0.1-1.66,0.2-3.31,0.3-4.97
		C202.42,54.41,203.9,54.5,205.38,54.59z"/>
</g>
<g>
	<path class="st0" d="M48.08,32.88c0.56,4.15,1.74,8.13,3.07,11.09c-4.52,0.18-9.03,0.39-13.54,0.61c0.6-3.13-0.83-10.38-1.78-16.89
		c-3.09,5.99-6.19,12.05-9.28,18.19c-0.65,0.04-1.31,0.08-1.97,0.12c-3.07-5.83-6.13-11.73-9.2-17.7
		C14.2,35.14,13.13,41.15,13.31,46c-4.08,0.27-8.15,0.56-12.22,0.86c1.38-3.06,2.55-7.39,3.34-12.18
		C6.43,23.24,8.44,11.9,10.45,0.66h3.67c4.21,9,8.41,17.84,12.62,26.54c4.5-9,9-17.84,13.49-26.54h3.33
		C45.06,11.45,46.57,22.19,48.08,32.88"/>
	<path class="st1" d="M11.03,1.33c-2,11.18-3.99,22.44-5.93,33.47c-0.72,4.37-1.76,8.34-2.96,11.32c3.48-0.26,6.99-0.51,10.46-0.74
		c-0.07-4.63,0.89-10.16,1.99-16.52l0.46-2.69L16,27.99c2.92,5.67,5.94,11.49,8.99,17.31l1.12-0.07c2.94-5.85,6.01-11.85,9.11-17.85
		l0.98-1.91l0.31,2.11c0.2,1.38,0.42,2.79,0.64,4.19c0.76,4.8,1.47,9.35,1.24,12.09c3.89-0.19,7.83-0.37,11.74-0.53
		c-1.27-3.07-2.26-6.79-2.74-10.37c-1.48-10.5-2.96-21.04-4.45-31.63h-2.3c-4.67,9.04-9.02,17.6-13.31,26.17l-0.63,1.25l-0.61-1.26
		c-4.26-8.82-8.44-17.62-12.44-26.16H11.03z M0,47.62l0.46-1.02c1.33-2.96,2.5-7.23,3.29-12.02C5.71,23.36,7.74,11.92,9.78,0.55
		L9.87,0h4.69l0.18,0.39c3.85,8.25,7.89,16.74,12,25.27C30.88,17.4,35.1,9.1,39.62,0.37L39.81,0h4.34l0.08,0.58
		c1.51,10.79,3.02,21.52,4.53,32.21c0.51,3.81,1.62,7.79,3.02,10.91l0.4,0.89l-1,0.04c-4.51,0.18-9.06,0.39-13.54,0.61l-0.87,0.04
		l0.16-0.83c0.45-2.35-0.36-7.5-1.14-12.47c-0.11-0.7-0.22-1.41-0.33-2.11c-2.83,5.48-5.61,10.95-8.3,16.29l-0.18,0.35l-2.81,0.17
		l-0.21-0.39c-2.8-5.32-5.57-10.66-8.26-15.88c-1.04,6.02-1.88,11.25-1.72,15.56l0.03,0.64l-0.66,0.04
		c-4.05,0.28-8.17,0.57-12.22,0.87L0,47.62z"/>
	<path class="st0" d="M104.35,29.87c0.47,8.22-6.15,13.36-15.31,13.57c-4.49,0.11-6.94-0.99-10.85-0.72
		c-0.24-4.18-0.47-8.38-0.71-12.56c2.52,2.68,7.65,4.35,11.11,4.28c2.24-0.05,3.25-1.19,3.25-2.73c-0.02-6.51-12.8-7.6-13.43-17.49
		C77.9,6.11,83.25,0.99,93,0.92c3.21-0.03,5.82,1.11,8.9,0.41c0.22,3.95,0.43,7.9,0.65,11.85c-2.08-2.35-4.91-3.76-8.9-3.65
		c-2.12,0.05-3.25,1.14-3.16,2.68C90.74,16.65,103.69,18.16,104.35,29.87"/>
	<path class="st1" d="M79.44,42.01c1.52,0,2.82,0.18,4.2,0.37c1.6,0.22,3.27,0.45,5.39,0.4c4.93-0.11,9.08-1.69,11.7-4.45
		c2.11-2.22,3.13-5.13,2.94-8.42c-0.39-6.91-5.23-10.07-9.12-12.61c-2.48-1.62-4.63-3.02-4.74-5.05c-0.05-0.88,0.22-1.65,0.78-2.24
		c0.68-0.71,1.73-1.11,3.05-1.14c0.14-0.01,0.28-0.01,0.41-0.01c3.04,0,5.63,0.88,7.73,2.63l-0.51-9.36
		c-0.47,0.07-0.96,0.1-1.48,0.1c-1.12,0-2.22-0.16-3.28-0.32c-1.09-0.16-2.21-0.32-3.39-0.32h-0.11c-4.86,0.03-8.7,1.37-11.1,3.87
		c-2.06,2.15-3.03,5.16-2.81,8.72c0.32,5.09,4.01,7.67,7.57,10.16c3.01,2.1,5.84,4.08,5.85,7.37c0.01,2.08-1.46,3.35-3.91,3.39
		l-0.22,0c-3.03,0-7.3-1.23-10.12-3.36l0.58,10.28C79.04,42.02,79.24,42.01,79.44,42.01 M88.44,44.12c-1.95,0-3.5-0.21-4.99-0.42
		c-1.33-0.18-2.59-0.36-4.01-0.36c-0.4,0-0.79,0.01-1.19,0.04l-0.69,0.05L76.7,28.33l1.3,1.38c2.36,2.51,7.23,4.06,10.39,4.06
		l0.19,0c1.18-0.02,2.58-0.4,2.57-2.06c-0.01-2.61-2.46-4.32-5.29-6.3c-3.65-2.55-7.78-5.43-8.14-11.16
		c-0.25-3.93,0.85-7.29,3.17-9.71C83.57,1.78,87.75,0.29,93,0.25l0.11,0c1.28,0,2.46,0.17,3.59,0.34c1.06,0.16,2.06,0.3,3.08,0.3
		c0.7,0,1.34-0.07,1.96-0.21l0.8-0.18l0.8,14.6l-1.31-1.48c-2.11-2.39-4.84-3.5-8.36-3.42c-0.94,0.02-1.65,0.27-2.07,0.71
		c-0.31,0.33-0.45,0.75-0.42,1.27c0.07,1.36,1.87,2.53,4.13,4.01c3.93,2.56,9.29,6.07,9.73,13.65c0.21,3.66-0.93,6.91-3.3,9.4
		c-2.87,3.02-7.37,4.75-12.68,4.88C88.85,44.11,88.64,44.12,88.44,44.12"/>
	<path class="st0" d="M145.14,1.15c0,3.6,0,7.21,0,10.81c-1.78-0.13-6.7-0.78-10.8-0.8c-0.46,0-0.91-0.01-1.37-0.01
		c-0.06,2.24-0.06,5.21-0.06,7.76c0,4.39,0.01,8.77,0.01,13.16c0,4.12,0.19,8.37,0.76,10.87c-4.4-0.07-8.8-0.12-13.2-0.15
		c0.56-2.87,0.75-6.71,0.75-10.82c0-4.37,0-8.75,0-13.12c0-2.54-0.06-5.5-0.18-7.74c-0.45,0-0.91,0-1.36,0
		c-4.03-0.01-8.9,0.61-10.68,0.73V1.15c1.78,0.12,12.36,1.19,18.28,1.12C132.96,2.2,143.36,1.28,145.14,1.15"/>
	<path class="st1" d="M121.3,42.14c3.84,0.03,7.72,0.07,11.56,0.13c-0.5-2.85-0.61-7.04-0.61-10.19l-0.01-13.16
		c0-2.45,0-5.5,0.06-7.78l0.01-0.65l2.04,0.01c3.07,0.01,6.6,0.38,8.93,0.62c0.44,0.05,0.83,0.09,1.18,0.12l-0.01-9.36
		c-0.3,0.02-0.65,0.05-1.05,0.08c-3.72,0.3-11.46,0.93-16.1,0.98c-4.79,0.05-12.67-0.63-16.39-0.96c-0.47-0.04-0.88-0.08-1.22-0.11
		v9.26c0.36-0.03,0.77-0.07,1.23-0.12c2.27-0.22,5.71-0.56,8.7-0.56l2.08,0l0.03,0.63c0.11,2.1,0.18,5.01,0.18,7.77l0,13.12
		C121.93,36.26,121.72,39.6,121.3,42.14 M134.55,43.63l-0.87-0.01c-4.38-0.07-8.82-0.12-13.2-0.15l-0.82,0l0.15-0.79
		c0.5-2.55,0.74-6.05,0.74-10.69l0-13.12c0-2.47-0.06-5.06-0.15-7.08h-0.78c-2.92,0-6.31,0.33-8.56,0.55
		c-0.84,0.08-1.53,0.15-2.01,0.18l-0.73,0.05l0-12.14l0.73,0.05c0.35,0.02,1.05,0.08,1.98,0.16c3.69,0.32,11.52,1.02,16.25,0.96
		c4.6-0.05,12.3-0.67,16-0.97c0.84-0.07,1.47-0.12,1.8-0.14l0.73-0.05l0.01,12.25l-0.74-0.06c-0.46-0.03-1.14-0.1-1.96-0.19
		c-2.31-0.24-5.79-0.6-8.79-0.61l-0.7,0c-0.04,2.17-0.04,4.88-0.04,7.1l0.01,13.16c0,3.4,0.13,8.03,0.74,10.72L134.55,43.63z"/>
	<path class="st0" d="M173.19,32.97c-0.01-6.8-0.01-13.59-0.02-20.39c0-4.3-0.18-7.61-0.7-11.16c4.24,0.15,8.48,0.31,12.72,0.47
		c4.03,0.01,10.73-0.16,13.06-0.7c0,3.62,0,7.24,0.01,10.85c-2.61-0.52-6.29-0.81-10.32-0.86c-1.05-0.02-2.09-0.03-3.14-0.04
		c0,2.89,0,5.79,0.01,8.68c0.69,0.01,1.38,0.03,2.08,0.05c4.09,0.1,7.26-0.09,9.66-0.48c0,3.61,0,7.22,0.01,10.83
		c-2.23-0.7-5.57-0.93-9.66-1.07c-0.69-0.02-1.38-0.05-2.08-0.07c0,1.43,0,2.87,0,4.31c0,4.3,0.09,8.42,0.7,11.34
		c-4.34-0.23-8.67-0.43-13.01-0.62C173.01,41.6,173.19,37.21,173.19,32.97"/>
	<path class="st1" d="M173.31,43.47c3.78,0.16,7.6,0.35,11.38,0.54c-0.51-3.03-0.56-7.05-0.56-10.63l0-5l2.78,0.09
		c3.74,0.13,6.74,0.33,8.95,0.86l0-9.17c-1.94,0.26-4.26,0.4-6.93,0.4c-0.66,0-1.35-0.01-2.07-0.02l-2.74-0.06l-0.01-10.01
		l3.84,0.05c3.73,0.05,7.11,0.3,9.62,0.73l-0.01-9.25c-2.93,0.44-8.85,0.56-12.18,0.56h-0.2c-3.99-0.15-7.96-0.3-11.93-0.44
		c0.42,3.17,0.6,6.27,0.6,10.47l0.01,20.39C173.87,35.65,173.8,40.39,173.31,43.47 M186.36,45.43l-0.88-0.05
		c-4.31-0.22-8.69-0.43-13.01-0.62l-0.8-0.03l0.16-0.76c0.44-2.14,0.68-6.05,0.67-11l-0.01-20.39c0-4.48-0.2-7.69-0.69-11.07
		l-0.11-0.79l0.82,0.03c4.24,0.15,8.48,0.31,12.72,0.47h0.17c4.7,0,10.68-0.21,12.71-0.68l0.84-0.19l0.01,12.51l-0.82-0.16
		c-2.5-0.49-6.12-0.8-10.19-0.85l-2.45-0.03l0,7.36l1.41,0.03c0.71,0.02,1.39,0.03,2.04,0.03c2.96,0,5.49-0.17,7.5-0.5l0.8-0.13
		l0.01,12.53l-0.9-0.28c-2.12-0.67-5.32-0.9-9.48-1.04l-1.37-0.05v3.62c0,3.86,0.06,8.22,0.69,11.21L186.36,45.43z"/>
	<path class="st0" d="M218.21,34.94c0,5.55,0.17,9.01,1.15,11.93c-4.61-0.35-9.23-0.67-13.85-0.98c1.15-3.33,1.15-5.54,1.14-11.56
		c0-7.08,0-14.17-0.01-21.25c0-4.42-0.65-9.6-1.16-11.63c4.62,0,9.25,0.01,13.87,0.02c-0.49,1.83-1.15,7.32-1.15,11.84V34.94z"/>
	<path class="st1" d="M206.42,45.28c3.98,0.26,8.01,0.55,12,0.85c-0.75-2.76-0.9-6.06-0.9-11.19l0-21.64
		c0-4.15,0.52-8.85,0.98-11.18l-12.17-0.01c0.46,2.35,0.99,6.86,0.99,10.97l0.01,21.32C207.34,39.93,207.34,42.29,206.42,45.28
		 M220.33,47.61l-1.02-0.08c-4.6-0.35-9.25-0.67-13.85-0.98l-0.89-0.06l0.28-0.82c1.11-3.21,1.11-5.41,1.11-11.28l-0.01-21.32
		c0-4.49-0.67-9.64-1.13-11.48l-0.21-0.82l15.63,0.02l-0.22,0.83c-0.46,1.71-1.13,7.11-1.13,11.67v21.64
		c0,5.59,0.17,8.93,1.11,11.72L220.33,47.61z"/>
	<path class="st0" d="M164.01,32.69c0,5.18,0.17,8.41,1.16,11.11c-4.62-0.17-9.25-0.33-13.87-0.46c1.15-3.18,1.14-5.26,1.14-10.94
		c0-6.68-0.01-13.36-0.01-20.04c0-4.17-0.65-9.05-1.16-10.97c4.63,0,9.25,0,13.87,0.01c-0.49,1.71-1.15,6.84-1.14,11.07
		C164,19.21,164.01,25.95,164.01,32.69"/>
	<path class="st1" d="M152.24,42.71c3.96,0.11,7.98,0.25,11.98,0.39c-0.74-2.55-0.89-5.64-0.9-10.41l-0.01-20.22
		c0-3.85,0.51-8.2,0.96-10.4l-12.15-0.01c0.46,2.23,0.99,6.46,0.99,10.3l0.01,20.09C153.13,37.65,153.13,39.88,152.24,42.71
		 M166.16,44.51l-1.02-0.04c-4.63-0.17-9.29-0.33-13.87-0.46l-0.94-0.02l0.32-0.86c1.11-3.06,1.11-5.13,1.1-10.66l-0.01-20.1
		c0-4.23-0.67-9.07-1.14-10.8l-0.22-0.83l15.66,0.01l-0.25,0.84c-0.45,1.6-1.12,6.63-1.12,10.89l0.02,20.22
		c0,5.21,0.18,8.32,1.12,10.89L166.16,44.51z"/>
	<path class="st0" d="M69.48,32.38c0,5.13,0.16,8.33,1.14,10.93c-4.62,0.12-9.24,0.27-13.87,0.44c1.16-3.28,1.16-5.37,1.16-11.09
		c0-6.73,0.01-13.46,0.02-20.19c0-4.2-0.64-9.12-1.14-11.05c4.62,0,9.25,0,13.87-0.01c-0.49,1.69-1.16,6.77-1.16,10.96
		C69.48,19.03,69.48,25.7,69.48,32.38"/>
	<path class="st1" d="M57.63,2.07c0.46,2.26,0.98,6.53,0.97,10.39l-0.01,20.26c0,5.19-0.01,7.44-0.89,10.33
		c3.99-0.14,8.02-0.27,11.98-0.39c-0.75-2.49-0.89-5.53-0.89-10.29l0.01-20.02c0-3.81,0.52-8.11,0.98-10.29L57.63,2.07z
		 M55.78,44.45l0.32-0.92c1.12-3.16,1.12-5.25,1.12-10.81l0.02-20.26c0-4.3-0.65-9.09-1.12-10.89L55.9,0.74l15.65-0.01L71.3,1.58
		c-0.46,1.57-1.13,6.55-1.13,10.78l-0.01,20.02c0,5.16,0.16,8.23,1.1,10.7l0.33,0.87l-0.96,0.03c-4.58,0.12-9.25,0.27-13.86,0.44
		L55.78,44.45z"/>
</g>
</svg>
