<?xml version="1.0" encoding="utf-8"?>
<!-- Generator: Adobe Illustrator 24.0.0, SVG Export Plug-In . SVG Version: 6.00 Build 0)  -->
<svg version="1.1" id="Layer_1" xmlns="http://www.w3.org/2000/svg" xmlns:xlink="http://www.w3.org/1999/xlink" x="0px" y="0px"
	 viewBox="0 0 119.79 117.36" style="enable-background:new 0 0 119.79 117.36;" xml:space="preserve">
<style type="text/css">
	.st0{fill:url(#SVGID_1_);}
	.st1{fill:#1D1D1B;}
</style>
<g>
	<linearGradient id="SVGID_1_" gradientUnits="userSpaceOnUse" x1="7.5318" y1="97.4844" x2="116.0014" y2="34.8594">
		<stop  offset="0" style="stop-color:#A9996E"/>
		<stop  offset="0.386" style="stop-color:#E4D4B0"/>
		<stop  offset="1" style="stop-color:#A9996E"/>
	</linearGradient>
	<path class="st0" d="M32.21,108.46c0.22-0.94,0.54-2.03,0.92-3.15l-0.04-0.06l0.57-1.42c0.56-1.48,1.24-3,1.99-4.49
		c0.31-0.62,0.59-1.15,0.85-1.58L39,99.09l-2.44-1.43c0.25-0.44,0.5-0.86,0.75-1.28c-0.73,0.03-1.46,0.05-2.17,0.05
		c-13.61-0.02-24.48-5.66-27.51-7.4l-0.15-0.09L0,84.44l7.48-4.49c1.21-0.71,5.49-3.09,11.73-5c1.42-0.43,2.88-0.82,4.34-1.15
		l0.02-0.01l0.35-0.07C18.58,68.84,13.91,62.88,10,55.97C7,50.7,5.49,46.67,5.1,45.56l-2.77-8.13l8.45,1.17l0,0
		c1.06,0.14,5.41,0.89,11.23,2.87c8.59,2.95,16.11,7.07,22.36,12.24c0.59,0.49,1.17,0.99,1.75,1.51c-0.44-3.25-0.66-6.45-0.66-9.58
		c0.02-19.44,8.23-34.9,9.87-37.8L59.9,0l4.56,7.83L64.5,7.9c1.63,2.87,9.84,18.34,9.87,37.76c-0.02,3.16-0.24,6.37-0.68,9.59
		c0.58-0.52,1.17-1.03,1.76-1.52c6.25-5.17,13.77-9.29,22.36-12.24c5.76-1.96,10.23-2.75,11.22-2.88l8.46-1.17l-2.77,8.07l-0.01,0
		c-0.46,1.46-2.11,5.57-4.88,10.47c-3.96,6.93-8.63,12.89-13.94,17.74l0.11,0.02l0.01,0.02c8.43,1.86,14.5,5.14,16.22,6.15
		l7.55,4.54l-7.6,4.59l-0.04,0.02c-3.17,1.81-14.01,7.36-27.48,7.39c-0.72,0-1.45-0.02-2.18-0.05c0.23,0.38,0.47,0.78,0.7,1.19
		c0.5,0.85,0.9,1.59,1.18,2.21l0,0.01c1.9,3.84,2.83,7.05,3.21,8.64l0.03,0.1l0,0.04l1.96,8.8l-8.77-2.68l-0.05-0.02
		c-2.49-0.84-10.64-4-17.2-11.09c-1.33-1.46-2.55-3.03-3.67-4.71c-1.11,1.66-2.34,3.23-3.67,4.69c-6.62,7.16-14.84,10.31-17.21,11.1
		l-0.04,0.02l-8.74,2.69L32.21,108.46z"/>
	<path class="st1" d="M110.86,86.77l3.43-2.07l-3.43-2.06c-0.15-0.08-7.18-4.35-17.22-6.22c-2.09,1.68-4.46,2.92-6.89,4.02
		c2.91,0.15,5.67,0.61,8.21,1.2c-0.81-0.04-1.63-0.06-2.47-0.02c-5.59,0.21-10.45,2.31-12.96,3.65c0.68,0.3,1.55,0.63,2.53,0.96
		c2.78,0.91,6.57,1.81,10.67,1.63c1.22-0.04,2.4-0.19,3.54-0.39c-3.45,0.91-7.42,1.57-11.59,1.57c-6.14,0.01-11.82-1.45-16.1-2.98
		c0.57-0.17,1.18-0.38,1.79-0.58c6.19-2.11,14.19-5.72,21.47-11.74c7.26-6.03,12.28-13.22,15.53-18.91
		c3.21-5.68,4.66-9.88,4.67-9.99l1.27-3.71l-3.89,0.54c-0.1,0.01-4.5,0.64-10.69,2.75c-6.2,2.13-14.19,5.72-21.47,11.74
		c-0.85,0.71-1.67,1.43-2.45,2.16c-0.5,1.46-2.07,5.61-2.07,5.61s2.26-1.85,3.76-2.87c1.51-1.03,5.43-3.43,5.43-3.43
		s-4.57,4.05-6.64,7.36c-2.07,3.31-4.72,7.78-5.35,10.51c0,0,4.74-0.76,12.36-5.51C89.7,65.36,96.2,58.83,96.2,58.83
		s-3.55,8.75-11,14.58c-8.08,6.33-14.81,8.15-18.42,8.67c-3.16,0.45-4.57,0.46-4.57,0.46s1.2-2.4,3.36-8.11
		c1.15-3.05,2.45-6.83,3.49-10.23c1.39-5.35,2.43-11.59,2.46-18.29C71.5,25.69,62.08,9.66,61.97,9.46l-2.08-3.57l-2.08,3.57
		c-0.1,0.2-9.51,16.23-9.53,36.45c0,5.82,0.8,11.28,1.91,16.12c1.1,3.89,2.73,8.68,4.13,12.4c2.16,5.71,3.36,8.11,3.36,8.11
		s-1.41,0-4.57-0.46c-3.61-0.52-10.34-2.33-18.42-8.67c-7.45-5.84-11-14.58-11-14.58s6.5,6.53,13.92,11.16
		c7.62,4.75,12.36,5.51,12.36,5.51c-0.63-2.73-3.28-7.2-5.35-10.51c-2.07-3.31-6.64-7.36-6.64-7.36s3.92,2.4,5.43,3.43
		c1.51,1.03,3.76,2.87,3.76,2.87s-1.47-3.9-2.02-5.47c-0.83-0.78-1.69-1.55-2.59-2.3c-7.29-6.03-15.28-9.61-21.47-11.74
		c-6.2-2.11-10.58-2.74-10.71-2.75l-3.89-0.54l1.26,3.71c0.04,0.11,1.48,4.31,4.71,9.99c3.22,5.69,8.25,12.88,15.52,18.91
		c7.26,6.02,15.26,9.63,21.46,11.74c0.61,0.2,1.21,0.4,1.79,0.58c-4.27,1.53-9.95,2.99-16.1,2.98c-4.18,0-8.13-0.66-11.57-1.57
		c1.13,0.2,2.3,0.34,3.51,0.39c4.1,0.18,7.9-0.72,10.67-1.63c1-0.33,1.84-0.66,2.53-0.96c-2.51-1.33-7.37-3.44-12.93-3.65
		c-0.87-0.04-1.71-0.02-2.55,0.03c2.55-0.6,5.33-1.06,8.26-1.21c-2.43-1.1-4.78-2.34-6.88-4.02c-10.03,1.87-17.09,6.15-17.23,6.22
		L5.49,84.7l3.44,2.07c0.18,0.09,11.63,7.05,26.19,7.08c8.98-0.01,16.79-2.67,21.49-4.73c-1.23,2.84-3.16,6.4-6.03,9.5
		c-2.97,3.23-6.49,5.52-9.27,6.97c1.22-2.88,3.17-6.59,6.16-9.82c0.28-0.31,0.58-0.6,0.88-0.9c-1.96,0.54-4.49,1.02-7.43,1.4
		c-4.55,6.56-5.93,12.99-5.98,13.17l-0.89,4.04l3.96-1.22c0.2-0.08,9.12-2.79,16.12-10.36c2.53-2.77,4.41-5.72,5.76-8.39
		c1.36,2.66,3.24,5.62,5.76,8.39c7,7.58,15.92,10.28,16.12,10.36l3.98,1.22l-0.9-4.04c-0.06-0.19-1.43-6.62-5.99-13.17
		c-2.94-0.38-5.46-0.85-7.43-1.4c0.31,0.29,0.59,0.59,0.87,0.9c2.99,3.23,4.96,6.94,6.17,9.82c-2.79-1.45-6.31-3.73-9.27-6.97
		c-2.88-3.1-4.81-6.65-6.03-9.5c4.69,2.06,12.5,4.73,21.49,4.73C99.25,93.83,110.67,86.86,110.86,86.77z M59.89,71.65
		c-2.26-5.02-5.87-14.74-5.85-25.74c0-6.84,1.39-13.18,2.97-18.21c-0.63,2.93-1.09,6.23-1.09,9.71c-0.02,8.1,2.43,15.26,3.96,18.95
		c0.41-0.98,0.89-2.22,1.36-3.66c1.31-3.93,2.61-9.36,2.61-15.29c0-3.44-0.44-6.71-1.06-9.62c1.58,5.01,2.96,11.32,2.95,18.11
		c0,8.06-1.92,15.44-3.85,20.77C61.21,68.64,60.51,70.32,59.89,71.65z"/>
</g>
</svg>
