<?xml version="1.0" encoding="utf-8"?>
<!-- Generator: Adobe Illustrator 24.0.0, SVG Export Plug-In . SVG Version: 6.00 Build 0)  -->
<svg version="1.1" id="Layer_1" xmlns="http://www.w3.org/2000/svg" xmlns:xlink="http://www.w3.org/1999/xlink" x="0px" y="0px"
	 viewBox="0 0 120.22 118.88" style="enable-background:new 0 0 120.22 118.88;" xml:space="preserve">
<style type="text/css">
	.st0{fill:#1D1D1D;}
</style>
<path class="st0" d="M116.42,89.37l3.79-2.29l-3.79-2.28c-0.16-0.08-7.93-4.81-19.02-6.88c-2.31,1.86-4.93,3.23-7.61,4.44
	c3.21,0.16,6.27,0.67,9.07,1.33c-0.89-0.05-1.8-0.07-2.73-0.03c-6.18,0.23-11.55,2.56-14.32,4.03c0.76,0.33,1.71,0.7,2.79,1.06
	c3.07,1.01,7.26,2,11.79,1.8c1.35-0.05,2.65-0.21,3.91-0.43c-3.81,1-8.19,1.74-12.81,1.74c-6.78,0.01-13.06-1.6-17.79-3.29
	c0.63-0.19,1.3-0.41,1.98-0.64c6.84-2.33,15.68-6.32,23.72-12.97c8.02-6.66,13.57-14.61,17.16-20.9c3.54-6.28,5.15-10.92,5.16-11.04
	l1.41-4.1l-4.3,0.6c-0.12,0.01-4.98,0.71-11.81,3.04c-6.85,2.35-15.68,6.32-23.73,12.97c-0.94,0.78-1.84,1.58-2.71,2.39
	c-0.56,1.61-2.29,6.2-2.29,6.2s2.49-2.04,4.16-3.18c1.66-1.13,6-3.79,6-3.79s-5.04,4.48-7.33,8.13c-2.29,3.66-5.22,8.6-5.92,11.61
	c0,0,5.24-0.84,13.66-6.09c8.19-5.11,15.38-12.33,15.38-12.33s-3.93,9.67-12.15,16.11c-8.93,7-16.37,9-20.35,9.58
	c-3.49,0.5-5.04,0.51-5.04,0.51s1.32-2.65,3.71-8.96c1.28-3.37,2.71-7.54,3.86-11.3c1.54-5.91,2.69-12.81,2.72-20.21
	C72.93,21.88,62.52,4.17,62.4,3.94L60.11,0l-2.3,3.94C57.7,4.17,47.31,21.88,47.28,44.22c0,6.43,0.88,12.47,2.11,17.81
	c1.22,4.29,3.01,9.59,4.57,13.7c2.39,6.31,3.71,8.96,3.71,8.96s-1.55-0.01-5.04-0.51c-3.99-0.57-11.42-2.58-20.35-9.58
	c-8.23-6.45-12.15-16.11-12.15-16.11s7.18,7.21,15.38,12.33c8.42,5.25,13.66,6.09,13.66,6.09c-0.7-3.01-3.63-7.95-5.92-11.61
	c-2.29-3.66-7.33-8.13-7.33-8.13s4.34,2.65,6,3.79c1.66,1.13,4.16,3.18,4.16,3.18s-1.63-4.31-2.23-6.05
	c-0.92-0.86-1.87-1.71-2.86-2.54c-8.06-6.66-16.88-10.62-23.73-12.97c-6.85-2.33-11.69-3.03-11.83-3.04l-4.3-0.6l1.4,4.1
	c0.04,0.12,1.64,4.76,5.2,11.04c3.56,6.29,9.12,14.23,17.15,20.9c8.02,6.65,16.86,10.64,23.72,12.97c0.68,0.22,1.34,0.45,1.98,0.64
	c-4.72,1.69-10.99,3.3-17.79,3.29c-4.62,0-8.98-0.73-12.79-1.73c1.25,0.22,2.54,0.38,3.88,0.43c4.53,0.2,8.73-0.79,11.79-1.8
	c1.1-0.37,2.04-0.73,2.79-1.06c-2.78-1.47-8.15-3.8-14.29-4.03c-0.96-0.04-1.89-0.02-2.81,0.03c2.81-0.67,5.89-1.17,9.12-1.33
	c-2.69-1.22-5.28-2.59-7.6-4.44C11.75,80,3.95,84.72,3.8,84.8L0,87.08l3.8,2.29c0.2,0.1,12.85,7.79,28.94,7.82
	c9.93-0.01,18.55-2.95,23.74-5.23c-1.36,3.14-3.49,7.07-6.66,10.49c-3.29,3.57-7.17,6.09-10.24,7.7c1.34-3.18,3.51-7.28,6.8-10.85
	c0.31-0.34,0.64-0.67,0.97-0.99c-2.16,0.6-4.96,1.12-8.21,1.55c-5.03,7.25-6.55,14.35-6.61,14.56l-0.99,4.47l4.37-1.34
	c0.22-0.09,10.08-3.08,17.81-11.45c2.79-3.06,4.88-6.33,6.36-9.27c1.51,2.94,3.58,6.21,6.37,9.27c7.74,8.37,17.59,11.36,17.81,11.45
	l4.4,1.34l-1-4.47c-0.06-0.21-1.58-7.31-6.61-14.56c-3.25-0.42-6.04-0.94-8.21-1.55c0.34,0.33,0.65,0.65,0.96,0.99
	c3.3,3.57,5.48,7.67,6.82,10.85c-3.08-1.6-6.97-4.12-10.24-7.7c-3.18-3.42-5.31-7.35-6.67-10.49c5.18,2.28,13.81,5.22,23.74,5.23
	C103.6,97.17,116.21,89.47,116.42,89.37z M60.11,72.67c-2.5-5.54-6.49-16.29-6.46-28.44c0-7.56,1.53-14.56,3.29-20.12
	c-0.7,3.24-1.2,6.88-1.2,10.73c-0.02,8.95,2.68,16.86,4.38,20.94c0.46-1.08,0.98-2.45,1.5-4.04c1.45-4.34,2.88-10.34,2.88-16.9
	c0-3.8-0.48-7.41-1.17-10.63c1.75,5.54,3.27,12.5,3.26,20.01c0,8.91-2.12,17.06-4.26,22.95C61.56,69.34,60.78,71.2,60.11,72.67z"/>
</svg>
