<?xml version="1.0" encoding="utf-8"?>
<!-- Generator: Adobe Illustrator 24.0.0, SVG Export Plug-In . SVG Version: 6.00 Build 0)  -->
<svg version="1.1" id="Layer_1" xmlns="http://www.w3.org/2000/svg" xmlns:xlink="http://www.w3.org/1999/xlink" x="0px" y="0px"
	 viewBox="0 0 118.77 117.44" style="enable-background:new 0 0 118.77 117.44;" xml:space="preserve">
<style type="text/css">
	.st0{fill:url(#SVGID_1_);}
</style>
<linearGradient id="SVGID_1_" gradientUnits="userSpaceOnUse" x1="6.549" y1="97.374" x2="115.4071" y2="34.5248">
	<stop  offset="0" style="stop-color:#A9996E"/>
	<stop  offset="0.386" style="stop-color:#E4D4B0"/>
	<stop  offset="1" style="stop-color:#A9996E"/>
</linearGradient>
<path class="st0" d="M115.02,88.3l3.75-2.26l-3.75-2.25c-0.16-0.08-7.84-4.75-18.8-6.79c-2.29,1.83-4.87,3.19-7.52,4.39
	c3.18,0.16,6.19,0.66,8.96,1.32c-0.88-0.05-1.78-0.07-2.7-0.03c-6.1,0.23-11.41,2.52-14.15,3.98c0.75,0.33,1.69,0.69,2.76,1.05
	c3.03,1,7.18,1.97,11.64,1.78c1.33-0.05,2.62-0.21,3.86-0.43c-3.77,0.99-8.09,1.72-12.66,1.72c-6.7,0.01-12.9-1.58-17.57-3.25
	c0.62-0.19,1.28-0.41,1.95-0.63c6.75-2.3,15.49-6.24,23.44-12.81c7.92-6.58,13.4-14.43,16.95-20.65c3.5-6.2,5.08-10.79,5.1-10.91
	l1.39-4.05l-4.25,0.59c-0.11,0.01-4.92,0.7-11.67,3C95,44.39,86.28,48.3,78.33,54.88c-0.93,0.77-1.82,1.56-2.68,2.36
	c-0.55,1.59-2.26,6.12-2.26,6.12s2.46-2.02,4.11-3.14c1.64-1.12,5.93-3.74,5.93-3.74s-4.98,4.42-7.25,8.04
	c-2.26,3.61-5.15,8.49-5.84,11.47c0,0,5.17-0.83,13.49-6.02c8.1-5.05,15.19-12.18,15.19-12.18S95.13,67.34,87,73.71
	c-8.82,6.91-16.17,8.89-20.11,9.46c-3.45,0.5-4.98,0.5-4.98,0.5s1.31-2.62,3.67-8.85c1.26-3.33,2.68-7.45,3.81-11.17
	c1.52-5.84,2.65-12.65,2.69-19.96C72.05,21.62,61.77,4.12,61.65,3.9L59.38,0l-2.27,3.9C57,4.12,46.74,21.62,46.71,43.69
	c0,6.35,0.87,12.32,2.08,17.6c1.2,4.24,2.97,9.48,4.51,13.53c2.36,6.23,3.67,8.85,3.67,8.85s-1.53-0.01-4.98-0.5
	c-3.94-0.57-11.29-2.55-20.11-9.46c-8.13-6.37-12.01-15.92-12.01-15.92s7.1,7.13,15.19,12.18c8.32,5.19,13.49,6.02,13.49,6.02
	c-0.69-2.97-3.58-7.86-5.84-11.47c-2.26-3.61-7.25-8.04-7.25-8.04s4.28,2.62,5.93,3.74c1.64,1.12,4.11,3.14,4.11,3.14
	s-1.61-4.26-2.21-5.97c-0.91-0.85-1.85-1.69-2.83-2.51C32.5,48.3,23.78,44.39,17.02,42.06c-6.76-2.3-11.55-2.99-11.69-3l-4.25-0.59
	l1.38,4.05c0.04,0.12,1.62,4.7,5.14,10.91c3.52,6.21,9.01,14.06,16.94,20.65c7.92,6.57,16.66,10.51,23.43,12.81
	c0.67,0.22,1.32,0.44,1.95,0.63c-4.66,1.67-10.86,3.26-17.57,3.25c-4.56,0-8.88-0.73-12.63-1.71c1.23,0.22,2.51,0.38,3.83,0.42
	c4.48,0.19,8.63-0.78,11.64-1.78c1.09-0.36,2.01-0.73,2.76-1.05c-2.74-1.46-8.05-3.75-14.11-3.98c-0.95-0.04-1.87-0.02-2.78,0.03
	c2.78-0.66,5.82-1.16,9.01-1.32c-2.66-1.2-5.22-2.56-7.51-4.39C11.61,79.03,3.9,83.7,3.76,83.78L0,86.03l3.76,2.26
	c0.2,0.1,12.69,7.7,28.59,7.73c9.81-0.01,18.33-2.92,23.46-5.17c-1.35,3.11-3.45,6.98-6.58,10.36c-3.25,3.53-7.08,6.02-10.11,7.6
	c1.33-3.14,3.47-7.19,6.72-10.72c0.31-0.33,0.63-0.66,0.96-0.98c-2.14,0.59-4.9,1.11-8.11,1.53c-4.97,7.16-6.47,14.18-6.53,14.38
	l-0.98,4.41l4.32-1.33c0.22-0.09,9.96-3.04,17.6-11.31c2.76-3.03,4.82-6.25,6.29-9.16c1.49,2.91,3.54,6.13,6.29,9.16
	c7.64,8.27,17.38,11.22,17.6,11.31l4.34,1.33l-0.99-4.41c-0.06-0.2-1.56-7.22-6.53-14.38c-3.21-0.42-5.96-0.93-8.11-1.53
	c0.33,0.32,0.64,0.65,0.95,0.98c3.26,3.53,5.41,7.58,6.74,10.72c-3.04-1.58-6.89-4.07-10.11-7.6c-3.14-3.38-5.25-7.26-6.59-10.36
	c5.12,2.25,13.64,5.16,23.46,5.17C102.35,96,114.81,88.39,115.02,88.3z M59.38,71.79c-2.47-5.47-6.41-16.09-6.39-28.1
	c0-7.47,1.52-14.38,3.25-19.87c-0.69,3.2-1.19,6.8-1.19,10.6c-0.02,8.84,2.65,16.66,4.32,20.69c0.45-1.07,0.97-2.42,1.48-3.99
	c1.43-4.29,2.85-10.22,2.85-16.69c0-3.76-0.48-7.32-1.16-10.5c1.73,5.47,3.23,12.35,3.22,19.77c0,8.8-2.09,16.85-4.2,22.68
	C60.82,68.5,60.05,70.34,59.38,71.79z"/>
</svg>
